<svg xmlns="http://www.w3.org/2000/svg" viewBox="0 0 49.99 35.67"><defs><style>.cls-1{fill:#d6d6d6;}.cls-1,.cls-2,.cls-3{isolation:isolate;}.cls-1,.cls-2{opacity:0.71;}.cls-2,.cls-3{fill:#fff;}.cls-3{opacity:0.95;}</style></defs><g id="Layer_2" data-name="Layer 2"><g id="Layer_1-2" data-name="Layer 1"><path class="cls-1" d="M8.61,15a8.33,8.33,0,0,0,1.26.65Zm11.78-1.6a10.29,10.29,0,0,1-.91,1.35,6.4,6.4,0,0,1-1.79,1.61,4.37,4.37,0,0,1-1.29.52,3.9,3.9,0,0,1,.51.63A4.37,4.37,0,0,0,18.2,17,6.36,6.36,0,0,0,20,15.38a8.29,8.29,0,0,0,.55-.77,7,7,0,0,1-.15-1.21ZM21.58,4A4.34,4.34,0,0,1,22,4.7a5,5,0,0,1,.46,2.08l.4-.44a4.53,4.53,0,0,0-.34-1A4.67,4.67,0,0,0,21.58,4Zm-8-2-.06.61a8.59,8.59,0,0,1,3.88,1,13.62,13.62,0,0,1,2.5,1.6l.06,0a3.37,3.37,0,0,0-.57-.68,12.9,12.9,0,0,0-2.49-1.57A8.1,8.1,0,0,0,13.6,2.05ZM13.15.57l0,.41L13,2.05h-.34a4,4,0,0,0-1.53.29A3.41,3.41,0,0,0,9.9,3.2,15.22,15.22,0,0,0,8.47,4.77a4.07,4.07,0,0,0-.75,1.62A13.9,13.9,0,0,0,7.33,9a1,1,0,0,1,.31,1.16,1.11,1.11,0,0,1-.17.3,3.43,3.43,0,0,0,.4,1,3,3,0,0,0,.57.66l0,0a4.29,4.29,0,0,1-.55-2.25A13,13,0,0,1,8.25,7,4.07,4.07,0,0,1,9,5.34a17.73,17.73,0,0,1,1.43-1.58,3.6,3.6,0,0,1,1.26-.85,4,4,0,0,1,1.53-.28h.34l0-.58H13l.07-1,0-.41"/><path class="cls-1" d="M26.5,20.18l.68.29a9.85,9.85,0,0,0,1.09.34,10.23,10.23,0,0,0-1.76-.62Zm7.74-4A10.41,10.41,0,0,1,33.11,18a6.1,6.1,0,0,1-1.75,1.57,5,5,0,0,1-.73.36,3,3,0,0,1,.51.62,6.56,6.56,0,0,0,.76-.35,6.25,6.25,0,0,0,1.75-1.57,10.31,10.31,0,0,0,.8-1.26,6.08,6.08,0,0,1-.22-1.19Zm1-8.9a3.43,3.43,0,0,1,.41.81,4.82,4.82,0,0,1,.26,1.46l.37-.44a2.22,2.22,0,0,0-.12-.39A3.71,3.71,0,0,0,35.21,7.3ZM28.67,6l0,.58a8,8,0,0,1,1.62.26A8.06,8.06,0,0,1,32,7.57c.43.24.82.45,1.12.66a3.68,3.68,0,0,1,.51.37l-.07-.13a2.8,2.8,0,0,0-.94-.87c-.31-.21-.69-.42-1.12-.66a8.17,8.17,0,0,0-1.76-.79,9.63,9.63,0,0,0-1.07-.21Zm-.46-1.49v.41l-.07,1H27.8a4,4,0,0,0-1.53.28A3.51,3.51,0,0,0,25,7a17.73,17.73,0,0,0-1.43,1.58,4.12,4.12,0,0,0-.77,1.64A11.87,11.87,0,0,0,22.42,13,4.27,4.27,0,0,0,23,15.27a3.18,3.18,0,0,0,.54.67l0,0a4.24,4.24,0,0,1-.54-2.23,13.12,13.12,0,0,1,.39-2.79,4.16,4.16,0,0,1,.75-1.64A17.88,17.88,0,0,1,25.5,7.65a3.6,3.6,0,0,1,1.26-.85,4.24,4.24,0,0,1,1.53-.29h.34l0-.58c-.17,0-.36,0-.55,0l.07-1V4.45"/><path class="cls-1" d="M46,21.29A5.36,5.36,0,0,1,45,22a5.1,5.1,0,0,1-1.24.55l.16.22.24.26.12.15a5.27,5.27,0,0,0,1.24-.55,5.51,5.51,0,0,0,1-.78,2.06,2.06,0,0,0-.12-.26,1.33,1.33,0,0,0-.19-.14,1,1,0,0,1-.22-.18ZM48.81,9.7a3.71,3.71,0,0,1,.41.85,4.88,4.88,0,0,1,.27,1.7,10.13,10.13,0,0,1-.19,1.82,19.27,19.27,0,0,1-.88,3.25,13.07,13.07,0,0,1-1.05,2.24,3.86,3.86,0,0,1,.54.6,15.23,15.23,0,0,0,1-2.21,20.26,20.26,0,0,0,.88-3.25A11.11,11.11,0,0,0,50,12.88a5.12,5.12,0,0,0-.26-1.7A4.08,4.08,0,0,0,48.8,9.7ZM42.39,8.36l0,.57a7.87,7.87,0,0,1,1.59.26,8.46,8.46,0,0,1,1.71.77c.42.25.8.46,1.1.67a5.2,5.2,0,0,1,.47.35l-.06-.11a2.94,2.94,0,0,0-.92-.87c-.31-.21-.68-.42-1.11-.66a7.76,7.76,0,0,0-1.71-.78,5.75,5.75,0,0,0-1-.2Zm-.54-.06h-.33A4,4,0,0,0,40,8.58a3.69,3.69,0,0,0-1.24.86A16.13,16.13,0,0,0,37.39,11a4.1,4.1,0,0,0-.74,1.63,13.3,13.3,0,0,0-.39,2.8,4.4,4.4,0,0,0,.51,2.25,3.89,3.89,0,0,0,.56.71l0-.08a4.31,4.31,0,0,1-.51-2.25,12.11,12.11,0,0,1,.39-2.8,4,4,0,0,1,.74-1.63,16.13,16.13,0,0,1,1.4-1.58,3.51,3.51,0,0,1,1.21-.84A3.83,3.83,0,0,1,42,9h.34l0-.58c-.18,0-.36,0-.56,0"/><path class="cls-1" d="M46.45,21.61a2.24,2.24,0,0,0-.31-.43l-.11.11a1,1,0,0,0,.23.18Z"/><path class="cls-1" d="M48.77,21.3a4,4,0,0,0-.74-1l.23.37a4.48,4.48,0,0,1,.51,2.06,4.32,4.32,0,0,1-.19,1.23A4.28,4.28,0,0,1,47.05,26a4.34,4.34,0,0,1-2,.79h-.63a16.47,16.47,0,0,1-.93,3.07,11.2,11.2,0,0,1-1.79,3,6.37,6.37,0,0,1-1.82,1.48,5.26,5.26,0,0,1-2.51.67,6.68,6.68,0,0,1-2.25-.45c-.71-.25-1.41-.55-2.19-.83A8.45,8.45,0,0,1,31,32.81a5.55,5.55,0,0,1-1-.85,5.53,5.53,0,0,0,1.53,1.48,8.88,8.88,0,0,0,1.9,1c.78.28,1.48.58,2.19.83a6.68,6.68,0,0,0,2.25.45A5.26,5.26,0,0,0,40.32,35a6.05,6.05,0,0,0,1.82-1.48,10.77,10.77,0,0,0,1.78-3,16.5,16.5,0,0,0,.94-3.07h.24a4.35,4.35,0,0,0,2.46-.8,4.23,4.23,0,0,0,1.53-2.05,4.32,4.32,0,0,0,.19-1.23A4.41,4.41,0,0,0,48.77,21.3Z"/><path class="cls-1" d="M44.55,24.76h.07a1.47,1.47,0,0,0,.36,0,3.58,3.58,0,0,0-.19-.66,3.51,3.51,0,0,0-.48-.84l-.12-.15a3,3,0,0,0-.24-.26,2.8,2.8,0,0,1,.32.62A4.05,4.05,0,0,1,44.55,24.76Z"/><path class="cls-1" d="M42.22,23.9a2.87,2.87,0,0,0-1-.83c-.33-.19-.73-.4-1.18-.63a9.4,9.4,0,0,0-1.84-.73,6.55,6.55,0,0,0-1.16-.2l0,.58a7.82,7.82,0,0,1,3.54,1c.45.23.85.44,1.17.62a5.13,5.13,0,0,1,.59.41A1.28,1.28,0,0,0,42.22,23.9Z"/><path class="cls-1" d="M36.52,21.47l.06-1-.06,1h-.36a4.17,4.17,0,0,0-3,1.09A17.34,17.34,0,0,0,31.7,24a3.53,3.53,0,0,0-.76,1.49,10.51,10.51,0,0,0-.4,2.56,3.61,3.61,0,0,0,.54,2.05,3.1,3.1,0,0,0,.45.51,3.6,3.6,0,0,1-.48-1.93,10.53,10.53,0,0,1,.41-2.56,3.62,3.62,0,0,1,.75-1.49,17.33,17.33,0,0,1,1.49-1.48,4.18,4.18,0,0,1,3-1.09H37l0-.57Z"/><path class="cls-1" d="M28.56,29A9.61,9.61,0,0,1,27,30.81,6.18,6.18,0,0,1,25.1,32a5.72,5.72,0,0,1-2,.36,12.3,12.3,0,0,1-3.83-.8,9.19,9.19,0,0,1-2-.94,6.13,6.13,0,0,1-1.25-1,.61.61,0,0,0,.07.1,6.05,6.05,0,0,0,1.69,1.54,9.66,9.66,0,0,0,2,.94A12.57,12.57,0,0,0,23.6,33a5.28,5.28,0,0,0,2-.36,6.08,6.08,0,0,0,1.89-1.18A10,10,0,0,0,28.78,30a6.12,6.12,0,0,1-.23-1Zm2.07-9.09a3.16,3.16,0,0,1,.47,1.73l.38-.35a3,3,0,0,0-.34-.76,3,3,0,0,0-.51-.61Zm-6.89-.72v.59a15.26,15.26,0,0,1,2.77.38,9.67,9.67,0,0,1,1.76.62,4.11,4.11,0,0,1,.73.43.87.87,0,0,0-.16-.26,2.8,2.8,0,0,0-1.1-.79,8,8,0,0,1-1.08-.35c-.23-.08-.46-.18-.69-.28A14,14,0,0,0,23.74,19.21Zm-.51-.91v.87h-.41a5,5,0,0,0-3.34,1.13,17.66,17.66,0,0,0-1.63,1.49c-.08.1-.16.18-.22.27a11,11,0,0,1-.54,1.8c-.14.34-.27.65-.42.93a7.87,7.87,0,0,0-.09,1.08A4,4,0,0,0,16.72,27a2.77,2.77,0,0,0,.45.93,2.6,2.6,0,0,0,.38.43,2.8,2.8,0,0,1-.32-.73,4,4,0,0,1-.13-1.09,9.67,9.67,0,0,1,.43-2.56,3.64,3.64,0,0,1,.83-1.5A19.05,19.05,0,0,1,20,21a5,5,0,0,1,3.34-1.13h.41v-.61l-.51,0,.05-.87"/><path class="cls-1" d="M5.38,10.06l-.19.07a2.73,2.73,0,0,0-.83.68,1.67,1.67,0,0,0-.31.44,1.4,1.4,0,0,0-.06.41,2.56,2.56,0,0,0,0,.39.62.62,0,0,0,0,.21c.16-.09.33-.18.51-.26l0-.12a1.67,1.67,0,0,1,.31-.44,3.26,3.26,0,0,1,.65-.58A7.1,7.1,0,0,1,5.38,10.06Zm2-1.13v.2a5.41,5.41,0,0,0,.14,1.26,1.09,1.09,0,0,0,.2-.93A1,1,0,0,0,7.37,8.93Z"/><path class="cls-1" d="M1.74,24.47a12,12,0,0,0,.93,1.08,11.41,11.41,0,0,0,3.62,2.56,10.73,10.73,0,0,0,3.36.76h.13l.4,0c.51-.06,1.22-.19,1.91-.33L13,28.3l.37-.1.35-.13a5,5,0,0,0,1-.6,4.73,4.73,0,0,1-.18-.91,4.67,4.67,0,0,1-1.31.89,2.09,2.09,0,0,1-.35.13l-.38.1c-.27.07-.6.14-.95.21a19.16,19.16,0,0,1-1.9.33,2.83,2.83,0,0,1-.41,0H9.13a10.52,10.52,0,0,1-3.36-.76,11.06,11.06,0,0,1-3.61-2.56l-.42-.44ZM17.62,22a3.39,3.39,0,0,0-.6,1.22,13.2,13.2,0,0,0-.35,1.51c.14-.28.28-.59.41-.93A10.1,10.1,0,0,0,17.62,22ZM16.4,16.85a6.3,6.3,0,0,1,.46.85,4.73,4.73,0,0,1,.4,1.54v.25l.39-.33a5.69,5.69,0,0,0-.29-.82,5.36,5.36,0,0,0-.46-.85,3.9,3.9,0,0,0-.51-.63ZM8,14.32l-.15.3.74.37,1.26.65c.85.45,1.66.87,2.78,1.44.51.26,1,.43,1.39.61a3.28,3.28,0,0,1,.76.46,2.34,2.34,0,0,0-.36-.51,3,3,0,0,0-.9-.58c-.37-.18-.85-.35-1.38-.61-1.13-.57-1.93-1-2.79-1.44a9.05,9.05,0,0,1-1.28-.65l-.07,0Zm-1.8-.68a1.84,1.84,0,0,0-.73.16,3.44,3.44,0,0,0-.78.47,3.2,3.2,0,0,0-.86,1c-.21.38-.42.86-.72,1.48A8.77,8.77,0,0,0,2,20.31a3.55,3.55,0,0,0,.14,1,4.79,4.79,0,0,0,1.16,1.9,4.09,4.09,0,0,1-.63-1.25,3.46,3.46,0,0,1-.12-1,8.7,8.7,0,0,1,1.08-3.62c.3-.62.51-1.1.73-1.48a3.14,3.14,0,0,1,.84-1A4.37,4.37,0,0,1,6,14.43a1.83,1.83,0,0,1,.73-.15,2.23,2.23,0,0,1,1.1.32h0L8,14.3,7.37,14l0-.12,0,.12h0a2.23,2.23,0,0,0-1.09-.32"/><path class="cls-2" d="M49.32,14.05a11.13,11.13,0,0,0,.19-1.82,5.4,5.4,0,0,0-.27-1.7,3.37,3.37,0,0,0-.42-.85,4.23,4.23,0,0,0-.88-1,12.71,12.71,0,0,0-1.79-1.16A9.62,9.62,0,0,0,44,6.6a9.45,9.45,0,0,0-2-.34h-.48a5.69,5.69,0,0,0-2.26.44A5.54,5.54,0,0,0,37.28,8c-.36.38-.71.73-1,1.11l-.37.44a4.54,4.54,0,0,0-.27-1.46,3.4,3.4,0,0,0-.4-.81,4.62,4.62,0,0,0-.92-1,12.64,12.64,0,0,0-1.82-1.19,9.84,9.84,0,0,0-2.18-1,9.34,9.34,0,0,0-2-.33h-.51a5.83,5.83,0,0,0-2.29.44A5.72,5.72,0,0,0,23.52,5.6l-.7.73-.4.44A5,5,0,0,0,22,4.69,4.34,4.34,0,0,0,21.58,4,6.08,6.08,0,0,0,20.1,2.56a22.79,22.79,0,0,0-2.18-1.3A10.73,10.73,0,0,0,13.19,0H12.7a5.83,5.83,0,0,0-2.3.42,5.92,5.92,0,0,0-2,1.31A20.61,20.61,0,0,0,6.84,3.5,6.22,6.22,0,0,0,5.75,5.88,16.82,16.82,0,0,0,5.37,8a3.1,3.1,0,0,0-1.07.29A4.63,4.63,0,0,0,2.84,9.45a3.64,3.64,0,0,0-.68,1A3.41,3.41,0,0,0,2,11.65a4.66,4.66,0,0,0,0,.65c0,.18,0,.35.07.52a2.19,2.19,0,0,0,.29.73l.09.14a5.69,5.69,0,0,0-.33.52c-.32.54-.51,1.06-.8,1.62A10.66,10.66,0,0,0,0,20.34a5.72,5.72,0,0,0,.21,1.54,6.82,6.82,0,0,0,1.53,2.61l.42.44a11.06,11.06,0,0,0,3.61,2.56,10.52,10.52,0,0,0,3.36.76h.13a2.83,2.83,0,0,0,.41,0c.51-.06,1.22-.18,1.9-.33.35-.07.68-.14.95-.21l.38-.1a2.09,2.09,0,0,0,.35-.13,4.67,4.67,0,0,0,1.31-.89,5.26,5.26,0,0,0,1.38,3.05,6.47,6.47,0,0,0,1.26,1,9,9,0,0,0,2,.94,12.3,12.3,0,0,0,3.83.8,5.7,5.7,0,0,0,2-.36A6.11,6.11,0,0,0,27,30.82,9.93,9.93,0,0,0,28.53,29a7.29,7.29,0,0,0,.23,1,5.35,5.35,0,0,0,.63,1.21,4.63,4.63,0,0,0,.55.69,5.84,5.84,0,0,0,1,.84,8.48,8.48,0,0,0,1.9,1c.78.27,1.48.58,2.19.83A6.67,6.67,0,0,0,37.3,35a5.26,5.26,0,0,0,2.51-.67,6.17,6.17,0,0,0,1.82-1.47,11.36,11.36,0,0,0,1.79-3,16.8,16.8,0,0,0,.93-3.08H45A4.24,4.24,0,0,0,47,26,4.18,4.18,0,0,0,48.55,24a4.27,4.27,0,0,0,.19-1.23,4.44,4.44,0,0,0-.51-2.05c-.07-.13-.15-.25-.23-.37l-.11-.16a4.22,4.22,0,0,0-.53-.6,13.07,13.07,0,0,0,1-2.24A19.43,19.43,0,0,0,49.32,14.05ZM35.84,15.7a4.7,4.7,0,0,0,1.67,3.78,11.14,11.14,0,0,0,4,1.82c.4.24.64.6,1.06.72-.45,0-.8-.37-1.16-.51a7.34,7.34,0,0,1-4.63-2.12,4.11,4.11,0,0,1-.9-1.73A4.06,4.06,0,0,1,35.84,15.7Zm-1.39,1.69A5.37,5.37,0,0,0,35,18.74a4.4,4.4,0,0,0,.51.69,6.26,6.26,0,0,0-3.73,1.62l-.31.3-.38.36a3.51,3.51,0,0,0-.13-1,3.46,3.46,0,0,0-.34-.76,4.84,4.84,0,0,0,.72-.36A6.14,6.14,0,0,0,33.12,18a11,11,0,0,0,1.12-1.82A6.52,6.52,0,0,0,34.45,17.39ZM23.67,7.44c-2.17,2.25-2.09,5.38-1.72,8.3C20.83,13.05,20.93,9.13,23.67,7.44ZM9.74,1.87a11.27,11.27,0,0,0-3.46,8.25v.29a2.46,2.46,0,0,1-.07-.29A7.12,7.12,0,0,1,6.05,8,8,8,0,0,1,7.16,4.49,7.88,7.88,0,0,1,9.74,1.87ZM4,11.25a1.63,1.63,0,0,1,.3-.44,2.77,2.77,0,0,1,.84-.68l.19-.07a7,7,0,0,0,.14.8,5.32,5.32,0,0,0,.25.77,4,4,0,0,0-1,.28l-.2.09c-.18.08-.35.17-.51.26a1,1,0,0,0,0-.21,2.56,2.56,0,0,1,0-.39A1.14,1.14,0,0,1,4,11.25Zm-.4-1.41A5.36,5.36,0,0,1,3,12.21a2.27,2.27,0,0,1,0-1.29A2.17,2.17,0,0,1,3.63,9.84ZM1.31,22.44a6.11,6.11,0,0,1,2-6.58A11,11,0,0,0,1.31,22.44Zm13.36,0a12.24,12.24,0,0,1-1,1.91c-.07.1-.12.19-.18.29a2.64,2.64,0,0,1-1.11.93l-.18.05c-.35.1-1.05.25-1.68.37l-.86.16-.3,0h-.1a8.68,8.68,0,0,1-2.71-.61,9.17,9.17,0,0,1-3-2.13c-.1-.09-.18-.19-.27-.28A4.76,4.76,0,0,1,2.2,21.29a3.54,3.54,0,0,1-.13-1,8.91,8.91,0,0,1,1.08-3.59c.3-.62.51-1.1.73-1.48a3,3,0,0,1,.85-1,4.37,4.37,0,0,1,.78-.47,1.83,1.83,0,0,1,.73-.15A2.23,2.23,0,0,1,7.33,14h0l.66.33.08,0A7.56,7.56,0,0,0,9.37,15c.85.44,1.66.87,2.78,1.43.51.27,1,.44,1.39.62a2.92,2.92,0,0,1,.92.6,2,2,0,0,1,.35.51,2.58,2.58,0,0,1,.19.37,2.94,2.94,0,0,1,.24.83v.37a7.45,7.45,0,0,1-.58,2.72Zm.74-7.57A6.85,6.85,0,0,1,13,14.3c-.89-.34-1.82-.79-2.74-1.16h0l-1.1-.57c-.08-.06-.17-.11-.24-.17s-.3-.24-.44-.37a3.23,3.23,0,0,1-.54-.68,3.43,3.43,0,0,1-.4-1,5.41,5.41,0,0,1-.14-1.26v-.2a13.9,13.9,0,0,1,.39-2.56,4.21,4.21,0,0,1,.75-1.62A16.44,16.44,0,0,1,9.94,3.16a3.69,3.69,0,0,1,1.26-.85A4,4,0,0,1,12.73,2h.34a2.36,2.36,0,0,1,.56,0,8.1,8.1,0,0,1,3.29,1,13.06,13.06,0,0,1,2.5,1.59,2.91,2.91,0,0,1,.57.69l.13.23a2.92,2.92,0,0,1,.26,1.27,4.68,4.68,0,0,1-.09.91,16.32,16.32,0,0,1-1.32,4,9.81,9.81,0,0,1-1.08,1.75,4.34,4.34,0,0,1-1.22,1.12,2.4,2.4,0,0,1-1.27.29Zm1,2a4.26,4.26,0,0,0,1.29-.52,6.44,6.44,0,0,0,1.8-1.61,11.31,11.31,0,0,0,.9-1.35,7.15,7.15,0,0,0,.16,1.22,5.54,5.54,0,0,0,.67,1.7,5.91,5.91,0,0,0,.64.85,6.81,6.81,0,0,0-3.76,1.61l-.48.42-.38.33v-.26a4.75,4.75,0,0,0-.41-1.53,5.36,5.36,0,0,0-.46-.85Zm6.69,13.46A10.84,10.84,0,0,1,20,29.6a7.91,7.91,0,0,1-1.62-.74,4,4,0,0,1-.73-.57,3,3,0,0,1-.84-1.37,4,4,0,0,1-.14-1.08,9.83,9.83,0,0,1,.09-1.08c.09-.51.21-1,.35-1.51A3.7,3.7,0,0,1,17.62,22l.22-.27a19.05,19.05,0,0,1,1.63-1.49,5,5,0,0,1,3.35-1.13h.41l.54,0a13.84,13.84,0,0,1,2.22.34c.23.1.46.2.69.28a8.49,8.49,0,0,0,1.08.35,2.78,2.78,0,0,1,1.08.81.94.94,0,0,1,.14.26v.06a1.33,1.33,0,0,1,.05.4,7.22,7.22,0,0,1-.36,1.78,18,18,0,0,1-1.11,3.19,8.14,8.14,0,0,1-1.93,2.61,4.28,4.28,0,0,1-1.26.8,3.5,3.5,0,0,1-1.28.24Zm1.86.47c2.77-1.26,4-4,5.22-6.62C29.66,27,28,30.25,25,30.76Zm3.93-12.51a3.71,3.71,0,0,1-.48-.05,11,11,0,0,0-1.75-.61c-.39-.17-.84-.37-1.33-.57A6,6,0,0,1,24,16.27a5.2,5.2,0,0,1-.43-.37,3.28,3.28,0,0,1-.55-.68A4.23,4.23,0,0,1,22.46,13a12.1,12.1,0,0,1,.35-2.74,4.14,4.14,0,0,1,.75-1.62A16.33,16.33,0,0,1,25,7.06a3.41,3.41,0,0,1,1.26-.86,4,4,0,0,1,1.53-.28h.34a2.55,2.55,0,0,1,.56,0,9.63,9.63,0,0,1,1.07.21A8,8,0,0,1,31.49,7c.43.24.82.45,1.13.66a3,3,0,0,1,.94.87l.07.13a2.74,2.74,0,0,1,.15.4,3.14,3.14,0,0,1,.08.81,8.68,8.68,0,0,1-.15,1.44,16.23,16.23,0,0,1-1.2,3.85,8.73,8.73,0,0,1-1,1.65,4.51,4.51,0,0,1-1.12,1.06,3,3,0,0,1-1.5.45ZM41.14,30a7.22,7.22,0,0,1-1,1.54,4,4,0,0,1-1.22,1,3.16,3.16,0,0,1-1.59.43,4.69,4.69,0,0,1-1.57-.33c-.61-.21-1.32-.51-2.17-.83a5.24,5.24,0,0,1-2-1.16,4.54,4.54,0,0,1-.45-.52,3.59,3.59,0,0,1-.54-2.05,10.59,10.59,0,0,1,.4-2.56A3.77,3.77,0,0,1,31.72,24a17.11,17.11,0,0,1,1.47-1.48,4.22,4.22,0,0,1,3-1.1h.36l.06-1-.06,1,.55.05a7.63,7.63,0,0,1,1.16.21,8.53,8.53,0,0,1,1.83.73c.45.23.85.44,1.18.63a3,3,0,0,1,1,.82,1.59,1.59,0,0,1,.13.22,2.3,2.3,0,0,1,.09.25,2.89,2.89,0,0,1,.08.72,6.62,6.62,0,0,1-.16,1.33A13.84,13.84,0,0,1,41.13,30Zm3.34-3.75a3.51,3.51,0,0,0-.87.85,14.45,14.45,0,0,0-1.35,2.8,5.63,5.63,0,0,1,.94-3.11,3.55,3.55,0,0,1,1.34-1.06c.47-.23,1-.42,1.41-.66a7.41,7.41,0,0,1-1.48,1.2Zm2.17-2.95a2.13,2.13,0,0,1-.78,1,2.2,2.2,0,0,1-.87.39,1.55,1.55,0,0,1-.37,0h-.06a4.39,4.39,0,0,0-.28-1.33,4.05,4.05,0,0,0-.32-.62l-.15-.22A5.21,5.21,0,0,0,45,22a5.36,5.36,0,0,0,1-.75l.11-.11a2.55,2.55,0,0,1,.3.43,2,2,0,0,1,.12.26,2.28,2.28,0,0,1,.15.81,1.88,1.88,0,0,1-.11.62Zm.68-9.62a16.74,16.74,0,0,1-1.18,3.86,8.91,8.91,0,0,1-1,1.69A4.46,4.46,0,0,1,44,20.27a2.71,2.71,0,0,1-1.43.45,3.89,3.89,0,0,1-1.43-.34c-.57-.23-1.25-.56-2-.88a5.79,5.79,0,0,1-1.35-.76,4.23,4.23,0,0,1-.4-.34,3.51,3.51,0,0,1-.56-.71,4.31,4.31,0,0,1-.51-2.25,12.67,12.67,0,0,1,.38-2.8A4.24,4.24,0,0,1,37.41,11a16.38,16.38,0,0,1,1.41-1.58,3.55,3.55,0,0,1,1.23-.86,4,4,0,0,1,1.49-.28h.33a3.31,3.31,0,0,1,.56.06,6.13,6.13,0,0,1,1,.2,8.29,8.29,0,0,1,1.71.79c.42.24.8.45,1.1.66a3,3,0,0,1,.93.87l.06.11a1.69,1.69,0,0,1,.15.43,3.22,3.22,0,0,1,.09.82,7.1,7.1,0,0,1-.18,1.45Z"/><path class="cls-3" d="M6.28,10.12H6.21a1.37,1.37,0,0,0,.07.29v-.29ZM9.74,1.87A7.87,7.87,0,0,0,6.06,8l.38.1a11.33,11.33,0,0,1,3.3-6.23"/><path class="cls-3" d="M6.06,8a6.79,6.79,0,0,0,.15,2.11h.07a11.39,11.39,0,0,1,.16-2A2.62,2.62,0,0,0,6.06,8Z"/><path class="cls-3" d="M23.67,7.45c-2.74,1.68-2.84,5.6-1.72,8.29C21.58,12.82,21.5,9.69,23.67,7.45Z"/><path class="cls-3" d="M3.31,15.86a6,6,0,0,0-2,3,6.14,6.14,0,0,0,0,3.6,11,11,0,0,1,2-6.58"/><path class="cls-3" d="M3.63,9.84a2.17,2.17,0,0,0-.7,1.08,2.27,2.27,0,0,0,0,1.29A5.36,5.36,0,0,0,3.63,9.84Z"/><path class="cls-3" d="M35.84,15.7a4,4,0,0,0,0,2,4.16,4.16,0,0,0,.89,1.75,6.68,6.68,0,0,1,.77.07,4.67,4.67,0,0,1-1.64-3.8Z"/><path class="cls-3" d="M36.71,19.43a7.22,7.22,0,0,0,4.63,2.1c.37.12.72.51,1.16.51-.42-.11-.65-.47-1-.71a10.67,10.67,0,0,1-3.94-1.85l-.77-.07"/><path class="cls-3" d="M30.16,24.16c-1.24,2.6-2.44,5.36-5.21,6.6,3.06-.55,4.71-3.83,5.21-6.62"/><path class="cls-3" d="M45.93,25.07c-.45.24-.94.43-1.4.66a2.22,2.22,0,0,1-.06.51,7.55,7.55,0,0,0,1.46-1.18"/><path class="cls-3" d="M44.53,25.73a3.58,3.58,0,0,0-1.35,1.06,5.63,5.63,0,0,0-.94,3.11,14.45,14.45,0,0,1,1.35-2.8,3.56,3.56,0,0,1,.88-.85c0-.17,0-.35.06-.51"/></g></g></svg>