<svg xmlns="http://www.w3.org/2000/svg" xmlns:xlink="http://www.w3.org/1999/xlink" viewBox="0 0 74.99 108.19"><defs><style>.cls-1{fill:url(#radial-gradient);}.cls-2{fill:url(#radial-gradient-2);}.cls-3{fill:url(#radial-gradient-3);}.cls-4{opacity:0.1;}.cls-5{fill:#fff;}.cls-6{opacity:0.16;}.cls-7{opacity:0.08;}</style><radialGradient id="radial-gradient" cx="-261.17" cy="444.26" r="1" gradientTransform="matrix(46.58, 0, 0, -46.58, 12209.13, 20753.77)" gradientUnits="userSpaceOnUse"><stop offset="0" stop-color="#fff" stop-opacity="0.15"/><stop offset="0.44" stop-color="#fff" stop-opacity="0.16"/><stop offset="0.6" stop-color="#fff" stop-opacity="0.18"/><stop offset="0.71" stop-color="#fff" stop-opacity="0.23"/><stop offset="0.8" stop-color="#fff" stop-opacity="0.3"/><stop offset="0.88" stop-color="#fff" stop-opacity="0.38"/><stop offset="0.95" stop-color="#fff" stop-opacity="0.49"/><stop offset="1" stop-color="#fff" stop-opacity="0.59"/></radialGradient><radialGradient id="radial-gradient-2" cx="-258.87" cy="443.06" r="1" gradientTransform="matrix(33.22, 0, 0, -40.02, 8641.87, 17799.17)" gradientUnits="userSpaceOnUse"><stop offset="0" stop-color="#fff" stop-opacity="0.5"/><stop offset="0.46" stop-color="#fff" stop-opacity="0.49"/><stop offset="0.62" stop-color="#fff" stop-opacity="0.47"/><stop offset="0.74" stop-color="#fff" stop-opacity="0.42"/><stop offset="0.84" stop-color="#fff" stop-opacity="0.36"/><stop offset="0.92" stop-color="#fff" stop-opacity="0.27"/><stop offset="0.99" stop-color="#fff" stop-opacity="0.17"/><stop offset="1" stop-color="#fff" stop-opacity="0.15"/></radialGradient><radialGradient id="radial-gradient-3" cx="-231.5" cy="394.39" r="1" gradientTransform="matrix(7.54, 0, 0, -5.95, 1784.72, 2394.6)" gradientUnits="userSpaceOnUse"><stop offset="0" stop-color="#fff" stop-opacity="0.17"/><stop offset="0.56" stop-color="#fff" stop-opacity="0.16"/><stop offset="0.76" stop-color="#fff" stop-opacity="0.13"/><stop offset="0.9" stop-color="#fff" stop-opacity="0.09"/><stop offset="1" stop-color="#fff" stop-opacity="0.03"/></radialGradient></defs><g id="Layer_2" data-name="Layer 2"><g id="Layer_1-2" data-name="Layer 1"><path class="cls-1" d="M14.39,14.13c.91-5.25-2.21-6.49,1.4-7.4C19,6.25,19,10.37,19.67,12.54c2.14,7.83,2.06,13,2.22,21.1,0,4,.8,5.33,4.4,7,3.95,1.8,8.9-.46,13.23-.79,3.38-.25,6.86,3.34,10.07,2.26,4-1.4,4.33-6.27,3.14-10.35-.6-2.05-1.69-4-1.83-6.16-.19-2.45.89-4.84.77-7.29s-1.88-3.78-2.24-6.07c-.3-1.8-.45-3-.73-4.2a27.44,27.44,0,0,0-.94-3.33c-1.48-2.29-1.82-3-.31-4,1.79-1.16,1.75-1,4,.8A12.89,12.89,0,0,1,53.7,6.76C53,12,59.52,16.09,61.07,21.11c.73,2.32,2.4,5,2.65,7.38.15,1.4,2.53,5.2,2.8,6.56.92,5.11.12,4.55,2.08,9.37,1.78,4.41.66,9.67,2.06,14.33.83,2.8,2.52,5.18,3.46,7.91,1.86,5.54.46,11.67-1.6,17.16C71,88,69.07,92.5,70.7,96.59c.68,1.69,1.94,3.55,1,5.15s-3.34,1.4-5.16.94C62.72,101.54,59,99.88,55.11,99a17.81,17.81,0,0,0-11.81.63,45,45,0,0,0-4.74,3,24.75,24.75,0,0,1-13.39,3.82c-2,0-1.6,2.17-4.31,1.73a29.74,29.74,0,0,1-8.07-2.8C9.48,103.22,7,98.43,6,94.84c-.18-.66-.18-7.81-.18-8.49,0-7.15,1.54-7.69.15-12.68C4.19,67.26,5.49,66,2.66,59,.85,54.5-.59,50.9.24,46.15A15.3,15.3,0,0,1,2.7,41C8.55,31.66,13.68,21.91,14.39,14.13Z"/><path class="cls-2" d="M60.34,25c3.64.49,2.8,9.28,4.58,14.36,1.63,4.77.59,10.29,1.82,15.21.73,2.91,2.23,5.49,3.05,8.4,1.68,5.88.41,12.35-1.4,18.2-1.4,4.37-3,9.18-1.59,13.51.59,1.79,1.71,3.76.91,5.44s-2.94,1.56-4.55,1c-3.4-1.21-6.66-2.94-10.12-3.94a13.24,13.24,0,0,0-10.42.66,44.31,44.31,0,0,0-4.2,3.16,19.07,19.07,0,0,1-11.81,4c-1.75,0-1.4,2.29-3.79,1.85a23.93,23.93,0,0,1-7.13-2.94c-2.91-2.24-5.07-7.31-6-11.1-.15-.7-.15-8.26-.15-9,0-7.56,1.4-8.13.12-13.4-1.56-6.78-.4-8.14-2.91-15.56C5.17,50.14,4,46.32,4.63,41.31A17.52,17.52,0,0,1,6.8,35.86C12,25.87,17.61,38.2,21,39s22.67,8.1,24.61,7.21C55.71,41.59,55.28,24.27,60.34,25Z"/><path class="cls-3" d="M26.47,46.36c3.74,1.4,8.4-.35,12.51-.58,3.21-.2,6.51,2.49,9.57,1.67"/><g class="cls-4"><g class="cls-4"><path class="cls-5" d="M22.16,61.76a16.78,16.78,0,0,1-3.08-13.42c1-4.52,3.25-8.72,3.08-13.41h.66c0,4.92,2.6,9.57,4.9,13.74A14.53,14.53,0,0,1,29.86,52c1.3,3.6-.21,8,2.8,10.77-3.78-1.73-2.8-7-4.2-10.25a15.74,15.74,0,0,0-2.09-3c-2.38-4.46-4.81-9.36-4.2-14.68a.33.33,0,0,1,.1-.23.32.32,0,0,1,.23-.09.31.31,0,0,1,.22.09.33.33,0,0,1,.1.23c-.62,6.82-3.71,13.38-2.59,20.28a21.86,21.86,0,0,0,2,6.45s-.07.16-.11.09Z"/></g></g><g class="cls-6"><g class="cls-6"><path class="cls-5" d="M54.37,17.36A70.69,70.69,0,0,1,61.28,33.3a34.51,34.51,0,0,1,2.1,11.51,33.17,33.17,0,0,1-.78,5.79,18.36,18.36,0,0,0,1.65,10.94s0,.15-.1.08a13.2,13.2,0,0,1-2.64-5.26,17.21,17.21,0,0,1,.18-8.84A32.19,32.19,0,0,0,62,39a26.63,26.63,0,0,0-3.62-10.84c-1.4-3.09-3.8-7.82-4-10.86Z"/></g></g><g class="cls-6"><g class="cls-6"><path class="cls-5" d="M14.68,29.51c2.23-5,2-10.62,1.08-15.87-.33-2-1.22-3.45-.7-5.6a.81.81,0,0,1,.2-.39.72.72,0,0,1,.39-.19.8.8,0,0,1,.43.07.75.75,0,0,1,.3.31l1.4,2.63A12.82,12.82,0,0,0,19.4,13v.12a12.4,12.4,0,0,1-4.2-4.55l1.33-.23a9.3,9.3,0,0,0,.37,3.78c.42,2.34-.12,4.68,0,7,0,1.89.82,3.65.51,5.6a8.08,8.08,0,0,1-2.57,5l-.05,0s0,0,0,0l0,0a.14.14,0,0,1,0-.06Z"/></g></g><g class="cls-7"><g class="cls-7"><path class="cls-5" d="M66.18,71a14.35,14.35,0,0,1,.72,7.31,14.19,14.19,0,0,1-3,6.69c-1.9,3-4,6.86-7,9l-.07.12v-.26c2.69.93,5.92,1.21,8.4,2.8.56.38,1.81,1,2,1.6a21.93,21.93,0,0,0-4.51-1.64c-1.55-.76-8.39-.39-7.11-3.25a6.39,6.39,0,0,1,1.81-1.54,27.71,27.71,0,0,0,3.33-3.26,19.89,19.89,0,0,0,4.58-8.2A39.54,39.54,0,0,0,66,71a.07.07,0,1,1,.14,0Z"/></g></g><path class="cls-3" d="M26.47,46.36c3.74,1.4,8.4-.35,12.51-.58,3.21-.2,6.51,2.49,9.57,1.67"/><g class="cls-4"><g class="cls-4"><path class="cls-5" d="M22.16,61.76a16.78,16.78,0,0,1-3.08-13.42c1-4.52,3.25-8.72,3.08-13.41h.66c0,4.92,2.6,9.57,4.9,13.74A14.53,14.53,0,0,1,29.86,52c1.3,3.6-.21,8,2.8,10.77-3.78-1.73-2.8-7-4.2-10.25a15.74,15.74,0,0,0-2.09-3c-2.38-4.46-4.81-9.36-4.2-14.68a.33.33,0,0,1,.1-.23.32.32,0,0,1,.23-.09.31.31,0,0,1,.22.09.33.33,0,0,1,.1.23c-.62,6.82-3.71,13.38-2.59,20.28a21.86,21.86,0,0,0,2,6.45s-.07.16-.11.09Z"/></g></g><g class="cls-6"><g class="cls-6"><path class="cls-5" d="M54.37,17.36A70.69,70.69,0,0,1,61.28,33.3a34.51,34.51,0,0,1,2.1,11.51,33.17,33.17,0,0,1-.78,5.79,18.36,18.36,0,0,0,1.65,10.94s0,.15-.1.08a13.2,13.2,0,0,1-2.64-5.26,17.21,17.21,0,0,1,.18-8.84A32.19,32.19,0,0,0,62,39a26.63,26.63,0,0,0-3.62-10.84c-1.4-3.09-3.8-7.82-4-10.86Z"/></g></g><g class="cls-6"><g class="cls-6"><path class="cls-5" d="M14.68,29.51c2.23-5,2-10.62,1.08-15.87-.33-2-1.22-3.45-.7-5.6a.81.81,0,0,1,.2-.39.72.72,0,0,1,.39-.19.8.8,0,0,1,.43.07.75.75,0,0,1,.3.31l1.4,2.63A12.82,12.82,0,0,0,19.4,13v.12a12.4,12.4,0,0,1-4.2-4.55l1.33-.23a9.3,9.3,0,0,0,.37,3.78c.42,2.34-.12,4.68,0,7,0,1.89.82,3.65.51,5.6a8.08,8.08,0,0,1-2.57,5l-.05,0s0,0,0,0l0,0a.14.14,0,0,1,0-.06Z"/></g></g><g class="cls-7"><g class="cls-7"><path class="cls-5" d="M66.18,71a14.35,14.35,0,0,1,.72,7.31,14.19,14.19,0,0,1-3,6.69c-1.9,3-4,6.86-7,9l-.07.12v-.26c2.69.93,5.92,1.21,8.4,2.8.56.38,1.81,1,2,1.6a21.93,21.93,0,0,0-4.51-1.64c-1.55-.76-8.39-.39-7.11-3.25a6.39,6.39,0,0,1,1.81-1.54,27.71,27.71,0,0,0,3.33-3.26,19.89,19.89,0,0,0,4.58-8.2A39.54,39.54,0,0,0,66,71a.07.07,0,1,1,.14,0Z"/></g></g></g></g></svg>