<svg xmlns="http://www.w3.org/2000/svg" viewBox="0 0 54.01 75.07"><defs><style>.cls-1,.cls-2{fill:#c7eaf0;}.cls-1,.cls-2,.cls-3,.cls-4{isolation:isolate;}.cls-1{opacity:0.48;}.cls-2{opacity:0.66;}.cls-3{fill:#738b8c;opacity:0.91;}.cls-4{fill:#e9f7f9;opacity:0.83;}</style></defs><g id="Layer_2" data-name="Layer 2"><g id="Layer_1-2" data-name="Layer 1"><path class="cls-1" d="M43.82.2c.08-.28.36-.21.62-.14a2.37,2.37,0,0,1,.68.45,16.06,16.06,0,0,0,2.36,1.6C49.09,3.05,50.67,4,52.25,5a12.2,12.2,0,0,1,1.39,1,.66.66,0,0,1,.26.33c.12.29.19.43-.08.55s-.68-.19-1-.25a13.09,13.09,0,0,1-4.17-1.77c-1.5-.86-3.48-2-4.37-3.63C44.09.79,43.78.39,43.82.2Z"/><path class="cls-2" d="M52.36,17.16a52.34,52.34,0,0,0-2.43,12.37,14.62,14.62,0,0,0,.85-2.08c.35-1.3,1.68-3.24,2-4.55a10.41,10.41,0,0,0,.45-2.49A7.72,7.72,0,0,0,52.36,17.16Zm-1-11c.37.2.75.38,1.13.54V6.55c-.38-.12-.77-.26-1.17-.41ZM40.84,4a5.42,5.42,0,0,1-1.61,1.52,5,5,0,0,1-2,.71,1.82,1.82,0,0,1-.33,0h-.32c-2.08,0-3.21,2.55-4,3.53l.15.28c1.19,7.25,2.06,11.16,5,15.3.46.67.63.95.59.95-.25,0-6.53-8-7-10.13-.32-1.4-.9-4-1.32-6.38l-.26-.06a17.08,17.08,0,0,0-3.11-.4,3.13,3.13,0,0,0-1.66.36,17.33,17.33,0,0,0-5.16,5.93l-.1.2c.14,1.93-4.24,11.82-1.22,15.35,3.89,4.53,5,9.36,5.95,11,.11.18.07.27-.09.27-.71,0-3.86-1.84-6.6-4.27-1.19,2.77-4.21,8.7-4,11.77.31,4.67,1.73,7.65,1.65,9.29,0,.18-.07.26-.17.26-.9,0-4.52-5.53-3.72-9.63.72-3.45-.08-5.32.12-6.85a20.67,20.67,0,0,0-4.28,2.43c-4,2.74-3.09,3-6,6.23a3.69,3.69,0,0,0-.91,1.4A4.21,4.21,0,0,0,0,54.81c0,.53.06,1.11.11,1.79a3.19,3.19,0,0,0,.82,2.08,2.55,2.55,0,0,0,1.89.85,2.58,2.58,0,0,0,1.09-.24,5,5,0,0,0-.33,1.8,5.53,5.53,0,0,0,.48,2.24A5,5,0,0,0,5.39,65.1a3.69,3.69,0,0,0,2.28.77,8.52,8.52,0,0,0,2.39-.47A4.65,4.65,0,0,0,10,66.46a5.47,5.47,0,0,0,.55,2.39A5.09,5.09,0,0,0,12,70.69a3.91,3.91,0,0,0,2.37,1,4.56,4.56,0,0,0,1.37-.26,5,5,0,0,0,1.87-1.06c.23,2.18.58,3.43,1.95,4.39a1.65,1.65,0,0,0,.9.31c1.12,0,2.31-1.1,3.24-2A15.91,15.91,0,0,0,25.3,71.2,138.92,138.92,0,0,0,30,57.27l.46,4.25A22.86,22.86,0,0,0,34,54.89c.22-.62,4-3.94,4-4.68a.43.43,0,0,1,0-.05s0,0,0-.06-.28-3.61-.47-5.24a20.29,20.29,0,0,1-4,1.55,22.53,22.53,0,0,1-4.25.37c-1.59,0-2.49-.17-.6-.51,3.48-.61,6.18-2.78,9.44-4.54v.1a32.19,32.19,0,0,1,4-3.07c3-2.18,6.43-2.67,6.83-6.82a4.65,4.65,0,0,1,.34-1.33c-.28-4.67-.51-12.35.13-14.57l.7-2.37a2,2,0,0,1-.14-.81,4.73,4.73,0,0,1,.76-2.3A16.77,16.77,0,0,1,40.84,4ZM41.66,3l-.18.25-.33.44a16.36,16.36,0,0,0,10,6.44l.24-.34A18.5,18.5,0,0,1,41.66,3Zm.81-1.16L42,2.58a18.12,18.12,0,0,0,9.74,6.74l.16-.53a18.46,18.46,0,0,1-9.32-7ZM43.85.16c-.23,0-.61.57-1.15,1.36l.15-.11A17.91,17.91,0,0,0,52,8.31a1.18,1.18,0,0,1,.1-.3A19.15,19.15,0,0,1,43.27.84l.35-.31a18.73,18.73,0,0,0,8.59,7l.15-.42A20,20,0,0,1,48,4.4,10.61,10.61,0,0,1,43.82.17"/><path class="cls-3" d="M38.24,26.29a7.88,7.88,0,0,0-.59-.95c-2.9-4.14-3.77-8-5-15.3l-.15-.28a1.06,1.06,0,0,1-.4.33.38.38,0,0,1-.21,0,14.47,14.47,0,0,1-2-.34c.41,2.33,1,5,1.32,6.38C31.71,18.28,38,26.29,38.24,26.29Z"/><path class="cls-3" d="M37.39,43.7a2.6,2.6,0,0,1,.25-1,2.57,2.57,0,0,1,.6-.84v-.1c-3.25,1.76-6,3.93-9.43,4.54-1.89.34-1,.51.59.51a22.39,22.39,0,0,0,4.25-.37,19.7,19.7,0,0,0,3.93-1.55c0-.2,0-.41-.09-.62A2.35,2.35,0,0,1,37.39,43.7Z"/><path class="cls-3" d="M17.33,37.29l-.13.12-.11.3a11.62,11.62,0,0,1-5.21,5.19l-.38.16c-.2,1.53.6,3.4-.12,6.85-.84,4.1,2.84,9.6,3.72,9.6.1,0,.16-.08.17-.26.08-1.64-1.34-4.62-1.65-9.29-.21-3.07,2.81-9,4-11.78.4-.92.6-1.5.41-1.5S17.71,36.89,17.33,37.29Z"/><path class="cls-4" d="M50.3,13.67,49.6,16c-.64,2.22-.42,9.9-.14,14.57.14-.37.3-.72.46-1.08a52.86,52.86,0,0,1,2.44-12.37,19.37,19.37,0,0,0-1.81-3A1.69,1.69,0,0,1,50.3,13.67Z"/><path class="cls-4" d="M53.82,6.86c-.4-.09-.82-.2-1.26-.34v.13c-.38-.16-.76-.34-1.13-.54A20.79,20.79,0,0,1,48,4.4a20.17,20.17,0,0,0,4.37,2.69l-.15.42a18.73,18.73,0,0,1-8.59-7L43.27.8A19.15,19.15,0,0,0,52.06,8a.88.88,0,0,1-.1.3A17.94,17.94,0,0,1,42.8,1.41l-.14.11-.18.26a18.44,18.44,0,0,0,9.33,7l-.17.53A18.15,18.15,0,0,1,42,2.58l-.29.4a18.46,18.46,0,0,0,9.76,6.79l.1-.15.21-.27.36-.46c.12-.15.24-.28.36-.41l.21-.25.37-.41.3-.33.36-.41a.59.59,0,0,0,.13-.2Z"/><path class="cls-4" d="M18.38,31.16c-3-3.53,1.36-13.42,1.21-15.36a39.81,39.81,0,0,0-2.19,7.64c-.43,2.24-1.73,4-1.73,6.28a7.86,7.86,0,0,0,1.21,4,4.31,4.31,0,0,1,.61,2.18,5.08,5.08,0,0,1-.29,1.59l.13-.12c.38-.4.61-.58.72-.58s0,.58-.41,1.5c2.71,2.43,5.89,4.27,6.6,4.27.15,0,.2-.09.09-.27C23.4,40.48,22.27,35.69,18.38,31.16Z"/><path class="cls-4" d="M25.33,71.2a13.22,13.22,0,0,0,2.14-4,14.8,14.8,0,0,1,3-5.67L30,57.27A138.76,138.76,0,0,1,25.33,71.2Z"/><path class="cls-4" d="M51.2,10.11a16.4,16.4,0,0,1-10-6.44l-.3.37a16.79,16.79,0,0,0,10.06,6.52C51,10.41,51.1,10.26,51.2,10.11Z"/></g></g></svg>