<svg id="Layer_1" data-name="Layer 1" xmlns="http://www.w3.org/2000/svg" viewBox="0 0 967.81 827.92"><defs><style>.cls-1{fill:#8c6c49;}.cls-2{fill:#93642d;}.cls-3{fill:#714d22;}.cls-4{fill:#69371e;}.cls-5{fill:#4f2513;}.cls-6{fill:#458144;}.cls-7{fill:#7dad7d;}.cls-8{fill:#597f55;}.cls-9{fill:#608e60;}.cls-10{fill:#81bf81;}.cls-11{fill:#66a765;}.cls-12{fill:#373737;}.cls-13{fill:#565656;}.cls-14{fill:#7c7c7c;}</style></defs><path class="cls-1" d="M322.81,837.28c-123.63,4.64-226.58-3.16-351.55-34.16-3.61-96-3.19-280.46,27.28-250.86,38.1,37,196.18,96.35,229.51,122.56S438.62,745.89,489.14,766,604.85,793.06,644.61,808s125.52,12.44,156,29.83-8.85,12.85-154.23,18.31S446.45,832.64,322.81,837.28Z" transform="translate(157.52 -61.87)"/><rect class="cls-2" x="127.52" y="316.39" width="56.86" height="289.91"/><rect class="cls-3" x="127.67" y="209.21" width="56.86" height="289.91"/><path class="cls-4" d="M87.84,622c.48-3.92.53-11.43.32-20.85h-92c.4,21.56,1.05,44.36,2.1,58.26C.72,691.84.89,745.2.89,745.2s13.68,12.11,21.47,13c27.08,3.08,40.06,4.52,70.62-4C93,754.19,85.53,640.53,87.84,622Z" transform="translate(157.52 -61.87)"/><path class="cls-5" d="M82.76,503.92l-88,10.51.73,31.26s.08,26.59.62,55.42h92C87.35,565.86,82.76,503.92,82.76,503.92Z" transform="translate(157.52 -61.87)"/><polygon class="cls-6" points="197.47 253.02 84.62 416.59 310.32 416.59 197.47 253.02"/><g id="Texture"><path class="cls-5" d="M9,593.2c.28,2.89.13,5.82.3,8.7a5.54,5.54,0,0,0,.59,1.6,34.5,34.5,0,0,1,1,5.15,31.75,31.75,0,0,1,.54,5.2c.16,2.51.39,8,.6,10.42.61,5.72,2.38,11.42,3,17.14.47,4.66.87,9.25,1,13.93,0,3.39-.27,7.06,0,10.45,0,1.76.58,3.44.36,5.2-.31,3.2-1,8.9-1.41,12.12-.23,2.07.06,4.87,0,7l.25,7a59.51,59.51,0,0,0,.51,6.94,58.38,58.38,0,0,1-.53-6.94l-.26-7c0-2.11-.3-4.9-.07-7l.8-6.93.39-3.46a13.92,13.92,0,0,0,.14-3.46c-.79-4.59-.61-9.28-.53-13.91-.06-2.32-.3-4.63-.44-7-.28-3.46-.66-6.95-1.19-10.36-.82-4-1.84-8-2.28-12-.51-3.29-.54-8.83-.75-12.18a24.37,24.37,0,0,0-.24-3.45c-.39-1.7-.26-3.47-.87-5.13-.19-.58-.14-1.2-.35-1.7a5.57,5.57,0,0,1-.56-1.67C9,599,9.24,596.12,9,593.2Z" transform="translate(157.52 -61.87)"/><path class="cls-5" d="M17.53,612.48a23,23,0,0,0,1,7.34c.66,1.76.86,3.62,1.5,5.39.63,3,.63,6.2,1.13,9.27a31,31,0,0,1,.44,3.71,18.38,18.38,0,0,1,.63,3.69c.13,2.47.14,5,.3,7.44a3.92,3.92,0,0,0,.39,1.73c1,3,2.51,5.72,3.23,8.79a14.29,14.29,0,0,0,.74,3.62l.55,1.79a7.61,7.61,0,0,1,.05,1.9c-.16,3.6-.42,7.6-.57,11.18.08,2.46.15,5,.17,7.45,0,8.56.14,21.38.51,29.85l.49,14.92-.55-14.92c-.41-8.43-.59-21.28-.63-29.85,0-2.49-.09-5-.18-7.46.12-3.58.37-7.58.51-11.18a7.81,7.81,0,0,0-.05-1.82l-.57-1.77a15,15,0,0,1-.79-3.66c-.73-3-2.27-5.76-3.29-8.66a4.22,4.22,0,0,1-.45-1.87c-.18-2.5-.26-5-.35-7.47a19,19,0,0,0-.59-3.65,30.33,30.33,0,0,0-.4-3.7c-.47-3.07-.43-6.19-1-9.25-.6-1.76-.81-3.64-1.42-5.4a23.11,23.11,0,0,1-.73-7.41Z" transform="translate(157.52 -61.87)"/><path class="cls-5" d="M37.14,624c.9,19.65,3.83,46.86,3.36,66.22,0,3.37-.15,10.16-.12,13.45a40.82,40.82,0,0,1,0,7.25,16.1,16.1,0,0,1-.48,4.14,1.82,1.82,0,0,1-.51,1c-.38,1.62.95,3.25.9,4.88a19.69,19.69,0,0,0,1.23,6,17.32,17.32,0,0,1,.14,2.09,11,11,0,0,1,.32,2.06,6.55,6.55,0,0,0,.2,2c.46,3.42.2,6.93.63,10.35a38.72,38.72,0,0,0,1.65,6,51.38,51.38,0,0,0,.42,6.2,51.11,51.11,0,0,1-.59-6.17,32.14,32.14,0,0,1-1.76-6c-.46-3.42-.24-6.9-.73-10.31a7.71,7.71,0,0,1-.23-2.09,10.88,10.88,0,0,0-.33-2,18.25,18.25,0,0,0-.15-2,19.9,19.9,0,0,1-1.3-6.09c0-1.41-.86-2.6-.92-4a2,2,0,0,1,.13-1.17c.13-.19.26-.29.31-.39a18.08,18.08,0,0,0,.67-5.53c.41-2.4,0-4.8,0-7.22,0-2.69.1-9.67.14-12.44.53-11.06-.67-22.06-1.2-33.1L37.14,624Z" transform="translate(157.52 -61.87)"/><path class="cls-5" d="M51.92,608.87c.07,1.43.2,2.85.21,4.29-.38,1.41.29,2.85-.13,4.27a53.28,53.28,0,0,0-.77,5.3c-.29,1.08.08,2.09-.1,3.2-.18,1.4-.1,2.83-.19,4.27,0,.72-.24,1.4-.23,2.11a13.84,13.84,0,0,1-.07,2.14c0,2.83-.22,5.7,0,8.56a117.23,117.23,0,0,0,1.74,12.73,30.32,30.32,0,0,0,.77,5.23c.27.69.14,1.45.34,2.15a7.73,7.73,0,0,0,.43,2c.57,1.22.77,2.77,1.87,3.62a3.62,3.62,0,0,0,2.87-.08c1.07-.82,1.3-2.44,1.93-3.61a13.73,13.73,0,0,0,.61-2,10,10,0,0,0,.48-4.16,22.13,22.13,0,0,0-.25-6.35c-1.5-5.52-1.7-11.32-3-16.86a42.54,42.54,0,0,0-1.6-4,1.9,1.9,0,0,0-1.22-1.45c-.63-.18-.45.92-.79,1.52-1,2.68-.35,5.64-.36,8.45a32.68,32.68,0,0,0,1.09,8.44c.4,1.39.11,2.86.48,4.25.15.69.53,1.33.63,2,.26.94.12,2.37,1.21,2.77a.89.89,0,0,0,.89-.42,3.83,3.83,0,0,0,.11-2.1,3.78,3.78,0,0,1-.09,2.11.94.94,0,0,1-1.71-.26,12.59,12.59,0,0,1-.5-2.08c-.11-.71-.5-1.33-.66-2-.39-1.39-.13-2.88-.54-4.23-.65-3-1.32-5.37-1.18-8.49,0-3-.72-6.16.5-9.06l.1-.52c0-.38.4-.9.92-.71,1.5.46,1.51,2.43,2.32,3.6a23.2,23.2,0,0,1,1.57,6.26c.82,4.19,1.11,8.53,2.29,12.63a22.84,22.84,0,0,1,.31,6.44,13.38,13.38,0,0,1-.76,5.32,32.31,32.31,0,0,1-1.18,3c-.37,1-1.2,2.18-2.42,2.19-2.52.41-3.22-1-3.93-3.13a11.14,11.14,0,0,1-.68-2.07c-.07-.4-.14-1.2-.25-1.58,0-1.3-.54-2.43-.66-3.71a66.55,66.55,0,0,0-1-7.4c-.45-3.52-.92-7.11-1-10.68,0-2.15.1-4.28.14-6.41a17.08,17.08,0,0,0,.08-2.14c0-.72.23-1.43.24-2.15.09-1.41,0-2.85.21-4.29.19-1-.15-2.15.15-3.19a52.44,52.44,0,0,1,.84-5.29c.44-1.38-.2-2.84.2-4.26,0-1.42-.1-2.85-.15-4.28Z" transform="translate(157.52 -61.87)"/><path class="cls-5" d="M61.56,587.86a15,15,0,0,1-.05,4.68c-.26,1.56,0,3.12-.14,4.68-.31,3.13.21,6.22.19,9.37a6.11,6.11,0,0,0,.25,2.24c.15.32.39.63.6,1,.46.71.25,1.61.35,2.37.82,3.41,1.06,6.93,2.1,10.3a9.57,9.57,0,0,1,.48,2.33c1,3.71,1,7.77,2,11.52A30.88,30.88,0,0,1,68,641a6.48,6.48,0,0,0,.39,2.26c.42,1.53,0,3.15.38,4.66a6.08,6.08,0,0,1,.28,2.35c.14,2.33.48,4.68.48,7l.17,4.68s0-.13,0-.13c0,.81-.3-4.77-.29-4.55-.06-2.36-.49-4.66-.63-7a5.83,5.83,0,0,0-.29-2.28,10.62,10.62,0,0,1-.22-2.37,9.21,9.21,0,0,0-.53-3.42c-.16-1.56-.31-3.11-.5-4.66a73.26,73.26,0,0,1-1.83-10.4c-.08-.73-.44-1.44-.53-2.29a9.15,9.15,0,0,0-.44-2.25,59.35,59.35,0,0,1-1.53-8.08,12.31,12.31,0,0,1-.52-3.5c0-.84-.52-1.33-.86-2.06a6.35,6.35,0,0,1-.26-2.39c.05-3.11-.45-6.27-.1-9.38.16-1.56,0-3.14.27-4.68a14.87,14.87,0,0,0,.17-4.66Z" transform="translate(157.52 -61.87)"/></g><polygon class="cls-7" points="394.94 514.11 310.32 391.46 84.62 391.46 0 514.11 394.94 514.11"/><polygon class="cls-8" points="197.47 227.9 84.62 391.46 310.32 391.46 197.47 227.9"/><polygon class="cls-9" points="358.22 366.35 272.74 242.45 122.21 242.45 36.72 366.35 358.22 366.35"/><polygon class="cls-8" points="197.47 133.36 122.21 242.45 272.74 242.45 197.47 133.36"/><polygon class="cls-7" points="313.96 220.59 247.46 124.21 146.58 124.21 80.08 220.59 313.96 220.59"/><polygon class="cls-8" points="197.02 51.1 146.58 124.21 247.46 124.21 197.02 51.1"/><polygon class="cls-9" points="197.02 0 129.67 97.62 120.36 111.11 273.68 111.11 197.02 0"/><path class="cls-4" d="M186.53,691.41a151,151,0,0,0,.27-17.51H109.54c.33,18.1.88,37.25,1.76,48.92,2.07,27.26,2.21,72.07,2.21,72.07s11.5,10.17,18,10.91c22.73,2.58,33.63,3.79,59.29-3.36C190.84,802.44,184.59,707,186.53,691.41Z" transform="translate(157.52 -61.87)"/><path class="cls-5" d="M182.27,592.29l-73.87,8.82.62,26.25s.07,22.33.52,46.54H186.8C186.12,644.3,182.27,592.29,182.27,592.29Z" transform="translate(157.52 -61.87)"/><polygon class="cls-6" points="303.83 371.69 209.08 509.04 398.59 509.04 303.83 371.69"/><g id="Texture-2" data-name="Texture"><path class="cls-5" d="M120.35,667.26c.23,2.42.11,4.88.26,7.3a4.79,4.79,0,0,0,.49,1.35c.2.49.15,1,.31,1.43.52,1.38.44,2.93.78,4.32.49,4,.31,9.19.94,13.14.18,2.26,1,4.91,1.31,7.17,1,3.8,1.15,7.72,1.55,11.62.6,5.31-.08,10.77.41,16.07.54,2.24-.1,5-.3,7.28l-.69,5.82a56.94,56.94,0,0,0,0,5.84l.21,5.85a49.39,49.39,0,0,0,.43,5.83,50.58,50.58,0,0,1-.45-5.83l-.21-5.85a54.5,54.5,0,0,1-.06-5.85c.33-3.08,1-7.87,1.19-10.9a65.32,65.32,0,0,1-.6-6.55,95,95,0,0,0-.29-11.69c-.23-2.91-.56-5.84-1-8.7-.69-3.32-1.55-6.69-1.92-10.07-.58-3.93-.37-9.19-.82-13.12-.25-1-.23-2-.4-2.91s-.45-1.93-.63-2.82a4.69,4.69,0,0,1-.47-1.41c-.09-2.45.1-4.87-.08-7.32Z" transform="translate(157.52 -61.87)"/><path class="cls-5" d="M127.49,683.44a19.19,19.19,0,0,0,.81,6.17c.55,1.48.72,3,1.25,4.53.58,3.58.87,7.28,1.33,10.89a15.47,15.47,0,0,1,.53,3.1c.25,2.41-.16,5.47.57,7.7a7.66,7.66,0,0,1,.55,1.49c.69,2,1.76,3.82,2.16,5.89a19.35,19.35,0,0,0,1.09,4.55,39.25,39.25,0,0,1-.11,4.72,113.68,113.68,0,0,0-.19,12.52c0,12.12.43,25.53.84,37.59-.66-14.24-.89-29.57-1.14-43.86,0-3.53.53-7.4.39-10.91a19.76,19.76,0,0,1-1.15-4.57c-.42-2-1.5-3.87-2.21-5.82-.18-.81-.62-1.43-.84-2.21-.26-2.36-.27-4.71-.38-7.08-.29-2.79-1-6.31-1.13-9.3a27.81,27.81,0,0,0-1-6.14l-.31-1.54a20,20,0,0,1-1.06-7.72Z" transform="translate(157.52 -61.87)"/><path class="cls-5" d="M144,693.14c.76,16.5,3.23,39.34,2.83,55.6,0,2.36-.1,8.17-.11,10.44,0,1.73.28,3.48.14,5.23-.23,1.18,0,2.3-.19,3.48-.1.59-.26,1.13-.32,1.71a1.51,1.51,0,0,1-.43.83c-.25,1.05.38,2.19.66,3.21a20.28,20.28,0,0,0,1.13,6,15.76,15.76,0,0,1,.12,1.75,9.46,9.46,0,0,1,.26,1.74,6,6,0,0,0,.17,1.69c.39,2.88.18,5.82.54,8.69a30.69,30.69,0,0,0,1.38,5,43,43,0,0,0,.35,5.2,40.89,40.89,0,0,1-.49-5.18,26.12,26.12,0,0,1-1.48-5c-.39-2.88-.21-5.8-.61-8.67a6,6,0,0,1-.2-1.75,8.84,8.84,0,0,0-.27-1.69c-.08-.61,0-1.19-.13-1.72a16.9,16.9,0,0,1-1.1-5.11c0-1.19-.72-2.18-.77-3.37a1.38,1.38,0,0,1,.38-1.3c.2-.66.28-1.41.44-2.07.22-1.11,0-2.34.23-3.44.14-1.73-.11-3.47-.11-5.2,0-2.26.08-8.12.11-10.44.45-9.29-.56-18.53-1-27.8L144,693.14Z" transform="translate(157.52 -61.87)"/><path class="cls-5" d="M156.37,680.42c0,1.2.17,2.39.17,3.6-.31,1.18.24,2.39-.11,3.58-.28,1.4-.51,3-.64,4.45-.25.91.07,1.76-.09,2.69-.19,1.47,0,3-.25,4.49a3.87,3.87,0,0,0-.1.87,10.54,10.54,0,0,1-.06,1.79,8.36,8.36,0,0,1-.09,1.8c-.25,6.54,1.1,12.4,1.84,18.77.05.88.51,1.76.52,2.64,0,.55.21,1.21.26,1.76a14.62,14.62,0,0,0,1.28,3.27,1.43,1.43,0,0,0,1.31.78,2.08,2.08,0,0,0,2.55-1.63c.28-.82.75-1.63,1-2.47a10.73,10.73,0,0,0,.64-4.37,19.49,19.49,0,0,0-.21-5.34,23.09,23.09,0,0,1-.77-3.52c-.58-3.57-1-7.13-1.78-10.64a33.87,33.87,0,0,0-1.34-3.32,1.59,1.59,0,0,0-1-1.22c-.53-.15-.38.77-.66,1.28-.86,2.25-.29,4.73-.31,7.09a18.33,18.33,0,0,0,.57,5.32c.59,2,.44,3.53.75,5.34.44,1.1.6,2.32.93,3.47a.75.75,0,0,0,1.36.22,3.08,3.08,0,0,0,.09-1.76,3.17,3.17,0,0,1-.07,1.78.79.79,0,0,1-1.43-.22c-.37-1.19-.5-2.29-1-3.47-.33-1.16-.11-2.41-.45-3.55a26.07,26.07,0,0,1-1-7.13c0-2.38-.58-4.87.28-7.19.24-.44.11-.92.45-1.32.77-.55,1.6.59,1.76,1.27a33.27,33.27,0,0,1,1.37,3.33c.95,4.08,1.37,8.32,2.14,12.42l.47,1.73a19.64,19.64,0,0,1,.26,5.41,11.31,11.31,0,0,1-.63,4.47,4.53,4.53,0,0,1-.3.9c-.57,1-.69,2.34-1.79,3.2a3.31,3.31,0,0,1-2.82.07c-1.05-.72-1.24-2.16-1.74-3.24a6.7,6.7,0,0,1-.37-1.8,4.75,4.75,0,0,1-.13-.91c0-.92-.47-1.72-.51-2.64-.72-6.34-2-12.29-1.74-18.78a9.07,9.07,0,0,0,.1-1.78,12.26,12.26,0,0,0,.06-1.8,3.72,3.72,0,0,1,.11-.91c.23-1.49.06-3,.28-4.49a21.94,21.94,0,0,1,.12-2.68,42.45,42.45,0,0,1,.71-4.45c.37-1.16-.17-2.38.16-3.57,0-1.19-.08-2.39-.12-3.59Z" transform="translate(157.52 -61.87)"/><path class="cls-5" d="M164.46,662.77a12.63,12.63,0,0,1,0,3.93c-.22,1.31,0,2.62-.12,3.93-.26,2.63.17,5.23.17,7.87a4.87,4.87,0,0,0,.2,1.88c.29.55.83,1.15.77,1.84a10.14,10.14,0,0,0,.45,2.89,48.6,48.6,0,0,0,1.35,6.73c1.11,4.09,1.12,8.46,2.28,12.59.15,1.31.27,2.61.38,3.92a7.75,7.75,0,0,1,.42,2.93,7.75,7.75,0,0,0,.17,1.93,5.49,5.49,0,0,1,.23,2c.11,2,.4,3.93.4,5.89l.14,3.94s0-.12,0-.12,0,.12,0,.12l-.25-3.94c0-2-.41-3.91-.53-5.89a5.42,5.42,0,0,0-.23-1.92c-.36-1.29,0-2.69-.37-3.89a17,17,0,0,1-.49-2.92,12.34,12.34,0,0,0-.45-2.9,68.19,68.19,0,0,1-1.28-7.78c-.07-.62-.38-1.21-.45-1.93a29.27,29.27,0,0,0-.87-3.81c-.39-1.92-.57-3.89-1-5.81a6.41,6.41,0,0,1-.22-2c.06-.66-.41-1.08-.73-1.73a5.33,5.33,0,0,1-.21-2c0-2.61-.38-5.26-.09-7.87.13-1.31,0-2.64.23-3.93a12.88,12.88,0,0,0,.14-3.92Z" transform="translate(157.52 -61.87)"/></g><polygon class="cls-7" points="469.65 590.93 398.59 487.94 209.08 487.94 138.02 590.93 469.65 590.93"/><polygon class="cls-8" points="303.83 350.6 209.08 487.94 398.59 487.94 303.83 350.6"/><polygon class="cls-9" points="438.81 466.86 367.03 362.82 240.64 362.82 168.86 466.86 438.81 466.86"/><polygon class="cls-8" points="303.83 271.21 240.64 362.82 367.03 362.82 303.83 271.21"/><polygon class="cls-7" points="401.65 344.46 345.81 263.53 261.1 263.53 205.26 344.46 401.65 344.46"/><polygon class="cls-8" points="303.46 202.14 261.1 263.53 345.81 263.53 303.46 202.14"/><polygon class="cls-9" points="303.46 159.23 246.9 241.21 239.09 252.53 367.83 252.53 303.46 159.23"/><path class="cls-4" d="M373.09,672.75a148.72,148.72,0,0,0,.27-17.51H296.1c.34,18.1.88,37.25,1.77,48.92,2.07,27.27,2.21,72.08,2.21,72.08s11.49,10.16,18,10.9c22.74,2.59,33.64,3.8,59.3-3.36C377.41,783.78,371.16,688.34,373.09,672.75Z" transform="translate(157.52 -61.87)"/><path class="cls-5" d="M368.83,573.63,295,582.45l.61,26.26s.07,22.32.52,46.53h77.26C372.69,625.65,368.83,573.63,368.83,573.63Z" transform="translate(157.52 -61.87)"/><polygon class="cls-6" points="490.4 353.04 395.64 490.38 585.16 490.38 490.4 353.04"/><g id="Texture-3" data-name="Texture"><path class="cls-5" d="M306.92,648.6c.23,2.43.11,4.89.25,7.31a4.57,4.57,0,0,0,.5,1.34c.2.49.15,1,.31,1.44.52,1.37.44,2.92.77,4.31.5,4,.32,9.19.94,13.15.18,2.25,1,4.91,1.32,7.17,1,3.79,1.15,7.72,1.55,11.61.59,5.31-.09,10.77.41,16.07.53,2.25-.1,5-.3,7.29l-.7,5.81c-.19,1.73,0,4.09,0,5.84l.2,5.85a51.44,51.44,0,0,0,.43,5.83,50.59,50.59,0,0,1-.44-5.82L312,730c0-1.79-.25-4.13-.06-5.86.34-3.08,1-7.87,1.19-10.9-.24-2.17-.57-4.34-.6-6.55a97,97,0,0,0-.28-11.69c-.24-2.91-.56-5.83-1-8.7-.69-3.32-1.55-6.68-1.92-10.07-.59-3.93-.38-9.19-.83-13.12-.24-.95-.22-1.94-.39-2.9s-.45-1.94-.63-2.83a5,5,0,0,1-.48-1.4c-.08-2.45.1-4.88-.07-7.33Z" transform="translate(157.52 -61.87)"/><path class="cls-5" d="M314.06,664.79a19.12,19.12,0,0,0,.81,6.16c.55,1.48.72,3,1.25,4.53.57,3.59.87,7.28,1.32,10.9a15.34,15.34,0,0,1,.53,3.1c.26,2.41-.15,5.46.58,7.7a7.42,7.42,0,0,1,.55,1.49c.69,2,1.75,3.81,2.16,5.89a19.27,19.27,0,0,0,1.09,4.54,41.43,41.43,0,0,1-.11,4.72,113.68,113.68,0,0,0-.19,12.52c0,12.13.43,25.53.84,37.59-.66-14.24-.89-29.56-1.14-43.85.05-3.53.53-7.4.39-10.92A19.31,19.31,0,0,1,321,704.6c-.42-2-1.5-3.87-2.22-5.83-.17-.81-.61-1.42-.83-2.21-.27-2.36-.27-4.71-.38-7.08-.29-2.79-1-6.31-1.14-9.3a27.22,27.22,0,0,0-1-6.14l-.31-1.53a20,20,0,0,1-1.06-7.72Z" transform="translate(157.52 -61.87)"/><path class="cls-5" d="M330.52,674.48c.76,16.5,3.22,39.34,2.82,55.6,0,2.37-.1,8.17-.1,10.44,0,1.73.28,3.49.14,5.23-.23,1.18,0,2.3-.19,3.48-.11.59-.26,1.14-.33,1.71a1.44,1.44,0,0,1-.42.83c-.26,1.05.38,2.19.66,3.21a19.9,19.9,0,0,0,1.13,5.95c.13.62,0,1.21.12,1.76a9.22,9.22,0,0,1,.26,1.73,5.72,5.72,0,0,0,.17,1.7c.39,2.87.17,5.82.53,8.69a31.94,31.94,0,0,0,1.39,5A43.27,43.27,0,0,0,337,785a43.18,43.18,0,0,1-.48-5.18,25.72,25.72,0,0,1-1.48-5c-.39-2.88-.21-5.79-.62-8.66a6.44,6.44,0,0,1-.19-1.75,8.86,8.86,0,0,0-.28-1.7,14.7,14.7,0,0,0-.13-1.71,16.66,16.66,0,0,1-1.09-5.12c0-1.19-.72-2.18-.77-3.36a1.38,1.38,0,0,1,.37-1.31c.21-.65.28-1.41.45-2.06.22-1.11,0-2.34.22-3.45.15-1.72-.1-3.47-.1-5.2,0-2.26.08-8.12.11-10.44.45-9.29-.56-18.52-1-27.8l-1.52-27.8Z" transform="translate(157.52 -61.87)"/><path class="cls-5" d="M342.94,661.76c.05,1.2.17,2.39.17,3.6-.32,1.18.24,2.39-.11,3.58a43,43,0,0,0-.64,4.45,24,24,0,0,0-.09,2.69c-.19,1.47,0,3-.25,4.49a3.94,3.94,0,0,0-.1.87,11.68,11.68,0,0,1-.06,1.79,8.46,8.46,0,0,1-.09,1.81c-.26,6.53,1.09,12.4,1.84,18.76,0,.88.51,1.77.52,2.65,0,.54.21,1.21.26,1.75a15.08,15.08,0,0,0,1.27,3.27,1.45,1.45,0,0,0,1.32.78,3,3,0,0,0,1.62-.26,3.1,3.1,0,0,0,.93-1.37c.27-.82.75-1.62,1-2.47a10.91,10.91,0,0,0,.64-4.37,19.42,19.42,0,0,0-.22-5.33,22,22,0,0,1-.76-3.53c-.58-3.56-1-7.13-1.78-10.63A33.06,33.06,0,0,0,347,681a1.62,1.62,0,0,0-1-1.22c-.53-.15-.38.78-.67,1.28-.85,2.25-.29,4.74-.3,7.09a18.25,18.25,0,0,0,.57,5.32,41.65,41.65,0,0,1,.75,5.34c.44,1.1.59,2.33.92,3.47a.75.75,0,0,0,1.37.22,3.14,3.14,0,0,0,.09-1.75,3.14,3.14,0,0,1-.07,1.77.79.79,0,0,1-1.44-.22,35.61,35.61,0,0,0-1-3.46c-.33-1.17-.11-2.42-.46-3.56a26.43,26.43,0,0,1-1-7.12c0-2.39-.58-4.87.28-7.19.24-.45.1-.93.45-1.33.77-.54,1.6.6,1.76,1.27a31.86,31.86,0,0,1,1.36,3.33c1,4.09,1.37,8.32,2.15,12.42l.47,1.74a20,20,0,0,1,.26,5.41,11.16,11.16,0,0,1-.64,4.47,3.59,3.59,0,0,1-.3.89c-.57,1-.68,2.34-1.78,3.21a3.37,3.37,0,0,1-2.83.06c-1-.72-1.24-2.15-1.73-3.23a6.88,6.88,0,0,1-.38-1.8,5.82,5.82,0,0,1-.13-.92c0-.91-.46-1.71-.51-2.63-.71-6.35-2-12.29-1.74-18.79a7.73,7.73,0,0,0,.1-1.78,12.22,12.22,0,0,0,.07-1.79,4.4,4.4,0,0,1,.1-.92c.23-1.49.07-3,.28-4.49a24.28,24.28,0,0,1,.13-2.68,41.85,41.85,0,0,1,.71-4.44c.36-1.16-.18-2.39.16-3.58,0-1.19-.09-2.39-.12-3.59Z" transform="translate(157.52 -61.87)"/><path class="cls-5" d="M351,644.12a12.57,12.57,0,0,1,0,3.92c-.22,1.31,0,2.62-.13,3.93-.25,2.64.18,5.23.17,7.87a5,5,0,0,0,.21,1.88c.29.55.83,1.16.77,1.85a10.12,10.12,0,0,0,.45,2.88,49.46,49.46,0,0,0,1.34,6.73c1.12,4.09,1.12,8.47,2.28,12.59.15,1.31.27,2.62.39,3.92a8.2,8.2,0,0,1,.42,2.93,7.83,7.83,0,0,0,.17,1.94,5.41,5.41,0,0,1,.22,2c.12,2,.41,3.93.41,5.89l.14,3.94s0-.12,0-.12,0,.13,0,.12l-.25-3.93c-.05-2-.41-3.92-.53-5.89a5.26,5.26,0,0,0-.24-1.93c-.36-1.29,0-2.68-.36-3.89a17,17,0,0,1-.5-2.92,12.17,12.17,0,0,0-.44-2.89,68.76,68.76,0,0,1-1.29-7.79c-.07-.61-.37-1.21-.45-1.92a29,29,0,0,0-.86-3.82c-.39-1.92-.57-3.89-1-5.81a6.11,6.11,0,0,1-.21-2c.06-.65-.41-1.08-.73-1.72a5.18,5.18,0,0,1-.21-2c0-2.61-.39-5.27-.09-7.88.13-1.31,0-2.64.23-3.93a12.83,12.83,0,0,0,.14-3.91Z" transform="translate(157.52 -61.87)"/></g><polygon class="cls-10" points="656.22 572.27 585.16 469.28 395.64 469.28 324.59 572.27 656.22 572.27"/><polygon class="cls-6" points="490.4 331.94 395.64 469.28 585.16 469.28 490.4 331.94"/><polygon class="cls-11" points="625.38 448.2 553.6 344.16 427.2 344.16 355.42 448.2 625.38 448.2"/><polygon class="cls-6" points="490.4 252.56 427.2 344.16 553.6 344.16 490.4 252.56"/><polygon class="cls-10" points="588.22 325.81 532.38 244.87 447.67 244.87 391.83 325.81 588.22 325.81"/><polygon class="cls-6" points="490.03 183.48 447.67 244.87 532.38 244.87 490.03 183.48"/><polygon class="cls-11" points="490.03 140.58 433.47 222.55 425.65 233.88 554.4 233.88 490.03 140.58"/><path class="cls-12" d="M182,796.24s26.46,8.74,36.5,2.07S276,806.65,276,806.65c1.39-3,20.05,26.08,15.48,29.15-2.1,1.42-89.45-4.93-114.18-27.38C169.11,801,182,796.24,182,796.24Z" transform="translate(157.52 -61.87)"/><path class="cls-13" d="M161,817.3s26.46,8.74,36.5,2.06S255,827.71,255,827.71c1.4-3,20.05,26.08,15.49,29.15-2.11,1.42-89.45-4.93-114.19-27.39C148.06,822.06,161,817.3,161,817.3Z" transform="translate(157.52 -61.87)"/><path class="cls-14" d="M228,881.84c53,14.38,153.29,7.72,111.31-7.87s-99.91-21-109.14-8.77S228,881.84,228,881.84Z" transform="translate(157.52 -61.87)"/><path class="cls-13" d="M280.58,867.73c-13.85,1.36-37.35,6.08-5.36,12.06,34.28,6.41,49.13,1.26,41.89-4C317.11,875.73,299.25,865.87,280.58,867.73Z" transform="translate(157.52 -61.87)"/><path class="cls-14" d="M700.78,850.62c27.32,3.66,76.74-6.33,54.83-11.32s-51.08-3.84-54.85,2.88S700.78,850.62,700.78,850.62Z" transform="translate(157.52 -61.87)"/><path class="cls-13" d="M726,840.09c-6.79,1.6-18.16,5.52-1.86,6.38,17.47.91,24.52-2.64,20.56-4.8C744.68,841.66,735.15,837.92,726,840.09Z" transform="translate(157.52 -61.87)"/><path class="cls-14" d="M292,815.55c-.23-1.28,88.34,10.16,89.75-2.18,1.72-15.17-8-35.47-16.88-33s-26.66-7.79-24.29-14-24.88-21.79-34.36-5.91S276.92,813.61,292,815.55Z" transform="translate(157.52 -61.87)"/><path class="cls-13" d="M294,797.81s75.37,17,80.87,9.65,4.19-11.93,4.19-11.93c.5-2.79,5.18,17.57,2.68,21-1.15,1.56-70.89,7.58-89.22-7.47C286.51,804,294,797.81,294,797.81Z" transform="translate(157.52 -61.87)"/><path class="cls-13" d="M315.09,767.31s-12.44,19.6-3.85,16.8,18.92-10.19,17.79-16.5C327.54,760.46,324.87,760.15,315.09,767.31Z" transform="translate(157.52 -61.87)"/></svg>