<?xml version="1.0" encoding="utf-8"?>
<!-- Generator: Adobe Illustrator 26.1.0, SVG Export Plug-In . SVG Version: 6.00 Build 0)  -->
<svg version="1.1" id="Layer_1" xmlns="http://www.w3.org/2000/svg" xmlns:xlink="http://www.w3.org/1999/xlink" x="0px" y="0px"
	 viewBox="0 0 1312 1232" style="enable-background:new 0 0 1312 1232;" xml:space="preserve">
<style type="text/css">
	.st0{clip-path:url(#SVGID_00000003102054568487214480000000899436733446244999_);}
	.st1{fill:url(#SVGID_00000181058561919660153530000003644609934336518292_);}
	.st2{display:none;}
	.st3{display:inline;}
	.st4{display:inline;clip-path:url(#SVGID_00000036208994323732339230000003846756216332154792_);}
	.st5{opacity:0.48;fill:#C7EAF0;enable-background:new    ;}
	.st6{opacity:0.66;fill:#C7EAF0;enable-background:new    ;}
	.st7{opacity:0.91;fill:#738B8C;enable-background:new    ;}
	.st8{opacity:0.83;fill:#E9F7F9;enable-background:new    ;}
	.st9{display:inline;clip-path:url(#SVGID_00000045614209719750768300000009755880880900093572_);}
	.st10{opacity:0.71;fill:#D6D6D6;enable-background:new    ;}
	.st11{opacity:0.71;fill:#FFFFFF;enable-background:new    ;}
	.st12{opacity:0.95;fill:#FFFFFF;enable-background:new    ;}
	.st13{display:inline;clip-path:url(#SVGID_00000118360799202645750240000013298169169188682129_);}
	.st14{opacity:0.71;fill:#CBF5F1;enable-background:new    ;}
	.st15{opacity:0.92;fill:#B7E9E4;enable-background:new    ;}
	.st16{opacity:0.92;fill:#8BCBC5;enable-background:new    ;}
	.st17{fill:none;stroke:#C9F0EC;stroke-width:2.2282;stroke-miterlimit:10;}
	.st18{fill:none;}
	.st19{opacity:0.3;}
	.st20{fill:#466F46;fill-opacity:0.5;}
</style>
<g>
	<defs>
		<rect id="SVGID_1_" width="1312" height="1232"/>
	</defs>
	<clipPath id="SVGID_00000101782898444329189090000001644636089183964817_">
		<use xlink:href="#SVGID_1_"  style="overflow:visible;"/>
	</clipPath>
	<g style="clip-path:url(#SVGID_00000101782898444329189090000001644636089183964817_);">
		
			<linearGradient id="SVGID_00000065043698025483242560000010813734692085416118_" gradientUnits="userSpaceOnUse" x1="656" y1="1232" x2="656" y2="0" gradientTransform="matrix(1 0 0 -1 0 1232)">
			<stop  offset="0" style="stop-color:#569EA8"/>
			<stop  offset="0.1562" style="stop-color:#719391"/>
			<stop  offset="0.3658" style="stop-color:#879C8E"/>
			<stop  offset="0.8021" style="stop-color:#7E9289"/>
			<stop  offset="0.8556" style="stop-color:#78928D"/>
			<stop  offset="0.9239" style="stop-color:#699398"/>
			<stop  offset="0.9937" style="stop-color:#5195A8"/>
		</linearGradient>
		<rect x="-47" style="fill:url(#SVGID_00000065043698025483242560000010813734692085416118_);" width="1406" height="1232"/>
		<g class="st2">
			<defs>
				<rect id="SVGID_00000004546524661642627800000009294839471507831230_" x="522" y="138" width="98" height="113.5"/>
			</defs>
			<clipPath id="SVGID_00000005255392928126853670000009406652347547343282_" class="st3">
				<use xlink:href="#SVGID_00000004546524661642627800000009294839471507831230_"  style="overflow:visible;"/>
			</clipPath>
			<g style="display:inline;clip-path:url(#SVGID_00000005255392928126853670000009406652347547343282_);">
				<path class="st5" d="M601.5,138.3c0.1-0.4,0.7-0.3,1.1-0.2c0.5,0.2,0.9,0.4,1.2,0.7c1.4,0.9,2.8,1.7,4.3,2.4
					c2.9,1.4,5.8,2.9,8.6,4.4c0.9,0.4,1.7,1,2.5,1.5c0.2,0.1,0.4,0.3,0.5,0.5c0.2,0.4,0.3,0.7-0.1,0.8s-1.2-0.3-1.7-0.4
					c-2.7-0.5-5.2-1.4-7.6-2.7c-2.7-1.3-6.3-3-7.9-5.5C602,139.2,601.4,138.6,601.5,138.3z"/>
				<path class="st6" d="M617,163.9c-2.4,6-3.8,12.3-4.4,18.7c0.6-1,1.1-2.1,1.6-3.2c0.6-2,3-4.9,3.6-6.9c0.5-1.2,0.7-2.5,0.8-3.8
					C618.5,167.1,618,165.4,617,163.9L617,163.9z M615.2,147.3c0.7,0.3,1.4,0.6,2,0.8v-0.2C616.6,147.7,615.9,147.5,615.2,147.3
					L615.2,147.3z M596.1,144.1c-0.8,0.9-1.8,1.7-2.9,2.3c-1.1,0.6-2.4,0.9-3.7,1.1c-0.2,0-0.4,0-0.6,0h-0.6c-3.8,0-5.8,3.9-7.4,5.3
					l0.3,0.4c2.2,10.9,3.7,16.9,9,23.1c0.8,1,1.1,1.4,1.1,1.4c-0.4,0-11.8-12.1-12.7-15.3c-0.6-2.1-1.6-6.1-2.4-9.6l-0.5-0.1
					c-1.9-0.3-3.7-0.5-5.6-0.6c-1-0.1-2.1,0.1-3,0.5c-3.8,2.3-7,5.4-9.4,9l-0.2,0.3c0.3,2.9-7.7,17.9-2.2,23.2
					c7.1,6.8,9.1,14.1,10.8,16.7c0.2,0.3,0.1,0.4-0.2,0.4c-1.3,0-7-2.8-12-6.5c-2.2,4.2-7.6,13.1-7.3,17.8c0.6,7.1,3.2,11.6,3,14
					c0,0.3-0.1,0.4-0.3,0.4c-1.6,0-8.2-8.4-6.7-14.6c1.3-5.2-0.1-8,0.2-10.4c-2.7,0.9-5.3,2.2-7.8,3.7c-7.2,4.1-5.6,4.5-10.9,9.4
					c-0.7,0.6-1.3,1.3-1.7,2.1c-0.4,0.8-0.5,1.7-0.5,2.6c0,0.8,0.1,1.7,0.2,2.7c0,1.2,0.6,2.3,1.5,3.1c0.9,0.8,2.2,1.3,3.4,1.3
					c0.7,0,1.3-0.1,2-0.4l0,0c-0.4,0.9-0.6,1.8-0.6,2.7c0,1.2,0.3,2.3,0.9,3.4c0.6,1.1,1.4,2,2.4,2.7c1.2,0.8,2.7,1.2,4.1,1.2
					c1.5-0.1,2.9-0.3,4.3-0.7l0,0c-0.1,0.5-0.2,1.1-0.2,1.6c0,1.3,0.4,2.5,1,3.6c0.6,1.1,1.6,2.1,2.7,2.8c1.2,0.9,2.7,1.4,4.3,1.5
					c0.8,0,1.7-0.2,2.5-0.4c1.2-0.3,2.4-0.9,3.4-1.6c0.4,3.3,1.1,5.2,3.5,6.6c0.5,0.3,1.1,0.5,1.6,0.5c2,0,4.2-1.7,5.9-3
					c1.1-0.9,2-1.8,2.9-2.8c3.3-6.9,6.1-13.9,8.5-21.1l0.8,6.4c2.8-3,4.9-6.4,6.4-10c0.4-0.9,7.4-6,7.4-7.1c0,0,0,0,0-0.1
					c0,0,0-0.1,0-0.1c-0.1-0.1-0.5-5.5-0.9-7.9c-2.3,1-4.7,1.8-7.2,2.3c-2.5,0.4-5.1,0.6-7.7,0.6c-2.9,0-4.5-0.3-1.1-0.8
					c6.3-0.9,11.2-4.2,17.1-6.9v0.2c2.3-1.7,4.8-3.3,7.3-4.6c5.5-3.3,11.7-4,12.4-10.3c0.1-0.7,0.3-1.4,0.6-2
					c-0.5-7.1-0.9-18.7,0.2-22l1.3-3.6c-0.2-0.4-0.3-0.8-0.3-1.2c0.1-1.3,0.6-2.5,1.4-3.5C607.2,152.7,600.7,149.3,596.1,144.1
					L596.1,144.1z M597.6,142.5l-0.3,0.4l-0.6,0.7c4.6,5.2,11.1,8.6,18.2,9.7l0.4-0.5C608.4,151.2,602.2,147.6,597.6,142.5
					L597.6,142.5z M599.1,140.7l-0.9,1.2c4.6,5.1,10.7,8.6,17.7,10.2l0.3-0.8c-6.7-1.8-12.6-5.5-16.9-10.6L599.1,140.7z
					 M601.6,138.2c-0.4,0-1.1,0.9-2.1,2l0.3-0.2c4.2,5,10,8.7,16.5,10.4c0-0.2,0.1-0.3,0.2-0.5c-6.4-2.1-11.9-5.8-15.9-10.8l0.6-0.5
					c3.9,4.9,9.4,8.6,15.6,10.6l0.3-0.6c-2.8-1.1-5.5-2.5-7.9-4.1C606,143.2,603.3,141,601.6,138.2L601.6,138.2"/>
				<path class="st7" d="M591.4,177.7c0,0-0.2-0.4-1.1-1.4c-5.3-6.3-6.8-12.1-9-23.1l-0.3-0.4c-0.2,0.2-0.4,0.4-0.7,0.5
					c-0.1,0-0.3,0-0.4,0c-1.2-0.1-2.5-0.3-3.7-0.5c0.7,3.5,1.8,7.6,2.4,9.6C579.5,165.6,590.9,177.7,591.4,177.7z"/>
				<path class="st7" d="M589.8,204.1c0-0.5,0.2-1.1,0.5-1.6c0.3-0.5,0.6-0.9,1.1-1.3v-0.2c-5.9,2.7-10.8,5.9-17.1,6.9
					c-3.4,0.5-1.8,0.8,1.1,0.8c2.6,0,5.2-0.2,7.7-0.6c2.5-0.6,4.8-1.3,7.1-2.3c0-0.3-0.1-0.6-0.2-0.9
					C589.9,204.6,589.9,204.3,589.8,204.1L589.8,204.1z"/>
				<path class="st7" d="M553.5,194.4l-0.2,0.2L553,195c-2,4-7.3,7.1-9.5,7.8l-0.7,0.2c-0.4,2.3,1.1,5.1-0.2,10.4
					c-1.5,6.2,5.2,14.5,6.7,14.5c0.2,0,0.3-0.1,0.3-0.4c0.1-2.5-2.4-7-3-14c-0.4-4.6,5.1-13.6,7.3-17.8c0.7-1.4,1.1-2.3,0.7-2.3
					C554.4,193.4,554.1,193.8,553.5,194.4z"/>
				<path class="st8" d="M613.3,158.7l-1.3,3.6c-1.2,3.4-0.8,15-0.2,22c0.2-0.5,0.5-1.1,0.8-1.6c0.6-6.4,2.1-12.7,4.4-18.7
					c-0.9-1.6-2-3.1-3.3-4.5C613.5,159.2,613.4,158.9,613.3,158.7L613.3,158.7z"/>
				<path class="st8" d="M619.7,148.4c-0.7-0.1-1.5-0.3-2.3-0.5v0.2c-0.7-0.2-1.4-0.5-2.1-0.8c-2.2-0.7-4.2-1.6-6.2-2.6
					c2.5,1.6,5.1,3,7.9,4.1l-0.3,0.6c-6.2-2-11.6-5.7-15.6-10.6l-0.6,0.5c4,5,9.6,8.7,15.9,10.8c0,0.2-0.1,0.3-0.2,0.5
					c-6.6-1.7-12.4-5.4-16.6-10.4l-0.3,0.2l-0.3,0.4c4.3,5.1,10.2,8.8,16.9,10.6l-0.3,0.8c-6.9-1.6-13-5.2-17.6-10.2l-0.5,0.6
					c4.6,5.1,10.8,8.7,17.7,10.3l0.2-0.2l0.4-0.4c0.2-0.2,0.4-0.5,0.7-0.7c0.2-0.2,0.4-0.4,0.6-0.6l0.4-0.4l0.7-0.6l0.5-0.5l0.7-0.6
					C619.6,148.5,619.7,148.4,619.7,148.4L619.7,148.4z"/>
				<path class="st8" d="M555.4,185.1c-5.5-5.3,2.5-20.3,2.2-23.2c-1.8,3.7-3.1,7.6-4,11.5c-0.8,3.4-3.1,6.1-3.1,9.5
					c0.1,2.2,0.8,4.3,2.2,6.1c0.7,1,1.1,2.1,1.1,3.3c0,0.8-0.2,1.6-0.5,2.4l0.2-0.2c0.7-0.6,1.1-0.9,1.3-0.9c0.2,0,0,0.9-0.7,2.3
					c4.9,3.7,10.7,6.5,12,6.5c0.3,0,0.4-0.1,0.2-0.4C564.5,199.2,562.4,191.9,555.4,185.1z"/>
				<path class="st8" d="M568,245.6c1.7-1.8,3-3.8,3.9-6.1c1.1-3.2,2.9-6.1,5.4-8.6l-0.9-6.4C574,231.7,571.2,238.8,568,245.6
					L568,245.6z"/>
				<path class="st8" d="M614.9,153.3c-7.1-1.1-13.6-4.6-18.2-9.7l-0.6,0.6c4.6,5.2,11.1,8.7,18.3,9.9
					C614.6,153.7,614.7,153.5,614.9,153.3z"/>
			</g>
		</g>
		<g class="st2">
			<defs>
				
					<rect id="SVGID_00000078729119449709258760000013588789480148867989_" x="1092.6" y="754.2" transform="matrix(0.4538 -0.8911 0.8911 0.4538 -106.4434 1459.1161)" width="88.9" height="124.4"/>
			</defs>
			<clipPath id="SVGID_00000073710231217280674200000018316978786115336834_" class="st3">
				<use xlink:href="#SVGID_00000078729119449709258760000013588789480148867989_"  style="overflow:visible;"/>
			</clipPath>
			<g style="display:inline;clip-path:url(#SVGID_00000073710231217280674200000018316978786115336834_);">
				<path class="st10" d="M1103.9,791.6c0.6,1,1.3,2,2.1,2.9L1103.9,791.6z M1131.8,801.3c-1.1,0.7-2.3,1.4-3.5,2
					c-1.8,0.9-3.8,1.4-5.8,1.5c-1.2,0.1-2.3,0-3.4-0.3c0.2,0.6,0.3,1.3,0.4,2c1.1,0.3,2.3,0.4,3.5,0.3c2-0.2,4-0.7,5.8-1.5
					c0.7-0.3,1.4-0.7,2.1-1.1C1131,803.2,1131.4,802.3,1131.8,801.3L1131.8,801.3z M1145,782c0.1,0.6,0.1,1.3,0.1,1.9
					c-0.1,1.8-0.5,3.5-1.3,5.1c0.4-0.2,0.9-0.4,1.4-0.5c0.2-0.9,0.4-1.8,0.4-2.7C1145.6,784.5,1145.4,783.2,1145,782L1145,782z
					 M1129.6,768.5l-0.8,1.3c3,1.6,5.5,3.9,7.4,6.7c1.5,2,2.7,4.1,3.7,6.4l0.1,0.2c-0.1-0.7-0.2-1.5-0.5-2.2c-1-2.2-2.3-4.3-3.7-6.3
					C1134.2,772.1,1132,770.1,1129.6,768.5L1129.6,768.5z M1130.2,764.7l-0.5,0.9l-1.4,2.3c-0.2-0.1-0.5-0.3-0.8-0.4
					c-1.2-0.6-2.4-1-3.7-1.1c-1.3-0.1-2.6,0-3.8,0.5c-1.7,0.5-3.3,1.1-5,1.9c-1.3,0.6-2.5,1.6-3.5,2.7c-1.4,1.6-2.7,3.4-3.8,5.2
					c0.2,0.5,0.3,1,0.2,1.6c-0.1,0.5-0.4,1-0.8,1.4c-0.2,0.2-0.5,0.4-0.7,0.5c-0.2,0.9-0.3,1.7-0.2,2.6c0.1,0.7,0.2,1.4,0.5,2.1
					l0-0.1c-0.1-2,0.4-3.9,1.3-5.6c1.1-2.1,2.4-4,4-5.7c0.9-1.2,2.1-2.1,3.5-2.7c1.6-0.7,3.3-1.4,4.9-1.9c1.2-0.4,2.5-0.6,3.8-0.5
					c1.3,0.1,2.6,0.5,3.7,1.1l0.8,0.4l0.7-1.2c-0.4-0.2-0.8-0.4-1.3-0.6l1.3-2.2L1130.2,764.7"/>
				<path class="st10" d="M1137.7,823.3l1.2,1.4c0.6,0.7,1.3,1.4,2,2l0,0C1140,825.5,1138.9,824.4,1137.7,823.3L1137.7,823.3z
					 M1159.4,823.2c-1.4,1.1-2.9,2-4.5,2.8c-1.8,0.9-3.7,1.4-5.7,1.5c-0.7,0-1.3,0-2,0l0,0c0.2,0.6,0.4,1.3,0.4,1.9
					c0.7,0.1,1.4,0.1,2.1,0.1c2-0.1,3.9-0.6,5.7-1.5c1.1-0.6,2.2-1.2,3.2-1.9C1158.7,825.1,1159,824.1,1159.4,823.2L1159.4,823.2z
					 M1171.6,804.6c0.1,0.7,0.1,1.5,0,2.3c-0.2,1.2-0.5,2.4-1.1,3.6c0.4-0.2,0.9-0.4,1.3-0.6c0.1-0.3,0.1-0.7,0.2-1
					C1172.2,807.4,1172,805.9,1171.6,804.6L1171.6,804.6z M1158.6,794.2l-0.8,1.2c1.2,0.7,2.3,1.5,3.3,2.4c1.2,1.1,2.2,2.3,3,3.7
					c0.7,1,1.3,1.9,1.7,2.7c0.3,0.4,0.5,0.9,0.7,1.4l0-0.4c-0.1-1.1-0.5-2.1-1.1-3c-0.4-0.8-1.1-1.7-1.8-2.7c-0.8-1.4-1.9-2.6-3-3.7
					C1160.1,795.2,1159.3,794.7,1158.6,794.2L1158.6,794.2z M1159.3,790.4l-0.5,0.9l-1.3,2.2l-0.8-0.4c-1.2-0.6-2.4-1-3.7-1.1
					c-1.3-0.1-2.6,0-3.8,0.5c-1.7,0.5-3.3,1.2-5,1.9c-1.4,0.6-2.6,1.6-3.6,2.8c-1.5,1.8-2.9,3.7-4,5.7c-0.9,1.7-1.4,3.6-1.3,5.6
					c0.1,0.7,0.2,1.4,0.4,2.1l0-0.1c-0.1-1.9,0.4-3.9,1.3-5.6c1.1-2.1,2.5-4,4-5.7c0.9-1.2,2.2-2.1,3.5-2.8c1.6-0.7,3.3-1.4,4.9-1.9
					c1.2-0.4,2.5-0.6,3.8-0.5c1.3,0.1,2.6,0.5,3.7,1.1l0.8,0.4l0.7-1.2c-0.4-0.2-0.8-0.5-1.2-0.7l1.3-2.2L1159.3,790.4"/>
				<path class="st10" d="M1179.8,847.8c-1,0.3-2.1,0.5-3.1,0.5c-1.1,0.1-2.3,0-3.4-0.2l0.1,0.7c0.1,0.3,0.2,0.6,0.2,0.9l0.1,0.5
					c1.1,0.2,2.2,0.3,3.4,0.2c1.1-0.1,2.1-0.3,3.1-0.6c0-0.2,0-0.5,0-0.7l0,0c-0.1-0.2-0.2-0.4-0.3-0.5
					C1179.9,848.3,1179.8,848.1,1179.8,847.8L1179.8,847.8z M1199,825.3c0.1,0.8,0.1,1.6,0,2.3c-0.2,1.4-0.7,2.8-1.3,4.1
					c-0.7,1.3-1.5,2.6-2.5,3.8c-1.7,2.2-3.6,4.3-5.6,6.2c-1.5,1.4-3.1,2.7-4.9,3.8c0.2,0.6,0.4,1.3,0.5,1.9c1.7-1.1,3.3-2.4,4.8-3.7
					c2-1.9,3.9-4,5.6-6.2c0.9-1.2,1.8-2.5,2.5-3.8c0.7-1.3,1.1-2.6,1.3-4.1C1199.6,828.1,1199.4,826.6,1199,825.3L1199,825.3z
					 M1186.3,815l-0.7,1.2c1.2,0.7,2.2,1.5,3.2,2.4c1.1,1.1,2.1,2.3,2.9,3.6c0.7,1,1.2,1.9,1.7,2.7c0.2,0.4,0.4,0.9,0.6,1.3
					c0-0.1,0-0.2,0-0.3c-0.1-1.1-0.5-2.1-1.1-3c-0.4-0.8-1-1.7-1.7-2.7c-0.8-1.3-1.8-2.6-2.9-3.6
					C1187.7,816.1,1187,815.5,1186.3,815L1186.3,815z M1185.2,814.3l-0.7-0.4c-1.1-0.6-2.3-0.9-3.6-1.1c-1.2-0.1-2.5,0.1-3.7,0.5
					c-1.7,0.5-3.3,1.2-4.9,1.9c-1.3,0.7-2.5,1.6-3.5,2.8c-1.5,1.8-2.9,3.7-4,5.8c-1,1.7-1.5,3.6-1.4,5.6c0.1,0.8,0.2,1.5,0.4,2.2
					l0-0.2c0-1.9,0.5-3.9,1.4-5.6c1.1-2.1,2.5-4,4-5.8c0.9-1.2,2.1-2.1,3.5-2.8c1.6-0.7,3.2-1.4,4.9-1.9c1.2-0.4,2.4-0.6,3.6-0.5
					c1.3,0.1,2.5,0.5,3.6,1.1l0.7,0.4l0.7-1.2C1185.9,814.9,1185.5,814.6,1185.2,814.3"/>
				<path class="st10" d="M1180.3,849c0-0.4-0.1-0.9-0.2-1.3l-0.4,0.1c0.1,0.2,0.2,0.5,0.3,0.7
					C1180.2,848.7,1180.2,848.8,1180.3,849z"/>
				<path class="st10" d="M1185.8,850.9c0-1.1-0.2-2.1-0.5-3.1c0.1,0.4,0.1,0.7,0.1,1.1c0,1.8-0.4,3.5-1.2,5.1
					c-0.5,0.9-1.1,1.8-1.8,2.5c-1.6,1.5-3.6,2.5-5.7,2.8c-1.8,0.3-3.7,0.1-5.4-0.6c-0.3-0.1-0.6-0.3-0.9-0.4l-0.5-0.3
					c-1.7,2.1-3.5,4-5.5,5.8c-2.2,1.9-4.7,3.5-7.3,4.6c-1.8,0.8-3.7,1.2-5.7,1.2c-2.2,0.1-4.4-0.4-6.3-1.3l0,0
					c-1.7-0.9-3.2-2.1-4.5-3.5c-1.3-1.4-2.5-2.8-3.9-4.3c-1.3-1.2-2.4-2.6-3.3-4.2c-0.6-1-1-2-1.3-3c0.3,1.8,0.8,3.5,1.7,5
					c0.9,1.5,1.9,3,3.2,4.3c1.4,1.5,2.6,3,3.9,4.3c1.3,1.4,2.8,2.6,4.5,3.5l0,0c2,1,4.1,1.4,6.3,1.3c2,0,3.9-0.5,5.7-1.2
					c2.7-1.1,5.1-2.7,7.3-4.6c2-1.7,3.9-3.7,5.5-5.8l0.5,0.3c2,1,4.2,1.3,6.4,1c2.2-0.3,4.1-1.3,5.7-2.8c0.7-0.7,1.3-1.6,1.8-2.5
					C1185.4,854.5,1185.9,852.7,1185.8,850.9L1185.8,850.9z"/>
				<path class="st10" d="M1172.6,853.9l0.1,0.1c0.3,0.1,0.6,0.2,0.9,0.3c0.1-0.6,0.3-1.1,0.3-1.7c0.1-0.8,0-1.6-0.1-2.4l-0.1-0.5
					c-0.1-0.3-0.2-0.6-0.2-0.8c0.1,0.6,0.1,1.2,0,1.7C1173.3,851.7,1173,852.8,1172.6,853.9L1172.6,853.9z"/>
				<path class="st10" d="M1168.4,849.3c-0.2-1.1-0.6-2.1-1.2-2.9c-0.5-0.8-1.2-1.7-1.9-2.7c-0.9-1.4-2-2.6-3.2-3.7
					c-0.7-0.7-1.5-1.2-2.3-1.8l-0.8,1.2c1.3,0.7,2.4,1.6,3.5,2.5c1.2,1.1,2.3,2.3,3.2,3.7c0.7,1,1.4,1.9,1.9,2.7
					c0.3,0.5,0.6,1,0.8,1.6C1168.4,849.7,1168.4,849.5,1168.4,849.3L1168.4,849.3z"/>
				<path class="st10" d="M1158.5,837.5l1.3-2.2L1158.5,837.5l-0.8-0.4c-2.4-1.3-5.2-1.7-7.8-0.9c-1.7,0.4-3.3,1-5,1.6
					c-1.3,0.5-2.4,1.4-3.4,2.4c-1.5,1.6-2.7,3.3-3.8,5.2c-0.9,1.6-1.3,3.4-1.1,5.2c0.1,0.6,0.2,1.1,0.4,1.6
					c-0.1-1.7,0.3-3.4,1.1-4.8c1-1.9,2.3-3.6,3.8-5.2c0.9-1.1,2.1-1.9,3.4-2.4c1.6-0.6,3.3-1.2,5-1.6c2.6-0.7,5.4-0.4,7.8,0.9
					l0.8,0.4l0.7-1.2L1158.5,837.5z"/>
				<path class="st10" d="M1132.3,845.2c-1.8,0.9-3.6,1.7-5.5,2.2c-1.8,0.5-3.7,0.7-5.5,0.5c-1.7-0.2-3.3-0.7-4.8-1.5l0,0
					c-2.8-1.6-5.4-3.7-7.6-6.1c-1.3-1.3-2.5-2.8-3.5-4.4c-0.7-1.2-1.2-2.4-1.6-3.7c0,0.1,0,0.2,0,0.3c0.3,1.9,1,3.7,2,5.3
					c1,1.6,2.1,3.1,3.5,4.4c2.2,2.4,4.8,4.5,7.6,6.1c1.5,0.8,3.1,1.3,4.8,1.5c1.9,0.2,3.7,0,5.5-0.5c1.5-0.4,3-1,4.4-1.6
					C1131.8,846.9,1132,846,1132.3,845.2L1132.3,845.2z M1147.1,827.4c0.1,0.7,0,1.4-0.1,2.1c-0.2,0.8-0.4,1.6-0.8,2.3l0,0l1.2-0.4
					c0.1-0.7,0.2-1.4,0.1-2.1C1147.5,828.7,1147.4,828.1,1147.1,827.4L1147.1,827.4L1147.1,827.4z M1132.7,818l-0.7,1.3
					c2,1.1,3.9,2.5,5.7,4c1.2,1,2.2,2.1,3.2,3.4l0,0c0.4,0.5,0.8,1.1,1.1,1.8c0-0.3,0-0.5-0.1-0.8c-0.3-1.1-0.8-2.1-1.6-3
					c-0.7-0.6-1.4-1.3-2-2c-0.4-0.5-0.8-0.9-1.2-1.4C1135.8,820.1,1134.3,819,1132.7,818L1132.7,818z M1132.6,815.4l-1,1.9l-0.9-0.5
					c-2.7-1.5-5.7-1.9-8.7-1.3c-1.8,0.4-3.6,0.9-5.3,1.5c-0.3,0.1-0.5,0.2-0.8,0.4c-1,1.2-2.1,2.4-3.2,3.4c-0.7,0.6-1.3,1.1-2,1.6
					c-0.5,0.7-1,1.5-1.4,2.3c-0.4,0.8-0.7,1.7-0.9,2.6c-0.2,0.8-0.2,1.7,0,2.6c0.1,0.5,0.2,0.9,0.3,1.4c-0.1-0.7,0-1.3,0.1-2
					c0.2-0.9,0.5-1.8,0.9-2.6c1.1-1.9,2.4-3.6,3.9-5.2c1-1.1,2.2-1.9,3.5-2.4c1.7-0.6,3.5-1.1,5.3-1.5c3-0.6,6-0.2,8.7,1.3l0.9,0.5
					l0.7-1.4l-1.1-0.7L1132.6,815.4"/>
				<path class="st10" d="M1102.3,777c-0.2,0-0.3-0.1-0.5-0.1c-0.9,0-1.8,0.2-2.6,0.6c-0.4,0.1-0.8,0.3-1.2,0.6
					c-0.2,0.2-0.5,0.5-0.6,0.8c-0.2,0.3-0.3,0.6-0.4,0.9c-0.1,0.2-0.2,0.4-0.2,0.5c0.5,0,1,0,1.4,0c0.1-0.1,0.1-0.2,0.2-0.2
					c0.3-0.3,0.8-0.5,1.2-0.6c0.7-0.3,1.4-0.5,2.1-0.6C1101.9,778.3,1102.1,777.7,1102.3,777L1102.3,777z M1108,776.8l-0.2,0.4
					c-0.5,0.9-0.9,1.9-1.1,3c0.3-0.1,0.5-0.3,0.7-0.5c0.4-0.4,0.7-0.8,0.8-1.4C1108.3,777.8,1108.2,777.2,1108,776.8z"/>
				<path class="st10" d="M1077.9,804.9c0.2,1.2,0.5,2.3,0.9,3.4c1,3.6,2.8,6.9,5.1,9.8c1.9,2.2,4.1,4,6.6,5.5l0.3,0.1
					c0.3,0.1,0.6,0.3,0.9,0.4c1.2,0.5,2.9,1,4.6,1.4c0.8,0.2,1.7,0.4,2.3,0.6l0.9,0.2c0.3,0.1,0.6,0.1,0.9,0.1c0.9,0,1.9,0,2.8-0.2
					c0.2-0.8,0.4-1.5,0.7-2.2c-1.3,0.4-2.6,0.6-3.9,0.5c-0.3,0-0.6,0-0.9-0.1l-1-0.2c-0.7-0.2-1.5-0.4-2.3-0.6
					c-1.7-0.5-3.5-1-4.6-1.4c-0.3-0.1-0.6-0.2-0.9-0.4l-0.3-0.2c-2.5-1.5-4.7-3.3-6.6-5.5c-2.3-2.9-4.1-6.2-5.1-9.8
					C1078.2,805.9,1078,805.4,1077.9,804.9L1077.9,804.9z M1115.9,817.4c-1,0.5-2,1.2-2.7,2c-0.9,0.9-1.7,1.9-2.5,3
					c0.6-0.5,1.3-1,2-1.6C1113.8,819.8,1114.9,818.6,1115.9,817.4L1115.9,817.4z M1119.1,804.5c0.1,0.8,0.1,1.6,0.1,2.4
					c-0.1,1.3-0.3,2.6-0.8,3.9c-0.1,0.2-0.2,0.4-0.3,0.6l1.2-0.3c0.2-0.7,0.2-1.4,0.3-2.1c0.1-0.8,0-1.6-0.1-2.4
					C1119.4,805.8,1119.2,805.2,1119.1,804.5L1119.1,804.5z M1103.3,789.4l-0.7,0.5l1.2,1.7l2.1,2.9c1.4,2,2.7,3.8,4.5,6.3
					c0.8,1.2,1.8,2.1,2.4,2.9c0.5,0.6,0.9,1.2,1.2,1.9c0-0.5-0.1-1-0.2-1.5c-0.3-0.8-0.8-1.6-1.3-2.3c-0.6-0.8-1.5-1.7-2.4-2.9
					c-1.8-2.5-3.2-4.4-4.5-6.3c-0.8-0.9-1.5-1.9-2.1-2.9L1103.3,789.4L1103.3,789.4z M1100.1,785.9c-0.6-0.3-1.2-0.4-1.8-0.5
					c-0.8,0-1.5,0-2.3,0.2c-1.1,0.2-2.1,0.6-3,1.2c-0.9,0.6-1.9,1.4-3.3,2.5c-2.6,1.8-4.8,4.1-6.4,6.7c-0.4,0.7-0.6,1.5-0.8,2.3
					c-0.3,1.9-0.1,3.8,0.4,5.5c-0.2-1.2-0.2-2.3,0-3.5c0.2-0.8,0.4-1.6,0.8-2.3c1.6-2.7,3.9-5,6.5-6.8c1.4-1,2.4-1.9,3.3-2.5
					c0.9-0.6,1.9-1,3-1.2c0.8-0.1,1.5-0.2,2.3-0.2c0.6,0,1.2,0.2,1.8,0.5c0.8,0.5,1.5,1.1,2.1,2l0.1,0l0.7-0.5
					c-0.4-0.5-0.7-1-1.1-1.5l0.3-0.2l-0.3,0.2l-0.1,0C1101.7,787.1,1101,786.4,1100.1,785.9"/>
				<path class="st11" d="M1195.2,835.5c0.9-1.2,1.8-2.5,2.5-3.8c0.7-1.3,1.1-2.7,1.3-4.1c0.1-0.8,0.1-1.6,0-2.3
					c-0.1-1.1-0.4-2.1-0.9-3.1c-0.8-1.6-1.7-3.1-2.7-4.6c-1-1.7-2.3-3.2-3.7-4.6c-1.3-1.2-2.7-2.2-4.1-3.1c-0.3-0.2-0.7-0.4-1-0.5
					c-1.7-0.9-3.6-1.4-5.5-1.6c-2-0.2-4,0.1-5.8,0.8c-1.2,0.4-2.4,0.8-3.5,1.3c-0.4,0.2-0.9,0.4-1.3,0.6c0.5-1.1,0.9-2.3,1.1-3.6
					c0.1-0.7,0.1-1.5,0-2.3c-0.1-1.1-0.5-2.2-0.9-3.3c-0.8-1.6-1.7-3.2-2.7-4.7c-1.1-1.7-2.3-3.2-3.8-4.6c-1.3-1.2-2.7-2.2-4.1-3.1
					c-0.4-0.2-0.7-0.4-1.1-0.6c-1.7-0.9-3.6-1.5-5.6-1.6c-2-0.2-3.9,0.1-5.8,0.7l-2.4,0.8c-0.5,0.2-0.9,0.3-1.4,0.5
					c0.8-1.6,1.3-3.3,1.3-5.1c0-0.6,0-1.3-0.1-1.9c-0.3-1.7-0.8-3.4-1.6-4.9c-1-1.8-2.1-3.6-3.4-5.4c-2.4-3.4-5.5-6.2-9.1-8.1
					c-0.4-0.2-0.7-0.4-1.1-0.5c-1.7-0.9-3.6-1.5-5.6-1.7c-2-0.2-3.9,0.1-5.8,0.7c-1.9,0.6-3.8,1.3-5.6,2.1c-2,1-3.7,2.3-5.1,4
					c-1.2,1.3-2.2,2.8-3.2,4.2c-0.8-0.4-1.8-0.5-2.7-0.6c-1.6,0-3.1,0.3-4.6,1c-1,0.3-1.9,0.9-2.6,1.5c-0.8,0.7-1.4,1.5-1.8,2.4
					c-0.3,0.5-0.5,1-0.7,1.5c-0.2,0.4-0.3,0.8-0.4,1.2c-0.2,0.6-0.2,1.3-0.2,1.9l0.1,0.4c-0.4,0.2-0.9,0.5-1.3,0.8
					c-1.3,0.8-2.3,1.8-3.6,2.7c-3.3,2.2-6,5.1-8,8.6c-0.6,1.1-1,2.4-1.3,3.6c-0.4,2.5-0.3,5.1,0.5,7.5c0.1,0.5,0.3,1,0.4,1.4
					c1,3.6,2.8,6.9,5.1,9.8c1.9,2.2,4.1,4,6.6,5.5l0.3,0.1c0.3,0.1,0.6,0.3,0.9,0.4c1.2,0.5,2.9,1,4.6,1.4c0.8,0.2,1.7,0.4,2.3,0.6
					l1,0.2c0.3,0.1,0.6,0.1,0.9,0.1c1.3,0.1,2.7-0.1,3.9-0.5c-0.3,0.7-0.5,1.5-0.7,2.3l0,0c-0.4,2-0.3,4.1,0.3,6.1
					c0.4,1.3,0.9,2.5,1.6,3.7c1,1.6,2.1,3.1,3.5,4.4c2.2,2.4,4.8,4.5,7.6,6.1l0,0c1.5,0.8,3.2,1.3,4.8,1.5c1.9,0.2,3.7,0,5.5-0.5
					c1.9-0.5,3.8-1.2,5.5-2.2c-0.3,0.8-0.5,1.7-0.6,2.5c-0.1,1.1-0.1,2.3,0,3.4c0.1,0.7,0.2,1.4,0.5,2.1c0.3,1.1,0.8,2.1,1.3,3
					c0.9,1.5,1.9,3,3.1,4.3c1.4,1.5,2.6,3,3.9,4.3c1.3,1.4,2.8,2.6,4.5,3.5l0,0c2,1,4.1,1.4,6.3,1.4c2,0,3.9-0.5,5.7-1.2
					c2.7-1.1,5.2-2.7,7.3-4.6c2-1.7,3.9-3.7,5.5-5.8l0.5,0.3c0.3,0.1,0.6,0.3,0.9,0.4c1.7,0.7,3.6,0.8,5.4,0.6
					c2.1-0.3,4.1-1.3,5.7-2.8c0.7-0.7,1.3-1.6,1.8-2.5c0.8-1.6,1.2-3.3,1.2-5.1c0-0.4,0-0.7-0.1-1.1c0-0.1,0-0.3-0.1-0.5
					c-0.1-0.7-0.3-1.3-0.5-1.9c1.7-1.1,3.4-2.4,4.9-3.8C1191.6,839.8,1193.5,837.7,1195.2,835.5L1195.2,835.5z M1163.5,823.9
					c-0.9,1.6-1.4,3.3-1.5,5.1c-0.1,1.8,0.2,3.6,0.9,5.2c1.3,3.1,3.9,5.8,6.7,8.5c0.6,1,0.7,2,1.5,2.8c-1-0.5-1.4-1.7-2-2.5
					c-3.7-2.5-6.9-6-7.9-9.9c-0.4-1.6-0.4-3.3,0-4.9C1161.6,826.7,1162.4,825.2,1163.5,823.9L1163.5,823.9z M1158.5,826.1
					c-0.2,1.2-0.3,2.4-0.3,3.6c0.1,0.7,0.2,1.4,0.4,2.1c-3.2-1.3-6.8-1.6-10.1-0.6l-1,0.3l-1.2,0.4c0.4-0.7,0.7-1.5,0.8-2.3
					c0.1-0.7,0.2-1.4,0.1-2.1c0.7,0.1,1.3,0.1,2,0c2-0.1,3.9-0.7,5.7-1.5c1.6-0.8,3.1-1.7,4.5-2.8
					C1159,824.2,1158.7,825.1,1158.5,826.1L1158.5,826.1z M1145.8,791.9c-7.4,2.5-10.7,9.6-13.2,16.5
					C1133.2,801.1,1137.8,792.5,1145.8,791.9z M1121.2,763.8c-5.7,1.7-10.8,5.3-14.4,10.1c-1,1.4-1.9,2.8-2.6,4.3
					c-0.1,0.2-0.2,0.4-0.3,0.6c0.1-0.2,0.1-0.5,0.2-0.7c0.4-1.7,1.1-3.3,2-4.9c1.6-2.7,3.8-4.9,6.4-6.5
					C1115.1,765,1118.1,764,1121.2,763.8z M1097.9,778.1c0.4-0.3,0.8-0.5,1.2-0.6c0.8-0.4,1.7-0.6,2.6-0.6c0.2,0,0.3,0,0.5,0.1
					c-0.2,0.6-0.4,1.3-0.6,1.9c-0.2,0.7-0.3,1.3-0.3,2c-0.8-0.3-1.7-0.5-2.6-0.5l-0.5,0c-0.5,0-0.9,0-1.4,0c0.1-0.1,0.1-0.3,0.2-0.5
					c0.1-0.3,0.2-0.6,0.4-0.9C1097.5,778.6,1097.7,778.4,1097.9,778.1L1097.9,778.1z M1098.7,774.5c-1,1.8-2.5,3.3-4.2,4.5
					c0.2-1.1,0.7-2.1,1.4-2.9C1096.6,775.3,1097.6,774.8,1098.7,774.5L1098.7,774.5z M1079.3,799.9c0.5-3,1.9-5.8,4.1-8
					c2.1-2.2,4.9-3.7,7.8-4.3C1086,790.3,1081.8,794.6,1079.3,799.9L1079.3,799.9z M1108.9,815c-1.3,1.2-2.8,2.2-4.3,3.1
					c-0.2,0.1-0.5,0.3-0.7,0.4c-1.1,0.6-2.3,0.9-3.5,0.8l-0.4-0.1c-0.9-0.2-2.6-0.6-4.1-1.1l-2.1-0.6l-0.7-0.2l-0.2-0.1
					c-2-1.2-3.8-2.7-5.3-4.4c-1.9-2.4-3.3-5.1-4.2-8.1c-0.1-0.3-0.2-0.6-0.3-0.9c-0.5-1.8-0.7-3.6-0.4-5.5c0.2-0.8,0.4-1.6,0.8-2.3
					c1.6-2.7,3.8-5,6.5-6.7c1.4-1,2.4-1.9,3.3-2.5c0.9-0.6,1.9-1,3-1.2c0.8-0.1,1.5-0.2,2.3-0.2c0.6,0,1.2,0.2,1.8,0.5
					c0.8,0.5,1.6,1.1,2.1,2l0.1,0c0.4,0.5,0.7,1,1.1,1.5l0.1,0.2c0.6,1,1.3,2,2.1,2.9c1.4,2,2.7,3.8,4.5,6.3
					c0.8,1.2,1.8,2.1,2.4,2.9c0.6,0.7,1.1,1.5,1.4,2.4c0.1,0.5,0.2,1,0.2,1.5c0,0.3,0,0.7,0,1c0,0.7-0.2,1.4-0.4,2.1
					c-0.1,0.3-0.3,0.5-0.4,0.8C1112.1,811.7,1110.6,813.5,1108.9,815L1108.9,815z M1119.1,799c-1.8-1-3.4-2.4-4.7-4
					c-1.6-1.8-3.2-3.8-4.8-5.7l-0.1,0c-0.6-0.8-1.1-1.6-1.8-2.5c-0.1-0.2-0.2-0.4-0.3-0.7c-0.2-0.4-0.4-0.9-0.5-1.3
					c-0.2-0.7-0.4-1.4-0.4-2.1c-0.1-0.9,0-1.8,0.2-2.6c0.2-1,0.6-2,1.1-3l0.2-0.4c1.1-1.9,2.3-3.6,3.8-5.2c0.9-1.2,2.1-2.1,3.5-2.7
					c1.6-0.7,3.3-1.4,5-1.9c1.2-0.4,2.5-0.6,3.8-0.5c1.3,0.1,2.6,0.5,3.7,1.1c0.2,0.1,0.5,0.3,0.8,0.4c0.2,0.1,0.8,0.4,1.2,0.7
					c2.5,1.5,4.6,3.6,6.2,6c1.5,2,2.7,4.1,3.7,6.4c0.3,0.7,0.4,1.4,0.5,2.2c0,0.2,0,0.4,0,0.7c-0.1,1.1-0.3,2.1-0.8,3.1
					c-0.4,0.7-0.8,1.3-1.2,1.9c-2.1,2.7-4.6,5.2-7.4,7.3c-1.4,1-2.8,1.9-4.4,2.7c-1.2,0.6-2.6,1-3.9,1.1
					C1121.1,799.9,1120,799.6,1119.1,799L1119.1,799z M1119.2,804.5c1.1,0.3,2.3,0.4,3.4,0.3c2-0.2,4-0.7,5.8-1.5
					c1.2-0.6,2.4-1.2,3.5-2c-0.4,0.9-0.8,1.9-1,2.9c-0.4,1.5-0.5,3-0.4,4.5c0.1,0.9,0.2,1.8,0.5,2.6c-3.2-1.3-6.8-1.5-10.2-0.7
					l-1.5,0.4l-1.2,0.3c0.1-0.2,0.2-0.4,0.3-0.6c0.5-1.2,0.8-2.5,0.8-3.9C1119.2,806.1,1119.2,805.3,1119.2,804.5L1119.2,804.5z
					 M1118.8,841.9c-2.3-1.4-4.4-3.1-6.3-5.1c-1.1-1-2-2.2-2.8-3.5c-0.4-0.7-0.7-1.4-1-2.1c-0.5-1.3-0.6-2.7-0.3-4
					c0.2-0.9,0.5-1.8,0.9-2.6c0.4-0.8,0.9-1.6,1.4-2.3c0.8-1,1.6-2,2.5-3c0.7-0.9,1.6-1.5,2.6-2c0.2-0.1,0.5-0.2,0.8-0.4
					c1.7-0.6,3.5-1.1,5.3-1.5c3-0.6,6.1-0.2,8.7,1.3l0.9,0.5l1.2,0.7c1.6,1,3.1,2.1,4.5,3.3c0.4,0.5,0.8,0.9,1.2,1.4
					c0.6,0.7,1.3,1.4,2,2c0.7,0.9,1.2,1.9,1.5,3c0.1,0.2,0.1,0.5,0,0.8l-0.1,0.1c-0.1,0.3-0.2,0.6-0.3,0.9c-0.8,1.3-1.7,2.5-2.8,3.6
					c-1.9,2.1-3.9,4.1-6.1,5.8c-2.2,1.7-4.6,2.9-7.2,3.6c-1.2,0.3-2.5,0.5-3.7,0.4c-1.1-0.1-2.1-0.4-3.1-0.9L1118.8,841.9z
					 M1122.4,845.1c7.6,0.3,13.3-4.4,19.1-8.8C1137,841.9,1129.7,847.3,1122.4,845.1L1122.4,845.1z M1145.2,821.7
					c-0.3-0.2-0.7-0.4-1-0.6c-1-1.2-2-2.3-3.2-3.3c-0.7-0.8-1.5-1.8-2.3-2.8c-0.9-1-1.6-2.1-2.2-3.2c-0.2-0.4-0.4-0.9-0.5-1.3
					c-0.2-0.7-0.4-1.4-0.4-2.1c-0.1-1.9,0.4-3.9,1.3-5.6c1.1-2,2.4-3.9,3.9-5.7c1-1.2,2.2-2.1,3.5-2.7c1.6-0.7,3.3-1.4,5-1.9
					c1.2-0.4,2.5-0.6,3.8-0.5c1.3,0.1,2.6,0.5,3.7,1.1l0.8,0.4c0.4,0.2,0.8,0.4,1.2,0.7c0.8,0.5,1.5,1.1,2.1,1.7
					c1.1,1.1,2.2,2.3,3,3.7c0.7,1,1.3,1.9,1.8,2.7c0.6,0.9,1,1.9,1.1,3l0,0.4c0,0.4,0,0.7-0.1,1.1c-0.2,0.7-0.4,1.3-0.7,1.9
					c-0.6,1.1-1.2,2.1-2,3c-2,2.7-4.4,5.1-7,7.2c-1.3,1-2.7,1.8-4.1,2.5c-1.2,0.6-2.4,0.9-3.7,1.1
					C1147.6,822.6,1146.3,822.3,1145.2,821.7L1145.2,821.7z M1159.1,861.6c-1.2,0.9-2.6,1.7-4,2.3c-1.2,0.5-2.5,0.8-3.9,0.9
					c-1.4,0.1-2.8-0.2-4-0.8l0,0c-1.2-0.7-2.2-1.5-3.1-2.5c-1.1-1.2-2.3-2.6-3.9-4.3c-0.9-1-1.7-2.1-2.4-3.2
					c-0.3-0.5-0.5-1.1-0.7-1.6c-0.2-0.5-0.3-1.1-0.4-1.6c-0.2-1.8,0.2-3.6,1.1-5.2c1.1-1.9,2.3-3.6,3.8-5.2c0.9-1.1,2.1-1.9,3.4-2.4
					c1.6-0.6,3.3-1.2,4.9-1.6c2.6-0.7,5.4-0.4,7.8,0.9l0.8,0.4l1.3-2.2l-1.3,2.2l1.2,0.7c0.8,0.5,1.6,1.1,2.3,1.8
					c1.2,1.1,2.3,2.3,3.2,3.7c0.8,1,1.4,1.9,1.9,2.7c0.6,0.9,1.1,1.9,1.2,2.9c0,0.2,0,0.4,0,0.6c0,0.2,0,0.4-0.1,0.7
					c-0.1,0.6-0.4,1.2-0.6,1.7c-0.5,1-1.1,1.9-1.8,2.8C1163.9,857.5,1161.6,859.8,1159.1,861.6L1159.1,861.6z M1170.7,857
					c-1,0.1-2,0.4-2.9,0.9c-2.2,1.3-4.3,2.9-6.2,4.7c1.2-2.5,3.2-4.5,5.6-5.8c1.3-0.6,2.8-0.9,4.2-0.8c1.3,0,2.6,0.2,3.8,0.1
					C1173.8,856.6,1172.3,856.9,1170.7,857L1170.7,857z M1178.9,852.9c-0.8,0.8-1.8,1.2-2.9,1.4c-0.8,0.1-1.6,0.1-2.4-0.1
					c-0.3-0.1-0.6-0.2-0.9-0.3l-0.1-0.1c0.5-1,0.8-2.1,0.9-3.3c0.1-0.6,0.1-1.2,0-1.7l-0.1-0.7c1.1,0.2,2.2,0.3,3.3,0.2
					c1.1,0,2.1-0.2,3.1-0.5l0.4-0.1c0.1,0.4,0.2,0.9,0.2,1.3c0,0.2,0,0.5,0,0.7c-0.1,0.7-0.3,1.4-0.6,2
					C1179.5,852.2,1179.2,852.6,1178.9,852.9L1178.9,852.9z M1191.3,832.4c-2,2.7-4.4,5.1-7,7.2c-1.3,1-2.6,1.9-4.1,2.6
					c-1.2,0.6-2.5,0.9-3.8,1.1c-1.3,0.1-2.5-0.1-3.7-0.6c-1.1-0.6-2-1.4-2.8-2.4c-1-1.1-2.1-2.6-3.5-4.3c-0.9-1-1.6-2-2.2-3.2
					c-0.2-0.4-0.3-0.8-0.5-1.2c-0.2-0.7-0.4-1.5-0.5-2.2c0-1.9,0.5-3.9,1.4-5.6c1.1-2.1,2.5-4,4-5.8c1-1.2,2.2-2.1,3.5-2.8
					c1.6-0.7,3.2-1.4,4.9-1.9c1.2-0.4,2.4-0.6,3.7-0.5c1.3,0.1,2.5,0.5,3.6,1.1l0.7,0.4c0.4,0.2,0.8,0.5,1.2,0.8
					c0.7,0.5,1.4,1,2,1.6c1.1,1.1,2.1,2.3,2.9,3.7c0.7,1,1.3,1.9,1.7,2.7c0.6,0.9,0.9,1.9,1.1,3c0,0.1,0,0.2,0,0.3
					c0,0.4,0,0.8-0.1,1.1c-0.2,0.7-0.4,1.3-0.7,1.9C1192.6,830.4,1192,831.5,1191.3,832.4L1191.3,832.4z"/>
				<path class="st12" d="M1104.2,778.2l-0.1-0.1c-0.1,0.2-0.1,0.5-0.2,0.7C1104,778.6,1104.1,778.4,1104.2,778.2L1104.2,778.2z
					 M1121.2,763.8c-3.1,0.3-6.1,1.3-8.7,2.9c-2.6,1.6-4.8,3.9-6.4,6.6c0.3,0.2,0.5,0.4,0.8,0.6
					C1110.4,769.1,1115.5,765.6,1121.2,763.8"/>
				<path class="st12" d="M1106.1,773.2c-0.9,1.5-1.6,3.1-2,4.9l0.1,0.1c0.8-1.5,1.6-2.9,2.6-4.3
					C1106.6,773.6,1106.4,773.4,1106.1,773.2z"/>
				<path class="st12" d="M1145.8,791.9c-8,0.6-12.6,9.2-13.2,16.5C1135.1,801.4,1138.4,794.4,1145.8,791.9z"/>
				<path class="st12" d="M1091.1,787.5c-3,0.6-5.7,2.1-7.8,4.3c-2.1,2.2-3.5,5-4.1,8C1081.8,794.6,1086,790.3,1091.1,787.5"/>
				<path class="st12" d="M1098.7,774.5c-1.1,0.2-2,0.8-2.8,1.6c-0.7,0.8-1.2,1.8-1.4,2.9C1096.2,777.9,1097.6,776.3,1098.7,774.5"
					/>
				<path class="st12" d="M1163.5,823.9c-1.1,1.2-1.9,2.7-2.3,4.3c-0.4,1.6-0.4,3.3,0,4.9c0.6,0.3,1.1,0.7,1.6,1
					c-0.7-1.6-1-3.4-0.9-5.2C1162.1,827.2,1162.6,825.5,1163.5,823.9"/>
				<path class="st12" d="M1161.2,833.2c1,3.9,4.1,7.4,7.9,9.9c0.7,0.7,1,1.9,2,2.5c-0.8-0.7-0.9-1.8-1.5-2.8
					c-2.9-2.8-5.4-5.4-6.7-8.5C1162.4,833.8,1161.8,833.5,1161.2,833.2"/>
				<path class="st12" d="M1141.3,836.3c-5.7,4.4-11.5,9.1-19,8.8C1129.7,847.3,1137.1,841.9,1141.3,836.3"/>
				<path class="st12" d="M1175.3,856.1c-1.3,0-2.6-0.1-3.9-0.1c-0.2,0.4-0.4,0.7-0.7,1.1C1172.3,856.9,1173.8,856.6,1175.3,856.1"
					/>
				<path class="st12" d="M1171.4,856c-1.4-0.1-2.9,0.2-4.2,0.8c-2.4,1.3-4.3,3.4-5.6,5.8c1.9-1.8,3.9-3.4,6.2-4.7
					c0.9-0.5,1.9-0.8,2.9-0.9C1170.9,856.7,1171.2,856.3,1171.4,856"/>
			</g>
		</g>
		<g class="st2">
			<defs>
				<rect id="SVGID_00000074412742025178486460000012721675758296909965_" x="1046" y="351" width="131" height="106"/>
			</defs>
			<clipPath id="SVGID_00000088831680233086103610000016431245456177477792_" class="st3">
				<use xlink:href="#SVGID_00000074412742025178486460000012721675758296909965_"  style="overflow:visible;"/>
			</clipPath>
			<g style="display:inline;clip-path:url(#SVGID_00000088831680233086103610000016431245456177477792_);">
				<path class="st14" d="M1160.2,407.6c-4.9,0-8.4-6-10.7-7.8c-0.5-0.4-0.3-0.5,0.4-0.5c3.8,0.5,7.6,1.2,11.3,2.1
					c7.2,0.8,10.4,2.8,11.7,4.6c-0.3,1.2-0.5,2.4-0.7,3.7c-3.7-1.1-7.5-1.8-11.4-2.1L1160.2,407.6L1160.2,407.6z M1151.2,354.1
					c-0.6,5.7,1.8,13.5,2.7,18.6c0.9,3.8,0.6,7.8-0.7,11.5c-0.8,2.9-1.7,4.2-6.6,7.6h-1.3c-0.7,0.5-1.3,1-1.7,1.7
					c-0.9,1.3-0.9,3.1-2,4.3c-0.7,0.6-1.4,1.2-2.2,1.8c-0.3,0.3-0.7,0.7-0.9,1.1c-0.2,1.2-0.7,2.7-1,4v0.1c0.2,4.7,3.2,9,6.3,12.9
					c0.6,0.3,0.9,0.5,1,0.8c0.1,0.3,0.2,0.5,0.2,0.8c0.2,0.3,0.4,0.7,0.4,1.2c0,0.4-0.1,0.8-0.3,1.2c-0.2,0.4-1,0.6-1.8,0.6
					c-0.5,0.1-0.9,0.2-1.4,0.2c-0.6,0-1.2-0.1-1.8-0.2c-0.6,0-1.1,0-1.4-0.1h-0.2c-1.3,0-2.6,0.3-3.7,0.9l-0.8-0.2h-0.1
					c-2,0.5-3.4,4.3-3.9,6.1c-0.9,3.5,3,5,4.2,8.4c1.4,3.4,3.2,6.5,5.6,9.4c0.7,1.2,1.8,2.1,3.2,2.6c0.4,0.1,1,0.2,1.2,0.5
					c0.3,0.3,0.2,0.8,0,1.3c-0.8,2.1-2.1,4-3.6,5.6c-3.2,0.2-6.3,0.2-7.7,0.4l-7-2.5c-7.2-4.8-14-10.2-20.1-16.3
					c-2.4-2.4-4.8-5-8-6.2c-1.6-0.6-3.3-1-4.9-1.2c-4.8-0.7-9.6-1.2-14.5-1.4c-2-0.1-4-0.1-6.1-0.1c6.9,0,13.8,0.5,20.6,1.6
					c1.7,0.2,3.4,0.6,5,1.2c3.2,1.3,5.6,3.8,8,6.2c6.6,6.5,13.8,12.4,21.7,17.4c1.2,0.9,2.5,1.4,4,1.6c0.3,0,0.7-0.1,1-0.2
					c1.5-0.5,14.6-0.3,15.4-1.6c5.8-9.7,13.1-18.6,21.5-26.3c0.9-0.8,1.7-1.8,2.3-2.8c1.1-2.2,0.5-4.7,0.2-7.1c0-0.3,0-0.5,0-0.8
					c-0.4,0.2-0.8,0.4-1.2,0.5c-4.2,1.1-17,3.8-17,3.8s2.1-3,14.5-8.2c0.8-0.4,1.7-0.8,2.6-1c0.3,0,0.4,0.2,0,0.8
					c-0.7,1,0.4,1.9,1.1,2.6c-0.3-8.6,3.3-17.1,4.5-25.7c0.5-4.3,0.6-8.7,0.5-13.1c0.2-2.7-0.2-5.4-1-7.9
					c-7.6-3.8-9.5-9.4-17.4-12.5C1156,356.7,1153.7,355.2,1151.2,354.1"/>
				<path class="st15" d="M1138.8,421.9c0.4,0,0.9,0.1,1.4,0.1C1139.8,422.1,1139.3,421.9,1138.8,421.9z M1145.2,419
					c0.1,0.3,0.2,0.6,0.1,1c0,0.3-0.1,0.6-0.3,0.9c-0.2,0.3-0.4,0.5-0.7,0.7c-0.3,0.2-0.6,0.3-0.9,0.4c0.9,0,1.6-0.3,1.8-0.6
					c0.2-0.4,0.3-0.8,0.3-1.2C1145.6,419.8,1145.4,419.4,1145.2,419L1145.2,419z M1146,352.7c-2.3,0-17.4,3.4-19.4,4
					c-13.5,4-27.5,6.5-41.5,7.3c-0.6,0.5-1.1,1.2-1.5,1.9c-0.3,0.7-0.5,1.6-0.4,2.4c0,0.4,0,0.8,0.1,1.2c0.5,2,1.2,3.9,2.1,5.7
					c1.6,3.9,2.4,8,2.3,12.2c-0.2,7.6-2,15.1-5.1,22.1c-0.9,2.4-2.2,4.7-3.9,6.7c-1.2,1.3-2.7,2.4-3.9,3.8c-2,2.7-3.4,5.7-4.1,9h0.9
					c3.2-3.6,9.4-5.7,12.3-9.5c0.1-0.3,0.3-0.7,0.6-0.9c-0.2,0.3-0.4,0.6-0.6,0.9c-0.1,1.4-0.2,2.7-0.5,4.1
					c-0.3,0.6-0.7,1.1-1.2,1.6c-1.4,1.2-2.6,2.6-3.8,4c4.8,0.2,9.7,0.7,14.5,1.4c1.7,0.2,3.3,0.6,4.9,1.2c3.2,1.3,5.6,3.8,8,6.2
					c6.2,6,12.9,11.5,20.1,16.2l7.1,2.4c1.3-0.2,4.6-0.2,7.7-0.4c1.6-1.6,2.8-3.5,3.6-5.6c0.2-0.4,0.3-0.9,0-1.3
					c-0.3-0.3-0.8-0.4-1.2-0.5c-1.3-0.5-2.4-1.4-3.2-2.6c-2.3-2.8-4.2-6-5.6-9.4c-1.2-3.5-5.1-4.9-4.2-8.4c0.4-1.7,1.8-5.5,3.8-6.1
					h0.1c-8.2-2.2-15.4-5-23.7-6.7c-2.2-0.4-4.4-0.9-6.6-1.6c-4.3-1.3-8.3-3.5-11.8-4.7c-1.1-0.2-2.2-0.5-3.2-0.8
					c1.1,0.2,2.1,0.4,3.2,0.8c17.4,3.9,46.5,5.3,52.1,7.7c-3.3-3.9-6.2-8.2-6.3-12.9v-0.1c-0.2,1.2-0.3,2.2,0.2,2.7
					c0.1,0,0,0.1-0.2,0.1c-3.9,0-46.4-9.1-46.4-9.1s17.8,0.4,31.3,0.4c4.8,0.2,9.5,0,14.3-0.4c0.2-0.1,0.5-0.1,0.7-0.1
					c1.2,0,1.2,1.1,1,2.5c0.2-0.4,0.6-0.8,0.9-1.1c0.8-0.6,1.5-1.1,2.2-1.8c1.1-1.2,1.1-2.9,2-4.3c0.5-0.7,1.1-1.3,1.7-1.7h-1.5
					c-7.5,0-15.2,1.7-22.7,2.3c-1.4,0.1-2.8,0.2-4.3,0.2c-0.7,0-1.4-0.1-2.1-0.1c-4.3-0.5-8.5-2.9-12-3.7h-0.2c-1.1,0-2.1,0-3.2-0.1
					c0.4-0.1,0.9-0.1,1.3-0.1c0.7,0,1.4,0.1,2,0.2c8.2,0,16.2-2.1,24.2-4.2c8-2.1,16.1-4.2,24.2-4.2c0.8,0,1.7,0,2.5,0
					c-0.2,0.8-0.3,1.5-0.5,2.1c1.3-3.7,1.6-7.7,0.7-11.5c-0.9-5-3.3-12.8-2.7-18.6C1149.6,353.2,1147.8,352.8,1146,352.7L1146,352.7
					"/>
				<path class="st16" d="M1083.9,419.5c-2.9,3.8-9.1,5.9-12.3,9.5h0.6c2,0,4,0,6.1,0.1c1.2-1.4,2.4-2.8,3.8-4
					c0.5-0.4,0.9-1,1.2-1.6C1083.7,422.3,1083.8,420.9,1083.9,419.5L1083.9,419.5z M1084.5,418.7c-0.3,0.2-0.5,0.5-0.6,0.9
					C1084.1,419.2,1084.3,419,1084.5,418.7"/>
				<path class="st16" d="M1100.7,390c-0.4,0-0.9,0-1.3,0.1c1.1,0,2.1,0.1,3.2,0.1h0.1C1102.1,390.1,1101.4,390,1100.7,390
					L1100.7,390z M1151.2,381.9c-8.2,0-16.3,2.1-24.3,4.2c-8,2.1-16,4.1-24.1,4.2c3.5,0.8,7.7,3.1,12,3.7c0.7,0.1,1.5,0.1,2.2,0.1
					c1.4,0,2.9-0.1,4.3-0.2c7.5-0.6,15.2-2.3,22.7-2.3h1.5h1.3c4.8-3.4,5.8-4.7,6.6-7.6c0.2-0.6,0.3-1.3,0.5-2.1
					C1152.9,381.9,1152.1,381.9,1151.2,381.9"/>
				<path class="st16" d="M1091.9,409.7c3.5,1.2,7.5,3.4,11.8,4.7c2.2,0.6,4.4,1.2,6.6,1.6c8.4,1.6,15.5,4.4,23.7,6.7l0.8,0.2
					c1.1-0.6,2.4-0.9,3.7-0.9h0.3c0.5,0,1,0,1.4,0.1c0.6,0.1,1.2,0.2,1.8,0.2c0.5,0,1-0.1,1.4-0.2c0.3-0.1,0.6-0.2,0.9-0.4
					c0.3-0.2,0.5-0.4,0.7-0.7c0.2-0.3,0.3-0.6,0.3-0.9c0-0.3,0-0.7-0.1-1c-0.1-0.3-0.1-0.5-0.2-0.8c0-0.3-0.4-0.5-0.9-0.8
					C1138.4,415,1109.3,413.7,1091.9,409.7L1091.9,409.7z M1088.8,408.9c1,0.3,2.1,0.5,3.2,0.8
					C1090.9,409.4,1089.8,409.1,1088.8,408.9"/>
				<path class="st16" d="M1137.6,397.9c-0.2,0-0.5,0-0.7,0.1c-4.8,0.5-9.6,0.6-14.4,0.5c-13.5,0-31.3-0.4-31.3-0.4
					s42.5,9.1,46.4,9.1c0.2,0,0.3,0,0.2-0.1c-0.5-0.4-0.5-1.4-0.2-2.7c0.2-1.2,0.7-2.7,1-4C1138.8,399.2,1138.7,397.9,1137.6,397.9z
					"/>
				<path class="st15" d="M1170.7,413.4c-0.9,0.2-1.8,0.5-2.6,1c-12.4,5.2-14.5,8.2-14.5,8.2s12.8-2.7,17-3.8
					c0.4-0.1,0.9-0.3,1.2-0.5c0-0.5,0-0.9,0-1.4c-0.7-0.8-1.8-1.6-1.1-2.6C1171.2,413.6,1171.1,413.4,1170.7,413.4"/>
				<path class="st15" d="M1149.9,399.3c-0.7,0-0.9,0.2-0.4,0.5c2.3,1.8,5.8,7.8,10.7,7.8h0.6c3.9,0.2,7.7,0.9,11.4,2.1
					c0.2-1.2,0.4-2.4,0.7-3.7c-1.3-1.8-4.5-3.7-11.7-4.6C1157.5,400.5,1153.8,399.8,1149.9,399.3"/>
				<path class="st11" d="M1086.1,366.7c-2.7,1.9-5.9,2.8-9.2,2.7c-1.6,0-3.1-0.2-4.6-0.5c-4.8-1.3-9.4-3.3-13.6-5.9
					c-4.1-2.3-8.3-4.8-10.7-8.6c-0.3-0.4-0.4-0.9-0.4-1.4c0-0.1,0-0.3,0.1-0.4l0.1-0.1l-0.1-0.8l-0.3,0.7c4.8,2.6,8.6,6.6,10.9,11.5
					c1.2,2.3,2.1,4.8,2.6,7.4c0.8,3.8,1.2,7.7,1.1,11.5l0,0h0.8h-0.8c0,6.6-0.8,10.3-0.8,14.6c0,3.6,0.6,7.1,1.8,10.5
					c1.5,3.8,3.7,7.2,6.4,10.2c1.4,1.7,3,3.2,4.8,4.5c1.4,1.2,3,2,4.7,2.6l0.4-1.6c-1.5-0.5-3-1.2-4.2-2.2c-2.5-2-4.7-4.3-6.6-6.9
					c-1.7-2.1-3.1-4.5-4-7.1c-1.1-3.2-1.7-6.6-1.7-10.1c0-4.1,0.9-7.8,0.9-14.6h-0.8h0.8h-0.8h0.8c0.1-4-0.3-8-1.1-11.9
					c-0.6-2.7-1.6-5.3-2.8-7.7c-2.4-5.2-6.5-9.5-11.7-12.2l-0.2-0.1h-0.3c-0.2,0-0.5,0.1-0.7,0.3c-0.2,0.1-0.4,0.3-0.5,0.5
					c-0.2,0.4-0.3,0.8-0.3,1.2c0,0.8,0.2,1.5,0.7,2.2c2.7,4.2,7.1,6.8,11.2,9.1c4.4,2.7,9.1,4.8,14,6.1c1.6,0.4,3.3,0.5,5,0.5
					c3.6,0.1,7.2-1,10.2-3.1l-0.9-1.2L1086.1,366.7z"/>
				<path class="st11" d="M1170.6,375c0.8-0.3,1.6-0.8,2.2-1.4c0.5-0.5,0.7-1.2,0.8-1.9c-0.1-1-0.4-1.9-1.1-2.6
					c-0.5-0.6-1.1-1.2-1.8-1.7c-3.9-2.5-8-4.7-12.3-6.6c-2.5-1.2-5.2-1.9-7.9-2c-3.2,0.2-6.3,1-9,2.6c-6.3,3-11.2,8.3-13.8,14.7
					c-0.9,2.1-1.4,4.3-1.4,6.6c0,0.6,0,1.2,0.1,1.7c0.2,2.1,0.7,4.2,1.5,6.1c1.1,1.9,2.6,3.5,4.4,4.9c2.3,2.1,5.3,3.6,7.5,5.2
					c1.1,0.7,2,1.6,2.7,2.6c0.7,0.9,1,2,1,3.1c0.1,0.8,0.2,1.6,0.3,2.4c0.6,3.1,1.8,7.9,2,8.7c0.3,1.3,0.9,2.5,1.8,3.4
					c1.2,1.1,2.8,1.8,4.4,2c1.6,0.2,3.2,0.6,4.8,1c2.7,1,5.2,1.3,6.8,2c0.7,0.3,1.4,0.7,1.9,1.4c0.5,0.8,0.8,1.8,0.9,2.7l1.6-0.1
					c0-1.3-0.5-2.5-1.2-3.5c-1.1-1.2-2.5-2.1-4.1-2.4c-1.6-0.5-3.4-0.8-5.3-1.5c-2.3-0.8-4.6-0.9-6.3-1.4c-0.8-0.2-1.6-0.6-2.2-1.2
					c-0.7-0.7-1.2-1.7-1.4-2.7c-0.1-0.5-0.7-2.8-1.2-5.2c-0.3-1.2-0.5-2.4-0.7-3.4c-0.2-0.7-0.3-1.4-0.3-2.1c0-1.5-0.5-2.9-1.3-4.1
					c-1.4-1.7-3.1-3.2-5-4.3c-1.9-1.2-3.8-2.5-5.6-3.9c-1.6-1.2-2.9-2.7-4-4.4c-0.7-1.8-1.2-3.7-1.3-5.6c-0.1-0.5-0.1-1-0.1-1.6
					c0.1-2.1,0.5-4.1,1.3-6c2.4-6.1,7-11,13-13.9c2.6-1.4,5.4-2.2,8.3-2.4c2.5,0.1,4.9,0.7,7.2,1.8c4.2,1.9,8.2,4.1,12,6.6
					c0.5,0.4,1,0.8,1.5,1.4c0.4,0.4,0.7,1,0.7,1.6c0,0.3-0.1,0.6-0.3,0.9c-0.4,0.4-1,0.8-1.6,1L1170.6,375L1170.6,375z"/>
				<g>
					<g>
						<path class="st17" d="M1090.9,370.5l1.4,4.2"/>
					</g>
					<g>
						<path class="st17" d="M1093,379.7v3.5"/>
					</g>
					<g>
						<path class="st17" d="M1092.1,390.4c-0.1,1.4-0.4,2.7-0.9,4"/>
					</g>
					<g>
						<path class="st17" d="M1088.9,403.1c-0.2,1.3-0.6,2.5-1.1,3.7"/>
					</g>
					<g>
						<path class="st17" d="M1085.8,411.5c-0.4,1.3-1,2.6-1.8,3.8"/>
					</g>
					<g>
						<path class="st17" d="M1081.1,418.5l-1.6,2.7l-4.1,4.2"/>
					</g>
					<g>
						<path class="st17" d="M1080.6,427l3.9,0.3"/>
					</g>
					<g>
						<path class="st17" d="M1092.6,428.4l3.6,1.1"/>
					</g>
					<g>
						<path class="st17" d="M1105.6,434.9l2.9,2.1"/>
					</g>
					<g>
						<path class="st17" d="M1116.6,444l2.8,3"/>
					</g>
					<g>
						<path class="st17" d="M1126.1,450.8l2.2,1.6"/>
					</g>
					<g>
						<path class="st17" d="M1134.7,454.6l3.1,0.5"/>
					</g>
					<g>
						<path class="st17" d="M1090,366.1c2,0.2,4.1,0.1,6.1-0.3"/>
					</g>
					<g>
						<path class="st17" d="M1102.1,365.2l4.8-0.8"/>
					</g>
					<g>
						<path class="st17" d="M1111.9,363.1c2,0.1,4-0.4,5.8-1.2"/>
					</g>
					<g>
						<path class="st17" d="M1125.9,359.2l6.1-1.7"/>
					</g>
					<g>
						<path class="st17" d="M1140.1,355.6l7-0.5"/>
					</g>
					<g>
						<path class="st17" d="M1150.6,356.5c0.7,0.7,1.5,1.1,2.5,1.2c0.4,0,0.7,0.1,1.1,0.2l-0.1,0.3"/>
					</g>
					<g>
						<path class="st17" d="M1162.5,361.2c1.3,0.7,2.5,1.7,3.5,2.9"/>
					</g>
					<g>
						<path class="st17" d="M1171.2,369.4c1,1,2,2,3.2,2.9"/>
					</g>
					<g>
						<path class="st17" d="M1175.9,378.7c0.3,1.1,0.4,2.3,0.3,3.4"/>
					</g>
					<g>
						<path class="st17" d="M1174.7,390.1l-0.4,3.9"/>
					</g>
					<g>
						<path class="st17" d="M1171.7,402.4l-0.5,3.1"/>
					</g>
					<g>
						<path class="st17" d="M1170.2,412.9c-0.1,1.1-0.1,2.3,0,3.5"/>
					</g>
					<g>
						<path class="st17" d="M1170.7,421.4c0.2,1,0.2,2,0.2,3"/>
					</g>
					<g>
						<path class="st17" d="M1168.7,427.5l-1.6,2.6"/>
					</g>
					<g>
						<path class="st17" d="M1162.5,434c-0.7,1.2-1.5,2.4-2.4,3.4"/>
					</g>
					<g>
						<path class="st17" d="M1154.1,442.6l-2.4,3.4"/>
					</g>
					<g>
						<path class="st17" d="M1147.7,451.5l-2.8,2"/>
					</g>
				</g>
			</g>
		</g>
		
			<rect x="95.4" y="877.2" transform="matrix(0.8904 -0.4551 0.4551 0.8904 -429.1931 184.8762)" class="st18" width="147.9" height="213.2"/>
		<g class="st19">
			<path class="st20" d="M886.7,313.8c52.7-34.1,40.6-77.9-40.1-176.3c-11.7-21-85.3-95.9-88.1-88.5c-3.5,9.3,58.5,98.5,20.8,178.5
				c-37.7,80.1-218.3,53.7-327.8,67.7c-114.4,14.6-183.6,27.6-215.9,112.8C203.2,493.4,275,596,360.1,699.8
				c80.7,98.4,105.2,113.7,161.5,198.7s-56.3,155.9-23.3,149.1c162.5-33.7,87.8-124.7,87.8-124.7
				c-31.2-81.6-178.7-228.8-213.7-331.1c-35-102.3,40.6-224.2,182.8-229.9C673.8,357.2,833,348.6,886.7,313.8z"/>
		</g>
	</g>
</g>
</svg>
