<svg xmlns="http://www.w3.org/2000/svg" viewBox="0 0 68.49 56.01"><defs><style>.cls-1{fill:#cbf5f1;}.cls-1,.cls-2,.cls-3,.cls-4{isolation:isolate;}.cls-1,.cls-4{opacity:0.71;}.cls-2{fill:#b7e9e4;}.cls-2,.cls-3{opacity:0.92;}.cls-3{fill:#8bcbc5;}.cls-4{fill:#fff;}.cls-5{fill:none;stroke:#c9f0ec;stroke-miterlimit:10;stroke-width:1.51px;}</style></defs><g id="Layer_2" data-name="Layer 2"><g id="Layer_1-2" data-name="Layer 1"><path class="cls-1" d="M59.41,29.91c-2.54,0-4.36-3.16-5.57-4.13-.25-.21-.13-.29.22-.29a46.89,46.89,0,0,1,5.88,1.12c3.74.45,5.39,1.46,6.09,2.42-.14.64-.27,1.29-.37,1.93a25.33,25.33,0,0,0-5.92-1.09h-.33ZM54.7,1.62c-.28,3,.94,7.14,1.41,9.8a11.12,11.12,0,0,1-.36,6c-.42,1.55-.9,2.2-3.41,4h-.7a3.66,3.66,0,0,0-.89.91c-.45.71-.47,1.65-1,2.26a14.16,14.16,0,0,1-1.12.93,3.23,3.23,0,0,0-.47.58c-.12.65-.36,1.44-.5,2.11v.07c.09,2.47,1.64,4.78,3.29,6.81.3.14.47.28.49.43s.08.27.12.41a1.12,1.12,0,0,1,.21.61,1.17,1.17,0,0,1-.15.64c-.12.2-.49.3-1,.34a2.65,2.65,0,0,1-.74.11,7.52,7.52,0,0,1-.94-.11,2.23,2.23,0,0,1-.73-.07h-.08a4.21,4.21,0,0,0-1.94.47l-.39-.11h-.07c-1,.27-1.77,2.28-2,3.2-.46,1.86,1.55,2.61,2.19,4.44a18.39,18.39,0,0,0,2.9,5,3.32,3.32,0,0,0,1.64,1.36c.23.06.5.08.64.25a.65.65,0,0,1,0,.66,9.17,9.17,0,0,1-1.89,3c-1.64.1-3.29.14-4,.23l-3.66-1.3A68.11,68.11,0,0,1,31.09,46a13.51,13.51,0,0,0-4.17-3.3,11.44,11.44,0,0,0-2.58-.63,67.74,67.74,0,0,0-7.51-.76c-1.06-.05-2.1-.08-3.15-.08a69.6,69.6,0,0,1,10.69.83,11.36,11.36,0,0,1,2.57.63A13.51,13.51,0,0,1,31.11,46a68,68,0,0,0,11.26,9.19,4.13,4.13,0,0,0,2.07.83,2,2,0,0,0,.54-.08c.75-.25,7.59-.18,8-.83A62.47,62.47,0,0,1,64.17,41.19a5.36,5.36,0,0,0,1.22-1.5c.55-1.16.24-2.47.1-3.75v-.42a2.14,2.14,0,0,1-.65.25c-2.17.59-8.81,2-8.81,2s1.11-1.6,7.54-4.32A5.3,5.3,0,0,1,64.93,33c.17,0,.22.12,0,.44-.38.53.19,1,.54,1.39-.14-4.56,1.73-9,2.37-13.56a53.3,53.3,0,0,0,.24-6.92,11.71,11.71,0,0,0-.5-4.2c-3.93-2-4.93-4.95-9-6.6C57.22,3,56,2.21,54.72,1.63"/><path class="cls-2" d="M48.28,37.47c.18,0,.45.05.73.07C48.78,37.54,48.54,37.48,48.28,37.47Zm3.29-1.53a1.12,1.12,0,0,1,.06.51,1.08,1.08,0,0,1-.15.49,1.21,1.21,0,0,1-.33.38,1.19,1.19,0,0,1-.47.22.88.88,0,0,0,1.11-1A1.19,1.19,0,0,0,51.57,35.94ZM52,.92A95.72,95.72,0,0,0,41.93,3.05,93.19,93.19,0,0,1,20.34,6.9a2.73,2.73,0,0,0-.77,1,2.88,2.88,0,0,0-.23,1.26,3.66,3.66,0,0,0,.06.65,14.55,14.55,0,0,0,1.09,3,16.77,16.77,0,0,1,1.22,6.45A31.16,31.16,0,0,1,19,31a12.37,12.37,0,0,1-2,3.57c-.63.71-1.39,1.28-2,2a12.84,12.84,0,0,0-2.16,4.74h.5c1.64-1.92,4.89-3,6.38-5a.67.67,0,0,1,.3-.45c-.1.15-.19.3-.3.45a13,13,0,0,1-.28,2.15,3.27,3.27,0,0,1-.65.83,18.9,18.9,0,0,0-2,2.13,67.74,67.74,0,0,1,7.51.76,11.44,11.44,0,0,1,2.58.63,13.63,13.63,0,0,1,4.17,3.3,67.69,67.69,0,0,0,10.46,8.57l3.69,1.25c.68-.09,2.37-.13,4-.22a9.41,9.41,0,0,0,1.9-3c.09-.23.16-.49,0-.67a1.24,1.24,0,0,0-.65-.25,3.32,3.32,0,0,1-1.64-1.36A18.65,18.65,0,0,1,46,45.45c-.64-1.82-2.64-2.58-2.18-4.44.22-.92.94-2.93,2-3.2h.06c-4.24-1.18-8-2.66-12.33-3.52a30.57,30.57,0,0,1-3.43-.82c-2.26-.69-4.33-1.86-6.15-2.48-.58-.13-1.14-.27-1.64-.42a9.18,9.18,0,0,1,1.64.42c9,2.08,24.17,2.79,27.08,4.08-1.7-2-3.24-4.31-3.29-6.81v-.08c-.13.65-.16,1.18.12,1.4.06,0,0,.07-.12.07-2,0-24.09-4.83-24.09-4.83s9.25.23,16.25.23a57.58,57.58,0,0,0,7.43-.21,1.49,1.49,0,0,1,.36-.05c.6,0,.65.57.51,1.33a2.91,2.91,0,0,1,.47-.58,14.3,14.3,0,0,0,1.13-.93c.58-.65.59-1.55,1-2.26a3.89,3.89,0,0,1,.9-.91h-.79c-3.91,0-7.89.9-11.79,1.21-.74.06-1.48.13-2.22.13a8.32,8.32,0,0,1-1.12-.08c-2.23-.28-4.39-1.53-6.22-1.94h-.11a15.17,15.17,0,0,1-1.65-.06,3.08,3.08,0,0,1,.68-.08,4.82,4.82,0,0,1,1.06.14c4.23,0,8.39-1.11,12.56-2.21s8.36-2.21,12.59-2.21H56c-.1.42-.18.77-.27,1.09a11.12,11.12,0,0,0,.36-6c-.47-2.66-1.7-6.77-1.41-9.8A6.84,6.84,0,0,0,52,.88"/><path class="cls-3" d="M19.73,36.21c-1.49,2-4.71,3.1-6.38,5h.33c1.05,0,2.09,0,3.15.08a18.9,18.9,0,0,1,2-2.13,3.1,3.1,0,0,0,.65-.83,12.91,12.91,0,0,0,.28-2.15Zm.3-.46a.67.67,0,0,0-.3.45C19.84,36.05,19.93,35.9,20,35.75Z"/><path class="cls-3" d="M28.47,20.62a3,3,0,0,0-.67.08c.56,0,1.11.06,1.64.06h.08a4.83,4.83,0,0,0-1.07-.14ZM54.7,16.34c-4.26,0-8.45,1.11-12.64,2.21s-8.29,2.19-12.53,2.21c1.83.41,4,1.65,6.22,1.94a8.92,8.92,0,0,0,1.16.07c.74,0,1.48-.07,2.22-.12,3.9-.32,7.88-1.22,11.79-1.22h1.45c2.52-1.8,3-2.47,3.41-4,.09-.32.17-.67.27-1.09H54.73"/><path class="cls-3" d="M23.89,31c1.82.63,3.89,1.8,6.14,2.47a34.24,34.24,0,0,0,3.43.83c4.34.82,8.09,2.33,12.34,3.51l.39.11a4.11,4.11,0,0,1,1.94-.49h.16a2.52,2.52,0,0,1,.73.07,7.46,7.46,0,0,0,.95.1,2.26,2.26,0,0,0,.73-.1,1.28,1.28,0,0,0,.46-.21,1.26,1.26,0,0,0,.34-.39,1.4,1.4,0,0,0,.15-.49,1.49,1.49,0,0,0-.06-.51,3,3,0,0,0-.12-.4c0-.15-.19-.29-.49-.43-2.91-1.29-18-2-27.08-4.07Zm-1.64-.42L23.9,31A7.84,7.84,0,0,0,22.25,30.62Z"/><path class="cls-3" d="M47.62,24.79a1.41,1.41,0,0,0-.35.05,60.19,60.19,0,0,1-7.48.26c-7,0-16.25-.24-16.25-.24s22.12,4.83,24.1,4.83c.13,0,.18,0,.12-.06-.28-.23-.25-.76-.12-1.41s.39-1.45.5-2.1S48.23,24.79,47.62,24.79Z"/><path class="cls-2" d="M64.84,33a5.37,5.37,0,0,0-1.35.51C57.06,36.2,56,37.8,56,37.8s6.64-1.44,8.81-2a2.14,2.14,0,0,0,.65-.25V34.8c-.34-.41-.92-.83-.54-1.39.24-.32.19-.44,0-.44"/><path class="cls-2" d="M54.06,25.52c-.35,0-.47.08-.22.29,1.21.94,3,4.12,5.57,4.12h.33A24.82,24.82,0,0,1,65.66,31c.1-.64.23-1.29.37-1.93-.7-1-2.35-2-6.09-2.42a46.89,46.89,0,0,0-5.88-1.12"/><path class="cls-4" d="M20.89,8.32a8,8,0,0,1-4.8,1.45,12.17,12.17,0,0,1-2.4-.27A26.11,26.11,0,0,1,6.63,6.37C4.47,5.14,2.31,3.83,1.07,1.83a1.29,1.29,0,0,1-.21-.72A.47.47,0,0,1,.9.88L1,.83.9.43.72.8A13.4,13.4,0,0,1,6.41,6.9a17.72,17.72,0,0,1,1.37,3.88,27.68,27.68,0,0,1,.56,6.09h0c0,3.49-.44,5.45-.44,7.72a18.1,18.1,0,0,0,.92,5.56,17.25,17.25,0,0,0,3.33,5.39,18.66,18.66,0,0,0,2.47,2.4,6.71,6.71,0,0,0,2.47,1.35l.19-.82a6.11,6.11,0,0,1-2.18-1.19,19.52,19.52,0,0,1-3.44-3.65A14.12,14.12,0,0,1,9.57,29.9a17.51,17.51,0,0,1-.89-5.32c0-2.16.45-4.13.45-7.73h0a28.16,28.16,0,0,0-.58-6.27A18.34,18.34,0,0,0,7.11,6.52,14.1,14.1,0,0,0,1.05.06L.93,0H.79A.93.93,0,0,0,.43.14,1.06,1.06,0,0,0,.16.43,1.37,1.37,0,0,0,0,1.09,2.27,2.27,0,0,0,.34,2.25C1.74,4.47,4,5.82,6.18,7.06a26.77,26.77,0,0,0,7.3,3.22,12.44,12.44,0,0,0,2.58.29,8.78,8.78,0,0,0,5.28-1.65l-.48-.66Z"/><path class="cls-4" d="M64.78,12.67A3.12,3.12,0,0,0,66,11.91a1.52,1.52,0,0,0,.38-1,2.17,2.17,0,0,0-.56-1.36,4.69,4.69,0,0,0-.91-.87,42.19,42.19,0,0,0-6.41-3.47,9.66,9.66,0,0,0-4.11-1,10.59,10.59,0,0,0-4.69,1.35,14.46,14.46,0,0,0-7.15,7.77,9.74,9.74,0,0,0-.74,3.49,5.7,5.7,0,0,0,.07.92,9.94,9.94,0,0,0,.79,3.22,9.43,9.43,0,0,0,2.26,2.57c1.23,1.09,2.74,1.89,3.92,2.77a6,6,0,0,1,1.41,1.39,2.89,2.89,0,0,1,.55,1.65,7.85,7.85,0,0,0,.17,1.29c.3,1.65.92,4.19,1,4.58a3.73,3.73,0,0,0,.94,1.8,4.39,4.39,0,0,0,2.3,1,17.56,17.56,0,0,1,2.47.54c1.42.51,2.68.67,3.52,1a2.31,2.31,0,0,1,1,.72,2.86,2.86,0,0,1,.46,1.45l.82-.08a3.53,3.53,0,0,0-.62-1.86,3.73,3.73,0,0,0-2.11-1.26c-.82-.24-1.77-.41-2.76-.77-1.2-.43-2.41-.47-3.29-.75a2.84,2.84,0,0,1-1.15-.64A2.8,2.8,0,0,1,52.78,35c-.07-.25-.36-1.47-.63-2.73-.14-.63-.28-1.27-.38-1.81a7.15,7.15,0,0,1-.16-1.13,3.79,3.79,0,0,0-.68-2.16,9.3,9.3,0,0,0-2.58-2.26,24.36,24.36,0,0,1-2.89-2.05,8.49,8.49,0,0,1-2.07-2.32,9.8,9.8,0,0,1-.68-3,4.57,4.57,0,0,1-.05-.83,8.52,8.52,0,0,1,.68-3.18A13.61,13.61,0,0,1,50.07,6.2a9.83,9.83,0,0,1,4.35-1.27,8.82,8.82,0,0,1,3.73,1,42.08,42.08,0,0,1,6.22,3.48,4,4,0,0,1,.76.72,1.45,1.45,0,0,1,.38.82.7.7,0,0,1-.18.46,2.57,2.57,0,0,1-.82.53l.3.77Z"/><path class="cls-5" d="M23.36,10.3l.71,2.2"/><path class="cls-5" d="M24.47,15.15V17"/><path class="cls-5" d="M24,20.8a7.54,7.54,0,0,1-.48,2.1"/><path class="cls-5" d="M22.31,27.52a8.42,8.42,0,0,1-.58,2"/><path class="cls-5" d="M20.72,32a9.47,9.47,0,0,1-.92,2"/><path class="cls-5" d="M18.28,35.65l-.82,1.43-2.11,2.23"/><path class="cls-5" d="M18,40.14l2,.14"/><path class="cls-5" d="M24.28,40.89l1.85.57"/><path class="cls-5" d="M31,44.3l1.52,1.11"/><path class="cls-5" d="M36.7,49.14l1.45,1.59"/><path class="cls-5" d="M41.67,52.73l1.17.83"/><path class="cls-5" d="M46.15,54.75l1.59.28"/><path class="cls-5" d="M22.92,8a11.48,11.48,0,0,0,3.15-.14"/><path class="cls-5" d="M29.21,7.52l2.47-.43"/><path class="cls-5" d="M34.29,6.38a6.69,6.69,0,0,0,3-.63"/><path class="cls-5" d="M41.55,4.32l3.17-.92"/><path class="cls-5" d="M49,2.45l3.62-.28"/><path class="cls-5" d="M54.42,2.88a2.14,2.14,0,0,0,1.29.65,2.63,2.63,0,0,1,.55.09l-.07.15"/><path class="cls-5" d="M60.58,5.37a6.29,6.29,0,0,1,1.8,1.53"/><path class="cls-5" d="M65.1,9.73a12.49,12.49,0,0,0,1.64,1.53"/><path class="cls-5" d="M67.56,14.63a5.39,5.39,0,0,1,.15,1.79"/><path class="cls-5" d="M66.91,20.66l-.22,2"/><path class="cls-5" d="M65.39,27.17l-.25,1.65"/><path class="cls-5" d="M64.57,32.69a13.82,13.82,0,0,0,0,1.82"/><path class="cls-5" d="M64.87,37.22A9.14,9.14,0,0,1,65,38.79"/><path class="cls-5" d="M63.82,40.4,63,41.75"/><path class="cls-5" d="M60.61,43.86a10.68,10.68,0,0,1-1.23,1.81"/><path class="cls-5" d="M56.21,48.38l-1.28,1.8"/><path class="cls-5" d="M52.89,53.1l-1.48,1.07"/></g></g></svg>