<svg xmlns="http://www.w3.org/2000/svg" xmlns:xlink="http://www.w3.org/1999/xlink" viewBox="0 0 1957.24 444.61"><defs><style>.cls-1{fill:url(#linear-gradient);}.cls-2{fill:url(#linear-gradient-2);}.cls-3{fill:url(#linear-gradient-3);}</style><linearGradient id="linear-gradient" x1="687.97" y1="70.74" x2="1734.01" y2="70.74" gradientTransform="translate(8.94 210.39) rotate(-1.9)" gradientUnits="userSpaceOnUse"><stop offset="0.3" stop-color="#768a8e"/><stop offset="1" stop-color="#587075"/></linearGradient><linearGradient id="linear-gradient-2" x1="870.36" y1="86.29" x2="1948.92" y2="86.29" gradientTransform="translate(8.94 210.39) rotate(-1.9)" gradientUnits="userSpaceOnUse"><stop offset="0" stop-color="#90a0a4"/><stop offset="1" stop-color="#4f696e"/></linearGradient><linearGradient id="linear-gradient-3" x1="573.34" y1="261.71" x2="573.34" y2="-193.66" gradientTransform="translate(8.94 210.39) rotate(-1.9)" gradientUnits="userSpaceOnUse"><stop offset="0" stop-color="#768a8e"/><stop offset="1" stop-color="#4f696e"/></linearGradient></defs><g id="Layer_2" data-name="Layer 2"><g id="Layer_1-2" data-name="Layer 1"><path class="cls-1" d="M695.73,163.4s3-47.54,49.91-59.5S803,90.34,805.56,81.41s.54,16.41,19.31,6.94S826.75,30.16,885,61.09s245.07,113.18,277.29,107.06,220,32.55,252.14,35.47c52.36,4.75,314.74,187.13,335.59,211.71s-416.1,10-416.1,10L750,419.84Z"/><path class="cls-2" d="M1957.24,444.61l-986.5-11.19-85.59-60.88s709.16-199.89,725-244.8,30.87,48.2,78.75-37.16,263.79-67.15,263.79-67.15Z"/><path class="cls-3" d="M0,167.58S385.06,35.19,402.29,19.21s-23.79,19.56.41,12.41S458.86,10,470.54,17,484.31.65,510,0,527.27,30.73,547,21.49s12.54-24.75,39.5-17.14S764.94,122,789,128.13s44.53,77.46,93.5,87.21,156.59,109.8,156.59,109.8l140.83,108.28L0,431.1Z"/></g></g></svg>