<?xml version="1.0" encoding="UTF-8"?><svg xmlns="http://www.w3.org/2000/svg" xmlns:xlink="http://www.w3.org/1999/xlink" viewBox="0 0 1958.4 456.08"><defs><style>.h{fill:url(#e);}.i{fill:url(#g);}.j{fill:url(#f);}</style><linearGradient id="e" x1="37.94" y1="366.12" x2="1445.54" y2="366.12" gradientTransform="translate(1939.66 660.92) rotate(-178.1)" gradientUnits="userSpaceOnUse"><stop offset=".47" stop-color="#9fa6ad"/><stop offset=".88" stop-color="#c8cedf"/></linearGradient><linearGradient id="f" x1="881.13" y1="360.15" x2="1959.56" y2="360.15" gradientTransform="translate(1939.66 660.92) rotate(-178.1)" gradientUnits="userSpaceOnUse"><stop offset="0" stop-color="#9fa6ad"/><stop offset="1" stop-color="#c8cedf"/></linearGradient><linearGradient id="g" x1="511.77" y1="-34.73" x2="625.16" y2="499.12" gradientTransform="translate(1939.66 660.92) rotate(-178.1)" gradientUnits="userSpaceOnUse"><stop offset=".26" stop-color="#9fa6ad"/><stop offset=".81" stop-color="#c8cedf"/></linearGradient></defs><g id="a"/><g id="b"><g id="c"><g id="d"><path class="h" d="M1278,317.98S1020.9,77.58,1008.2,78.08c-37.1,1.7-59.2,5.3-64.4-2.5-5-7.4-33.4,26.4-52.2,17-18.8-9.5-17.1-14.5-75.3,16.5-58.3,30.9-149.2,58.3-181.4,52.2-32.2-6.1-220,32.5-252.1,35.5-52.4,4.7-314.8,187.1-335.7,211.7s416.1,10,416.1,10l583.9-5.5,230.9-95Z"/><path class="j" d="M3.3,456.08H984.1l83.4-81.8S519.3,239.18,503.4,194.18c-15.8-44.8-283.1-65.3-392.1-142.1C31.3-4.32,0,25.18,0,25.18L3.3,456.08Z"/><path class="i" d="M1952.7,169.38S1695.8,36.78,1678.5,20.78c-17.2-16-46.2,40-59,30.4-20.2-15.1-29.5-37.4-41.1-30.4-11.7,6.9-14.7-27.2-39.3-19.7-23.2,7.1-32.1,27.1-51.9,17.9-19.7-9.2-21.4,1.3-48.4,8.9s-157.5,75.8-181.5,81.9-102,110.1-159.7,124.1c-48.5,11.8-183.9,93-183.9,93l-142.7,129.2,1187.4-2.2-5.7-284.5Z"/></g></g></g></svg>