<?xml version="1.0" encoding="utf-8"?>
<!-- Generator: Adobe Illustrator 26.1.0, SVG Export Plug-In . SVG Version: 6.00 Build 0)  -->
<svg version="1.1" id="Layer_1" xmlns="http://www.w3.org/2000/svg" xmlns:xlink="http://www.w3.org/1999/xlink" x="0px" y="0px"
	 viewBox="0 0 1280 4790.8" style="enable-background:new 0 0 1280 4790.8;" xml:space="preserve">
<style type="text/css">
	.st0{clip-path:url(#SVGID_00000067926821346390202530000015138850128145882759_);}
	.st1{fill:url(#SVGID_00000137108428311031257350000007834189904592588720_);}
	.st2{fill:#528256;}
	.st3{fill:#93642D;}
	.st4{fill:#714D22;}
	.st5{fill:#66A865;}
	.st6{clip-path:url(#SVGID_00000177460466227932072150000000714589312480648378_);}
	.st7{clip-path:url(#SVGID_00000130646101907008528740000002680954734773008289_);}
	.st8{fill:#69371E;}
	.st9{fill:#4F2513;}
	.st10{fill:#C1ADA2;}
	.st11{fill:#3F1A0C;}
	.st12{fill:#301107;}
	.st13{fill:#C2894C;}
	.st14{fill:#944A17;}
	.st15{clip-path:url(#SVGID_00000016793038017534556120000001886562850376315530_);}
	.st16{clip-path:url(#SVGID_00000033330791543422192940000014760326294055644059_);}
	.st17{clip-path:url(#SVGID_00000003823861124129264670000017423256603079853440_);}
	.st18{clip-path:url(#SVGID_00000054960585900075936280000004954294127934301345_);}
	.st19{fill:#83C082;}
	.st20{fill:#458244;}
	.st21{fill-rule:evenodd;clip-rule:evenodd;fill:#66A865;}
	.st22{fill-rule:evenodd;clip-rule:evenodd;fill:#83C082;}
	.st23{fill-rule:evenodd;clip-rule:evenodd;fill:#679A66;}
	.st24{fill-rule:evenodd;clip-rule:evenodd;fill:#458244;}
</style>
<g>
	<defs>
		<rect id="SVGID_1_" width="1280" height="4785.5"/>
	</defs>
	<clipPath id="SVGID_00000115484999750843350460000013845574874673369011_">
		<use xlink:href="#SVGID_1_"  style="overflow:visible;"/>
	</clipPath>
	<g style="clip-path:url(#SVGID_00000115484999750843350460000013845574874673369011_);">
		<g>
			
				<linearGradient id="SVGID_00000117644905889998224170000005421328399718225338_" gradientUnits="userSpaceOnUse" x1="748.0574" y1="2183.9407" x2="551.8054" y2="-1422.6394" gradientTransform="matrix(1 0 0 -1 0 3196)">
				<stop  offset="0.1298" style="stop-color:#528256"/>
				<stop  offset="0.3177" style="stop-color:#61805A"/>
				<stop  offset="0.6875" style="stop-color:#8FAF47"/>
			</linearGradient>
			
				<rect x="-12" y="755.6" style="fill:url(#SVGID_00000117644905889998224170000005421328399718225338_);" width="1328" height="4043.4"/>
		</g>
		<path class="st2" d="M1286.4,1472.5c8.3,6.5,20-2.7,24.8-8.1c0-142.2,4.6-861.3,4.7-872.6c0,0,0,0,0-0.1c0-0.1,0-0.1,0,0.1
			c-0.6,9-110.7-80.2-110.7-80.2s-120.5-58.9-174.9-58.9c-43,0-207.5-25.2-284.6-39.9C668.7,398,400.5,373,360.2,373
			c-32.6,0-264.4-43.1-378.2-73.4v634c20.5,6.5,73.9,25.8,123.1,51c61.6,31.5,318.7,146.9,396.3,157.8s259.7,65.8,305.8,100.6
			c46.1,34.8,269.6,132.6,305.3,138.8C1148.3,1388.1,1276.1,1464.4,1286.4,1472.5z"/>
		<path class="st3" d="M115.2,779.9h21.1v185h-21.1V779.9z"/>
		<path class="st4" d="M115.2,764h20.6v133.6h-20.6V764z"/>
		<path class="st5" d="M125.9,679L186,872.4H65.8L125.9,679z"/>
		<g>
			<defs>
				<rect id="SVGID_00000047060301173826269560000004661127816916160182_" x="-491.3" y="809.8" width="160.1" height="104.5"/>
			</defs>
			<clipPath id="SVGID_00000038400338001553064750000011071069612797655733_">
				<use xlink:href="#SVGID_00000047060301173826269560000004661127816916160182_"  style="overflow:visible;"/>
			</clipPath>
			<g style="clip-path:url(#SVGID_00000038400338001553064750000011071069612797655733_);">
				<g>
					<defs>
						<rect id="SVGID_00000142161122655423650140000010457922126674535609_" x="-477.7" y="816.6" width="146.9" height="92.3"/>
					</defs>
					<clipPath id="SVGID_00000003822040198793045410000003014841816915770018_">
						<use xlink:href="#SVGID_00000142161122655423650140000010457922126674535609_"  style="overflow:visible;"/>
					</clipPath>
					<g style="clip-path:url(#SVGID_00000003822040198793045410000003014841816915770018_);">
						<path class="st8" d="M-373.7,882.8c0,0-6.8-11-5.4-10.5c3.4,1.4,6.9,2.2,10.6,2.6c5.4,0.7,2.6-2.4,7.3,0.2
							c5,2.7,5.5,2.5,10.3,5.5c6.1,3.9,4.7,3.4,9.2,6.3c5.4,3.5,5.6,0.1,10.9,4.2c-2.9-0.3-8.1-0.7-13.6-1.1
							c-6.2-0.5-12.6-1-15.9-1.4c-4.2-1-8.4-2.2-12.5-3.7L-373.7,882.8z"/>
						<path class="st8" d="M-360.3,885.4c-0.8-0.1-1.6,0-2.3,0.3c-1,0.3-2,0.4-3,0.3c-1.1-0.3-2.1-0.5-3.2-0.7
							c-0.9-0.1-2.2,0.9-3.8,1.4c-3.4,1-7,1.7-10.6,1.8c-1.7,0.1-3.4-0.1-5.1-0.7c-2.4-0.7-4.4-1.4-7.9,0.5
							c-4.5,2.1-6.8,3.1-8.1,4.7c-2.9,3.7,0.2,4.2-3.1,7.4c-0.7,0.7-0.6,2.2-1.4,3c-1,1-1.6,3.7-2.4,4.8c-0.8,1.1-1,0.5-2.4,0.3
							c-0.7-6-0.9-3.8-3.2-8.3c-1-1.4-1.6-3.1-1.8-4.8c0.1-0.8,0.1-1.5-0.1-2.3c-0.3-0.6-0.8-1.1-1.4-1.4c-2.1-1.4-3-0.9-7-2.7
							c-2.1-0.9-4.4-1.3-6.7-1.1c-1.7,0.2-3.3,0-4.9-0.5c-1-0.5-2.1-1.1-3-1.7c-1.4-0.7-3-1.2-4.5-1.6c-0.7-0.2-1.5-0.3-2.2-0.2
							c-0.9,0.1-1.7,0.3-2.5,0.6c-5.4,2.5-1.4,1.1-8,2.8c-1,0.3-2,0.5-3,0.6c-0.5,0-3.7-0.3-4.3-0.4c-1.4-0.1-2.8,0-4.2,0.3
							c-4.1,2.1-3.6,2.2-7.4,1.3c8.4-6.6,7.1-5.4,11.5-7.4c0.8-0.4,3.4-0.4,5.6-1.7c2.1-1.3,4.1-2.7,6-4.3c2-2,1.3-0.4,3.5-6
							c2.9-7.5,3.9-15.5,2.9-23.4c-0.3-2.9-0.8-5.8-1-8.7c-0.2-6.1,0.9-12.3,3.4-17.9c5.9,5.5,16.1,6,24.1,7.3
							c13,2.2,23.3,1.4,36.2-1.5c6.3-1.4,13.7-1.4,18.9-4.7c-2.6,5-2,10.9-1.4,16.4c1.5,12.3,3.3,24.6,5.3,36.9L-360.3,885.4"/>
						<path class="st9" d="M-444.7,821.3l-0.3,0.2c0.3,1.1,0.7,2.1,1.2,3C-444.1,823.4-444.4,822.4-444.7,821.3"/>
						<path class="st10" d="M-447.6,884h-0.7c-0.9,0.1-1.7,0.3-2.5,0.6c0.8-0.3,1.7-0.5,2.6-0.6H-447.6"/>
						<path class="st9" d="M-408.5,871.5c0,0.1,0,0.2,0,0.3c0.3,2.1,1,4.2,2,6c1.1,1.9,2.1,3.8,3,5.8c0.9,2.4,1.4,5,1.5,7.6
							c1.4-0.8,3.3-1.7,5.9-2.9c1.3-0.7,2.7-1.2,4.2-1.2c1.3,0.1,2.5,0.3,3.7,0.7c1.4,0.4,2.8,0.7,4.2,0.7h0.8l1-0.1
							c-2.8-3.6-7.1-5.5-15.4-10.1c-3.8-2.1-7.5-4.3-11-6.8V871.5z M-446.3,822.3l-0.6,0.4c-1.5,4.2-2.3,8.7-2.3,13.2
							c0,0.6,0,1.1,0,1.7c0.1,2.9,0.7,5.8,1,8.7c0.2,2,0.3,3.9,0.3,5.9c0.1,6-1,12-3.2,17.6c-2.2,5.5-1.5,4-3.5,6
							c-1.9,1.6-3.9,3-6,4.3c-2.2,1.3-4.8,1.4-5.6,1.7c-4.5,2-3.1,0.8-11.5,7.5c1,0.3,2,0.5,3,0.6c1.1,0,1.9-0.6,4.4-1.9
							c1-0.3,2.1-0.4,3.2-0.4c0.4,0,0.7,0,1.1,0c0.5,0,3.8,0.3,4.3,0.4h0.3c0.9-0.1,1.8-0.3,2.7-0.6c6.8-1.7,2.6-0.3,8-2.8
							c0.8-0.3,1.6-0.5,2.5-0.6h0.7c0.5,0,1,0.1,1.5,0.2c1.6,0.3,3.1,0.9,4.5,1.6c1,0.6,2,1.2,3,1.7c1.1,0.4,2.3,0.6,3.5,0.6h1.4
							h1.5c1.8,0,3.6,0.3,5.2,1.1c3.9,1.8,4.9,1.5,7,2.7c0.6,0.3,1,0.8,1.4,1.4c0.1,0.3,0.2,0.7,0.2,1c0,0.4,0,0.8,0,1.2
							c0.2,1.7,0.8,3.4,1.8,4.8c2.3,4.5,2.5,2.3,3.2,8.3c0.8,0.1,1.2,0.3,1.5,0.3c0.4,0,0.5-0.2,0.9-0.7c0.8-1.1,1.4-3.8,2.4-4.8
							c0.8-0.7,0.6-2.2,1.4-3c0.6-0.4,1-0.9,1.3-1.6c0.3-0.6,0.4-1.3,0.4-2v-0.2c0-1.4,0.4-2.7,1.4-3.7c0.5-0.7,1.2-1.2,1.9-1.6
							c-0.2-2.6-0.8-5.1-1.7-7.5c-0.9-2-2-3.8-3-5.8c-1.1-2-1.7-4.1-1.9-6.3c0-0.3,0-0.6,0-0.9c-5.2-3.7-9.1-7.2-12.7-10.2
							c-3.2-2.7-8.3-9-13.1-17c0.4,1.6,0.8,3.3,1.1,4.9l1.7,7.7l1.5,7.7c0.2,1.3,0.5,2.5,1,3.7c0.5,1.2,1.2,2.2,2.1,3.1
							c1,0.9,1.8,2,2.4,3.2c0.7,1.2,0.9,2.5,0.8,3.9h-0.1c0-1.3-0.3-2.6-1-3.6c-0.7-1.1-1.6-2-2.6-2.9c-1-0.9-1.8-2-2.3-3.2
							c-0.5-1.2-0.9-2.5-1.1-3.9l-1.7-7.8l-1.5-7.7c-0.5-2.4-0.9-4.9-1.4-7.3c-2.7-4.7-4.9-9.6-6.8-14.7c-0.9-1.2-1.7-2.5-2.3-4
							c0.2,3.7,0.7,7.5,1.5,11.1c0.5,2.4,1,4.7,1.6,7.1c0.5,2.4,1,4.8,1.4,7.1c0.9,4.8,1.3,9.7,1,14.6c-0.4,4.8-1.1,9.7-2.1,14.4
							h-0.1c0.5-4.8,1.1-9.6,1.2-14.4c0.1-4.8-0.3-9.6-1.3-14.3c-0.4-2.4-1-4.7-1.5-7.1s-1-4.7-1.5-7.1
							C-445.9,830.3-446.3,826.3-446.3,822.3"/>
						<path class="st11" d="M-407.3,845.8c0.1,4.3,0,8.7-0.4,13c-0.2,2.2-0.5,4.3-0.9,6.4c-0.4,1.9-0.5,3.7-0.6,5.6l0.7,0.5
							c-0.1-2,0.1-4.1,0.5-6.1c0.3-2.2,0.6-4.3,0.8-6.5C-406.8,854.5-406.8,850.1-407.3,845.8"/>
						<path class="st12" d="M-409.2,870.9c0,0.3,0,0.6,0,0.9c0.3,2.2,1,4.3,2.1,6.3c1,1.9,2.2,3.8,3,5.8c1,2.4,1.6,4.9,1.7,7.5
							l0.3-0.2c-0.1-2.6-0.6-5.1-1.5-7.6c-0.9-2-1.9-3.9-3-5.8c-1.1-1.8-1.7-3.9-2-6c0-0.1,0-0.2,0-0.3L-409.2,870.9z"/>
						<path class="st11" d="M-375.9,824.4L-375.9,824.4c-0.8,1.4-1.3,2.9-1.7,4.5c-0.5,2.1-0.8,4.2-0.8,6.3c0,2.1,0.2,4.3,0.7,6.4
							c0.6,2.1,1.2,4.1,2.1,6.1c1.5,3.9,2.3,8.1,2.3,12.4c0,4.3,0.5,8.5,1.6,12.6c-0.8-4.2-1.2-8.4-1.1-12.6
							c0.1-4.3-0.7-8.6-2.2-12.6c-0.8-1.9-1.5-3.9-2.1-6c-0.5-2-0.8-4.1-0.8-6.2C-377.9,831.6-377.2,827.9-375.9,824.4"/>
						<path class="st11" d="M-391.8,835.7c0.7,2.4,0.7,4.9,0,7.2c-0.6,2.4-1.5,4.6-2.3,7c-1.7,4.7-2.3,9.7-1.9,14.7
							c0.2,2.5,0.7,4.9,1.5,7.3c0.4,1.2,1,2.4,1.8,3.4c0.8,1.1,2,1.9,3.2,2.3c0.5,0.2,1.1,0.3,1.6,0.3c0.9,0,1.7-0.2,2.5-0.7
							c1.2-0.7,2.1-1.8,2.6-3.1c0.9-2.4,1.4-4.9,1.4-7.5c0-5.1-1.1-10-3.3-14.6c-0.3-0.6-0.6-1.1-0.9-1.7l-0.5-0.8
							c-0.1-0.2-0.2-0.3-0.4-0.5c-0.2-0.2-0.5-0.3-0.7-0.4h-0.2c-0.4,0-0.8,0.2-1.1,0.4c-0.3,0.2-0.5,0.5-0.7,0.7
							c-0.4,0.5-0.7,1.1-0.9,1.7c-0.9,2.4-1.4,4.9-1.5,7.4c-0.2,3.7,0.4,7.5,1.6,11c0.2,0.6,0.5,1.2,0.9,1.8
							c0.2,0.3,0.5,0.5,0.8,0.7c0.3,0.2,0.6,0.3,1,0.3h0.1c0.2,0,0.4-0.1,0.6-0.2c0.2-0.1,0.3-0.2,0.4-0.4c0.2-0.3,0.4-0.6,0.4-0.9
							c0.2-0.6,0.3-1.2,0.4-1.8c0.2-1.2,0.3-2.5,0.3-3.7c0-1.2-0.1-2.5-0.4-3.7c-0.1-0.3-0.2-0.6-0.4-0.9c-0.2-0.2-0.5-0.4-0.8-0.5
							l0,0c-0.1,0-0.3,0-0.4,0.1c-0.1,0.1-0.3,0.1-0.4,0.3c-0.1,0.1-0.2,0.2-0.2,0.4c0,0.2,0,0.3,0.1,0.4c-0.1-0.1-0.1-0.3-0.1-0.4
							c0-0.2,0.1-0.3,0.2-0.4c0.2-0.2,0.4-0.3,0.7-0.3h0.1c0.3,0.1,0.5,0.3,0.7,0.5c0.2,0.2,0.3,0.5,0.3,0.8
							c0.2,1.2,0.3,2.4,0.3,3.6c0,1.2-0.2,2.4-0.4,3.6c-0.1,0.6-0.3,1.2-0.5,1.7c-0.2,0.6-0.5,1-0.9,1c-0.2,0-0.5-0.1-0.7-0.3
							c-0.2-0.1-0.4-0.3-0.5-0.5c-0.3-0.5-0.6-1-0.7-1.5c-0.4-1.2-0.7-2.3-0.9-3.5c-0.4-2.4-0.6-4.8-0.4-7.2c0-1.2,0.1-2.4,0.3-3.6
							c0.2-1.2,0.5-2.3,1-3.4c0.2-0.5,0.5-0.9,0.9-1.4c0.2-0.2,0.3-0.4,0.6-0.6c0.1-0.1,0.2-0.2,0.4-0.2l0,0c0,0,0.1,0,0.2,0.3
							l0.4,0.8c0.3,0.5,0.6,1.1,0.8,1.6c2,4.4,3.1,9.2,3,14c0.1,2.4-0.3,4.7-1.1,6.9c-0.4,1-1.1,1.9-2,2.5c-0.6,0.3-1.2,0.5-1.8,0.5
							c-0.4,0-0.8-0.1-1.2-0.2c-1.1-0.4-2-1.1-2.7-2c-0.7-0.9-1.3-1.9-1.5-3c-0.8-2.3-1.3-4.6-1.6-7c-0.5-4.8,0-9.7,1.5-14.4
							c0.7-2.3,1.5-4.7,2-7.1C-390.9,840.6-391,838-391.8,835.7"/>
						<path class="st11" d="M-443.8,824.5c0.2,0.8,0.5,1.6,0.8,2.3l0.1,0.2c1.6,2.1,3,4.3,4.2,6.6c1.1,2.5,1.9,5.2,2.4,7.9
							c0.4,0.8,0.9,1.5,1.4,2.2c-0.8-3.5-1.9-7-3.3-10.3c-1.2-2.4-2.6-4.6-4.1-6.8C-442.8,826-443.3,825.2-443.8,824.5L-443.8,824.5
							z M-445.8,819.9c-0.1,0.3-0.3,0.7-0.4,1v1.4l1.4-0.8c-0.1-0.3-0.2-0.6-0.2-1C-445.5,820.2-445.8,819.9-445.8,819.9"/>
						<path class="st12" d="M-436.2,841.6c0.5,2.4,0.9,4.9,1.4,7.3l1.5,7.7l1.7,7.7c0.3,1.3,0.6,2.6,1.1,3.9
							c0.6,1.2,1.4,2.4,2.4,3.3c1,0.9,1.8,1.8,2.5,2.9c0.7,1.1,1.1,2.3,1,3.6h0.1c0.2-1.4-0.1-2.7-0.8-3.9c-0.6-1.2-1.4-2.2-2.4-3.2
							c-0.9-0.9-1.6-2-2-3.2c-0.4-1.2-0.7-2.5-1-3.7l-1.5-7.7l-1.7-7.7c-0.4-1.6-0.7-3.2-1.1-4.9
							C-435.4,843-435.8,842.3-436.2,841.6L-436.2,841.6z M-445,821.5l-1.4,0.8c0,4,0.5,8.1,1.3,12c0.4,2.4,0.9,4.8,1.5,7.1
							c0.5,2.4,1,4.7,1.5,7.1c0.9,4.7,1.4,9.5,1.3,14.3c-0.1,4.8-0.7,9.6-1.2,14.4h0.1c1-4.8,1.7-9.6,2.1-14.4
							c0.3-4.9,0-9.8-0.9-14.6c-0.4-2.4-0.9-4.8-1.4-7.1c-0.5-2.4-1.1-4.7-1.6-7.1c-0.8-3.7-1.3-7.4-1.5-11.1
							c0.6,1.4,1.4,2.7,2.3,3.9c-0.3-0.8-0.5-1.6-0.8-2.3C-444.3,823.5-444.7,822.5-445,821.5"/>
						<path class="st13" d="M-383.2,826.2c-7.9,1.5-15.8,2.5-23.8,2.9c-3.6,0-22.2-1.5-26.3-3c-5.4-2-12.5-5.4-12.5-6.2
							c-0.1-1.1,5-0.7,7.4-0.9c9.6-0.9,14.9-1.2,22-1.5c11.9-0.6,11.3-0.9,24.7,0c1.8,0.1,17.2,1.4,19,1.7c5.6,1.1,7.2,1,6.1,1.7
							C-370.4,823.5-378.7,825.1-383.2,826.2"/>
						<path class="st13" d="M-406.5,816.6c-6.7,0-13.3,0.5-19.9,1.4c3.4-0.2,6.4-0.4,9.9-0.5c6.5-0.3,9.3-0.5,12.7-0.5
							c2.7,0,6,0.1,12,0.5c1.4,0.1,9.9,0.8,15.2,1.3l-1.1-0.2c-2.7-0.4-5.4-0.8-8-0.9c-5.4-0.4-10.7-0.8-16.1-1
							C-403.4,816.6-404.9,816.6-406.5,816.6"/>
						<path class="st14" d="M-403.8,816.9c-3.4,0-6.2,0.2-12.7,0.5c-3.5,0.2-6.5,0.3-9.9,0.5c-2.5,0.4-5,0.9-7.5,1.4l-2.2,0.5
							l2.2,0.3c7.4,1.1,14.9,1.8,22.4,2.2c2.7,0.1,5.4,0.2,8.1,0.2h3.1c1.9,0,3.7,0,5.6-0.2c1.9-0.1,3.8-0.6,5.5-1.5l0.7-0.4
							l-0.7-0.1c-5.6-0.9-11.3-1.4-17-1.4c-2.1,0-4.3,0-6.4,0.2v0.1l6.4,0.8l-5.7-0.8c1.1,0,2.3,0,3.4,0c6.1,0,12.3,0.4,18.3,1.4
							c-1.5,0.6-3,0.9-4.6,1c-1.8,0.1-3.7,0.1-5.6,0.1h-1.7c-3.2,0-6.3-0.1-9.5-0.2c-6.7-0.3-13.4-1-20-1.9c4.5-0.8,9-1.4,13.6-1.7
							c3.9-0.3,7.8-0.4,11.7-0.4c1.4,0,2.9,0,4.4,0c5.4,0.1,10.7,0.4,16.1,0.8c2.7,0.1,5.3,0.4,8,0.8c0.6,0.1,1.3,0.3,1.9,0.5
							c0.2,0.1,0.4,0.2,0.5,0.4c0,0,0,0.1-0.2,0.2c-1.2,0.3-2.6,0.5-3.9,0.7c-10.5,2-21.2,3.4-31.9,4.1c-1.7,0-3.4,0.1-5.1,0.1
							c-3.7,0-7.3-0.2-10.9-0.7c-5.3-0.7-10.5-2.5-15-5.4c4.5,3,9.6,4.9,14.9,5.7c4,0.7,8.1,1,12.2,0.9c1.4,0,2.6,0,3.9,0
							c10.8-0.6,21.5-1.9,32.1-3.9c1.4-0.3,2.6-0.4,4.1-0.7c0.2-0.1,0.4-0.2,0.6-0.4c0.1-0.1,0.1-0.3,0.2-0.4c0-0.2,0-0.3-0.1-0.4
							c-0.2-0.4-0.6-0.7-1-0.9l-1.1-0.3c-5.3-0.5-13.9-1.2-15.2-1.3C-397.8,817.1-401.1,816.9-403.8,816.9z"/>
					</g>
				</g>
			</g>
		</g>
		<g>
			<defs>
				<rect id="SVGID_00000145016279242371425700000001528424863015886241_" x="948" y="465" width="73" height="47.7"/>
			</defs>
			<clipPath id="SVGID_00000094594430997835907570000017449001801719397309_">
				<use xlink:href="#SVGID_00000145016279242371425700000001528424863015886241_"  style="overflow:visible;"/>
			</clipPath>
			<g style="clip-path:url(#SVGID_00000094594430997835907570000017449001801719397309_);">
				<g>
					<defs>
						<rect id="SVGID_00000171721380421916010330000007197895559013964450_" x="954.2" y="468.1" width="67" height="42.1"/>
					</defs>
					<clipPath id="SVGID_00000087402932983405177170000004539873986147779972_">
						<use xlink:href="#SVGID_00000171721380421916010330000007197895559013964450_"  style="overflow:visible;"/>
					</clipPath>
					<g style="clip-path:url(#SVGID_00000087402932983405177170000004539873986147779972_);">
						<path class="st8" d="M1001.6,498.3c0,0-3.1-5-2.5-4.8c1.5,0.6,3.2,1,4.8,1.2c2.5,0.3,1.2-1.1,3.4,0.1c2.3,1.2,2.5,1.1,4.7,2.5
							c2.8,1.8,2.1,1.6,4.2,2.9c2.5,1.6,2.6,0,5,1.9c-1.3-0.1-3.7-0.3-6.2-0.5c-2.8-0.2-5.8-0.4-7.2-0.6c-1.9-0.4-3.8-1-5.7-1.7
							L1001.6,498.3z"/>
						<path class="st8" d="M1007.7,499.5c-0.4,0-0.7,0-1,0.1c-0.4,0.1-0.9,0.2-1.4,0.1c-0.5-0.1-1-0.2-1.5-0.3c-0.4,0-1,0.4-1.7,0.6
							c-1.6,0.5-3.2,0.8-4.8,0.8c-0.8,0-1.6-0.1-2.3-0.3c-1.1-0.3-2-0.6-3.6,0.2c-2,1-3.1,1.4-3.7,2.1c-1.3,1.7,0.1,1.9-1.4,3.4
							c-0.3,0.3-0.3,1-0.6,1.3c-0.5,0.4-0.7,1.7-1.1,2.2c-0.4,0.5-0.5,0.2-1.1,0.2c-0.3-2.7-0.4-1.7-1.5-3.8
							c-0.4-0.7-0.7-1.4-0.8-2.2c0.1-0.3,0-0.7,0-1c-0.1-0.3-0.4-0.5-0.6-0.6c-0.9-0.6-1.4-0.4-3.2-1.2c-1-0.4-2-0.6-3.1-0.5
							c-0.8,0.1-1.5,0-2.2-0.2c-0.5-0.2-0.9-0.5-1.4-0.8c-0.7-0.3-1.3-0.6-2.1-0.7c-0.3-0.1-0.7-0.1-1-0.1c-0.4,0-0.8,0.1-1.1,0.3
							c-2.5,1.2-0.6,0.5-3.7,1.3c-0.4,0.2-0.9,0.2-1.4,0.3c-0.2,0-1.7-0.2-2-0.2c-0.6-0.1-1.3,0-1.9,0.1c-1.9,1-1.6,1-3.4,0.6
							c3.8-3,3.2-2.5,5.3-3.4c0.4-0.2,1.6-0.2,2.5-0.8c1-0.6,1.9-1.2,2.7-2c0.9-0.9,0.6-0.2,1.6-2.7c1.3-3.4,1.8-7.1,1.3-10.7
							c-0.1-1.3-0.4-2.6-0.4-4c-0.1-2.8,0.4-5.6,1.6-8.2c2.7,2.5,7.3,2.7,11,3.3c5.9,1,10.6,0.7,16.5-0.7c2.9-0.7,6.3-0.6,8.6-2.1
							c-1.2,2.3-0.9,5-0.6,7.5c0.7,5.6,1.5,11.2,2.4,16.8L1007.7,499.5"/>
						<path class="st9" d="M969.2,470.2l-0.1,0.1c0.1,0.5,0.3,0.9,0.6,1.4C969.5,471.2,969.4,470.7,969.2,470.2"/>
						<path class="st10" d="M967.9,498.8h-0.3c-0.4,0-0.8,0.1-1.1,0.3c0.4-0.1,0.8-0.2,1.2-0.3H967.9"/>
						<path class="st9" d="M985.7,493.1c0,0,0,0.1,0,0.1c0.1,1,0.4,1.9,0.9,2.7c0.5,0.9,1,1.8,1.4,2.7c0.4,1.1,0.6,2.3,0.7,3.5
							c0.6-0.4,1.5-0.8,2.7-1.3c0.6-0.3,1.2-0.5,1.9-0.5c0.6,0,1.1,0.1,1.7,0.3c0.6,0.2,1.3,0.3,1.9,0.3h0.4l0.5,0
							c-1.3-1.7-3.2-2.5-7-4.6C989,495.4,987.4,494.3,985.7,493.1L985.7,493.1z M968.5,470.7l-0.3,0.2c-0.7,1.9-1,4-1.1,6
							c0,0.3,0,0.5,0,0.8c0.1,1.3,0.3,2.6,0.4,4c0.1,0.9,0.1,1.8,0.1,2.7c0,2.8-0.5,5.5-1.5,8c-1,2.5-0.7,1.8-1.6,2.7
							c-0.9,0.7-1.8,1.4-2.7,2c-1,0.6-2.2,0.6-2.5,0.8c-2,0.9-1.4,0.4-5.3,3.4c0.4,0.1,0.9,0.2,1.4,0.3c0.5,0,0.9-0.3,2-0.8
							c0.5-0.1,1-0.2,1.4-0.2c0.2,0,0.3,0,0.5,0c0.2,0,1.7,0.2,2,0.2h0.1c0.4,0,0.8-0.1,1.2-0.3c3.1-0.8,1.2-0.1,3.7-1.3
							c0.4-0.1,0.7-0.2,1.1-0.3h0.3c0.2,0,0.4,0,0.7,0.1c0.7,0.2,1.4,0.4,2.1,0.7c0.4,0.3,0.9,0.5,1.4,0.8c0.5,0.2,1.1,0.3,1.6,0.3
							h0.6h0.7c0.8,0,1.6,0.2,2.4,0.5c1.8,0.8,2.2,0.7,3.2,1.2c0.3,0.1,0.5,0.4,0.6,0.6c0.1,0.1,0.1,0.3,0.1,0.5c0,0.2,0,0.4,0,0.6
							c0.1,0.8,0.4,1.5,0.8,2.2c1,2.1,1.1,1.1,1.5,3.8c0.3,0,0.5,0.1,0.7,0.1c0.2,0,0.2-0.1,0.4-0.3c0.4-0.5,0.6-1.8,1.1-2.2
							c0.3-0.3,0.3-1,0.6-1.4c0.3-0.2,0.5-0.4,0.6-0.7c0.1-0.3,0.2-0.6,0.2-0.9v-0.1c0-0.6,0.2-1.2,0.6-1.7c0.2-0.3,0.5-0.5,0.9-0.7
							c-0.1-1.2-0.3-2.3-0.8-3.4c-0.4-0.9-0.9-1.7-1.4-2.6c-0.5-0.9-0.8-1.9-0.9-2.9c0-0.1,0-0.3,0-0.4c-2.4-1.7-4.2-3.3-5.8-4.6
							c-1.5-1.2-3.8-4.1-6-7.8c0.2,0.7,0.3,1.5,0.5,2.2l0.8,3.5l0.7,3.5c0.1,0.6,0.2,1.1,0.4,1.7c0.2,0.5,0.5,1,0.9,1.4
							c0.4,0.4,0.8,0.9,1.1,1.4c0.3,0.5,0.4,1.2,0.4,1.8h-0.1c0-0.6-0.2-1.2-0.5-1.7c-0.3-0.5-0.7-0.9-1.2-1.3
							c-0.4-0.4-0.8-0.9-1.1-1.5c-0.2-0.6-0.4-1.2-0.5-1.8l-0.8-3.5l-0.7-3.5c-0.2-1.1-0.4-2.2-0.6-3.3c-1.2-2.1-2.3-4.4-3.1-6.7
							c-0.4-0.6-0.8-1.2-1-1.8c0.1,1.7,0.3,3.4,0.7,5.1c0.2,1.1,0.5,2.1,0.7,3.2c0.2,1.1,0.5,2.2,0.7,3.3c0.4,2.2,0.6,4.4,0.4,6.6
							c-0.2,2.2-0.5,4.4-0.9,6.6h-0.1c0.2-2.2,0.5-4.4,0.5-6.6c0-2.2-0.1-4.4-0.6-6.5c-0.2-1.1-0.5-2.1-0.7-3.2
							c-0.2-1.1-0.5-2.2-0.7-3.2C968.7,474.4,968.5,472.5,968.5,470.7"/>
						<path class="st11" d="M986.3,481.4c0.1,2,0,4-0.2,5.9c-0.1,1-0.2,2-0.4,2.9c-0.2,0.8-0.2,1.7-0.3,2.6l0.3,0.2
							c0-0.9,0-1.9,0.2-2.8c0.2-1,0.3-2,0.4-3C986.5,485.4,986.5,483.4,986.3,481.4"/>
						<path class="st12" d="M985.4,492.9c0,0.1,0,0.3,0,0.4c0.1,1,0.5,2,1,2.9c0.5,0.9,1,1.7,1.4,2.6c0.4,1.1,0.7,2.3,0.8,3.4
							l0.1-0.1c0-1.2-0.3-2.3-0.7-3.4c-0.4-0.9-0.9-1.8-1.4-2.7c-0.5-0.8-0.8-1.8-0.9-2.7c0,0,0-0.1,0-0.1L985.4,492.9z"/>
						<path class="st11" d="M1000.6,471.7L1000.6,471.7c-0.3,0.7-0.6,1.3-0.8,2c-0.2,0.9-0.4,1.9-0.4,2.9c0,1,0.1,2,0.3,2.9
							c0.2,0.9,0.6,1.9,0.9,2.8c0.7,1.8,1.1,3.7,1.1,5.6c0,1.9,0.2,3.9,0.7,5.8c-0.4-1.9-0.5-3.8-0.5-5.8c0-2-0.3-3.9-1-5.7
							c-0.4-0.9-0.7-1.8-1-2.7c-0.2-0.9-0.4-1.9-0.4-2.8C999.7,474.9,1000,473.3,1000.6,471.7"/>
						<path class="st11" d="M993.4,476.8c0.3,1.1,0.3,2.2,0,3.3c-0.3,1.1-0.7,2.1-1,3.2c-0.8,2.1-1.1,4.4-0.9,6.7
							c0.1,1.1,0.3,2.3,0.7,3.3c0.2,0.6,0.5,1.1,0.8,1.6c0.4,0.5,0.9,0.9,1.5,1.1c0.2,0.1,0.5,0.1,0.7,0.1c0.4,0,0.8-0.1,1.1-0.3
							c0.5-0.3,0.9-0.8,1.2-1.4c0.4-1.1,0.6-2.2,0.6-3.4c0-2.3-0.5-4.6-1.5-6.7c-0.1-0.3-0.3-0.5-0.4-0.8l-0.2-0.4
							c0-0.1-0.1-0.2-0.2-0.2c-0.1-0.1-0.2-0.1-0.3-0.2h-0.1c-0.2,0-0.4,0.1-0.5,0.2c-0.1,0.1-0.2,0.2-0.3,0.3
							c-0.2,0.2-0.3,0.5-0.4,0.8c-0.4,1.1-0.6,2.2-0.7,3.4c-0.1,1.7,0.2,3.4,0.7,5c0.1,0.3,0.2,0.6,0.4,0.8c0.1,0.1,0.2,0.2,0.3,0.3
							c0.1,0.1,0.3,0.1,0.4,0.1h0c0.1,0,0.2,0,0.3-0.1c0.1,0,0.1-0.1,0.2-0.2c0.1-0.1,0.2-0.3,0.2-0.4c0.1-0.3,0.1-0.6,0.2-0.8
							c0.1-0.6,0.1-1.1,0.1-1.7c0-0.6-0.1-1.1-0.2-1.7c0-0.1-0.1-0.3-0.2-0.4c-0.1-0.1-0.2-0.2-0.4-0.2l0,0c-0.1,0-0.1,0-0.2,0
							c-0.1,0-0.1,0.1-0.2,0.1c-0.1,0-0.1,0.1-0.1,0.2c0,0.1,0,0.1,0.1,0.2c0-0.1-0.1-0.1,0-0.2s0.1-0.1,0.1-0.2
							c0.1-0.1,0.2-0.1,0.3-0.1h0c0.1,0,0.2,0.1,0.3,0.2c0.1,0.1,0.1,0.2,0.1,0.4c0.1,0.5,0.1,1.1,0.1,1.7c0,0.6-0.1,1.1-0.2,1.6
							c-0.1,0.3-0.1,0.5-0.2,0.8c-0.1,0.3-0.2,0.5-0.4,0.5c-0.1,0-0.2-0.1-0.3-0.1c-0.1-0.1-0.2-0.1-0.2-0.2
							c-0.2-0.2-0.3-0.4-0.3-0.7c-0.2-0.5-0.3-1.1-0.4-1.6c-0.2-1.1-0.3-2.2-0.2-3.3c0-0.6,0.1-1.1,0.1-1.6c0.1-0.5,0.2-1,0.5-1.5
							c0.1-0.2,0.2-0.4,0.4-0.6c0.1-0.1,0.2-0.2,0.3-0.3c0,0,0.1-0.1,0.2-0.1l0,0c0,0,0,0,0.1,0.1l0.2,0.4c0.1,0.2,0.3,0.5,0.4,0.7
							c0.9,2,1.4,4.2,1.4,6.4c0,1.1-0.1,2.2-0.5,3.2c-0.2,0.5-0.5,0.9-0.9,1.1c-0.3,0.1-0.5,0.2-0.8,0.2c-0.2,0-0.4,0-0.6-0.1
							c-0.5-0.2-0.9-0.5-1.2-0.9c-0.3-0.4-0.6-0.9-0.7-1.4c-0.4-1-0.6-2.1-0.7-3.2c-0.2-2.2,0-4.4,0.7-6.5c0.3-1.1,0.7-2.1,0.9-3.2
							C993.8,479,993.7,477.9,993.4,476.8"/>
						<path class="st11" d="M969.7,471.7c0.1,0.4,0.2,0.7,0.4,1.1l0.1,0.1c0.7,0.9,1.4,2,1.9,3c0.5,1.2,0.9,2.4,1.1,3.6
							c0.2,0.3,0.4,0.7,0.6,1c-0.4-1.6-0.9-3.2-1.5-4.7c-0.5-1.1-1.2-2.1-1.9-3.1C970.1,472.4,969.9,472,969.7,471.7L969.7,471.7z
							 M968.7,469.6c-0.1,0.2-0.1,0.3-0.2,0.5v0.6l0.6-0.4c0-0.1-0.1-0.3-0.1-0.4C968.9,469.7,968.8,469.6,968.7,469.6"/>
						<path class="st12" d="M973.1,479.5c0.2,1.1,0.4,2.2,0.6,3.3l0.7,3.5l0.8,3.5c0.1,0.6,0.3,1.2,0.5,1.8c0.3,0.6,0.6,1.1,1.1,1.5
							c0.4,0.4,0.8,0.8,1.2,1.3c0.3,0.5,0.5,1.1,0.5,1.7h0.1c0.1-0.6,0-1.2-0.4-1.8c-0.3-0.5-0.7-1-1.1-1.4
							c-0.4-0.4-0.7-0.9-0.9-1.4c-0.2-0.6-0.3-1.1-0.4-1.7l-0.7-3.5l-0.8-3.5c-0.2-0.7-0.3-1.5-0.5-2.2
							C973.5,480.2,973.3,479.8,973.1,479.5L973.1,479.5z M969.1,470.3l-0.6,0.4c0,1.8,0.2,3.7,0.6,5.5c0.2,1.1,0.4,2.2,0.7,3.2
							c0.2,1.1,0.5,2.1,0.7,3.2c0.4,2.1,0.6,4.3,0.6,6.5c0,2.2-0.3,4.4-0.5,6.6h0.1c0.5-2.2,0.8-4.4,0.9-6.6c0.1-2.2,0-4.5-0.4-6.7
							c-0.2-1.1-0.4-2.2-0.7-3.3s-0.5-2.1-0.7-3.2c-0.4-1.7-0.6-3.4-0.7-5.1c0.3,0.6,0.6,1.2,1,1.8c-0.1-0.4-0.2-0.7-0.4-1.1
							C969.4,471.3,969.2,470.8,969.1,470.3"/>
						<path class="st13" d="M997.3,472.5c-3.6,0.7-7.2,1.1-10.9,1.3c-1.6,0-10.1-0.7-12-1.4c-2.5-0.9-5.7-2.5-5.7-2.8
							c0-0.5,2.3-0.3,3.4-0.4c4.4-0.4,6.8-0.5,10-0.7c5.4-0.3,5.2-0.4,11.3,0c0.8,0.1,7.8,0.6,8.7,0.8c2.6,0.5,3.3,0.5,2.8,0.8
							C1003.1,471.3,999.3,472,997.3,472.5"/>
						<path class="st13" d="M986.7,468.1c-3,0-6.1,0.2-9.1,0.7c1.5-0.1,2.9-0.2,4.5-0.2c3-0.1,4.2-0.2,5.8-0.2
							c1.2,0,2.7,0.1,5.5,0.2c0.6,0,4.5,0.4,6.9,0.6l-0.5-0.1c-1.2-0.2-2.4-0.3-3.7-0.4c-2.5-0.2-4.9-0.4-7.4-0.4
							C988.1,468.1,987.4,468.1,986.7,468.1"/>
						<path class="st14" d="M987.9,468.3c-1.6,0-2.8,0.1-5.8,0.2c-1.6,0.1-3,0.1-4.5,0.2c-1.2,0.2-2.3,0.4-3.4,0.7l-1,0.2l1,0.1
							c3.4,0.5,6.8,0.8,10.2,1c1.2,0,2.5,0.1,3.7,0.1h1.4c0.9,0,1.7,0,2.6-0.1c0.9,0,1.7-0.3,2.5-0.7l0.3-0.2l-0.3-0.1
							c-2.6-0.4-5.2-0.6-7.7-0.6c-1,0-1.9,0-2.9,0.1v0.1l2.9,0.3l-2.6-0.3c0.5,0,1,0,1.6,0c2.8,0,5.6,0.2,8.4,0.6
							c-0.7,0.3-1.4,0.4-2.1,0.5c-0.8,0.1-1.7,0.1-2.6,0.1h-0.8c-1.4,0-2.9,0-4.3-0.1c-3.1-0.1-6.1-0.4-9.1-0.9
							c2.1-0.4,4.1-0.6,6.2-0.8c1.8-0.1,3.6-0.2,5.3-0.2c0.7,0,1.3,0,2,0c2.5,0,4.9,0.2,7.3,0.4c1.2,0.1,2.4,0.2,3.6,0.4
							c0.3,0.1,0.6,0.1,0.9,0.2c0.1,0,0.2,0.1,0.2,0.2c0,0,0,0.1-0.1,0.1c-0.5,0.1-1.2,0.2-1.8,0.3c-4.8,0.9-9.7,1.5-14.6,1.9
							c-0.8,0-1.5,0-2.3,0c-1.7,0-3.3-0.1-5-0.3c-2.4-0.3-4.8-1.2-6.9-2.5c2.1,1.4,4.4,2.2,6.8,2.6c1.8,0.3,3.7,0.4,5.6,0.4
							c0.6,0,1.2,0,1.8,0c4.9-0.3,9.8-0.9,14.6-1.8c0.6-0.1,1.2-0.2,1.9-0.3c0.1,0,0.2-0.1,0.3-0.2c0-0.1,0.1-0.1,0.1-0.2
							c0-0.1,0-0.1,0-0.2c-0.1-0.2-0.2-0.3-0.4-0.4l-0.5-0.1c-2.4-0.2-6.3-0.5-6.9-0.6C990.6,468.3,989.1,468.3,987.9,468.3z"/>
					</g>
				</g>
			</g>
		</g>
		<g>
			<defs>
				<rect id="SVGID_00000166654798641886011310000014604395249083951521_" x="148.1" y="934.3" width="107.7" height="71.7"/>
			</defs>
			<clipPath id="SVGID_00000129197720066240330490000007253612830622654094_">
				<use xlink:href="#SVGID_00000166654798641886011310000014604395249083951521_"  style="overflow:visible;"/>
			</clipPath>
			<g style="clip-path:url(#SVGID_00000129197720066240330490000007253612830622654094_);">
				<g>
					<defs>
						<rect id="SVGID_00000007429705154910424780000017343325440771096497_" x="157.2" y="938.9" width="98.8" height="63.3"/>
					</defs>
					<clipPath id="SVGID_00000077296356450632171450000016270242060735900288_">
						<use xlink:href="#SVGID_00000007429705154910424780000017343325440771096497_"  style="overflow:visible;"/>
					</clipPath>
					<g style="clip-path:url(#SVGID_00000077296356450632171450000016270242060735900288_);">
						<path class="st8" d="M227.2,984.4c0,0-4.6-7.5-3.7-7.2c2.3,0.9,4.7,1.5,7.1,1.8c3.7,0.5,1.8-1.7,4.9,0.1
							c3.3,1.9,3.7,1.7,6.9,3.8c4.1,2.7,3.2,2.3,6.2,4.3c3.7,2.4,3.8,0.1,7.3,2.9c-1.9-0.2-5.5-0.5-9.1-0.8
							c-4.2-0.3-8.5-0.7-10.7-0.9c-2.8-0.7-5.7-1.5-8.4-2.5L227.2,984.4z"/>
						<path class="st8" d="M236.2,986.1c-0.5,0-1,0-1.5,0.2c-0.6,0.2-1.3,0.3-2,0.2c-0.7-0.2-1.4-0.4-2.2-0.5
							c-0.6-0.1-1.5,0.6-2.5,0.9c-2.3,0.7-4.7,1.1-7.1,1.2c-1.2,0.1-2.3-0.1-3.4-0.5c-1.6-0.5-3-0.9-5.3,0.3c-3,1.5-4.6,2.2-5.4,3.2
							c-2,2.5,0.2,2.9-2.1,5.1c-0.5,0.5-0.4,1.5-0.9,2c-0.7,0.7-1.1,2.5-1.6,3.3c-0.5,0.8-0.7,0.3-1.6,0.2c-0.5-4.1-0.6-2.6-2.1-5.7
							c-0.6-1-1.1-2.1-1.2-3.3c0.1-0.5,0.1-1-0.1-1.5c-0.2-0.4-0.5-0.7-0.9-0.9c-1.4-0.9-2-0.6-4.7-1.9c-1.4-0.6-3-0.9-4.5-0.7
							c-1.1,0.1-2.2,0-3.3-0.4c-0.7-0.4-1.4-0.7-2-1.2c-1-0.5-2-0.8-3-1.1c-0.5-0.2-1-0.2-1.5-0.1c-0.6,0.1-1.1,0.2-1.7,0.4
							c-3.7,1.7-0.9,0.8-5.4,1.9c-0.6,0.2-1.3,0.4-2,0.4c-0.4,0-2.5-0.2-2.9-0.3c-1-0.1-1.9,0-2.8,0.2c-2.7,1.5-2.4,1.5-5,0.9
							c5.6-4.6,4.8-3.7,7.8-5.1c0.5-0.2,2.3-0.3,3.7-1.2c1.4-0.9,2.8-1.9,4-3c1.3-1.4,0.8-0.3,2.3-4.1c1.9-5.1,2.6-10.6,2-16.1
							c-0.2-2-0.6-4-0.6-6c-0.2-4.2,0.6-8.4,2.3-12.3c4,3.8,10.8,4.1,16.2,5c8.7,1.5,15.7,1,24.3-1c4.2-1,9.2-0.9,12.7-3.2
							c-1.7,3.4-1.3,7.4-0.9,11.3c1,8.5,2.2,16.9,3.6,25.3L236.2,986.1"/>
						<path class="st9" d="M179.4,942.2l-0.2,0.1c0.2,0.7,0.5,1.4,0.8,2.1C179.8,943.6,179.6,942.9,179.4,942.2"/>
						<path class="st10" d="M177.5,985.2H177c-0.6,0.1-1.1,0.2-1.7,0.4c0.6-0.2,1.1-0.3,1.7-0.4H177.5"/>
						<path class="st9" d="M203.7,976.6c0,0.1,0,0.1,0,0.2c0.2,1.5,0.6,2.9,1.4,4.1c0.7,1.3,1.4,2.6,2,4c0.6,1.7,1,3.4,1,5.2
							c0.9-0.6,2.2-1.2,4-2c0.9-0.5,1.8-0.8,2.8-0.8c0.8,0,1.7,0.2,2.5,0.5c0.9,0.3,1.9,0.5,2.8,0.5h0.6l0.7-0.1
							c-1.9-2.5-4.8-3.8-10.3-6.9C208.6,979.9,206.1,978.4,203.7,976.6L203.7,976.6z M178.3,942.8l-0.4,0.3c-1,2.9-1.5,6-1.6,9.1
							c0,0.4,0,0.8,0,1.2c0.1,2,0.4,4,0.6,6c0.1,1.3,0.2,2.7,0.2,4c0,4.1-0.7,8.2-2.2,12.1c-1.5,3.8-1,2.7-2.3,4.1
							c-1.3,1.1-2.6,2.1-4,3c-1.5,0.9-3.2,0.9-3.7,1.2c-3,1.4-2.1,0.5-7.8,5.1c0.7,0.2,1.3,0.4,2,0.4c0.7,0,1.3-0.4,3-1.3
							c0.7-0.2,1.4-0.3,2.1-0.2c0.2,0,0.5,0,0.7,0c0.4,0,2.5,0.2,2.9,0.3h0.2c0.6-0.1,1.2-0.2,1.8-0.4c4.6-1.2,1.8-0.2,5.4-1.9
							c0.5-0.2,1.1-0.3,1.7-0.4h0.5c0.3,0,0.7,0.1,1,0.2c1.1,0.2,2.1,0.6,3,1.1c0.7,0.4,1.3,0.8,2,1.2c0.8,0.3,1.6,0.4,2.4,0.4h0.9
							h1c1.2,0,2.4,0.2,3.5,0.8c2.7,1.3,3.3,1,4.7,1.9c0.4,0.2,0.7,0.5,0.9,0.9c0.1,0.2,0.1,0.4,0.1,0.7c0,0.3,0,0.6,0,0.9
							c0.1,1.2,0.6,2.3,1.2,3.3c1.5,3.1,1.7,1.6,2.1,5.7c0.5,0.1,0.8,0.2,1,0.2c0.2,0,0.3-0.1,0.6-0.5c0.5-0.8,0.9-2.6,1.6-3.3
							c0.5-0.5,0.4-1.5,0.9-2c0.4-0.3,0.7-0.6,0.9-1.1c0.2-0.4,0.3-0.9,0.3-1.4v-0.1c0-0.9,0.3-1.8,0.9-2.5c0.4-0.4,0.8-0.8,1.3-1.1
							c-0.1-1.8-0.5-3.5-1.2-5.2c-0.6-1.3-1.4-2.6-2-3.9c-0.7-1.3-1.1-2.8-1.3-4.3c0-0.2,0-0.4,0-0.6c-3.5-2.5-6.2-4.9-8.6-7
							c-2.1-1.8-5.6-6.2-8.8-11.7c0.3,1.1,0.5,2.2,0.8,3.3l1.1,5.3l1,5.3c0.1,0.9,0.4,1.7,0.6,2.6c0.3,0.8,0.8,1.5,1.4,2.1
							c0.6,0.6,1.2,1.4,1.6,2.2c0.5,0.8,0.6,1.7,0.5,2.7h-0.1c0-0.9-0.2-1.8-0.7-2.5c-0.5-0.7-1.1-1.4-1.7-2
							c-0.7-0.6-1.2-1.4-1.6-2.2c-0.3-0.9-0.6-1.7-0.8-2.7l-1.1-5.3l-1-5.3c-0.3-1.7-0.6-3.4-0.9-5c-1.8-3.2-3.3-6.6-4.6-10.1
							c-0.6-0.8-1.1-1.8-1.5-2.7c0.1,2.6,0.5,5.1,1,7.6c0.3,1.6,0.7,3.2,1.1,4.9c0.4,1.6,0.7,3.3,1,4.9c0.6,3.3,0.8,6.7,0.6,10
							c-0.3,3.3-0.7,6.6-1.4,9.9h-0.1c0.3-3.3,0.7-6.6,0.8-9.9c0.1-3.3-0.2-6.6-0.8-9.8c-0.3-1.6-0.7-3.2-1-4.9
							c-0.3-1.6-0.7-3.2-1-4.9C178.6,948.4,178.4,945.6,178.3,942.8"/>
						<path class="st11" d="M204.6,959c0.1,3,0,6-0.3,8.9c-0.2,1.5-0.3,3-0.6,4.4c-0.2,1.3-0.4,2.6-0.4,3.9l0.5,0.3
							c0-1.4,0.1-2.8,0.3-4.2c0.2-1.5,0.4-3,0.5-4.5C204.9,965,204.9,962,204.6,959"/>
						<path class="st12" d="M203.3,976.2c0,0.2,0,0.4,0,0.6c0.2,1.5,0.7,3,1.4,4.3c0.7,1.3,1.5,2.6,2,3.9c0.7,1.6,1.1,3.4,1.2,5.2
							l0.2-0.1c-0.1-1.8-0.4-3.5-1-5.2c-0.6-1.4-1.3-2.7-2-4c-0.7-1.3-1.2-2.7-1.3-4.1c0-0.1,0-0.1,0-0.2L203.3,976.2z"/>
						<path class="st11" d="M225.7,944.3L225.7,944.3c-0.5,1-0.9,2-1.1,3.1c-0.3,1.4-0.5,2.9-0.5,4.4c0,1.5,0.1,2.9,0.5,4.4
							c0.4,1.4,0.8,2.8,1.4,4.2c1,2.7,1.6,5.6,1.6,8.5c0,2.9,0.4,5.8,1.1,8.7c-0.6-2.9-0.8-5.8-0.7-8.7c0-2.9-0.5-5.9-1.5-8.6
							c-0.6-1.3-1-2.7-1.4-4.1c-0.3-1.4-0.5-2.8-0.5-4.3C224.4,949.2,224.8,946.7,225.7,944.3"/>
						<path class="st11" d="M215,952c0.4,1.6,0.4,3.3,0,5c-0.4,1.6-1,3.2-1.5,4.8c-1.1,3.2-1.6,6.7-1.3,10.1c0.1,1.7,0.5,3.4,1,5
							c0.3,0.8,0.7,1.6,1.2,2.4c0.6,0.7,1.3,1.3,2.2,1.6c0.3,0.1,0.7,0.2,1.1,0.2c0.6,0,1.2-0.1,1.7-0.4c0.8-0.5,1.4-1.2,1.7-2.1
							c0.6-1.6,0.9-3.4,0.9-5.1c0-3.5-0.8-6.9-2.2-10c-0.2-0.4-0.4-0.8-0.6-1.1l-0.3-0.6c-0.1-0.1-0.2-0.2-0.3-0.3
							c-0.1-0.1-0.3-0.2-0.5-0.3H218c-0.3,0-0.5,0.1-0.8,0.3c-0.2,0.2-0.3,0.3-0.5,0.5c-0.3,0.4-0.5,0.7-0.6,1.2
							c-0.6,1.6-1,3.3-1,5.1c-0.1,2.6,0.3,5.1,1.1,7.6c0.1,0.4,0.3,0.8,0.6,1.2c0.1,0.2,0.3,0.4,0.5,0.5c0.2,0.1,0.4,0.2,0.7,0.2
							h0.1c0.1,0,0.3-0.1,0.4-0.1c0.1-0.1,0.2-0.2,0.3-0.3c0.1-0.2,0.2-0.4,0.3-0.6c0.1-0.4,0.2-0.8,0.3-1.3
							c0.1-0.8,0.2-1.7,0.2-2.5c0-0.9-0.1-1.7-0.3-2.5c0-0.2-0.1-0.4-0.3-0.6c-0.1-0.2-0.3-0.3-0.5-0.3l0,0c-0.1,0-0.2,0-0.3,0.1
							c-0.1,0-0.2,0.1-0.2,0.2c-0.1,0.1-0.1,0.2-0.1,0.3c0,0.1,0,0.2,0.1,0.3c-0.1-0.1-0.1-0.2-0.1-0.3s0.1-0.2,0.2-0.3
							c0.1-0.1,0.3-0.2,0.5-0.2h0.1c0.2,0.1,0.4,0.2,0.5,0.4c0.1,0.2,0.2,0.4,0.2,0.6c0.2,0.8,0.2,1.7,0.2,2.5
							c0,0.8-0.1,1.7-0.3,2.5c-0.1,0.4-0.2,0.8-0.3,1.2c-0.1,0.4-0.3,0.7-0.6,0.7c-0.2,0-0.3-0.1-0.5-0.2c-0.1-0.1-0.3-0.2-0.3-0.4
							c-0.2-0.3-0.4-0.7-0.5-1.1c-0.2-0.8-0.4-1.6-0.6-2.4c-0.3-1.6-0.4-3.3-0.3-5c0-0.8,0.1-1.7,0.2-2.5c0.1-0.8,0.4-1.6,0.7-2.3
							c0.2-0.3,0.4-0.6,0.6-0.9c0.1-0.1,0.2-0.3,0.4-0.4c0.1-0.1,0.2-0.1,0.3-0.1l0,0c0,0,0.1,0,0.2,0.2l0.3,0.5
							c0.2,0.4,0.4,0.7,0.6,1.1c1.4,3,2.1,6.3,2,9.6c0.1,1.6-0.2,3.2-0.8,4.8c-0.3,0.7-0.8,1.3-1.4,1.7c-0.4,0.2-0.8,0.3-1.2,0.3
							c-0.3,0-0.6,0-0.8-0.1c-0.7-0.3-1.3-0.8-1.8-1.3c-0.5-0.6-0.9-1.3-1-2c-0.5-1.6-0.9-3.2-1.1-4.8c-0.4-3.3,0-6.7,1-9.8
							c0.5-1.6,1-3.2,1.3-4.9C215.6,955.4,215.5,953.6,215,952"/>
						<path class="st11" d="M180,944.4c0.2,0.5,0.3,1.1,0.5,1.6l0.1,0.1c1.1,1.4,2,2.9,2.8,4.6c0.7,1.7,1.3,3.6,1.6,5.4
							c0.3,0.5,0.6,1,0.9,1.5c-0.5-2.4-1.3-4.8-2.2-7.1c-0.8-1.6-1.7-3.2-2.8-4.7C180.7,945.4,180.4,944.9,180,944.4L180,944.4z
							 M178.6,941.2c-0.1,0.2-0.2,0.5-0.3,0.7v0.9l0.9-0.6c-0.1-0.2-0.1-0.4-0.1-0.7C178.9,941.4,178.7,941.2,178.6,941.2"/>
						<path class="st12" d="M185.1,956.1c0.3,1.7,0.6,3.3,0.9,5l1,5.3l1.1,5.3c0.2,0.9,0.4,1.8,0.8,2.7c0.4,0.9,0.9,1.6,1.6,2.3
							c0.6,0.6,1.2,1.3,1.7,2c0.5,0.7,0.7,1.6,0.7,2.5h0.1c0.1-0.9-0.1-1.9-0.5-2.7c-0.4-0.8-1-1.5-1.6-2.2
							c-0.6-0.6-1.1-1.4-1.4-2.2c-0.3-0.8-0.5-1.7-0.6-2.6l-1-5.3l-1.1-5.3c-0.3-1.1-0.5-2.2-0.8-3.3
							C185.7,957.1,185.4,956.6,185.1,956.1L185.1,956.1z M179.2,942.3l-0.9,0.6c0,2.8,0.3,5.5,0.9,8.2c0.3,1.6,0.6,3.3,1,4.9
							c0.3,1.6,0.7,3.2,1,4.9c0.6,3.2,0.9,6.5,0.8,9.8c-0.1,3.3-0.4,6.6-0.8,9.9h0.1c0.7-3.3,1.1-6.6,1.4-9.9c0.2-3.3,0-6.7-0.6-10
							c-0.3-1.6-0.6-3.3-1-4.9s-0.7-3.2-1.1-4.9c-0.5-2.5-0.9-5.1-1-7.6c0.4,1,0.9,1.9,1.5,2.7c-0.2-0.5-0.4-1.1-0.5-1.6
							C179.7,943.7,179.4,943,179.2,942.3"/>
						<path class="st13" d="M220.8,945.5c-5.3,1-10.6,1.7-16,2c-2.4,0-14.9-1-17.7-2.1c-3.7-1.4-8.4-3.7-8.4-4.3
							c-0.1-0.8,3.4-0.4,4.9-0.6c6.5-0.6,10-0.8,14.8-1c8-0.4,7.6-0.6,16.6,0c1.2,0.1,11.6,0.9,12.8,1.2c3.8,0.8,4.9,0.7,4.1,1.1
							C229.4,943.7,223.8,944.8,220.8,945.5"/>
						<path class="st13" d="M205.1,938.9c-4.5,0-9,0.3-13.4,1c2.3-0.1,4.3-0.2,6.6-0.4c4.4-0.2,6.3-0.4,8.6-0.4c1.8,0,4,0.1,8.1,0.4
							c0.9,0.1,6.7,0.5,10.2,0.9l-0.7-0.2c-1.8-0.3-3.6-0.5-5.4-0.6c-3.7-0.3-7.2-0.5-10.8-0.7C207.2,939,206.2,939,205.1,938.9"/>
						<path class="st14" d="M207,939.2c-2.3,0-4.2,0.1-8.6,0.4c-2.3,0.1-4.4,0.2-6.6,0.4c-1.7,0.3-3.4,0.6-5.1,1l-1.5,0.3l1.5,0.2
							c5,0.8,10,1.3,15.1,1.5c1.8,0.1,3.7,0.1,5.5,0.1h2.1c1.3,0,2.5,0,3.8-0.1c1.3-0.1,2.6-0.4,3.7-1l0.4-0.3l-0.5-0.1
							c-3.8-0.6-7.6-0.9-11.4-0.9c-1.4,0-2.9,0-4.3,0.1v0.1l4.3,0.5l-3.9-0.5c0.8,0,1.5,0,2.3,0c4.1,0,8.3,0.3,12.3,0.9
							c-1,0.4-2,0.6-3.1,0.7c-1.2,0.1-2.5,0.1-3.8,0.1h-1.2c-2.1,0-4.3-0.1-6.4-0.2c-4.5-0.2-9-0.7-13.5-1.3c3-0.6,6.1-1,9.2-1.2
							c2.6-0.2,5.2-0.3,7.9-0.3c1,0,2,0,2.9,0c3.7,0.1,7.2,0.3,10.8,0.6c1.8,0.1,3.6,0.3,5.4,0.6c0.4,0.1,0.8,0.2,1.3,0.3
							c0.1,0.1,0.3,0.1,0.4,0.3c0,0,0,0.1-0.2,0.2c-0.8,0.2-1.7,0.3-2.6,0.5c-7.1,1.4-14.3,2.3-21.5,2.8c-1.1,0-2.3,0.1-3.4,0.1
							c-2.5,0-4.9-0.1-7.4-0.5c-3.6-0.5-7-1.7-10.1-3.7c3,2,6.5,3.4,10,3.9c2.7,0.4,5.5,0.7,8.2,0.6c0.9,0,1.7,0,2.6,0
							c7.2-0.4,14.5-1.3,21.6-2.7c0.9-0.2,1.8-0.3,2.7-0.5c0.2-0.1,0.3-0.2,0.4-0.3c0.1-0.1,0.1-0.2,0.1-0.3c0-0.1,0-0.2,0-0.3
							c-0.1-0.3-0.4-0.5-0.7-0.6l-0.7-0.2c-3.5-0.3-9.4-0.8-10.2-0.9C211,939.3,208.8,939.2,207,939.2z"/>
					</g>
				</g>
			</g>
		</g>
		<rect x="597.5" y="438.5" class="st3" width="24.5" height="104.7"/>
		<rect x="597.6" y="399.8" class="st4" width="24.5" height="104.7"/>
		<path class="st19" d="M609.5,381.3l69.7,109.5H539.8L609.5,381.3z"/>
		<path class="st5" d="M609.6,340.1l59.1,92.8H550.5L609.6,340.1z"/>
		<path class="st20" d="M632.3,375.4h-45.4l-6.7,10.1H639L632.3,375.4z"/>
		<path class="st20" d="M642.4,432.8h-65.7l-6.2,9.5h78.2L642.4,432.8z"/>
		<path class="st19" d="M610.4,302l47,73.8h-94L610.4,302z"/>
		<rect x="429.6" y="509.2" class="st3" width="18.1" height="80.8"/>
		<rect x="429.7" y="479.4" class="st4" width="18.1" height="80.8"/>
		<path class="st19" d="M438.5,465.2l51.5,84.4H387L438.5,465.2z"/>
		<path class="st5" d="M438.5,433.4l43.7,71.6h-87.4L438.5,433.4z"/>
		<path class="st20" d="M455.3,460.6h-33.6l-5,7.8h43.5L455.3,460.6z"/>
		<path class="st20" d="M462.8,504.9h-48.5l-4.6,7.3h57.8L462.8,504.9z"/>
		<path class="st19" d="M439.1,404l34.7,56.9h-69.5L439.1,404z"/>
		<rect x="1049.4" y="457.8" class="st3" width="22.7" height="101.1"/>
		<rect x="1049.5" y="420.4" class="st4" width="22.7" height="101.1"/>
		<path class="st19" d="M1060.5,402.6l64.5,105.7H996L1060.5,402.6z"/>
		<path class="st5" d="M1060.6,362.8l54.7,89.6h-109.4L1060.6,362.8z"/>
		<path class="st20" d="M1081.6,396.9h-42l-6.2,9.8h54.5L1081.6,396.9z"/>
		<path class="st20" d="M1090.9,452.3h-60.8l-5.8,9.1h72.4L1090.9,452.3z"/>
		<path class="st19" d="M1061.3,326l43.5,71.2h-87L1061.3,326z"/>
		<path class="st3" d="M586.7,812.5h19.1v171h-19.1V812.5z"/>
		<path class="st4" d="M586.7,797.8h18.6v123.5h-18.6V797.8z"/>
		<path class="st5" d="M596.4,719.2L650.8,898H542L596.4,719.2z"/>
		<path class="st3" d="M491.2,372.9h9.9l8.1,76.5H483L491.2,372.9z"/>
		<path class="st4" d="M491.2,372.9h9.8l4.3,41.2h-18.4L491.2,372.9z"/>
		<path class="st21" d="M452.3,336.9c0-11.5,9.3-20.8,20.8-20.8c11.5,0,20.8,9.3,20.8,20.8v1.2c0,0.8,0,1.6-0.1,2.4
			c8.7,2.5,15,10.5,15,20v1.2c0,11.5-9.3,20.8-20.8,20.8c-6.2,0-11.8-2.7-15.6-7c-3.8,4.3-9.4,7-15.6,7c-11.5,0-20.8-9.3-20.8-20.8
			v-1.2c0-10,7-18.3,16.4-20.3c-0.1-0.7-0.1-1.4-0.1-2.1V336.9z"/>
		<path class="st21" d="M499.1,399.7c-7.1,8.4-19.6,9.6-28.1,2.6c-8.5-7-9.6-19.5-2.6-27.9l0.9-1.1c0.5-0.6,1-1.1,1.5-1.6
			c-4.8-7.1-4.6-16.8,1.2-23.8l0.9-1.1c7.1-8.4,19.6-9.6,28.1-2.6c4.6,3.8,7,9.2,7.2,14.7c5.5-0.9,11.3,0.5,15.8,4.3
			c8.5,7,9.6,19.5,2.6,27.9l-0.9,1.1c-6.1,7.3-16.5,9.2-24.6,4.9c-0.3,0.5-0.7,1-1.1,1.5L499.1,399.7z"/>
		<path class="st21" d="M494.1,330.3c0-11.6,9.4-21,21-21c11.6,0,21,9.4,21,21v1.2c0,0.8,0,1.7-0.1,2.5c8.8,2.5,15.2,10.6,15.2,20.2
			v1.2c0,11.6-9.4,21-21,21c-6.3,0-11.9-2.8-15.8-7.1c-3.9,4.4-9.5,7.1-15.8,7.1c-11.6,0-21-9.4-21-21v-1.2
			c0-10.1,7.1-18.5,16.6-20.6c-0.1-0.7-0.1-1.4-0.1-2.1V330.3z"/>
		<path class="st21" d="M486.5,300.9c0-11.6,9.4-21,21-21c11.6,0,21,9.4,21,21v1.2c0,0.8,0,1.7-0.1,2.5c8.8,2.5,15.2,10.6,15.2,20.2
			v1.2c0,11.6-9.4,21-21,21c-6.3,0-11.9-2.8-15.8-7.1c-3.9,4.4-9.5,7.1-15.8,7.1c-11.6,0-21-9.4-21-21v-1.2
			c0-10.1,7.1-18.5,16.6-20.6c-0.1-0.7-0.1-1.4-0.1-2.1V300.9z"/>
		<path class="st21" d="M456.4,309.5c0-9.5,7.7-17.3,17.3-17.3c9.5,0,17.3,7.7,17.3,17.3v1c0,0.7,0,1.4-0.1,2
			c7.2,2.1,12.4,8.7,12.4,16.6v1c0,9.5-7.7,17.3-17.3,17.3c-5.2,0-9.8-2.3-12.9-5.8c-3.2,3.6-7.8,5.8-12.9,5.8
			c-9.5,0-17.3-7.7-17.3-17.3v-1c0-8.3,5.8-15.2,13.6-16.9c-0.1-0.6-0.1-1.1-0.1-1.7V309.5z"/>
		<path class="st22" d="M511.8,292.8c6.5,6.9,6.2,17.7-0.7,24.2c-6.9,6.5-17.8,6.2-24.4-0.7l-0.8-0.9c-0.4-0.5-0.9-1-1.2-1.5
			c-6.7,3.4-15,2.2-20.4-3.5l-0.8-0.9c-6.5-6.9-6.2-17.7,0.7-24.2c3.7-3.5,8.7-5,13.4-4.6c-0.2-4.7,1.6-9.5,5.4-13
			c6.9-6.5,17.8-6.2,24.4,0.7l0.8,0.9c5.7,6,6.2,15,1.7,21.5c0.4,0.3,0.8,0.7,1.2,1.1L511.8,292.8z"/>
		<path class="st20" d="M549.3,345.7c-3.1,4.5-7.8,7.7-13.4,8.8c-0.6,3.1-2,6.1-4.2,8.7l-0.9,1.1c-6.1,7.3-16.5,9.1-24.6,4.9
			c-0.3,0.5-0.7,1-1.1,1.5l-0.9,1.1c-7.1,8.4-19.6,9.6-28.1,2.6c-5-4.1-7.4-10.1-7.2-16c-3,1.7-6.6,2.7-10.3,2.7
			c-8.4,0-15.6-4.9-18.9-12c-2.3,3.3-3.6,7.3-3.6,11.7v1.5c0,11.4,9.3,20.7,20.8,20.7c2.8,0,5.5-0.6,8-1.6
			c-2.5,7.5-0.3,16.1,6.2,21.4c8.5,7,21.1,5.8,28.1-2.6l0.9-1.1c0.4-0.5,0.8-1,1.1-1.5c8.2,4.3,18.5,2.4,24.6-4.9l0.9-1.1
			c3.6-4.3,5.1-9.7,4.5-14.9c11.2-0.5,20-9.7,20-20.9v-1.5C551.2,351.3,550.5,348.3,549.3,345.7z"/>
		<path class="st3" d="M544.6,1139.3h19.5l15.9,134.1h-51.5L544.6,1139.3z"/>
		<path class="st4" d="M544.4,1139.3h19.4l8.4,72.2H536L544.4,1139.3z"/>
		<path class="st21" d="M468,1076.3c0-20.1,18.3-36.4,40.9-36.4c22.6,0,40.9,16.3,40.9,36.4v2.1c0,1.4-0.1,2.9-0.3,4.3
			c17.1,4.4,29.5,18.4,29.5,35v2.1c0,20.1-18.3,36.4-40.9,36.4c-12.2,0-23.2-4.8-30.7-12.3c-7.5,7.6-18.5,12.3-30.7,12.3
			c-22.6,0-40.9-16.3-40.9-36.4v-2.1c0-17.5,13.9-32.1,32.4-35.6c-0.1-1.2-0.2-2.4-0.2-3.6V1076.3z"/>
		<path class="st21" d="M560.1,1186.4c-13.9,14.8-38.7,16.8-55.4,4.5c-16.7-12.3-18.9-34.2-5.1-48.9l1.8-1.9c0.9-1,1.9-1.9,3-2.8
			c-9.5-12.5-9.1-29.5,2.4-41.7l1.8-1.9c13.9-14.8,38.7-16.8,55.4-4.5c9,6.6,13.8,16.1,14.1,25.7c10.8-1.5,22.2,1,31.2,7.6
			c16.7,12.3,18.9,34.2,5.1,48.9l-1.8,1.9c-12.1,12.8-32.4,16-48.5,8.6c-0.7,0.9-1.4,1.7-2.2,2.6L560.1,1186.4z"/>
		<path class="st21" d="M550.3,1064.6c0-20.4,18.5-36.9,41.4-36.9c22.9,0,41.4,16.5,41.4,36.9v2.1c0,1.5-0.1,2.9-0.3,4.3
			c17.2,4.5,29.9,18.6,29.9,35.4v2.1c0,20.4-18.5,36.9-41.4,36.9c-12.4,0-23.5-4.8-31.1-12.5c-7.6,7.7-18.7,12.5-31.1,12.5
			c-22.9,0-41.4-16.5-41.4-36.9v-2.1c0-17.7,14-32.5,32.7-36c-0.1-1.2-0.2-2.4-0.2-3.7V1064.6z"/>
		<path class="st21" d="M535.2,1013.2c0-20.4,18.5-36.9,41.4-36.9s41.4,16.5,41.4,36.9v2.1c0,1.5-0.1,2.9-0.3,4.3
			c17.2,4.5,29.9,18.6,29.9,35.4v2.1c0,20.4-18.5,36.9-41.4,36.9c-12.4,0-23.5-4.8-31.1-12.5c-7.6,7.7-18.7,12.5-31.1,12.5
			c-22.9,0-41.4-16.5-41.4-36.9v-2.1c0-17.7,14-32.5,32.7-36c-0.1-1.2-0.2-2.4-0.2-3.7V1013.2z"/>
		<path class="st21" d="M476,1028.2c0-16.7,15.2-30.2,34-30.2c18.8,0,34,13.5,34,30.2v1.7c0,1.2-0.1,2.4-0.2,3.6
			c14.2,3.7,24.5,15.3,24.5,29v1.7c0,16.7-15.2,30.2-34,30.2c-10.1,0-19.3-4-25.5-10.2c-6.2,6.3-15.3,10.2-25.5,10.2
			c-18.8,0-34-13.5-34-30.2v-1.7c0-14.5,11.5-26.7,26.9-29.6c-0.1-1-0.2-2-0.2-3V1028.2z"/>
		<path class="st22" d="M585.2,999c12.9,12.1,12.3,31.1-1.4,42.4c-13.6,11.4-35.1,10.8-48-1.2l-1.7-1.6c-0.9-0.8-1.7-1.7-2.4-2.5
			c-13.1,5.9-29.6,3.8-40.2-6.1l-1.7-1.6c-12.9-12.1-12.3-31.1,1.3-42.4c7.4-6.2,17.1-8.8,26.4-8.1c-0.3-8.3,3.2-16.7,10.6-22.9
			c13.6-11.4,35.1-10.8,48,1.2l1.7,1.6c11.2,10.5,12.2,26.2,3.3,37.6c0.8,0.6,1.5,1.3,2.3,1.9L585.2,999z"/>
		<path class="st20" d="M658.9,1091.7c-6,7.9-15.4,13.6-26.4,15.4c-1.2,5.4-4,10.7-8.3,15.3l-1.8,1.9c-12.1,12.8-32.4,16-48.5,8.6
			c-0.7,0.9-1.4,1.8-2.2,2.6l-1.8,1.9c-13.9,14.8-38.7,16.8-55.4,4.5c-9.8-7.2-14.6-17.7-14.1-28.1c-6,3-12.9,4.7-20.3,4.7
			c-16.5,0-30.7-8.6-37.2-21c-4.5,5.8-7.2,12.9-7.2,20.4v2.6c0,20,18.3,36.2,40.9,36.2c5.6,0,10.9-1,15.7-2.8
			c-4.9,13.1-0.5,28.1,12.2,37.5c16.7,12.3,41.5,10.2,55.4-4.5l1.8-1.9c0.8-0.8,1.5-1.7,2.2-2.6c16.1,7.5,36.4,4.3,48.5-8.6l1.8-1.9
			c7.1-7.6,10-17,8.8-26.1c22-0.9,39.5-16.9,39.5-36.6v-2.6C662.7,1101.4,661.3,1096.3,658.9,1091.7z"/>
		<path class="st3" d="M-3.3,1028.6h32.6l26.6,254.5h-86.1L-3.3,1028.6z"/>
		<path class="st4" d="M-3.5,1028.6h32.4l14.1,137h-60.5L-3.5,1028.6z"/>
		<path class="st5" d="M110.6,1142.3c32.5,3.3,11-35.9-4.7-70.8C90.2,1036.7,56.2,971.1,4.1,971.1c-42.7,0-123.7,153.9-104.7,168.3
			c15.2,11.6,50.8,2.5,74.5-15.7c7.1,16.1,17.8,23.6,34.9,24.9c17.1,1.3,27-10.4,40.4-24.9C53.9,1129.1,82.3,1139.5,110.6,1142.3z"
			/>
		<path class="st20" d="M104.5,1067.7C84.9,1029,51.1,977.7,3.1,977.7c-24.7,0-61.2,47.4-86.8,94.1c17.4-1.8,38.1-10.2,53.9-22.3
			c7.7,17.5,20.4,35.6,38.9,37c18.5,1.4,32.4-16.8,42.9-37C56.4,1054.4,79,1063.2,104.5,1067.7z"/>
		<path class="st19" d="M110.6,1053.8c31.1,10,11-35.9-4.7-70.8C90.2,948.1,56.2,882.6,4.1,882.6c-42.7,0-123.7,153.9-104.7,168.3
			c15.2,11.6,50.8-16.8,74.5-35c7.1,16.1,17.8,42.9,34.9,44.2c17.1,1.3,27-29.7,40.4-44.2C53.9,1021.2,82.3,1044.6,110.6,1053.8z"/>
		<path class="st20" d="M89.9,947.2c7.5,16.1,13,27.8,12.1,27.8c-24.1-2.4-52-13.1-56-17.6C37.7,973,25,983.1,10.5,982
			c-14.5-1.1-27.7-13.2-33.8-26.8c-20.1,15.4-57.5,21.2-54.9,16.9c4.5-7.2,8.7-15.2,12.7-23.7c24-38.6,53.3-72.4,74.1-72.4
			c25.2,0,46.5,14.1,63.9,33.1c0.9,2.3,1.8,4.4,2.7,6.5C80.2,926.6,85.4,937.6,89.9,947.2z"/>
		<path class="st5" d="M100.6,949.5c22.5,7.8,5.7-32.3-7-60.7c-12.8-28.4-44.9-73.3-87.2-76.3c-39.5-2.8-104.1,121-88.7,132.8
			c12.3,9.4,44.9-9.2,64.2-24c5.8,13.1,14.5,35,28.3,36c13.9,1.1,21.9-24.2,32.8-36C46.9,925.6,80.5,942.6,100.6,949.5z"/>
		<path class="st20" d="M82.4,867.3c4.6,8.1,7.4,13.1,6.9,12.9c-1-0.3-2.3-0.7-3.8-1.1c-12.4-3.5-38-10.7-42.6-15.9
			c-2.8,3.5-5.4,6.8-7.7,9.8c-10.3,13.3-16.4,21.2-23.3,21.2c-8.6,0-13.8-7.5-20.3-16.9c-3.1-4.5-6.4-9.3-10.6-14.1
			c-25.7,19.8-43.6,18.4-43.6,18.4s9.5-35.4,26.2-67.3c15.2-17.2,30.2-28.7,42.3-28.7c15,0,28.5,5,40.7,13c0.2,0.4,0.3,0.8,0.5,1.1
			C58.3,824.7,73.7,851.8,82.4,867.3z"/>
		<path class="st19" d="M79.4,860.4c19.1,11,7.3-24.6-3.2-48.4C65.7,788.1,42.9,743.3,8,743.3c-28.6,0-82.9,105.2-70.2,115.2
			c10.2,7.9,34-11.5,49.9-24c4.8,11,12,29.4,23.4,30.2c11.4,0.9,18.1-20.3,27.1-30.2C41.4,838.1,64.2,851.6,79.4,860.4z"/>
		<path class="st3" d="M965.6,609.8h16.5v144.4h-16.5V609.8z"/>
		<path class="st4" d="M965.6,597.3h16v104.3h-16V597.3z"/>
		<path class="st5" d="M973.9,531l46.9,150.9H927L973.9,531z"/>
		<path class="st3" d="M146.5,380.8h27.2v132.6h-27.2V380.8z"/>
		<path class="st4" d="M146.5,379.7h26.4v100.9h-26.4V379.7z"/>
		<path class="st19" d="M122.3,370.9c0-21.9,17.1-39.6,38.2-39.6s38.2,17.7,38.2,39.6v2.8c0,1.5-0.1,3-0.2,4.4
			c15.9,4.8,27.5,20,27.5,38v2.8c0,21.9-17.1,39.6-38.2,39.6c-11.4,0-21.7-5.2-28.7-13.4c-7,8.2-17.2,13.4-28.7,13.4
			c-21.1,0-38.2-17.7-38.2-39.6v-2.8c0-19,12.9-34.9,30.2-38.7c-0.1-1.2-0.2-2.5-0.2-3.7V370.9z"/>
		<path class="st5" d="M126.5,303.4c0-19,14.8-34.3,33.1-34.3c18.3,0,33.1,15.4,33.1,34.3v2.5c0,1.3-0.1,2.6-0.2,3.8
			c13.8,4.2,23.9,17.3,23.9,33v2.5c0,19-14.8,34.3-33.1,34.3c-9.9,0-18.8-4.5-24.8-11.6c-6.1,7.1-14.9,11.6-24.8,11.6
			c-18.3,0-33.1-15.4-33.1-34.3v-2.5c0-16.5,11.2-30.2,26.2-33.6c-0.1-1.1-0.1-2.1-0.1-3.2V303.4z"/>
		<path class="st19" d="M132.8,249.2c0-15.5,12.2-28.2,27.2-28.2s27.2,12.6,27.2,28.2v2c0,1.1-0.1,2.1-0.2,3.1
			c11.3,3.4,19.6,14.2,19.6,27v2c0,15.5-12.2,28.2-27.2,28.2c-8.1,0-15.4-3.7-20.4-9.5c-5,5.8-12.3,9.5-20.4,9.5
			c-15,0-27.2-12.6-27.2-28.2v-2c0-13.5,9.2-24.8,21.5-27.5c-0.1-0.9-0.1-1.7-0.1-2.6V249.2z"/>
		<path class="st23" d="M92,398.6C92,398.6,92,398.7,92,398.6v37.5c0,12.3,10,22.3,22.3,22.3h31.9c4.7,0,9.1-1.5,12.7-4
			c3.6,2.5,8,4,12.7,4h31.9c12.3,0,22.3-10,22.3-22.3v-21.3c0,12.3-10,22.3-22.3,22.3h-31.9c-4.7,0-9.1-1.5-12.7-4
			c-3.6,2.5-8,4-12.7,4h-31.9C102,437,92,427,92,414.7V398.6z"/>
		<path class="st3" d="M1117.2,564.7h15.6l12.7,121.6h-41.3L1117.2,564.7z"/>
		<path class="st4" d="M1117.1,564.7h15.5l6.8,65.4h-29L1117.1,564.7z"/>
		<path class="st21" d="M1055.8,496.8c0-12.3,10-22.3,22.3-22.3h21.1c12.3,0,22.3,10,22.3,22.3V512h1.2c12.3,0,22.3,10,22.3,22.3
			v23.4c0,12.3-10,22.3-22.3,22.3h-21.1c-5.3,0-10.2-1.9-14.1-5c-3.8,3.1-8.7,5-14.1,5h-21.1c-12.3,0-22.3-10-22.3-22.3v-23.4
			c0-12.3,10-22.3,22.3-22.3h3.5V496.8z"/>
		<path class="st21" d="M1123.7,614.5c-7.9,9.5-21.9,10.8-31.4,2.9l-14.2-11.8c-9.5-7.9-10.8-21.9-2.9-31.4l8.8-10.6l-0.2-0.1
			c-9.5-7.9-10.8-21.9-2.9-31.4l13.2-15.9c7.9-9.5,21.9-10.8,31.4-2.9l14.2,11.8c4.2,3.5,6.8,8.3,7.7,13.3
			c5.1-0.1,10.2,1.6,14.5,5.1l14.2,11.8c9.5,7.9,10.8,21.9,2.9,31.4l-13.2,15.9c-7.9,9.5-21.9,10.8-31.4,2.9l-1.9-1.6L1123.7,614.5z
			"/>
		<path class="st21" d="M1121.8,485.8c0-12.3,10-22.3,22.3-22.3h21.8c12.3,0,22.3,10,22.3,22.3v15.6h1.4c12.3,0,22.3,10,22.3,22.3
			v24.2c0,12.3-10,22.3-22.3,22.3h-21.8c-5.3,0-10.2-1.8-14-4.9c-3.8,3.1-8.7,4.9-14,4.9H1118c-12.3,0-22.3-10-22.3-22.3v-24.2
			c0-12.3,10-22.3,22.3-22.3h3.8V485.8z"/>
		<path class="st21" d="M1109.7,439.2c0-12.3,10-22.3,22.3-22.3h21.8c12.3,0,22.3,10,22.3,22.3v15.6h1.4c12.3,0,22.3,10,22.3,22.3
			v24.2c0,12.3-10,22.3-22.3,22.3h-21.9c-5.3,0-10.2-1.8-14-4.9c-3.8,3.1-8.7,4.9-14,4.9h-21.8c-12.3,0-22.3-10-22.3-22.3v-24.2
			c0-12.3,10-22.3,22.3-22.3h3.8V439.2z"/>
		<path class="st21" d="M1062.2,458.8c0-12.3,10-22.3,22.3-22.3h9.9c12.3,0,22.3,10,22.3,22.3v9c11,1.4,19.5,10.8,19.5,22.1v11.8
			c0,12.3-10,22.3-22.3,22.3h-9.9c-6,0-11.5-2.4-15.5-6.2c-4,3.9-9.5,6.2-15.5,6.2h-9.9c-12.3,0-22.3-10-22.3-22.3v-11.8
			c0-12,9.5-21.8,21.4-22.3V458.8z"/>
		<path class="st22" d="M1153.2,441.1c8.5,8.9,8.1,23-0.9,31.5l-7.2,6.8c-8.9,8.4-23.1,8-31.5-0.9l-6.2-6.6
			c-8.9,6.5-21.5,5.5-29.3-2.7l-8.1-8.6c-8.5-8.9-8.1-23,0.9-31.5l7.2-6.8c4.4-4.1,10-6.1,15.6-6.1c0.2-5.6,2.6-11,7-15.2l7.2-6.8
			c8.9-8.4,23.1-8,31.5,0.9l8.1,8.6c8.3,8.7,8.1,22.4-0.3,30.9L1153.2,441.1z"/>
		<path class="st20" d="M1208.9,521.5c-4.8,7.1-12.4,12.3-21.2,14c-1,4.9-3.2,9.7-6.7,13.9l-1.4,1.7c-9.7,11.6-26,14.5-38.9,7.8
			c-0.6,0.8-1.1,1.6-1.8,2.4l-1.4,1.7c-11.1,13.4-31,15.2-44.4,4.1c-7.8-6.5-11.7-16-11.4-25.5c-4.8,2.7-10.3,4.3-16.3,4.3
			c-13.2,0-24.6-7.8-29.8-19c-3.6,5.3-5.7,11.7-5.7,18.5v2.3c0,18.1,14.7,32.8,32.8,32.8c4.5,0,8.7-0.9,12.6-2.5
			c-3.9,11.9-0.4,25.5,9.8,34c13.4,11.1,33.3,9.3,44.4-4.1l1.4-1.7c0.6-0.8,1.2-1.5,1.8-2.4c12.9,6.8,29.2,3.9,38.9-7.8l1.4-1.7
			c5.7-6.9,8-15.4,7.1-23.6c17.6-0.8,31.7-15.3,31.7-33.1v-2.4C1211.9,530.4,1210.8,525.7,1208.9,521.5z"/>
		<path class="st3" d="M511,697h16.8l13.7,131H497L511,697z"/>
		<path class="st4" d="M510.8,697h16.7l7.3,70.5h-31.3L510.8,697z"/>
		<path class="st21" d="M444.8,623.9c0-13.3,10.7-24,24-24h22.8c13.3,0,24,10.7,24,24v16.4h1.3c13.3,0,24,10.7,24,24v25.2
			c0,13.3-10.8,24-24,24h-22.8c-5.8,0-11-2-15.2-5.4c-4.1,3.4-9.4,5.4-15.2,5.4H441c-13.3,0-24-10.7-24-24v-25.2
			c0-13.3,10.7-24,24-24h3.8V623.9z"/>
		<path class="st21" d="M518,750.7c-8.5,10.2-23.6,11.6-33.8,3.1l-15.3-12.7c-10.2-8.5-11.6-23.6-3.1-33.8l9.5-11.4l-0.2-0.2
			c-10.2-8.5-11.6-23.6-3.1-33.8l14.3-17.2c8.5-10.2,23.6-11.6,33.8-3.1l15.3,12.7c4.6,3.8,7.4,8.9,8.3,14.3
			c5.5-0.1,11,1.8,15.6,5.5l15.3,12.7c10.2,8.5,11.6,23.6,3.1,33.8l-14.3,17.2c-8.5,10.2-23.6,11.6-33.8,3.1l-2.1-1.7L518,750.7z"/>
		<path class="st21" d="M515.9,612.1c0-13.3,10.7-24,24-24h23.5c13.3,0,24,10.7,24,24V629h1.5c13.3,0,24,10.7,24,24v26
			c0,13.3-10.7,24-24,24h-23.5c-5.7,0-10.9-2-15.1-5.3c-4.1,3.3-9.4,5.3-15.1,5.3h-23.5c-13.3,0-24-10.7-24-24v-26
			c0-13.3,10.7-24,24-24h4.1V612.1z"/>
		<path class="st21" d="M502.9,561.9c0-13.3,10.7-24,24-24h23.5c13.3,0,24,10.7,24,24v16.8h1.5c13.3,0,24,10.7,24,24v26
			c0,13.3-10.7,24-24,24h-23.5c-5.7,0-10.9-2-15.1-5.3c-4.1,3.3-9.4,5.3-15.1,5.3h-23.5c-13.3,0-24-10.7-24-24v-26
			c0-13.3,10.7-24,24-24h4.1V561.9z"/>
		<path class="st21" d="M451.7,583c0-13.3,10.7-24,24-24h10.7c13.3,0,24,10.7,24,24v9.7c11.8,1.5,21,11.6,21,23.8v12.7
			c0,13.3-10.7,24-24,24h-10.7c-6.5,0-12.4-2.6-16.7-6.7c-4.3,4.2-10.2,6.7-16.7,6.7h-10.7c-13.3,0-24-10.7-24-24v-12.7
			c0-12.9,10.2-23.5,23.1-24V583z"/>
		<path class="st22" d="M549.7,563.9c9.1,9.6,8.7,24.8-1,33.9l-7.8,7.3c-9.6,9.1-24.8,8.7-34-1l-6.7-7.1c-9.6,7-23.2,6-31.6-2.9
			l-8.8-9.3c-9.1-9.6-8.7-24.8,1-33.9l7.8-7.3c4.7-4.4,10.7-6.6,16.8-6.6c0.3-6,2.8-11.9,7.5-16.3l7.8-7.3c9.6-9.1,24.8-8.7,34,1
			l8.8,9.3c8.9,9.4,8.7,24.1-0.3,33.3L549.7,563.9z"/>
		<path class="st20" d="M609.8,650.5c-5.2,7.7-13.3,13.3-22.8,15.1c-1.1,5.3-3.5,10.5-7.2,14.9l-1.6,1.9
			c-10.4,12.5-28,15.7-41.9,8.4c-0.6,0.9-1.2,1.7-1.9,2.5l-1.6,1.9c-12,14.4-33.4,16.4-47.8,4.4c-8.4-7-12.6-17.3-12.2-27.4
			c-5.2,3-11.2,4.6-17.5,4.6c-14.2,0-26.5-8.4-32.1-20.5c-3.9,5.7-6.2,12.6-6.2,20v2.5c0,19.5,15.8,35.4,35.4,35.4
			c4.8,0,9.4-1,13.6-2.7c-4.2,12.8-0.4,27.5,10.6,36.7c14.4,12,35.8,10,47.8-4.4l1.6-1.9c0.7-0.8,1.3-1.7,1.9-2.5
			c13.9,7.3,31.4,4.2,41.9-8.4l1.6-1.9c6.2-7.4,8.6-16.6,7.6-25.5c19-0.9,34.1-16.5,34.1-35.7v-2.6
			C613,660.1,611.9,655.1,609.8,650.5z"/>
		<path class="st3" d="M892.7,478.8h15.2l12.4,108.6h-40.2L892.7,478.8z"/>
		<path class="st4" d="M892.6,478.8h15.1l6.6,58.5h-28.2L892.6,478.8z"/>
		<path class="st5" d="M945.9,527.3c15.2,1.4,5.1-15.3-2.2-30.2c-7.3-14.9-23.2-42.9-47.5-42.9c-19.9,0-57.7,65.7-48.9,71.9
			c7.1,4.9,23.7,1.1,34.8-6.7c3.3,6.9,8.3,10.1,16.3,10.6c8,0.5,12.6-4.5,18.9-10.6C919.4,521.7,932.7,526.1,945.9,527.3z"/>
		<path class="st20" d="M943.1,495.5c-9.1-16.5-24.9-38.4-47.3-38.4c-11.5,0-28.6,20.2-40.5,40.1c8.1-0.8,17.8-4.3,25.2-9.5
			c3.6,7.5,9.5,15.2,18.2,15.8c8.7,0.6,15.1-7.2,20-15.8C920.6,489.8,931.2,493.5,943.1,495.5z"/>
		<path class="st19" d="M945.9,489.5c14.5,4.3,5.1-15.3-2.2-30.2c-7.3-14.9-23.2-42.9-47.5-42.9c-19.9,0-57.7,65.7-48.9,71.9
			c7.1,4.9,23.7-7.2,34.8-15c3.3,6.9,8.3,18.3,16.3,18.9c8,0.5,12.6-12.7,18.9-18.9C919.4,475.6,932.7,485.6,945.9,489.5z"/>
		<path class="st20" d="M936.2,444c3.5,6.9,6.1,11.9,5.7,11.8c-11.2-1-24.3-5.6-26.1-7.5c-3.9,6.7-9.8,11-16.5,10.5
			c-6.8-0.5-12.9-5.6-15.8-11.5c-9.4,6.6-26.8,9-25.6,7.2c2.1-3.1,4.1-6.5,5.9-10.1c11.2-16.5,24.9-30.9,34.6-30.9
			c11.8,0,21.7,6,29.8,14.1c0.4,1,0.8,1.9,1.3,2.8C931.7,435.2,934.1,440,936.2,444z"/>
		<path class="st5" d="M941.2,445c10.5,3.3,2.7-13.8-3.3-25.9c-6-12.1-21-31.3-40.7-32.6c-18.4-1.2-48.6,51.6-41.4,56.7
			c5.7,4,21-3.9,30-10.3c2.7,5.6,6.8,14.9,13.2,15.4c6.5,0.4,10.2-10.3,15.3-15.4C916.2,434.8,931.9,442.1,941.2,445z"/>
		<path class="st20" d="M932.7,410c2.1,3.5,3.4,5.6,3.2,5.5c-0.5-0.1-1.1-0.3-1.8-0.5c-5.8-1.5-17.7-4.6-19.9-6.8
			c-1.3,1.5-2.5,2.9-3.6,4.2c-4.8,5.7-7.7,9.1-10.9,9.1c-4,0-6.4-3.2-9.5-7.2c-1.4-1.9-3-4-5-6c-12,8.5-20.4,7.8-20.4,7.8
			s4.4-15.1,12.2-28.7c7.1-7.4,14.1-12.3,19.8-12.3c7,0,13.3,2.1,19,5.5c0.1,0.2,0.2,0.3,0.2,0.5C921.5,391.7,928.6,403.3,932.7,410
			z"/>
		<path class="st19" d="M931.3,407c8.9,4.7,3.4-10.5-1.5-20.7c-4.9-10.2-15.5-29.3-31.8-29.3c-13.4,0-38.7,44.9-32.7,49.2
			c4.7,3.4,15.9-4.9,23.3-10.2c2.2,4.7,5.6,12.5,10.9,12.9c5.3,0.4,8.4-8.7,12.6-12.9C913.6,397.5,924.2,403.2,931.3,407z"/>
		<path class="st3" d="M327.5,872h20.7l16.9,161h-54.7L327.5,872z"/>
		<path class="st4" d="M327.4,872H348l8.9,86.7h-38.5L327.4,872z"/>
		<path class="st21" d="M246.2,782c0-16.3,13.2-29.5,29.5-29.5h28c16.3,0,29.5,13.2,29.5,29.5v20.2h1.6c16.3,0,29.5,13.2,29.5,29.5
			v31c0,16.3-13.2,29.5-29.5,29.5h-28c-7.1,0-13.6-2.5-18.6-6.6c-5.1,4.1-11.6,6.6-18.6,6.6h-28c-16.3,0-29.5-13.2-29.5-29.5v-31
			c0-16.3,13.2-29.5,29.5-29.5h4.7V782z"/>
		<path class="st21" d="M336.2,938c-10.4,12.5-29.1,14.2-41.6,3.8l-18.8-15.6c-12.5-10.4-14.3-29-3.8-41.6l11.6-14l-0.2-0.2
			c-12.5-10.4-14.3-29-3.8-41.6l17.6-21.1c10.4-12.5,29.1-14.2,41.6-3.8l18.8,15.6c5.6,4.6,9,10.9,10.2,17.6
			c6.8-0.1,13.6,2.2,19.2,6.8l18.8,15.6c12.5,10.4,14.3,29,3.8,41.6l-17.6,21.1c-10.4,12.5-29.1,14.2-41.6,3.8l-2.5-2.1L336.2,938z"
			/>
		<path class="st21" d="M333.6,767.5c0-16.3,13.2-29.5,29.5-29.5h28.9c16.3,0,29.5,13.2,29.5,29.5v20.7h1.9
			c16.3,0,29.5,13.2,29.5,29.5v32c0,16.3-13.2,29.5-29.5,29.5h-28.9c-7,0-13.5-2.4-18.5-6.5c-5.1,4.1-11.5,6.5-18.5,6.5h-28.9
			c-16.3,0-29.5-13.2-29.5-29.5v-32c0-16.3,13.2-29.5,29.5-29.5h5V767.5z"/>
		<path class="st21" d="M317.6,705.8c0-16.3,13.2-29.5,29.5-29.5H376c16.3,0,29.5,13.2,29.5,29.5v20.7h1.9
			c16.3,0,29.5,13.2,29.5,29.5v32c0,16.3-13.2,29.5-29.5,29.5h-28.9c-7,0-13.5-2.4-18.5-6.5c-5.1,4.1-11.5,6.5-18.5,6.5h-28.9
			c-16.3,0-29.5-13.2-29.5-29.5v-32c0-16.3,13.2-29.5,29.5-29.5h5V705.8z"/>
		<path class="st21" d="M254.7,731.7c0-16.3,13.2-29.5,29.5-29.5h13.2c16.3,0,29.5,13.2,29.5,29.5v11.9
			c14.5,1.8,25.8,14.2,25.8,29.3v15.7c0,16.3-13.2,29.5-29.5,29.5H310c-8,0-15.2-3.2-20.5-8.3c-5.3,5.1-12.5,8.3-20.5,8.3h-13.2
			c-16.3,0-29.5-13.2-29.5-29.5v-15.7c0-15.9,12.6-28.9,28.4-29.5V731.7z"/>
		<path class="st22" d="M375.2,708.3c11.2,11.8,10.7,30.5-1.2,41.7l-9.5,9c-11.9,11.2-30.5,10.7-41.8-1.2l-8.2-8.7
			c-11.8,8.6-28.5,7.3-38.9-3.6l-10.8-11.4c-11.2-11.8-10.7-30.5,1.2-41.7l9.5-9c5.8-5.5,13.2-8.1,20.6-8.1
			c0.3-7.4,3.4-14.6,9.2-20.1l9.5-9c11.9-11.2,30.5-10.7,41.8,1.2l10.8,11.4c10.9,11.6,10.7,29.6-0.3,40.9L375.2,708.3z"/>
		<path class="st20" d="M449.1,814.8c-6.4,9.5-16.4,16.3-28.1,18.6c-1.3,6.5-4.2,12.9-8.8,18.4l-1.9,2.3
			c-12.8,15.4-34.4,19.3-51.5,10.3c-0.7,1.1-1.5,2.1-2.4,3.1l-1.9,2.3c-14.7,17.7-41.1,20.1-58.8,5.4c-10.4-8.6-15.5-21.2-15-33.7
			c-6.4,3.6-13.7,5.7-21.6,5.7c-17.5,0-32.6-10.3-39.5-25.2c-4.8,7-7.6,15.4-7.6,24.6v3.1c0,24,19.5,43.5,43.5,43.5
			c5.9,0,11.5-1.2,16.7-3.3c-5.2,15.8-0.5,33.8,13,45.1c17.7,14.7,44.1,12.3,58.8-5.4l1.9-2.3c0.8-1,1.6-2.1,2.4-3.1
			c17.1,9,38.7,5.1,51.5-10.3l1.9-2.3c7.6-9.1,10.6-20.4,9.4-31.3c23.3-1.1,41.9-20.3,41.9-43.9V833
			C453,826.5,451.6,820.3,449.1,814.8z"/>
		<path class="st3" d="M841.2,702.7h15.6l12.7,121.6h-41.3L841.2,702.7z"/>
		<path class="st4" d="M841.1,702.7h15.5l6.8,65.4h-29L841.1,702.7z"/>
		<path class="st21" d="M779.8,634.8c0-12.3,10-22.3,22.3-22.3h21.1c12.3,0,22.3,10,22.3,22.3V650h1.2c12.3,0,22.3,10,22.3,22.3
			v23.4c0,12.3-10,22.3-22.3,22.3h-21.1c-5.3,0-10.2-1.9-14.1-5c-3.8,3.1-8.7,5-14.1,5h-21.1c-12.3,0-22.3-10-22.3-22.3v-23.4
			c0-12.3,10-22.3,22.3-22.3h3.5V634.8z"/>
		<path class="st21" d="M847.7,752.5c-7.9,9.5-21.9,10.8-31.4,2.9l-14.2-11.8c-9.5-7.9-10.8-21.9-2.9-31.4l8.8-10.6l-0.2-0.1
			c-9.5-7.9-10.8-21.9-2.9-31.4l13.3-15.9c7.9-9.5,21.9-10.8,31.4-2.9l14.2,11.8c4.2,3.5,6.8,8.3,7.7,13.3
			c5.1-0.1,10.2,1.6,14.5,5.1l14.2,11.8c9.5,7.9,10.8,21.9,2.9,31.4l-13.2,15.9c-7.9,9.5-21.9,10.8-31.4,2.9l-1.9-1.6L847.7,752.5z"
			/>
		<path class="st21" d="M845.8,623.8c0-12.3,10-22.3,22.3-22.3h21.8c12.3,0,22.3,10,22.3,22.3v15.6h1.4c12.3,0,22.3,10,22.3,22.3
			v24.2c0,12.3-10,22.3-22.3,22.3h-21.9c-5.3,0-10.2-1.8-14-4.9c-3.8,3.1-8.7,4.9-14,4.9H842c-12.3,0-22.3-10-22.3-22.3v-24.2
			c0-12.3,10-22.3,22.3-22.3h3.8V623.8z"/>
		<path class="st21" d="M833.7,577.2c0-12.3,10-22.3,22.3-22.3h21.8c12.3,0,22.3,10,22.3,22.3v15.6h1.4c12.3,0,22.3,10,22.3,22.3
			v24.2c0,12.3-10,22.3-22.3,22.3h-21.8c-5.3,0-10.2-1.8-14-4.9c-3.8,3.1-8.7,4.9-14,4.9h-21.8c-12.3,0-22.3-10-22.3-22.3v-24.2
			c0-12.3,10-22.3,22.3-22.3h3.8V577.2z"/>
		<path class="st21" d="M786.2,596.8c0-12.3,10-22.3,22.3-22.3h9.9c12.3,0,22.3,10,22.3,22.3v9c11,1.4,19.5,10.8,19.5,22.1v11.8
			c0,12.3-10,22.3-22.3,22.3H828c-6,0-11.5-2.4-15.5-6.2c-4,3.9-9.5,6.2-15.5,6.2h-9.9c-12.3,0-22.3-10-22.3-22.3v-11.8
			c0-12,9.5-21.8,21.4-22.3V596.8z"/>
		<path class="st22" d="M877.2,579.1c8.5,8.9,8.1,23-0.9,31.5l-7.2,6.8c-8.9,8.4-23.1,8-31.5-0.9l-6.2-6.6
			c-8.9,6.5-21.5,5.5-29.3-2.7l-8.1-8.6c-8.5-8.9-8.1-23,0.9-31.5l7.2-6.8c4.4-4.1,10-6.1,15.5-6.1c0.3-5.6,2.6-11,7-15.2l7.2-6.8
			c8.9-8.4,23.1-8,31.5,0.9l8.1,8.6c8.3,8.7,8.1,22.4-0.3,30.9L877.2,579.1z"/>
		<path class="st20" d="M932.9,659.5c-4.8,7.1-12.4,12.3-21.2,14c-1,4.9-3.2,9.7-6.7,13.9l-1.4,1.7c-9.7,11.6-26,14.5-38.9,7.8
			c-0.6,0.8-1.1,1.6-1.8,2.4l-1.4,1.7c-11.1,13.4-31,15.2-44.4,4.1c-7.8-6.5-11.7-16-11.3-25.5c-4.8,2.7-10.4,4.3-16.3,4.3
			c-13.2,0-24.6-7.8-29.8-19c-3.6,5.3-5.7,11.7-5.7,18.5v2.3c0,18.1,14.7,32.8,32.8,32.8c4.5,0,8.7-0.9,12.6-2.5
			c-3.9,11.9-0.4,25.5,9.8,34c13.4,11.1,33.3,9.3,44.4-4.1l1.4-1.7c0.6-0.8,1.2-1.5,1.8-2.4c12.9,6.8,29.2,3.9,38.9-7.8l1.4-1.7
			c5.7-6.9,8-15.4,7.1-23.6c17.6-0.8,31.7-15.3,31.7-33.1v-2.4C935.9,668.4,934.9,663.7,932.9,659.5z"/>
		<path class="st3" d="M267.6,301.5h16l13.1,124.3h-42.4L267.6,301.5z"/>
		<path class="st4" d="M267.5,301.5h15.9l6.9,66.9h-29.8L267.5,301.5z"/>
		<path class="st5" d="M289.2,244.5c3.8-2.1,8.2-3.4,12.9-3.4c14.5,0,26.3,11.7,26.3,26.2v1.9c0,1-0.1,2-0.2,2.9
			c10.9,3.2,18.9,13.2,18.9,25.1v1.9c0,14-11.1,25.5-25,26.1c0.7,6.5-1.1,13.2-5.6,18.6l-1.1,1.4c-7.7,9.2-20.6,11.5-30.8,6.1
			c-0.4,0.6-0.9,1.3-1.4,1.9l-1.1,1.4c-8.8,10.5-24.5,12-35.1,3.2c-8.1-6.7-10.9-17.4-7.8-26.8c-3.1,1.3-6.4,2-10,2
			c-14.4,0-26-11.6-26-25.9v-1.8c0-12.4,8.8-22.8,20.5-25.3c-0.1-0.8-0.1-1.6-0.1-2.4v-1.8c0-14,11.2-25.4,25.1-25.8
			c2-9.8,10.7-17.3,21.2-17.3C278.4,232.5,285.7,237.4,289.2,244.5z"/>
		<path class="st19" d="M249.7,248.1c3.7-8.8,13.8-13,22.7-9.4c8.9,3.6,13.1,13.7,9.4,22.6l-0.5,1.1c-0.2,0.6-0.5,1.2-0.8,1.7
			c5.9,4.7,8.2,12.8,5.2,20.1l-0.5,1.1c-3.7,8.8-13.8,13-22.7,9.4c-4.8-2-8.2-5.8-9.8-10.4c-4.3,2.1-9.5,2.4-14.3,0.4
			c-8.9-3.6-13.1-13.7-9.4-22.6l0.5-1.1c3.2-7.7,11.3-11.8,19.2-10.4c0.2-0.5,0.3-1,0.6-1.5L249.7,248.1z"/>
		<path class="st20" d="M207,292.5c-2.5,4-4,8.7-4,13.8v1.8c0,14.3,11.6,25.9,26,25.9c3.5,0,6.9-0.7,10-2
			c-3.1,9.4-0.3,20.1,7.8,26.8c10.6,8.8,26.3,7.3,35.1-3.2l1.1-1.4c0.5-0.6,1-1.2,1.4-1.9c10.2,5.3,23.1,3,30.8-6.1l1.1-1.4
			c4.5-5.4,6.3-12.2,5.6-18.6c13.9-0.6,25-12.1,25-26.1v-1.9c0-2.7-0.4-5.3-1.2-7.8c-4.4,7.1-12.2,11.9-21.1,12.3
			c0.7,6.5-1.1,13.2-5.6,18.6l-1.1,1.4c-7.7,9.2-20.6,11.5-30.8,6.1c-0.4,0.6-0.9,1.3-1.4,1.9l-1.1,1.4c-8.8,10.5-24.5,12-35.1,3.2
			c-8.1-6.7-10.9-17.4-7.8-26.8c-3.1,1.3-6.4,2-10,2C220.2,310.5,210.3,302.9,207,292.5z"/>
		<path class="st3" d="M1248.5,608.5h40.1v175.6h-40.1V608.5z"/>
		<path class="st4" d="M1248.6,543.6h40.1v175.6h-40.1V543.6z"/>
		<path class="st5" d="M1267.4,512.7l114.1,183.6h-228.2L1267.4,512.7z"/>
		<path class="st19" d="M1267.5,443.5l96.7,155.6h-193.4L1267.5,443.5z"/>
		<path class="st20" d="M1304.7,502.8h-74.3l-11,17h96.3L1304.7,502.8z"/>
		<path class="st20" d="M1321.2,599h-107.4l-10.2,15.9h128L1321.2,599z"/>
		<path class="st5" d="M1268.8,379.7l76.9,123.7h-153.8L1268.8,379.7z"/>
		<path class="st19" d="M1268.8,327.3l62.9,101.2h-125.8L1268.8,327.3z"/>
		<path class="st20" d="M1298.6,428.1h-59.7l-11,17h81.6L1298.6,428.1z"/>
		<path class="st3" d="M-2.2,521.4H46v211.3H-2.2V521.4z"/>
		<path class="st4" d="M-2.1,443.3h48.2v211.3H-2.1V443.3z"/>
		<path class="st5" d="M20.5,406.1L157.8,627h-274.5L20.5,406.1z"/>
		<path class="st19" d="M20.6,322.9L137,510.2H-95.7L20.6,322.9z"/>
		<path class="st20" d="M65.4,394.2h-89.4l-13.2,20.4H78.6L65.4,394.2z"/>
		<path class="st20" d="M85.2,510H-44l-12.3,19.1h154L85.2,510z"/>
		<path class="st5" d="M22.2,246.1l92.5,148.9h-185L22.2,246.1z"/>
		<path class="st19" d="M22.2,183l75.7,121.8H-53.5L22.2,183z"/>
		<path class="st20" d="M58,304.3h-71.8L-27,324.8h98.2L58,304.3z"/>
		<path class="st3" d="M333.2,443.2h21.7L372.5,602h-57.3L333.2,443.2z"/>
		<path class="st4" d="M333,443.2h21.5l9.4,85.5h-40.2L333,443.2z"/>
		<path class="st5" d="M362.5,370.4c5.1-2.7,11.1-4.3,17.4-4.3c19.6,0,35.5,15,35.5,33.4v2.4c0,1.3-0.1,2.5-0.2,3.7
			c14.8,4,25.6,16.9,25.6,32.1v2.4c0,17.9-15,32.6-33.8,33.4c1,8.3-1.5,16.9-7.6,23.8l-1.5,1.7c-10.3,11.7-27.8,14.6-41.5,7.8
			c-0.6,0.8-1.2,1.6-1.9,2.4l-1.5,1.7c-11.9,13.5-33.1,15.3-47.5,4.1c-10.9-8.6-14.7-22.3-10.5-34.3c-4.1,1.6-8.7,2.5-13.5,2.5
			c-19.4,0-35.1-14.8-35.1-33.1v-2.4c0-15.9,11.9-29.1,27.7-32.3c-0.1-1-0.2-2-0.2-3.1v-2.4c0-17.9,15.1-32.4,33.9-33
			c2.7-12.6,14.4-22.1,28.6-22.1C347.8,355.1,357.7,361.3,362.5,370.4z"/>
		<path class="st19" d="M309.1,375c5-11.3,18.7-16.6,30.6-11.9c12,4.7,17.6,17.6,12.7,28.8l-0.6,1.5c-0.3,0.8-0.7,1.5-1.1,2.2
			c7.9,6,11.1,16.4,7,25.7l-0.6,1.5c-5,11.3-18.7,16.6-30.6,11.9c-6.5-2.5-11.1-7.5-13.2-13.2c-5.8,2.7-12.8,3.1-19.3,0.6
			c-12-4.7-17.6-17.6-12.7-28.8l0.6-1.5c4.3-9.8,15.2-15.1,25.9-13.3c0.2-0.7,0.5-1.3,0.7-1.9L309.1,375z"/>
		<path class="st20" d="M251.4,431.7c-3.4,5.1-5.4,11.1-5.4,17.6v2.4c0,18.3,15.7,33.1,35.1,33.1c4.8,0,9.3-0.9,13.5-2.5
			c-4.2,12-0.4,25.7,10.5,34.3c14.3,11.2,35.6,9.4,47.5-4.1l1.5-1.7c0.7-0.8,1.3-1.6,1.9-2.4c13.8,6.8,31.2,3.9,41.5-7.8l1.5-1.7
			c6.1-6.9,8.6-15.5,7.6-23.8c18.8-0.8,33.8-15.5,33.8-33.4V439c0-3.5-0.6-6.8-1.6-10c-6,9.1-16.5,15.2-28.5,15.7
			c1,8.3-1.5,16.9-7.6,23.8l-1.5,1.7c-10.3,11.7-27.8,14.6-41.5,7.8c-0.6,0.8-1.2,1.6-1.9,2.4l-1.5,1.7
			c-11.9,13.5-33.1,15.3-47.5,4.1c-10.9-8.6-14.7-22.3-10.5-34.3c-4.1,1.6-8.7,2.5-13.5,2.5C269.2,454.7,255.9,445,251.4,431.7z"/>
		<path class="st3" d="M748.8,391.2h24.6v105h-24.6V391.2z"/>
		<path class="st4" d="M748.8,390.3h23.9v79.9h-23.9V390.3z"/>
		<path class="st5" d="M728.2,383.4c0-17.3,15.5-31.3,34.6-31.3c19.1,0,34.6,14,34.6,31.3v2.2c0,1.2-0.1,2.3-0.2,3.5
			c14.4,3.8,24.9,15.8,24.9,30.1v2.2c0,17.3-15.5,31.3-34.6,31.3c-10.3,0-19.6-4.1-25.9-10.6c-6.3,6.5-15.6,10.6-25.9,10.6
			c-19.1,0-34.6-14-34.6-31.3v-2.2c0-15,11.7-27.6,27.3-30.6c-0.1-1-0.1-1.9-0.1-2.9V383.4z"/>
		<path class="st19" d="M731.9,330c0-15,13.4-27.2,30-27.2c16.5,0,30,12.2,30,27.2v1.9c0,1-0.1,2-0.2,3
			c12.5,3.3,21.6,13.7,21.6,26.1v1.9c0,15-13.4,27.2-30,27.2c-8.9,0-17-3.6-22.5-9.2c-5.5,5.6-13.5,9.2-22.5,9.2
			c-16.5,0-30-12.2-30-27.2V361c0-13,10.1-23.9,23.7-26.6c-0.1-0.8-0.1-1.7-0.1-2.5V330z"/>
		<path class="st24" d="M701,405.9C701,405.9,701,405.9,701,405.9V435c0,9.9,8,17.9,17.9,17.9h33.4c3.4,0,6.5-0.9,9.2-2.6
			c2.7,1.6,5.8,2.6,9.2,2.6h33.4c9.9,0,17.9-8,17.9-17.9v-16.9c0,9.9-8,17.8-17.9,17.8h-33.4c-3.4,0-6.5-0.9-9.2-2.6
			c-2.7,1.6-5.8,2.6-9.2,2.6h-33.4c-9.9,0-17.9-8-17.9-17.9V405.9z"/>
		<path class="st3" d="M1055.1,766.8h30.5l24.9,268.8h-80.6L1055.1,766.8z"/>
		<path class="st4" d="M1054.9,766.8h30.3l13.2,144.7h-56.7L1054.9,766.8z"/>
		<path class="st19" d="M1161.8,886.9c30.4,3.5,10.3-37.9-4.4-74.7c-14.7-36.8-46.5-106.1-95.3-106.1c-40,0-115.8,162.5-98,177.8
			c14.2,12.2,47.5,2.6,69.7-16.6c6.7,17,16.7,24.9,32.7,26.3c16,1.4,25.3-11,37.9-26.3C1108.7,872.9,1135.3,883.9,1161.8,886.9z"/>
		<path class="st20" d="M1156.1,808c-18.3-40.8-50-95-95-95c-23.1,0-57.3,50-81.3,99.3c16.3-1.9,35.7-10.8,50.5-23.6
			c7.2,18.5,19.1,37.6,36.5,39.1c17.4,1.5,30.3-17.8,40.2-39.1C1111,794,1132.2,803.3,1156.1,808z"/>
		<path class="st5" d="M1161.8,793.3c29.1,10.6,10.3-37.9-4.4-74.7c-14.7-36.8-46.5-106.1-95.3-106.1c-40,0-115.8,162.5-98,177.8
			c14.2,12.2,47.5-17.7,69.7-37c6.7,17,16.7,45.3,32.7,46.7c16,1.4,25.3-31.4,37.9-46.7C1108.7,759,1135.3,783.7,1161.8,793.3z"/>
		<path class="st20" d="M1142.4,680.8c7,17,12.2,29.4,11.4,29.3c-22.5-2.6-48.7-13.8-52.5-18.6c-7.7,16.6-19.6,27.2-33.2,26.1
			c-13.6-1.2-26-14-31.6-28.3c-18.9,16.3-53.8,22.4-51.4,17.9c4.2-7.7,8.1-16.1,11.9-25c22.5-40.8,49.9-76.4,69.4-76.4
			c23.6,0,43.5,14.9,59.8,35c0.8,2.4,1.7,4.7,2.5,6.8C1133.4,659,1138.2,670.7,1142.4,680.8z"/>
		<path class="st19" d="M1152.4,683.2c21.1,8.2,5.3-34.1-6.6-64.1c-11.9-30-35.5-86.3-75.1-89.5c-37-3-104,136.7-89.6,149.2
			c11.5,10,42.1-9.7,60.1-25.4c5.4,13.9,13.6,37,26.5,38.1c13,1.1,20.5-25.6,30.8-38.1C1102.1,658,1133.6,675.9,1152.4,683.2z"/>
		<rect x="229.5" y="584.5" class="st3" width="24.5" height="104.7"/>
		<rect x="229.6" y="545.8" class="st4" width="24.5" height="104.7"/>
		<path class="st19" d="M241.5,527.3l69.7,109.5H171.8L241.5,527.3z"/>
		<path class="st5" d="M241.6,486.1l59.1,92.8H182.5L241.6,486.1z"/>
		<path class="st20" d="M264.3,521.4h-45.4l-6.7,10.1H271L264.3,521.4z"/>
		<path class="st20" d="M274.4,578.8h-65.7l-6.2,9.5h78.2L274.4,578.8z"/>
		<path class="st19" d="M242.4,448l47,73.8h-94L242.4,448z"/>
		<rect x="278.3" y="1116" class="st3" width="43.8" height="221.9"/>
		<rect x="278.4" y="1033.9" class="st4" width="43.8" height="221.9"/>
		<path class="st19" d="M299.8,994.9l124.7,232H175L299.8,994.9z"/>
		<path class="st5" d="M299.9,907.5l105.7,196.7H194.1L299.9,907.5z"/>
		<path class="st20" d="M340.5,982.4h-81.3l-12,21.5h105.3L340.5,982.4z"/>
		<path class="st20" d="M358.6,1104H241.1l-11.2,20h139.9L358.6,1104z"/>
		<path class="st19" d="M301.3,826.8l84.1,156.3H217.2L301.3,826.8z"/>
		<path class="st3" d="M1211.3,1063.7h57.7v246.4h-57.7V1063.7z"/>
		<path class="st4" d="M1211.5,972.6h57.7V1219h-57.7V972.6z"/>
		<path class="st5" d="M1238.5,929.3l164.1,257.6h-328.2L1238.5,929.3z"/>
		<path class="st19" d="M1238.7,832.2l139.1,218.4h-278.3L1238.7,832.2z"/>
		<path class="st20" d="M1292.1,915.4h-106.9l-15.8,23.8h138.5L1292.1,915.4z"/>
		<path class="st20" d="M1315.9,1050.5h-154.6l-14.7,22.2h184.1L1315.9,1050.5z"/>
		<path class="st5" d="M1240.5,742.7l110.6,173.6h-221.2L1240.5,742.7z"/>
		<path class="st19" d="M1240.5,669.1l90.5,142.1h-181L1240.5,669.1z"/>
		<path class="st20" d="M1283.4,810.6h-85.9l-15.8,23.8h117.5L1283.4,810.6z"/>
		<path class="st3" d="M706.7,564.3h13.7l11.2,106.9h-36.3L706.7,564.3z"/>
		<path class="st4" d="M706.6,564.3h13.7l5.9,57.5h-25.5L706.6,564.3z"/>
		<path class="st21" d="M652.7,504.6c0-10.8,8.8-19.6,19.6-19.6h18.6c10.8,0,19.6,8.8,19.6,19.6V518h1c10.8,0,19.6,8.8,19.6,19.6
			v20.6c0,10.8-8.8,19.6-19.6,19.6h-18.6c-4.7,0-9-1.7-12.4-4.4c-3.4,2.8-7.7,4.4-12.4,4.4h-18.6c-10.8,0-19.6-8.8-19.6-19.6v-20.6
			c0-10.8,8.8-19.6,19.6-19.6h3.1V504.6z"/>
		<path class="st21" d="M712.5,608.1c-6.9,8.3-19.3,9.5-27.6,2.5l-12.5-10.4c-8.3-6.9-9.5-19.3-2.5-27.6l7.7-9.3l-0.2-0.1
			c-8.3-6.9-9.5-19.3-2.5-27.6l11.7-14c6.9-8.3,19.3-9.5,27.6-2.5l12.5,10.4c3.7,3.1,6,7.3,6.8,11.7c4.5,0,9,1.4,12.7,4.5l12.5,10.4
			c8.3,6.9,9.5,19.3,2.5,27.6l-11.7,14c-6.9,8.3-19.3,9.5-27.6,2.5l-1.7-1.4L712.5,608.1z"/>
		<path class="st21" d="M710.7,495c0-10.8,8.8-19.6,19.6-19.6h19.2c10.8,0,19.6,8.8,19.6,19.6v13.7h1.3c10.8,0,19.6,8.8,19.6,19.6
			v21.2c0,10.8-8.8,19.6-19.6,19.6h-19.2c-4.7,0-8.9-1.6-12.3-4.3c-3.4,2.7-7.6,4.3-12.3,4.3h-19.2c-10.8,0-19.6-8.8-19.6-19.6
			v-21.2c0-10.8,8.8-19.6,19.6-19.6h3.3V495z"/>
		<path class="st21" d="M700.1,454c0-10.8,8.8-19.6,19.6-19.6h19.2c10.8,0,19.6,8.8,19.6,19.6v13.7h1.3c10.8,0,19.6,8.8,19.6,19.6
			v21.2c0,10.8-8.8,19.6-19.6,19.6h-19.2c-4.7,0-8.9-1.6-12.3-4.3c-3.4,2.7-7.6,4.3-12.3,4.3h-19.2c-10.8,0-19.6-8.8-19.6-19.6
			v-21.2c0-10.8,8.8-19.6,19.6-19.6h3.4V454z"/>
		<path class="st21" d="M658.3,471.2c0-10.8,8.8-19.6,19.6-19.6h8.7c10.8,0,19.6,8.8,19.6,19.6v7.9c9.7,1.2,17.1,9.5,17.1,19.4v10.4
			c0,10.8-8.8,19.6-19.6,19.6H695c-5.3,0-10.1-2.1-13.6-5.5c-3.5,3.4-8.3,5.5-13.6,5.5h-8.7c-10.8,0-19.6-8.8-19.6-19.6v-10.4
			c0-10.6,8.4-19.2,18.8-19.6V471.2z"/>
		<path class="st22" d="M738.3,455.6c7.4,7.9,7.1,20.3-0.8,27.7l-6.3,6c-7.9,7.4-20.3,7.1-27.7-0.8l-5.5-5.8
			c-7.9,5.7-18.9,4.9-25.8-2.4l-7.2-7.6c-7.4-7.9-7.1-20.3,0.8-27.7l6.3-6c3.8-3.6,8.8-5.4,13.7-5.3c0.2-4.9,2.3-9.7,6.1-13.3l6.3-6
			c7.9-7.4,20.3-7.1,27.7,0.8l7.2,7.6c7.3,7.7,7.1,19.7-0.2,27.1L738.3,455.6z"/>
		<path class="st20" d="M787.4,526.3c-4.3,6.3-10.9,10.8-18.6,12.3c-0.9,4.3-2.8,8.5-5.9,12.2l-1.3,1.5
			c-8.5,10.2-22.8,12.8-34.2,6.8c-0.5,0.7-1,1.4-1.6,2.1l-1.3,1.5c-9.8,11.8-27.3,13.4-39.1,3.6c-6.9-5.7-10.3-14.1-10-22.4
			c-4.2,2.4-9.1,3.8-14.3,3.8c-11.6,0-21.6-6.8-26.2-16.7c-3.2,4.6-5,10.3-5,16.3v2.1c0,15.9,12.9,28.9,28.9,28.9
			c3.9,0,7.7-0.8,11.1-2.2c-3.4,10.5-0.4,22.4,8.6,29.9c11.8,9.8,29.3,8.2,39.1-3.6l1.3-1.5c0.6-0.7,1.1-1.4,1.6-2.1
			c11.3,5.9,25.7,3.4,34.2-6.8l1.3-1.5c5-6,7-13.6,6.2-20.8c15.5-0.7,27.8-13.5,27.8-29.1v-2.1C790,534.1,789.1,530,787.4,526.3z"/>
		<path class="st3" d="M755.8,882.3h26.8l21.8,186.7h-70.8L755.8,882.3z"/>
		<path class="st4" d="M755.6,882.3h26.6l11.6,100.5H744L755.6,882.3z"/>
		<path class="st5" d="M849.5,965.7c26.7,2.4,9-26.3-3.9-51.9c-12.9-25.6-40.8-73.7-83.7-73.7c-35.1,0-101.7,112.9-86.1,123.5
			c12.5,8.5,41.8,1.8,61.2-11.5c5.8,11.8,14.7,17.3,28.7,18.3c14,1,22.2-7.6,33.3-18.3C802.8,956,826.2,963.6,849.5,965.7z"/>
		<path class="st20" d="M844.4,911c-16.1-28.4-43.9-66-83.5-66c-20.3,0-50.3,34.8-71.4,69c14.3-1.3,31.4-7.5,44.4-16.4
			c6.4,12.8,16.8,26.2,32,27.2c15.2,1,26.6-12.3,35.3-27.2C804.9,901.2,823.5,907.7,844.4,911z"/>
		<path class="st19" d="M849.5,900.8c25.6,7.3,9-26.3-3.9-51.9c-12.9-25.6-40.8-73.7-83.7-73.7c-35.1,0-101.7,112.9-86.1,123.5
			c12.5,8.5,41.8-12.3,61.2-25.7c5.8,11.8,14.7,31.5,28.7,32.4c14,0.9,22.2-21.8,33.3-32.4C802.8,876.9,826.2,894.1,849.5,900.8z"/>
		<path class="st20" d="M832.4,822.6c6.2,11.8,10.7,20.4,10,20.4c-19.8-1.8-42.8-9.6-46.1-12.9c-6.8,11.6-17.2,18.9-29.2,18.1
			c-11.9-0.8-22.8-9.7-27.8-19.7c-16.6,11.3-47.3,15.5-45.1,12.4c3.7-5.3,7.1-11.2,10.4-17.4c19.8-28.3,43.8-53.1,61-53.1
			c20.7,0,38.2,10.3,52.5,24.3c0.7,1.7,1.5,3.2,2.2,4.7C824.5,807.5,828.7,815.6,832.4,822.6z"/>
		<path class="st5" d="M841.2,824.3c18.5,5.7,4.7-23.7-5.8-44.6c-10.5-20.9-36.9-53.7-71.7-56c-32.5-2.1-85.7,88.7-73,97.4
			c10.1,6.9,37-6.7,52.8-17.6c4.7,9.6,11.9,25.7,23.3,26.4c11.4,0.8,18-17.8,27-26.4C797,806.7,824.7,819.2,841.2,824.3z"/>
		<path class="st20" d="M826.3,764c3.8,6,6.1,9.6,5.7,9.5c-0.9-0.2-1.9-0.5-3.1-0.8c-10.2-2.6-31.3-7.8-35.1-11.6
			c-2.3,2.6-4.4,5-6.3,7.2c-8.5,9.8-13.5,15.6-19.1,15.6c-7.1,0-11.3-5.5-16.7-12.4c-2.5-3.3-5.3-6.9-8.7-10.4
			c-21.2,14.5-35.9,13.5-35.9,13.5s7.8-25.9,21.5-49.4c12.5-12.6,24.8-21.1,34.8-21.1c12.3,0,23.5,3.6,33.5,9.5
			c0.1,0.3,0.3,0.6,0.4,0.8C806.4,732.7,819,752.6,826.3,764z"/>
		<path class="st3" d="M886.6,1137.1h24.3l19.8,176.8h-64.3L886.6,1137.1z"/>
		<path class="st4" d="M886.4,1137.1h24.2l10.5,95.1h-45.2L886.4,1137.1z"/>
		<path class="st21" d="M791,1051.8c0-25.3,19.8-45.8,44.2-45.8H849c24.4,0,44.2,20.5,44.2,45.8v7.2c0,0.7,0,1.5,0,2.2
			c20.8,3.8,36.6,22.5,36.6,45.1v7.2c0,25.3-19.8,45.8-44.2,45.8h-13.8c-12.3,0-23.4-5.2-31.5-13.6c-8,8.4-19.1,13.6-31.5,13.6
			h-13.8c-24.4,0-44.2-20.5-44.2-45.8v-7.2c0-23.9,17.7-43.5,40.2-45.6c0-0.6,0-1.1,0-1.7V1051.8z"/>
		<path class="st21" d="M904,1200.8c-16.6,18.6-45.9,21.4-65.5,6.2l-4-3.1c-19.6-15.2-22-42.5-5.4-61.1l5.6-6.3
			c0.4-0.4,0.8-0.8,1.1-1.2c-12.3-15.6-12-37.8,2.1-53.6l5.6-6.3c16.6-18.6,45.9-21.4,65.5-6.2l4,3.1c10.5,8.1,16,19.7,16.4,31.6
			c12.6-1.8,25.8,1.2,36.2,9.3l4,3.1c19.6,15.2,22,42.5,5.4,61.1l-5.6,6.3c-14.9,16.7-40.1,20.6-59.3,10.2c-0.2,0.2-0.4,0.5-0.6,0.7
			L904,1200.8z"/>
		<path class="st21" d="M893.7,1035.9c0-25.3,19.8-45.8,44.2-45.8h14.9c24.4,0,44.2,20.5,44.2,45.8v8.3c0,0.5,0,1.1,0,1.6
			c21,3.6,37,22.5,37,45.2v8.3c0,25.3-19.8,45.8-44.2,45.8h-14.9c-12.2,0-23.3-5.1-31.3-13.5c-8,8.3-19.1,13.5-31.3,13.5h-14.9
			c-24.4,0-44.2-20.5-44.2-45.8v-8.3c0-24,17.9-43.8,40.6-45.7c0-0.4,0-0.8,0-1.1V1035.9z"/>
		<path class="st21" d="M874.9,968.1c0-25.3,19.8-45.8,44.2-45.8H934c24.4,0,44.2,20.5,44.2,45.8v8.3c0,0.5,0,1.1,0,1.6
			c21,3.6,37,22.4,37,45.2v8.3c0,25.3-19.8,45.8-44.2,45.8h-14.9c-12.2,0-23.3-5.1-31.3-13.4c-8,8.3-19.1,13.4-31.3,13.4h-14.9
			c-24.4,0-44.2-20.5-44.2-45.8v-8.3c0-24,17.9-43.7,40.6-45.6c0-0.4,0-0.8,0-1.2V968.1z"/>
		<path class="st21" d="M801,991.8c0-22.6,17.7-41,39.6-41h5.6c21.9,0,39.6,18.4,39.6,41c0,1.8-0.1,3.6-0.3,5.3
			c17.5,4.2,30.6,20.5,30.6,39.9c0,22.6-17.7,41-39.6,41h-5.6c-11.5,0-21.8-5-29-13.1c-7.2,8-17.5,13.1-29,13.1h-5.6
			c-21.9,0-39.6-18.4-39.6-41c0-20.5,14.6-37.5,33.6-40.5C801.1,994.9,801,993.3,801,991.8z"/>
		<path class="st22" d="M937.2,952.3c16.1,15.9,15.5,41-1.5,55.9c-17,15-43.8,14.2-60-1.7l-2.1-2.1c-1.1-1-2-2.1-3-3.2
			c-16.3,7.8-37,5-50.3-8.2l-2.1-2.1c-16.1-15.9-15.5-41,1.5-55.9c9.2-8.1,21.3-11.6,33.1-10.5c-0.5-11,3.9-22.1,13.2-30.2
			c17-15,43.8-14.2,60,1.8l2.1,2.1c14.1,13.9,15.4,34.7,4.2,49.7c0.9,0.8,1.9,1.6,2.7,2.5L937.2,952.3z"/>
		<path class="st20" d="M1029.4,1074.3c-7.5,10.4-19.3,17.9-33,20.4c-1.6,7.2-5,14.1-10.4,20.2l-2.2,2.5
			c-15.1,16.9-40.4,21.1-60.5,11.3c-0.9,1.2-1.8,2.3-2.8,3.4l-2.2,2.5c-17.3,19.4-48.3,22.1-69.1,5.9c-12.2-9.5-18.2-23.3-17.7-37
			c-7.5,4-16.1,6.3-25.3,6.3c-20.6,0-38.3-11.3-46.4-27.6c-5.6,7.7-8.9,16.9-8.9,27v3.4c0,26.4,22.9,47.7,51.1,47.7
			c6.9,0,13.6-1.3,19.6-3.6c-6.1,17.3-0.6,37.1,15.3,49.5c20.8,16.2,51.8,13.5,69.1-5.9l2.2-2.5c1-1.1,1.9-2.2,2.8-3.4
			c20.1,9.8,45.4,5.6,60.5-11.3l2.2-2.5c8.9-10,12.5-22.4,11-34.4c27.4-1.2,49.3-22.3,49.3-48.2v-3.4
			C1034,1087.2,1032.4,1080.4,1029.4,1074.3z"/>
		<path class="st19" d="M823.8,758.9c15.7,8.1,6-18-2.6-35.5c-8.7-17.5-27.4-50.4-56.1-50.4c-23.5,0-68.2,77.2-57.7,84.5
			c8.4,5.8,28-8.4,41-17.6c3.9,8.1,9.8,21.5,19.2,22.2c9.4,0.6,14.9-14.9,22.3-22.2C792.5,742.6,811.2,752.5,823.8,758.9z"/>
	</g>
</g>
<script  type="text/javascript">//<![CDATA[  <-- For SVG support
	if ('WebSocket' in window) {
		(function () {
			function refreshCSS() {
				var sheets = [].slice.call(document.getElementsByTagName("link"));
				var head = document.getElementsByTagName("head")[0];
				for (var i = 0; i < sheets.length; ++i) {
					var elem = sheets[i];
					var parent = elem.parentElement || head;
					parent.removeChild(elem);
					var rel = elem.rel;
					if (elem.href && typeof rel != "string" || rel.length == 0 || rel.toLowerCase() == "stylesheet") {
						var url = elem.href.replace(/(&|\?)_cacheOverride=\d+/, '');
						elem.href = url + (url.indexOf('?') >= 0 ? '&' : '?') + '_cacheOverride=' + (new Date().valueOf());
					}
					parent.appendChild(elem);
				}
			}
			var protocol = window.location.protocol === 'http:' ? 'ws://' : 'wss://';
			var address = protocol + window.location.host + window.location.pathname + '/ws';
			var socket = new WebSocket(address);
			socket.onmessage = function (msg) {
				if (msg.data == 'reload') window.location.reload();
				else if (msg.data == 'refreshcss') refreshCSS();
			};
			if (sessionStorage && !sessionStorage.getItem('IsThisFirstTime_Log_From_LiveServer')) {
				console.log('Live reload enabled.');
				sessionStorage.setItem('IsThisFirstTime_Log_From_LiveServer', true);
			}
		})();
	}
	else {
		console.error('Upgrade your browser. This Browser is NOT supported WebSocket for Live-Reloading.');
	}
	// 
	]]>
</script>
</svg>
