<svg width="326" height="304" viewBox="0 0 326 304" fill="none" xmlns="http://www.w3.org/2000/svg">
<g clip-path="url(#clip0_41_15956)">
<path d="M38.1133 19.9586C38.7909 23.2008 39.0509 26.5166 38.8869 29.825C38.1133 43.7929 30.8292 53.7885 23.0293 61.1034C25.4466 66.9974 26.7358 73.9087 30.8292 78.2686C32.8758 77.8811 33.5043 75.8303 35.551 75.0391C35.4221 76.4439 36.5824 78.1072 36.3245 79.2698C37.2109 79.7704 37.7266 78.6239 38.3712 78.8823C37.8555 80.0288 39.0158 80.933 38.629 82.2087C37.9844 84.3887 34.4068 85.4383 33.6332 87.586C31.0709 88.8778 27.4932 89.007 25.7044 87.3276C25.3133 86.8245 24.9732 86.2836 24.6892 85.7128C24.4313 85.3414 23.7867 85.0831 23.5288 84.8247C22.7714 83.7912 22.3846 82.2572 21.6111 81.1107C19.1834 77.6829 17.1658 73.9812 15.6 70.0817C15.0843 75.7173 15.6 81.3852 15.6 86.4879C13.4244 87.0047 11.6356 88.7971 8.7026 88.1027C8.18691 88.1027 8.44476 88.8778 7.80014 88.7486C6.99335 88.2582 6.26073 87.6546 5.62455 86.9562C4.7382 75.0391 5.75347 61.3134 5.62455 48.8957C5.62455 42.0974 5.23777 35.4283 5.23777 28.9046C5.49562 22.3647 5.62455 15.8248 5.3667 9.41408C5.3667 8.9135 4.99604 9.04268 3.44896 8.9135C2.82045 8.9135 3.44896 8.26758 3.06219 8.1384C2.17583 8.39676 2.56261 7.88003 1.78906 7.62167C1.78906 6.73353 2.04691 6.86271 1.78906 5.82925C2.43368 4.68275 2.43368 5.4417 3.06219 4.42438C3.7068 3.64929 8.7026 3.77847 11.8935 3.64929C24.1735 3.22944 35.6799 9.83392 38.1133 19.9586ZM6.65594 23.4143C6.91378 18.1662 6.26917 13.2896 6.78486 9.18801H6.26917C5.93408 10.9538 5.93408 12.7671 6.26917 14.533C6.52701 18.037 5.75347 20.9921 6.65594 23.4143ZM16.1157 52.4805C20.1091 49.6649 23.4304 45.9978 25.8407 41.7427C28.251 37.4875 29.6905 32.7502 30.0556 27.8711C30.3104 23.0983 29.1074 18.361 26.6069 14.2907C24.3024 10.7382 19.6934 9.68859 14.198 9.07497C14.0691 9.18801 13.6823 9.44638 14.0691 9.57556C14.3269 23.931 16.1157 38.9324 16.1157 52.5128V52.4805ZM17.7273 73.392C18.4394 75.1281 19.4362 76.7327 20.6764 78.1395C19.0649 74.6838 17.4533 70.9698 15.9385 67.3688C15.6 69.3066 16.7603 71.4704 17.7273 73.392Z" fill="white"/>
<path d="M75.5817 5.10277C75.7106 5.47417 75.4527 5.99091 75.7106 7.78332C74.8081 8.17087 74.6953 9.31737 73.7929 9.39811C74.4375 10.1732 73.2772 9.91484 74.0507 10.6899C68.0396 12.224 61.1583 11.3197 54.4865 11.0775C54.7282 21.073 55.3729 29.5184 55.2439 39.3847C59.2083 39.9015 66.7504 39.0133 70.2152 39.6431C70.3441 40.289 69.9574 41.4355 71.3594 41.4355C71.3594 41.8231 70.7148 43.0503 70.8437 43.4863C71.2305 43.6155 71.7462 43.6155 72.133 43.7447C71.8162 44.2336 71.4247 44.6695 70.9726 45.0365C70.8437 45.6663 71.7462 45.4079 71.3594 45.7954C69.5706 47.8462 59.0794 46.9581 55.6307 47.4102C55.3729 56.5176 55.7596 69.2099 55.6307 79.3184C55.8886 79.5768 56.6621 79.3184 57.2423 79.4476C57.8869 79.3184 57.5001 80.0935 57.8869 80.0935C63.6401 80.8686 70.6664 79.5768 76.049 80.6103C76.1779 81.2562 75.7912 81.3692 75.1466 81.2562C75.1466 82.0151 75.7912 81.3692 76.1779 81.7568C76.1779 82.0151 75.4044 83.0486 76.3069 83.3716C76.049 83.7591 75.5333 83.8883 76.049 84.405C72.8259 87.2309 66.3797 87.9898 60.1914 87.4731C56.548 87.3296 52.8999 87.5895 49.3134 88.2482C48.2911 88.2697 47.2684 88.2265 46.2515 88.119C46.0768 86.5331 46.1639 84.9291 46.5094 83.3716C45.6069 83.2585 46.2515 84.1467 45.6069 84.405C45.7358 83.7591 45.478 83.3716 45.478 82.7902C44.8333 83.307 45.478 85.2286 45.2201 85.7291C44.3338 84.841 44.9623 83.8075 44.9623 82.7902C45.2201 76.1212 44.9623 68.2571 45.349 61.3781C45.7358 66.1256 45.478 76.8963 45.8647 76.7671C46.2515 54.16 45.478 28.0651 45.8647 5.13507C46.3804 5.13507 46.6222 5.50647 47.2668 5.37729C47.2668 4.74752 46.6222 5.13507 46.88 4.48915C56.4454 3.79587 66.0545 4.0013 75.5817 5.10277ZM46.042 79.1247C45.9131 78.7371 46.2998 77.5099 45.7842 77.5099C45.9131 78.0105 45.5263 79.1247 46.042 79.1247ZM47.573 12.9183C47.573 11.4973 48.0887 9.96328 47.3151 8.94597C47.444 9.70492 46.9284 9.44655 46.9284 9.8341C47.9597 9.96328 46.735 12.5308 47.573 12.9183ZM49.6196 87.4893C49.4907 87.1179 47.444 87.1179 47.3151 87.4893C48.0887 87.7476 48.6044 87.4893 49.6196 87.4893ZM47.7019 8.36464C47.7019 8.10628 47.7019 7.71873 47.8308 7.58955C47.573 7.58955 47.573 6.44305 47.444 6.31386C47.444 6.766 47.444 8.17087 47.7019 8.30005V8.36464ZM57.3712 46.8128C57.1133 46.8128 56.3559 47.0711 56.3559 46.6836C57.3712 46.5544 58.2737 47.2003 59.0311 46.6836C58.7732 46.6836 58.5315 46.8128 58.5315 46.5544C58.6443 46.5544 58.7732 46.5544 58.7732 46.4252C57.629 46.5544 56.3559 46.0377 55.3245 46.4252C55.5018 47.0065 57.1617 47.0065 57.4195 46.8289L57.3712 46.8128Z" fill="white"/>
<path d="M105.766 4.97336C106.153 5.34476 106.668 6.11986 107.377 6.76577C108.086 7.41169 108.667 7.91227 108.667 8.68737C108.538 9.18795 107.893 9.44632 107.764 10.3022C107.162 11.634 106.828 13.0716 106.781 14.5329C106.668 16.1477 106.281 17.7625 106.153 19.022C106.024 21.9609 106.281 24.916 104.541 26.45C103.767 26.9668 102.365 26.8376 102.736 27.7257C102.237 27.8549 101.979 27.3382 101.463 27.3382C100.947 27.3382 101.334 28.2424 100.706 28.1133C100.298 28.0263 99.8753 28.0396 99.474 28.1521C99.0726 28.2646 98.7045 28.4729 98.401 28.7592C96.0965 25.9333 95.323 19.5226 96.4833 15.0496C92.0032 18.3761 89.6987 25.5458 90.9718 32.6024C92.5833 39.1423 97.1118 45.5207 100.448 50.9302C102.237 53.9983 104.154 56.4366 105.685 59.2464C107.341 62.3719 108.339 65.8049 108.616 69.3326C108.893 72.8603 108.444 76.4075 107.297 79.7542C105.508 84.5985 101.157 87.1984 96.1771 87.9573C85.1702 89.8789 79.2881 80.5293 79.9327 70.017C80.1889 67.3714 81.1644 64.8469 82.7529 62.7182C83.2525 62.7182 83.2525 62.9765 83.8971 62.7182C84.2974 63.7798 84.3869 64.9338 84.1549 66.0446C84.2839 66.6906 84.7834 65.9155 84.9124 66.1738C84.6706 69.6295 85.1702 75.2812 86.8301 78.2201C87.9904 80.4001 90.166 82.4509 93.6147 81.046C94.7353 80.3581 95.6967 79.4388 96.4349 78.3493C98.8523 74.3769 98.0465 66.6905 96.0482 62.0723C93.6147 57.2279 89.7792 52.4643 86.7173 47.087C83.2525 41.1769 80.0616 36.3164 80.4484 29.1306C80.386 24.6203 81.2528 20.1456 82.9946 15.9862C83.8971 13.8062 89.1346 6.89495 93.6147 6.76577C94.4265 6.72878 95.2366 6.87003 95.9882 7.17965C96.7398 7.48926 97.4148 7.95976 97.9659 8.55819C99.1101 6.9434 98.8523 4.58581 100.141 3.16479C101.544 3.16479 102.059 3.81071 103.365 3.05176C103.461 4.58581 104.622 4.19826 105.766 4.97336Z" fill="white"/>
<path d="M133.001 2.01817C133.774 2.40572 134.79 2.5349 135.176 3.63296C135.305 4.7956 134.419 5.42537 134.161 6.58802C129.681 10.5604 127.119 16.4544 125.201 22.3483C117.643 46.2311 123.799 81.7241 129.423 81.7241C132.243 81.2235 134.918 69.807 136.337 62.1206C138.625 50.591 140.043 38.2863 137.481 23.8017C137.113 21.8998 136.645 20.0186 136.079 18.166C135.563 17.3909 135.563 16.3736 135.176 15.7277C136.208 16.2444 136.079 17.9077 136.788 18.5536C136.53 14.9688 134.371 14.3229 133.726 10.8672C134.242 10.3505 133.726 9.57538 134.242 9.83374C135.128 9.70456 133.984 8.81643 134.483 8.55806C135.257 8.94561 135.902 9.44619 136.53 9.83374C136.917 10.8672 137.046 11.6262 137.819 11.8845C138.335 11.8845 137.948 11.2386 137.819 10.9964C138.448 11.3678 138.335 12.6112 139.221 12.6112C139.479 11.5777 138.077 10.5604 138.206 9.52693C141.08 14.332 143.032 19.6336 143.959 25.1581C146.462 42.9795 144.903 61.1374 139.399 78.2685C138.672 80.8055 137.358 83.1348 135.563 85.0667C135.307 85.3305 135.09 85.6295 134.918 85.9548C133.516 87.5696 133.001 88.264 129.81 88.5224C127.607 88.9773 125.315 88.6098 123.364 87.4889C117.095 82.8867 113.694 71.7286 112.744 62.3789C111.132 46.6186 111.986 30.7291 116.337 17.1649C118.277 11.3167 121.282 5.87984 125.201 1.13003C125.182 1.38973 125.226 1.65012 125.33 1.88898C126.103 1.00085 129.165 -0.549345 131.212 0.354936C131.728 0.613302 132.147 1.50144 133.001 2.01817ZM127.119 2.5349C124.699 3.87357 122.806 5.99785 121.752 8.55806C123.283 6.45884 125.588 4.84405 127.119 2.5349ZM130.696 0.920112C129.871 1.18679 129.183 1.76636 128.778 2.5349C129.681 2.66408 130.535 1.7598 130.696 0.871668V0.920112ZM134.532 84.4692C133.645 84.5984 131.47 86.52 131.47 87.5373C132.372 87.1982 134.661 85.3251 134.532 84.4208V84.4692Z" fill="white"/>
<path d="M179.558 3.55242C179.687 4.06916 179.43 4.97344 180.316 5.34484C180.832 5.34484 180.703 4.97344 180.703 4.58589C181.218 5.21566 180.703 6.20068 181.347 6.76585C181.476 12.2723 181.734 17.5203 182.234 23.4143C182.749 22.9137 181.992 21.1213 182.749 20.7338C182.735 21.8441 182.778 22.9544 182.878 24.0602C183.394 22.2678 182.749 19.3128 183.265 17.3912C183.91 19.5711 183.007 23.4143 183.652 26.3694C184.066 22.4541 184.152 18.5111 183.91 14.5814C185.521 33.2807 184.667 51.6085 184.667 70.7115C184.409 70.5823 184.409 70.3239 184.409 70.9698C184.039 71.099 184.28 69.5488 184.28 68.7899C184.345 67.8921 184.345 66.9909 184.28 66.0932C183.667 67.0479 183.194 68.0868 182.878 69.1774C182.857 70.3738 182.9 71.5705 183.007 72.7622C182.749 74.6838 181.734 76.2179 181.863 78.1395C181.476 78.7854 180.703 79.0438 180.445 79.7543C181.347 80.4002 181.347 78.737 182.056 79.2537C180.934 81.905 179.092 84.1872 176.738 85.8403C174.385 87.4933 171.615 88.4507 168.745 88.6033C166.652 88.6718 164.572 88.2557 162.666 87.3875C160.76 86.5193 159.079 85.2224 157.754 83.5975C156.059 81.6907 154.833 79.412 154.177 76.9445C152.945 73.6152 152.254 70.1098 152.13 66.5615C151.485 59.7471 151.808 50.9787 151.937 42.9048C152.065 33.2161 152.194 21.3635 152.436 12.2238C152.27 11.2916 152.226 10.3415 152.307 9.39796C152.436 8.38064 153.21 7.23414 152.694 6.07149C153.596 5.42558 153.725 4.27908 154.306 3.3748C154.434 3.3748 154.563 3.24561 154.692 3.3748C155.466 4.02071 155.982 3.63316 157.384 3.76235C158.27 4.27908 158.786 5.37714 160.188 5.55476C160.574 6.97578 161.799 7.47636 162.363 8.50982C162.363 16.067 162.621 24.3993 162.492 32.6025C162.25 36.5748 162.879 40.8056 162.75 45.0363C162.621 56.6951 161.138 71.9387 167.488 78.737C169.406 79.8835 171.452 80.7877 173.37 78.9953C176.948 75.7657 176.432 67.3366 176.593 59.3756C176.604 57.2171 176.733 55.0608 176.98 52.9165C176.851 45.9891 176.464 38.1735 176.593 31.5044C176.593 25.6104 175.965 19.3451 176.206 13.4349C176.546 12.31 176.762 11.1512 176.851 9.97928C176.807 7.75959 177.242 5.55655 178.124 3.52013C178.527 3.22947 178.785 3.68161 179.558 3.55242Z" fill="white"/>
<path d="M226.615 23.4143C229.839 36.2358 224.698 51.108 219.202 55.3226C219.847 54.3052 220.991 53.0296 221.894 51.3502C220.733 52.1253 219.46 54.9512 217.8 56.1945C218.171 55.1772 218.944 54.4021 219.412 53.2395C218.459 53.9879 217.559 54.8027 216.721 55.6778C214.762 58.0044 212.195 59.7379 209.307 60.6837C211.424 62.747 213.169 65.1617 214.464 67.821C216.076 71.1636 217.542 76.9284 218.429 79.1245C219.202 81.0461 220.347 83.5975 222.393 83.4683C224.698 83.3553 225.987 80.1419 228.034 79.6251C227.131 81.2399 227.518 83.8559 225.858 84.8893C226.486 85.4061 227.002 84.5018 227.776 84.631C226.532 86.1973 224.751 87.2447 222.78 87.5699C223.038 88.2158 224.069 87.5699 224.827 87.4407C223.296 89.0555 220.862 88.8617 218.816 88.4742C211.66 87.3277 208.969 77.0738 204.876 68.6123C204.489 72.1971 205.907 83.2261 204.36 86.3749C202.053 87.5361 199.526 88.1911 196.947 88.2965C196.689 87.6506 196.06 87.5214 195.545 87.2792C195.355 86.7805 195.045 86.3367 194.642 85.9874C195.158 75.9918 194.256 59.5856 194.127 48.9603C193.885 38.0605 194.127 19.6034 194.014 9.34954C191.967 9.10732 194.9 8.59059 192.982 8.33222C193.111 7.42794 193.756 7.18572 193.498 6.02307C196.173 3.58474 199.638 3.71393 205.005 3.84311C216.898 4.19836 223.682 11.8848 226.615 23.4143ZM194.771 28.1618C194.921 26.4938 194.878 24.814 194.642 23.156C194.422 24.821 194.465 26.5105 194.771 28.1618ZM195.287 28.291C195.287 29.1791 194.9 29.9058 195.545 30.8585C195.803 27.1445 195.674 16.1155 195.416 12.2723C195.287 11.2388 196.06 9.83397 195.029 9.18806C194.642 8.04156 194.771 9.70479 194.771 10.4799C194.642 14.3231 195.416 24.3186 195.287 28.291ZM195.158 60.3284C195.029 59.2949 195.803 57.7609 195.029 57.2603C194.997 57.7609 194.384 59.7471 195.158 60.3284ZM195.158 57.0019C195.545 52.642 195.029 47.3132 195.287 42.7757H194.9C194.727 47.5189 194.813 52.2681 195.158 57.0019ZM195.158 63.784C195.545 63.3965 195.545 61.4749 194.9 61.3457C194.9 61.9916 194.771 63.784 195.158 63.784ZM195.158 41.8714C195.416 39.8206 195.932 36.6233 195.029 35.0893C194.812 37.3474 194.855 39.6232 195.158 41.8714ZM205.133 55.9685C212.804 50.0745 217.413 41.2255 217.413 26.6278C217.413 17.0198 213.062 8.8651 203.86 9.57561C206.407 21.4927 204.747 42.7757 205.133 55.9685Z" fill="white"/>
<path d="M256.929 2.66444C256.542 3.94012 257.573 3.68175 258.202 4.27922C257.944 4.92514 257.944 5.42572 258.46 5.68409C258.975 6.20082 258.718 4.92514 259.362 4.92514C259.362 5.81327 259.62 6.84674 259.104 7.4765C260.377 8.76833 259.991 10.4316 259.991 12.3209C259.749 16.81 260.764 22.4456 259.862 26.2888C259.62 28.2104 258.073 29.3569 257.944 31.0363C257.444 31.0363 257.702 30.3903 257.187 30.132C256.956 30.6995 256.868 31.3148 256.929 31.9244C256.284 31.666 253.98 31.1654 254.237 32.9579C253.98 32.5703 253.351 32.8287 252.964 32.9579C250.66 26.4987 252.706 17.5689 252.191 10.916C250.579 11.4166 248.871 14.3716 247.84 16.5516C244.955 22.6071 242.731 35.0894 242.215 41.1125C241.329 51.9962 240.604 69.1776 246.309 77.2515C246.953 78.398 248.097 80.0612 249.645 80.0612C251.315 79.7554 252.817 78.848 253.867 77.5099C256.155 74.4418 256.671 68.9353 258.975 65.9803C259.362 67.9019 258.589 69.9527 259.104 71.8743C259.991 71.8743 259.749 70.7278 260.377 70.4694C261.409 71.7451 259.233 73.4083 259.862 75.0877C259.991 75.5883 259.991 74.571 260.764 74.7001C260.249 75.7175 259.991 77.0093 259.491 77.9297C260.249 77.413 260.249 76.3957 260.893 76.0081C260.693 77.3259 260.064 78.5406 259.104 79.4638C259.491 80.7556 257.944 81.7729 257.315 83.0647C257.058 83.3231 257.187 83.8237 256.929 83.9529C254.882 86.1253 252.27 87.6804 249.387 88.442C248.097 88.6719 246.769 88.5377 245.551 88.0544C243.778 87.6848 242.12 86.8927 240.717 85.7453C238.783 83.9346 237.256 81.7329 236.236 79.2861C235.833 78.5204 235.364 77.791 234.834 77.1062C233.786 74.6503 233.044 72.074 232.627 69.4359C231.222 58.8464 231.222 48.1172 232.627 37.5277C234.238 23.9473 237.461 9.20433 244.004 5.11891C244.778 4.98973 245.035 4.473 245.616 4.21463C247.147 4.08545 248.549 4.473 249.967 4.34382C250.466 5.49031 252.126 5.36113 253.029 6.26541C253.359 4.78465 253.902 3.35964 254.64 2.03467C255.269 2.1477 256.026 2.9228 256.929 2.66444Z" fill="white"/>
<path d="M292.738 6.76602C291.964 6.76602 292.867 8.3808 293.124 8.8168C290.046 13.1767 281.844 9.83411 275.478 11.4973C275.978 19.3129 277.009 29.4376 276.751 37.5116C281.747 37.2532 286.727 35.4608 290.949 37.3824C290.765 37.8458 290.754 38.3598 290.917 38.8309C291.079 39.302 291.405 39.699 291.835 39.9499C291.078 40.2083 292.093 41.7423 291.078 42.0007C291.078 42.5174 291.464 42.5174 291.464 43.0342C290.691 43.0342 290.562 43.5347 289.853 43.9223C285.483 43.9697 281.122 44.315 276.799 44.9558C276.67 55.7102 276.026 69.549 276.928 80.1904C281.022 79.8029 286.598 79.4153 290.224 80.4488C290.353 81.5953 291.513 82.2412 292.27 83.2747C292.012 84.4212 292.528 84.8895 292.528 85.5677C290.353 88.006 283.713 86.6012 279.233 87.4893C278.588 87.7477 277.831 88.2644 277.186 88.1352C276.284 88.2644 275.011 87.3601 274.108 87.3601C273.351 88.5227 271.046 87.6185 270.402 88.7811C269.886 88.3936 268.999 87.7477 268.79 88.1352C268.045 86.7493 267.611 85.2174 267.517 83.6461C267.102 81.8854 266.929 80.0764 267.001 78.2688C267.388 63.5258 267.13 44.5682 267.001 28.4203C267.001 22.9139 266.872 15.8573 266.872 10.8676C266.695 9.80071 266.651 8.71569 266.743 7.638C267.001 6.4915 268.355 5.7164 268.661 4.31154C269.306 4.18235 269.306 4.69909 269.564 4.95745C276.848 3.51172 284.312 3.20667 291.69 4.05317C291.835 5.21582 291.964 6.24928 292.738 6.76602Z" fill="white"/>
<path d="M323.438 1.50156C324.582 3.11635 326.113 3.93989 325.984 6.76577C325.855 8.55819 324.582 11.1257 324.453 13.6771C324.195 18.2954 325.597 23.3658 323.679 25.8526C323.18 26.1109 323.051 25.8526 322.664 25.7234C322.56 25.7513 322.464 25.8037 322.384 25.8762C322.305 25.9488 322.243 26.0393 322.205 26.1404C322.168 26.2415 322.154 26.3501 322.167 26.4574C322.179 26.5646 322.217 26.6673 322.277 26.7568C321.52 25.8526 321.004 27.3866 320.36 26.7568C319.973 27.0152 319.973 27.5158 319.602 27.5158C319.195 27.3842 318.762 27.3507 318.339 27.4181C317.916 27.4854 317.515 27.6517 317.169 27.9033C315.122 26.2886 315.38 21.6218 314.993 18.2146C314.735 18.2146 314.735 18.9897 314.477 19.3611C313.72 19.7487 314.22 16.8098 314.22 16.0347C314.864 16.0347 314.478 17.6494 314.993 17.5687C315.38 15.0173 315.509 11.6747 315.638 8.86499C314.026 10.4798 314.864 13.0957 314.349 15.1304C313.833 15.1304 314.091 11.5455 314.349 9.36558C309.24 12.8374 306.291 19.0543 307.58 27.9518C308.466 34.4917 312.56 41.403 315.638 46.7964C319.715 53.7077 324.066 60.6351 325.597 70.1139C326.237 73.709 325.794 77.4138 324.324 80.7554C324.711 81.0137 325.355 79.1406 325.597 79.3344C325.209 81.2454 324.368 83.035 323.145 84.5525C321.922 86.07 320.353 87.2709 318.571 88.0542C317.668 87.4083 320.489 86.9077 321.004 86.0034C319.929 86.5857 318.763 86.979 317.556 87.1661C315.812 88.5365 313.628 89.22 311.416 89.0877C301.44 89.3299 297.347 80.3678 297.605 73.3112C297.57 70.4253 298.228 67.5732 299.522 64.995L301.134 64.6075C301.263 64.8658 301.005 65.754 301.505 66.0124C302.02 66.5291 302.278 65.4956 302.278 65.8832C302.543 66.2255 302.737 66.6178 302.848 67.0367C302.959 67.4556 302.984 67.8925 302.923 68.3215C303.181 68.5799 304.067 68.0631 304.534 68.3215C305.212 69.0537 305.581 70.0197 305.566 71.0182C305.936 74.9906 305.807 81.1429 309.272 82.1602C314.107 83.775 315.154 77.9295 314.896 74.2155C314.123 65.1242 310.287 58.1968 306.581 51.2693C304.969 48.3304 303.132 45.2462 301.343 42.1781C298.532 37.2186 297.076 31.6043 297.121 25.901C298.007 25.901 297.879 29.8734 298.652 33.4582C299.225 36.1601 300.22 38.7543 301.601 41.1446C303.132 43.9705 304.534 46.538 305.936 48.9763C310.674 57.5509 315.783 65.754 315.606 77.4128C317.217 67.5464 312.27 59.1011 308.047 51.2693C306.645 48.718 305.114 46.2796 303.455 43.3246C301.933 40.6275 300.691 37.7814 299.748 34.8308C298.56 29.7085 298.019 24.4571 298.136 19.1996C297.508 20.3461 297.879 24.3185 297.379 24.3185C297.045 21.499 297.302 18.6406 298.135 15.9265C298.967 13.2125 300.356 10.7027 302.214 8.55819C304.518 5.73231 311.883 1.75993 315.896 4.97336C316.167 3.16504 316.969 1.47856 318.2 0.128991C320.489 -0.420037 321.633 1.24319 323.438 1.50156ZM322.793 82.1118C322.088 83.3754 321.273 84.5749 320.36 85.6966C321.762 84.9377 323.18 83.2744 322.793 82.1118Z" fill="white"/>
<path d="M38.6775 124.112C38.5486 133.801 33.5528 143.086 28.702 150.256C31.3844 158.32 35.5011 165.832 40.8531 172.427C42.7686 168.706 43.7321 164.567 43.6572 160.381C43.6572 157.684 43.5283 153.453 41.8684 151.402C40.8944 151.496 39.9641 151.853 39.1771 152.436C38.5776 152.908 38.0366 153.45 37.5655 154.051C37.0498 154.051 36.8081 153.276 36.8081 154.051C36.2924 153.663 35.9056 153.792 35.0193 153.663C31.9412 148.157 35.3899 145.46 39.0965 144.701C41.9167 144.055 47.2832 143.926 52.4079 142.909C53.9936 142.602 55.4968 141.963 56.8188 141.034C58.1408 140.104 59.2518 138.905 60.0789 137.515C60.7078 136.455 61.7164 135.676 62.8991 135.335C63.3986 135.464 63.0119 136.498 63.6565 136.627C64.8168 137.128 65.1875 138.42 65.8321 139.437C65.961 140.083 64.559 139.954 65.1875 141.358C63.3523 143.866 60.9696 145.92 58.2213 147.364C55.4731 148.808 52.4318 149.604 49.3298 149.691C50.4418 152.641 50.9885 155.774 50.9414 158.927C51.0522 165.924 49.424 172.838 46.2034 179.048C47.9922 182.116 52.2145 185.7 56.05 184.554C59.8855 183.407 60.7879 179.177 63.8499 176.868C63.592 179.807 64.6234 179.419 64.6234 182.374C64.9941 182.374 65.5098 182.116 65.8965 182.632C66.5412 183.779 65.7676 184.247 65.5098 185.442C65.4048 186.376 65.149 187.287 64.7523 188.139C63.7514 189.317 62.6748 190.428 61.5293 191.465C59.6892 193.333 57.2423 194.479 54.6318 194.695C48.1856 196.31 42.7386 191.465 39.2738 187.251C36.8565 190.206 32.5053 192.515 28.6698 194.049C25.6335 195.124 22.3993 195.521 19.1939 195.212C12.925 194.695 9.7341 192.257 7.17174 188.413C3.33626 180.727 5.7697 169.569 8.33206 163.158C10.4881 158.058 13.3292 153.277 16.7766 148.948C15.106 144.857 14.3266 140.456 14.4906 136.04C14.6546 131.623 15.7581 127.292 17.7274 123.337C19.6451 119.494 22.2075 116.039 25.914 114.763C28.09 114.072 30.4201 114.032 32.6181 114.65C36.8403 115.78 38.6775 118.348 38.6775 124.112ZM20.5959 186.007C24.6893 187.8 29.7979 185.119 33.8912 181.163C29.2725 174.753 25.3299 167.88 22.1269 160.655C20.7249 163.206 15.9869 173.218 17.2923 181.034C17.4026 182.068 17.7605 183.06 18.3357 183.926C18.9109 184.792 19.6863 185.506 20.5959 186.007ZM31.5867 121.545C28.5248 121.545 25.3178 132.316 26.4781 140.39C30.4425 134.625 34.7937 121.545 31.5867 121.545Z" fill="white"/>
<path d="M97.1929 111.679C97.464 113.533 97.8352 115.371 98.3049 117.185C98.8045 118.994 98.047 121.044 98.047 122.966C97.9181 128.472 98.3049 134.754 98.4338 140.519C98.4338 147.559 98.9334 155.633 99.1912 162.69C99.578 171.523 98.4338 179.984 97.7892 187.929C101.625 188.446 103.542 186.912 107.378 187.283C108.538 187.412 109.553 188.058 110.601 187.929C111.101 187.929 111.616 187.541 112.213 187.8C113.228 187.8 111.568 188.704 112.47 188.833C112.97 188.962 113.872 192.16 113.357 192.676C112.084 193.435 112.97 193.952 111.955 194.727C106.33 195.357 104.413 194.598 99.9325 194.727C95.4524 194.856 90.7306 195.745 87.5236 194.34C87.3947 188.962 88.555 183.311 88.8129 177.417C88.9257 174.607 88.8129 171.781 88.8129 168.842C89.0546 154.616 87.6526 139.615 89.0546 125.776C89.3124 121.044 89.6992 114.763 91.3591 111.243C93.3574 110.015 95.0818 111.033 97.1929 111.679Z" fill="white"/>
<path d="M122.767 110.403C123.283 110.274 123.154 109.628 123.928 109.886C124.701 109.886 124.701 110.532 125.072 110.92C125.717 110.92 126.103 111.291 126.361 110.661C127.248 112.276 130.197 112.276 130.696 113.6C130.825 114.587 130.77 115.589 130.535 116.555C130.014 120.743 129.814 124.965 129.939 129.183C130.197 138.42 130.583 147.252 130.954 156.36C131.212 166.485 131.083 176.868 131.083 186.217C131.253 187.707 131.296 189.209 131.212 190.706C131.083 191.595 130.068 192.321 129.81 193.645C129.036 194.033 128.408 195.26 127.505 195.26C127.119 195.26 127.376 195.89 127.376 196.148C125.974 195.89 125.974 197.182 125.072 197.553C124.556 196.794 124.443 197.053 123.46 197.182C123.46 196.665 123.718 195.89 123.203 195.761C122.687 195.89 122.945 196.794 121.929 196.923C120.64 195.309 120.64 193.581 120.511 191.029C120.141 176.286 120.398 160.348 120.141 144.507C120.012 138.226 120.012 132.461 120.012 125.033C120.012 121.69 120.27 118.364 120.398 115.344C120.305 114.578 120.289 113.805 120.35 113.035C120.479 112.147 121.108 111.889 121.108 110.742C121.752 110.613 121.752 111.114 122.01 111.243C122.397 110.871 122.01 109.967 122.268 109.628C122.767 109.628 122.639 110.145 122.767 110.403Z" fill="white"/>
<path d="M173.548 112.195C173.935 111.549 174.193 111.937 174.692 112.454C175.208 112.324 175.595 111.808 176.61 112.454C179.043 116.168 178.415 124.5 178.544 130.216C178.657 133.446 178.914 137.386 178.785 140.987C178.785 155.714 179.43 161.22 179.43 171.991C179.43 176.738 179.817 182.891 179.817 186.524C179.921 187.246 179.964 187.975 179.946 188.704C179.559 190.109 177.77 191.142 176.868 192.418C176.481 193.177 176.368 194.21 175.981 194.985C175.079 194.856 174.821 195.357 174.37 195.874C173.596 195.228 173.081 195.486 172.323 196.003C172.823 194.727 171.807 194.388 171.292 193.694C170.776 193.952 171.55 194.081 171.421 194.469C170.595 194.314 169.781 194.098 168.987 193.823C161.445 178.062 155.305 160.122 149.036 143.199C148.65 159.347 148.907 175.882 148.649 191.142C148.463 192.113 148.339 193.094 148.279 194.081C147.922 194.162 147.607 194.371 147.393 194.668C147.18 194.966 147.082 195.331 147.119 195.696C146.232 195.179 145.845 195.954 145.201 196.471C144.556 195.567 142.397 195.066 141.365 193.903C141.752 190.835 140.979 187.234 141.365 183.908C141.596 183.329 141.769 182.729 141.881 182.116C142.139 179.806 141.623 177.271 141.752 174.946C141.752 169.552 141.881 163.917 142.01 158.281C142.139 154.051 141.752 149.82 141.752 145.589C141.881 142.133 142.139 138.678 142.01 135.335C142.01 133.155 141.494 130.862 141.623 128.682C141.494 126.761 142.01 124.71 141.881 122.659C141.304 120.347 140.958 117.983 140.85 115.602C141.227 114.402 141.401 113.147 141.365 111.888C143.092 111.262 144.977 111.216 146.732 111.759C146.861 112.534 146.99 113.164 147.763 113.374C152.511 123.373 156.734 133.614 160.414 144.055C162.025 148.802 164.008 153.534 166.054 158.152C168.101 162.77 168.987 168.018 171.421 172.249C171.421 156.101 171.163 137.386 170.905 121.109C170.905 117.524 170.019 113.681 171.292 110.871C172.275 111.162 173.161 111.291 173.548 112.195ZM151.486 145.637C151.328 144.303 150.846 143.028 150.084 141.923C150.444 143.199 150.913 144.442 151.486 145.637ZM151.099 147.058C154.935 157.054 159.028 168.196 162.863 178.321C164.91 181.776 166.586 186.911 168.375 190.496C168.874 191.013 168.874 192.418 170.55 193.726C167.859 187.073 164.523 179.37 161.461 171.813C161.203 171.296 160.946 171.183 161.075 171.942C161.239 172.207 161.347 172.503 161.392 172.811C161.436 173.12 161.416 173.434 161.332 173.735C160.559 170.925 159.415 168.358 158.528 165.402C158.936 166.373 159.478 167.281 160.14 168.099C157.835 160.542 154.258 154.002 151.824 146.574C151.695 146.832 151.824 147.091 151.437 147.091C151.309 145.928 150.535 145.476 150.535 144.265C150.43 145.225 150.603 146.195 151.035 147.058H151.099Z" fill="white"/>
<path d="M194.642 111.291C195.416 110.661 196.254 112.583 197.205 111.162C198.478 110.274 198.607 112.324 199.252 112.97C199.385 113.614 199.648 114.224 200.025 114.763C200.396 128.472 197.849 140.389 199.123 153.712C203.41 146.808 207.128 139.566 210.242 132.057C211.532 129.102 212.676 126.163 213.707 123.208C215.109 119.107 215.883 115.522 217.8 112.97C217.782 112.799 217.808 112.626 217.875 112.467C217.943 112.309 218.05 112.171 218.187 112.066C218.187 111.679 218.3 111.549 218.558 111.549H219.331C219.718 112.324 218.816 112.712 218.945 113.471C219.202 113.471 219.847 112.454 220.476 112.97C220.105 115.909 218.945 118.089 218.558 120.915C219.46 119.107 219.46 116.555 220.733 115.263C220.765 116.64 220.461 118.004 219.847 119.236C219.539 120.667 219.152 122.079 218.687 123.467C217.8 126.034 216.898 128.989 216.012 131.411C213.32 138.339 212.547 141.1 210.001 146.283C210.001 148.722 206.777 153.453 205.166 155.633C205.553 156.15 206.439 156.15 206.777 156.537C209.469 166.533 213.949 175.124 216.753 184.732C217.526 187.17 219.057 189.463 218.929 192.289C218.171 192.418 217.526 192.418 217.655 193.306C216.882 193.064 216.495 193.823 215.867 193.952C214.692 194.114 213.533 194.373 212.402 194.727C210.871 195.244 209.984 196.52 208.437 195.244C206.02 185.555 202.185 176.916 199.493 167.292C199.185 168.342 199.012 169.427 198.978 170.521C198.462 176.981 199.235 187.299 198.091 192.692C197.704 193.451 196.173 193.209 196.173 194.485C195.916 194.485 196.045 194.097 195.658 194.097C195.271 194.097 195.4 194.743 195.4 195.131C193.998 195.002 193.611 194.743 192.966 195.131C191.822 194.614 191.951 195.761 191.049 195.26C191.049 196.019 190.162 196.019 189.437 196.019C187.826 188.591 188.535 178.725 189.05 170.392C189.308 162.964 188.535 155.391 188.293 148.221C188.164 144.507 188.164 140.276 188.293 136.046C188.664 130.539 189.05 122.336 189.566 117.33C189.824 115.15 189.953 113.616 191.355 112.599C191.484 111.824 191.097 111.307 191.355 110.807C192.216 110.811 193.075 110.725 193.917 110.548C194.642 110.274 194.385 111.033 194.642 111.291ZM189.534 159.105C190.05 144.749 190.05 128.731 190.807 114.246C190.807 114.375 190.678 114.375 190.678 114.634C189.534 119.882 189.792 126.551 189.534 131.411C189.276 134.496 189.405 137.564 189.147 140.777C188.821 146.887 188.95 153.014 189.534 159.105ZM190.42 194.081C190.179 194.081 189.663 193.952 189.792 194.856C189.663 195.486 190.807 195.744 190.42 194.081Z" fill="white"/>
<path d="M250.145 112.195C250.532 112.583 251.047 113.342 251.756 113.988C252.466 114.634 253.03 115.134 253.03 115.909C252.901 116.426 252.256 116.684 252.143 117.524C251.552 118.902 251.245 120.385 251.241 121.884C251.112 123.418 250.725 125.114 250.596 126.373C250.467 129.312 250.725 132.267 248.985 133.801C248.211 134.318 246.809 134.189 247.196 135.093C246.68 135.206 246.422 134.705 245.923 134.705C245.423 134.705 245.794 135.594 245.149 135.464C244.741 135.379 244.319 135.393 243.918 135.505C243.517 135.618 243.149 135.825 242.845 136.11C240.54 133.284 239.783 126.89 240.927 122.401C236.447 125.727 234.142 132.913 235.431 139.954C236.962 146.413 241.571 152.872 244.891 158.281C246.68 161.349 248.598 163.788 250.129 166.614C251.785 169.739 252.782 173.172 253.059 176.7C253.337 180.228 252.888 183.775 251.74 187.121C249.952 191.966 245.6 194.55 240.605 195.325C229.614 197.246 223.732 187.88 224.36 177.368C224.624 174.724 225.598 172.202 227.18 170.069C227.696 170.069 227.696 170.328 228.325 170.069C228.724 171.131 228.813 172.285 228.582 173.396C228.711 174.042 229.227 173.283 229.356 173.525C229.098 176.997 229.614 182.632 231.274 185.571C232.418 187.751 234.593 189.802 238.058 188.397C239.177 187.713 240.134 186.792 240.862 185.7C243.296 181.728 242.474 174.042 240.476 169.423C238.058 164.579 234.207 159.735 231.145 154.438C227.696 148.544 224.489 143.668 224.876 136.498C224.853 131.956 225.769 127.458 227.567 123.289C228.453 121.125 233.707 114.198 238.171 114.069C238.983 114.034 239.792 114.176 240.543 114.485C241.295 114.795 241.97 115.264 242.522 115.861C243.683 114.246 243.425 111.889 244.698 110.484C246.116 110.484 246.616 111.113 247.921 110.354C247.856 111.808 249.001 111.42 250.145 112.195Z" fill="white"/>
<path d="M37.2106 220.58C37.2106 221.08 37.0817 222.195 38.4999 222.195C38.2344 223.158 37.8894 224.098 37.4685 225.004C34.0198 226.296 28.7822 226.296 24.4311 225.909C24.3499 230.398 24.5221 234.889 24.9468 239.36C25.7042 246.546 25.0596 253.893 25.1885 261.143C25.1885 273.706 25.7042 286.786 26.3488 299.204C26.091 299.979 24.9468 299.85 24.9468 300.819C24.0443 300.689 24.0443 300.948 23.6575 301.448C22.3844 301.319 21.0952 302.353 19.822 302.224C19.3063 302.224 19.3063 302.869 19.0485 303.112C18.1621 302.353 15.7287 303.499 15.0841 302.224C15.0841 292.616 14.8424 282.62 14.7134 272.366C14.7134 263.517 15.213 254.813 15.4709 245.964C15.7287 240.329 14.8424 234.564 15.4709 228.912C14.1977 228.67 14.7134 227.12 14.5845 226.232C13.811 226.748 14.3267 228.67 14.4556 229.687C14.4556 232.642 14.0688 235.71 14.1977 238.665C14.3267 247.111 13.811 255.314 13.9399 263.388C14.0688 265.568 14.4556 269.411 13.5531 269.411C12.8924 259.981 13.1663 250.05 13.4242 240.313C13.5531 235.694 13.0374 230.963 13.5531 226.474C4.73795 226.474 5.10861 225.957 1.65989 224.552C1.53413 224.251 1.51681 223.916 1.61091 223.604C1.70501 223.291 1.90465 223.021 2.17559 222.841C0.902467 222.97 0.902467 221.807 0 221.226C1.40205 218.545 3.96441 218.674 7.2842 218.804C10.604 218.933 15.3419 218.545 18.8068 218.674C23.2802 218.894 27.7626 218.851 32.231 218.545C34.2776 218.271 37.3396 218.658 37.2106 220.58ZM13.811 276.71C13.1663 274.917 13.0374 270.945 13.5531 270.945C14.3267 270.945 14.3267 275.547 13.811 276.71Z" fill="white"/>
<path d="M63.0601 220.063C68.6844 223.131 70.9889 230.575 72.262 238.391C74.3087 250.437 73.4062 269.911 71.6174 280.375C72.3909 278.583 72.1331 276.015 73.2289 274.61C72.6004 278.712 71.9558 282.684 71.1823 286.398C70.814 290.132 69.4931 293.708 67.3468 296.782C67.4757 296.006 68.9583 294.214 67.7336 294.731C67.9914 293.956 66.7183 295.877 66.4604 296.346C65.558 296.475 65.8158 297.621 64.8489 297.363C64.3332 298.396 63.2373 299.155 62.5444 300.318C61.1262 300.447 60.7556 301.723 59.7242 302.239C56.9201 302.239 53.4553 303.854 50.5222 302.498C45.6876 300.189 43.2219 294.941 41.1753 289.16C38.5001 281.473 37.7265 272.253 37.7265 263.404C37.4687 251.616 40.4178 234.451 45.6554 226.635C47.5731 223.68 50.7801 219.062 54.0999 217.915C55.3163 217.649 56.5649 217.562 57.8064 217.657C59.8531 217.996 61.1423 219.934 63.0601 220.063ZM51.7792 287.077C52.8106 290.548 55.4858 295.28 58.8217 294.65C60.9973 294.133 62.5283 289.257 63.1568 286.705C65.1243 280.224 66.4945 273.575 67.2501 266.843C68.6683 254.151 68.8616 229.283 59.9659 223.906C57.6734 225.258 55.7432 227.147 54.3416 229.413C52.918 232.023 51.7625 234.771 50.8929 237.616C48.8462 243.51 47.6698 256.073 47.8148 263.452C47.8154 271.495 49.1608 279.48 51.7954 287.077H51.7792Z" fill="white"/>
<path d="M101.157 217.883C103.204 217.625 105.25 219.498 106.54 221.339C107.426 222.76 107.297 227.362 107.426 229.929C107.942 240.571 106.91 252.101 106.91 262.484C111.39 261.709 116.257 262.484 120.737 262.354C121.108 253.635 121.237 242.977 121.753 233.773C122.01 229.154 121.237 222.469 122.526 218.917C123.284 219.159 123.284 217.883 123.67 217.496C124.702 217.496 124.943 217.754 125.846 218.529C126.233 218.142 125.459 218.012 125.717 217.625C127.119 217.754 127.893 219.805 129.166 219.159C130.584 220.774 130.777 222.889 130.777 228.137C130.781 230.409 130.651 232.679 130.39 234.935C129.356 251.699 129.227 268.507 130.004 285.284C130.262 290.936 129.746 296.184 131.019 300.932C130.004 301.432 128.859 301.691 128.344 302.546C127.061 302.944 125.703 303.033 124.379 302.805C124.122 303.063 124.25 303.693 123.993 303.822C123.219 303.305 122.961 303.564 122.075 303.435C120.463 294.343 120.673 281.393 120.673 269.992C116.708 269.217 110.826 269.088 107.104 270.767C107.232 280.456 107.877 290.145 108.006 299.462C107.5 300.093 106.896 300.638 106.217 301.077C105.6 301.747 104.862 302.295 104.042 302.692C103.913 302.692 103.526 302.433 103.268 302.563C103.01 302.692 102.124 303.192 101.657 303.079C101.09 302.97 100.588 302.646 100.254 302.175C99.7388 302.046 99.6099 303.079 99.2231 302.692C97.3054 300.512 98.0789 297.056 97.95 294.36C97.6921 286.027 98.2078 275.644 97.8211 265.649C97.5632 260.142 97.95 254.894 97.95 249.501C97.95 245.399 98.4657 240.668 98.5946 236.05C98.8524 230.285 97.6921 221.306 100.206 217.334L100.335 217.463C100.964 217.463 100.077 217.98 100.722 217.98C101.479 218.238 100.722 217.076 101.608 217.334C101.415 217.625 101.028 217.625 101.157 217.883Z" fill="white"/>
<path d="M155.643 218.529C151.962 218.288 148.266 218.5 144.636 219.159C151.292 218.4 158.963 219.675 164.974 219.029C166.263 219.675 168.681 218.916 168.552 220.321C167.665 220.709 166.134 219.805 166.263 221.209C167.526 221.34 168.723 221.833 169.712 222.63C169.97 223.26 168.938 222.889 169.196 223.519C169.712 223.777 170.099 224.035 170.099 224.552C169.287 224.719 168.508 225.019 167.794 225.44C161.01 225.569 156.03 223.648 149.374 224.423C149.503 232.884 149.761 243.251 149.761 251.584C152.717 251.68 155.662 251.982 158.576 252.488C156.159 253.118 152.323 251.842 150.148 252.875C154.722 252.753 159.298 253.007 163.83 253.634C164.974 253.764 166.392 254.28 166.134 255.556C165.49 255.168 165.103 255.427 164.523 255.055C162.492 253.441 158.641 253.634 155.708 253.441C156.094 254.216 157.883 253.57 158.399 254.086C157.496 254.991 154.934 253.957 153.403 254.474C156.352 255.75 160.558 255.233 163.765 255.104C164.523 256.008 166.199 256.266 167.214 257.025C167.085 257.542 166.457 257.413 166.07 257.542C166.07 258.317 166.956 257.93 166.956 258.576C166.199 262.548 159.027 259.722 155.192 259.335C153.577 259.161 151.945 259.248 150.357 259.593C149.068 271.252 150.099 285.22 149.842 295.603C154.064 295.732 162.508 293.423 167.23 295.344C168.262 296.959 168.262 298.574 169.664 299.446C169.277 300.092 169.019 300.092 169.406 300.738C168.747 301.122 168.063 301.462 167.359 301.755C161.09 301.109 153.161 302.272 147.666 303.37C146.479 303.684 145.222 303.598 144.088 303.128C143.831 304.145 142.477 303.499 142.042 303.628C141.913 302.869 141.268 302.869 141.397 302.013C140.624 301.755 136.659 299.317 139.35 298.17C139.093 297.153 139.737 297.024 140.253 296.765C139.737 273.432 140.624 242.428 139.866 223.841C138.717 223.423 137.669 222.769 136.788 221.92C137.304 221.532 137.433 220.644 137.819 220.127C138.464 219.482 139.431 220.257 139.866 219.998C139.948 219.704 140.1 219.433 140.309 219.21C140.518 218.987 140.778 218.818 141.066 218.718C141.355 218.618 141.663 218.59 141.965 218.636C142.267 218.681 142.553 218.8 142.799 218.981C143.057 218.981 142.799 218.593 142.799 218.464C149.245 217.56 154.692 218.335 161.09 218.335C159.543 219.288 157.561 218.658 155.643 218.529ZM165.312 295.926C164.737 295.638 164.102 295.489 163.459 295.489C162.816 295.489 162.182 295.638 161.606 295.926C162.836 296.257 164.131 296.257 165.361 295.926H165.312Z" fill="white"/>
<path d="M179.559 217.996C179.43 218.771 181.17 218.901 181.17 218.513C181.944 219.53 183.217 219.789 184.119 220.564C185.731 228.121 185.392 237.212 185.392 245.803C185.392 252.084 185.908 258.495 185.908 265.035C185.908 274.724 185.779 285.268 185.65 295.264C191.146 295.522 197.672 295.651 201.895 293.859C202.523 293.342 202.394 294.763 203.506 295.135C204.264 295.651 203.506 296.943 203.248 298.477C202.346 299.365 201.637 299.624 201.331 300.528C198.602 301.477 195.765 302.079 192.886 302.321C191.321 302.057 189.736 301.928 188.148 301.933C183.807 302.277 179.444 302.234 175.111 301.804C175.755 301.158 175.111 301.416 174.595 301.158C174.724 300.657 175.626 301.045 176.207 300.916C175.32 299.882 172.629 300.657 172.629 298.736C172.887 298.994 172.887 299.495 173.531 299.495C173.274 298.477 172.629 297.444 172.887 296.556C173.66 296.168 174.176 296.556 174.804 296.685C175.578 295.651 175.32 294.117 175.32 292.196C175.449 283.088 175.449 236.97 174.676 227.346C174.418 224.665 173.789 221.194 175.836 220.693C175.806 220.112 175.983 219.54 176.335 219.078C177.367 218.707 177.754 219.595 178.898 219.466C179.414 218.949 179.027 218.578 179.285 217.851C179.559 217.754 179.559 217.883 179.559 217.996Z" fill="white"/>
<path d="M238.638 224.455C242.344 228.298 244.02 233.934 243.891 241.491C243.504 250.082 239.54 255.718 235.833 261.482C235.705 260.982 236.72 260.465 236.591 259.561C234.979 260.336 233.916 263.533 232.498 263.662C232.469 263.164 232.605 262.671 232.884 262.257C231.74 262.903 230.838 265.196 229.307 266.101C229.436 265.455 230.08 265.326 230.08 264.825C229.178 264.825 228.162 266.101 227.518 267.005C227.26 267.118 227.26 266.488 227.002 266.488C225.593 268.206 223.911 269.679 222.022 270.848C221.894 270.331 222.264 269.944 222.78 269.427C221.636 269.944 220.862 271.042 219.331 271.478C219.202 278.147 219.718 290.193 219.718 296.087C219.64 297.345 219.424 298.591 219.073 299.801C218.058 300.318 216.898 300.576 216.64 301.723C216.382 301.206 215.882 301.852 215.754 302.369C215.109 302.24 213.965 302.627 213.836 303.257C213.298 303.14 212.74 303.149 212.206 303.284C211.672 303.418 211.177 303.674 210.758 304.032C209.146 303.515 209.146 302.498 209.146 300.447C208.759 296.992 209.146 291.098 209.146 284.428C208.888 276.613 208.631 267.118 209.017 258.931L209.275 244.576C209.146 238.552 209.275 230.042 208.888 223.68C208.759 223.422 208.131 223.422 208.002 223.163C207.744 221.759 207.744 220.87 207.615 219.579C212.883 218.028 218.382 217.421 223.86 217.786C229.421 218.176 234.661 220.54 238.638 224.455ZM209.63 273.787C209.786 272.335 209.743 270.868 209.501 269.427C209.157 270.854 209.196 272.347 209.614 273.755L209.63 273.787ZM210.016 265.713C210.129 262.257 210.016 257.381 210.129 253.796C210.258 249.565 209.63 245.334 210.645 242.008C210.597 244.105 210.683 246.203 210.903 248.29C211.032 239.699 210.258 231.367 211.032 223.68C210.645 223.809 210.645 223.422 210.129 223.551V223.939C209.501 230.608 210.387 237.018 209.888 243.413C209.243 252.262 210.129 260.982 209.372 269.04C210.113 268.055 209.742 266.973 210 265.681L210.016 265.713ZM209.759 275.192C209.759 274.691 210.016 273.577 209.372 273.916C209.742 274.401 208.969 275.03 209.742 275.16L209.759 275.192ZM210.016 269.04V272.382C210.389 271.287 210.384 270.099 210 269.007L210.016 269.04ZM233.029 234.322C232.657 232.344 231.966 230.441 230.983 228.686C229.884 226.929 228.324 225.508 226.474 224.58C224.623 223.651 222.554 223.251 220.492 223.422C220.234 223.551 220.121 223.809 219.992 223.939C220.234 238.165 219.863 252.133 219.734 265.584C227.228 260.82 234.931 248.128 233.013 234.289L233.029 234.322ZM233.545 245.464C233.287 245.98 232.772 247.078 233.029 247.644C233.142 247.062 233.916 245.69 233.529 245.448L233.545 245.464ZM234.174 233.159C233.932 233.159 233.803 233.159 233.674 233.03C233.029 234.645 234.061 236.631 233.932 238.423C233.803 240.474 233.029 242.654 233.545 244.882C234.73 241.077 234.941 237.035 234.157 233.127L234.174 233.159Z" fill="white"/>
<path d="M259.362 220.321C259.862 221.726 259.749 223.389 260.12 223.777C261.409 224.681 261.409 228.621 261.538 230.704C262.167 240.571 260.378 257.478 261.022 267.845C261.151 270.541 261.667 272.98 261.538 275.789C261.409 277.194 260.249 276.694 260.765 277.84C261.667 280.537 259.234 279.116 259.491 281.296C258.46 281.683 254.882 283.476 253.867 281.683C252.256 281.425 251.933 278.744 251.563 277.453C251.099 275.266 250.883 273.034 250.918 270.8C250.66 267.457 250.66 256.703 250.789 253.489C251.176 243.623 251.434 233.886 251.047 226.328C251.049 225.424 250.868 224.53 250.516 223.697C250.165 222.865 249.649 222.112 249 221.484C248.227 220.967 248.098 220.338 248.871 219.692C250.292 218.66 251.902 217.919 253.609 217.512C256.027 216.979 258.331 217.495 259.362 220.321ZM259.749 289.257C259.749 290.419 261.361 290.161 261.538 291.307C261.667 292.083 262.295 292.728 262.167 294.004C261.909 294.908 262.167 295.797 261.909 296.442C261.649 297.542 261.31 298.622 260.893 299.672C259.491 301.981 257.944 301.464 254.882 302.11C253.094 301.981 253.867 299.93 252.836 299.284C252.062 297.363 250.144 295.829 250.144 293.649C250.273 289.903 255.011 286.576 259.749 289.257ZM260.507 246.852C260.249 246.852 260.249 246.723 260.12 246.723C259.105 247.87 259.362 250.954 259.991 252.359C260.303 250.539 260.475 248.698 260.507 246.852ZM260.12 230.834C260.765 230.575 260.12 227.233 259.862 225.569C259.62 226.861 259.234 229.8 260.12 230.914V230.834ZM260.249 245.173C260.44 244.845 260.541 244.471 260.541 244.091C260.541 243.711 260.44 243.338 260.249 243.009C259.991 241.588 261.28 233.32 260.12 232.368C259.862 234.031 259.62 243.51 260.249 245.173Z" fill="white"/>
</g>
<defs>
<clipPath id="clip0_41_15956">
<rect width="326" height="304" fill="white"/>
</clipPath>
</defs>
</svg>
