<?xml version="1.0" encoding="UTF-8"?><svg xmlns="http://www.w3.org/2000/svg" xmlns:xlink="http://www.w3.org/1999/xlink" viewBox="0 0 504.32 283.28"><defs><style>.k{fill:url(#e);}.l{fill:url(#d);}.m{fill:url(#g);}.n{fill:url(#f);}.o{fill:url(#i);}.p{fill:url(#j);}.q{fill:#8c4d2f;}.r{fill:#171612;}.s{fill:#965d42;}.t{fill:#483639;}.u{fill:#5f3220;}.v{fill:#7c412a;}</style><linearGradient id="d" x1="38.32" y1="153.86" x2="512.81" y2="153.86" gradientTransform="translate(11.3 -19.49) rotate(4.39)" gradientUnits="userSpaceOnUse"><stop offset=".06" stop-color="#8c4d2f"/><stop offset="1" stop-color="#80462f"/></linearGradient><linearGradient id="e" x1="61.42" y1="126.91" x2="285.88" y2="126.91" gradientTransform="translate(11.3 -19.49) rotate(4.39)" gradientUnits="userSpaceOnUse"><stop offset="0" stop-color="#7f442d"/><stop offset="1" stop-color="#8c4d2f"/></linearGradient><linearGradient id="f" x1="304.8" y1="103.27" x2="457.31" y2="103.27" gradientTransform="translate(11.3 -19.49) rotate(4.39)" gradientUnits="userSpaceOnUse"><stop offset=".22" stop-color="#8c4d2f"/><stop offset="1" stop-color="#7f442d"/></linearGradient><linearGradient id="g" x1="330.42" y1="97.11" x2="453.69" y2="97.11" gradientTransform="translate(11.3 -19.49) rotate(4.39)" gradientUnits="userSpaceOnUse"><stop offset="0" stop-color="#7f442d"/><stop offset=".78" stop-color="#8c4d2f"/></linearGradient><linearGradient id="i" x1="64.57" y1="211.88" x2="223.88" y2="211.88" gradientTransform="translate(11.3 -19.49) rotate(4.39)" gradientUnits="userSpaceOnUse"><stop offset=".06" stop-color="#8c4d2f"/><stop offset="1" stop-color="#7f442d"/></linearGradient><linearGradient id="j" x1="289.71" y1="215.37" x2="490.91" y2="215.37" xlink:href="#i"/></defs><g id="a"/><g id="b"><g id="c"><path class="v" d="M51.01,189.12c-.94-14.36-4.66-28.48-5.5-42.85-.58,1.64-.96,3.07-1.11,4.26-2.5,19.24-39.24,57.94-39.24,57.94,0,0-13.75,18.27,3.69,17.56,6.49-.26,29.41-3.71,33.21-3.35,6.43-10.2,9.57-20.84,8.96-33.55Z"/><path class="l" d="M467.97,184.2c-31.22-46.38-13.5-71.77-25.01-95.15-11.5-23.39-28.44-44.98-50.07-51.03-55.17-15.43-136.78,16.32-241.34,22.52-42.72,2.53-97.23,60.91-106.04,85.72,.84,14.37-12.93,34.18-11.99,48.54,.61,12.71,8.62,16.93,9.16,29.69,6.42,.6,9.56,3.69,11.28,14.74,2.74,17.6,96.93,29.95,146.45,37.84,39.62,6.32,18.39-13.65,21.99-15.6,.9-.49-.34-8.61,4.99-6.16,26.68,12.28,67.97-37.03,121.64-24.78,49.03,11.2,138.29,34.59,150.65,33.49s-.47-33.44-31.7-79.83Z"/><path class="k" d="M59.58,154.06s21.55-53.11,57.44-62.09,133.28-23.34,149.14-24.34c46.96-2.96,11.25,25.85,15.04,33.43,14.28,28.55-115.53,42.85-154.29,66.28-38.76,23.43-67.32-13.27-67.32-13.27Z"/><path class="n" d="M334.99,42.4s-7.69,21.65-10.91,27.43-23.7,31.08-13.11,31.9c10.6,.81,2.52,15.49,8.54,21.51s1.45,11.23-3.22,17.83-.49,30.55,9.68,30.87c10.17,.32,33.67-3.9,32.82,7.15s29.35,8.17,37.69,3.07,17.59-10.88,24.64-6.17,21.72,6.77,23.71-.96,11.09-11.66,11.09-11.66c0,0-5.74-19.55-7.94-35.37-2.21-15.82-49.59-84.44-49.59-84.44l-24.06-6.48-39.34,5.32Z"/><path class="m" d="M452.98,154.5c-11.94-.92-15.51,11.44-25.61,8.95s-20.81,2.98-29.47-3.41-4.33,11.68-24.01,7.31c-19.68-4.37-44.08,.62-39.71-19.06,4.37-19.68,.56-29.69-1.71-29.87s10.6-56.64,31.28-72.78,82.02,66.53,82.02,66.53l3.31,22.76,3.9,19.56Z"/><g id="h"><path class="u" d="M495.4,98.43c1.87,1.47,3.89,.94,5.96-.12,2.22-6.48-.94-7.25-8.01-9.32-1.65,4.16-.63,6.3,2.06,9.44Z"/><path class="s" d="M501.36,98.31c-2.06,1.06-4.09,1.58-5.96,.12-2.69-3.13-3.7-5.28-2.06-9.44l-.07-.02c-8.28-2.42-44.56-38.45-44.56-38.45,0,0-29.94,10.45-45.85,14.58-15.91,4.13,25.25,40.87,58.43,55.17,15.07,6.5,33.49-1.96,33.59-3.28s-.22-3.99,4.97-15.03c.65-1.39,1.14-2.59,1.51-3.64Z"/><path class="s" d="M449.41,45.15s0-.06,0-.09c.65-2.62,2.76-24.3-10.36-27.53-9.68-2.39-14.46,10.17-16.06,15.53,.43,.51,1.21,.94,1.79,1.29,7.91,3.68,15.79,7.58,24.64,10.8Z"/><path class="q" d="M433.3,92.39c-11.08-18.23,42.05-7.91,38.36-29.58-1.5-8.84-22.43-14.99-22.25-17.66-3.77-1.38-6.02-6.14-9.48-8.24-4.65-2.83-4.23-4.76-11.2-4.88-.58-.35-5.1,.83-5.53,.31-.57,1.91-.55,1.31-.55,1.31,0,0,.54-12.88-13.77-29.58-14.31-16.69-31.52,21.64-46.91,48.09-15.4,26.45-22.73,66.53,2.72,80.23,33.81,18.19,94.55-5.74,107.29-9.21,12.74-3.48-27.61-12.56-38.68-30.78Z"/><path class="u" d="M391.11,32.56c2.4-15.23,7.12-23.07,11.04-21.88s9.44,22.11,5.8,23.17-18.57,9.71-16.83-1.29Z"/><path class="u" d="M440.57,75.09c.42-5.52,6.13-7.47,9.27-6.96s4.09,5.34-1.8,6.21-7.47,.75-7.47,.75Z"/></g><path class="o" d="M226.27,265.56s-6.18-15.74-28.77-22.89c-22.59-7.15-33.14-14.03-18.56-25.76,20.89-16.81,21.23-45.62,4.21-67.6-17.02-21.99-44-25.35-57.67-26.89s-40.78,5.24-55.76,14.43-39.41,83.35-27.05,87.64c12.36,4.29,12.05,10.03,11.28,14.74-7.58,46.77,120.25,47.58,161.08,41.22,16.94-2.64,11.24-14.89,11.24-14.89Z"/><path class="r" d="M197.48,272.07c3.52-.45,7.63-.6,10.31,2.14,.86,.8,1.86,1.78,1.93,3.02-.22-.56-.62-.97-1.05-1.35-1.28-1.07-2.79-2.11-4.33-2.64-2.11-.7-4.53-.59-6.86-1.16h0Z"/><path class="r" d="M203.7,266.8c4.97-.6,10.23,.82,12.7,5.53,.26,.46,.48,.87,.84,1.27,.11,.07,.18,.6,.1,.51,.25,.12,.21,.09-.04,.05-.02-.38-.32-.49-.62-.76-1.16-1.25-2.13-2.59-3.58-3.52-2.67-2.18-6.01-2.38-9.4-3.09h0Z"/><path class="r" d="M214.49,262.76c2.22-.38,4.36,1.15,5.69,2.83,.58,.69,1.35,1.39,1.69,2.29l.32,.64c.19,.44,.37,.95,.28,1.43-.64-1.51-1.93-2.56-3.06-3.76-1.35-1.54-2.86-2.91-4.93-3.44h0Z"/><path class="q" d="M466.34,105.76c3.85-.2,7.32,1.55,10.8,2.91,3.36,1.58,6.51,3.48,10.34,3.63,1.2,.06,2.54,.41,3.68,.72l1.85,.25c.31,.06,.61,.18,.88,.1,.28-.05,.48-.39,.8-.43-.31,.1-.42,.43-.75,.58-.33,.14-.67,.04-.97,.02l-1.88-.03c-1.3-.23-2.36-.47-3.68-.44-2.52-.02-5.09-.68-7.36-1.84-2.16-1.28-4.41-2.15-6.7-3.22-2.23-1.21-4.52-1.9-7.02-2.25h0Z"/><path class="p" d="M480,272.25c2.42-5.13,2.71-6.06-3-13.95-14.61-20.21-23.33-63.79-80.52-76.15-65.11-14.07-84.83-14.61-103.73,9.03s-6.01,38.07,37.67,46.22c43.68,8.16,38.5,19.61,81.77,34.45,16.73,5.74,61.87,13.39,66.97,2.58l.84-2.18Z"/><path class="t" d="M453.87,267.52c2.48-.41,4.82,.3,6.57,2.09,1.86,1.2,3.24,3.62,4.34,5.54-.82-.86-1.75-1.55-2.48-2.48-.98-1.38-2.58-2.26-3.76-3.42-1.3-1.03-3.06-1.36-4.66-1.73h0Z"/><path class="t" d="M461.74,263.69c2.76-.54,5.51,1.19,6.66,3.68l-.25-.21,.26,.1,.12,.05c.54,.64,.99,1.39,1.11,2.22-.46-.65-1.01-1.17-1.59-1.65l.16,.09c-.08-.02-.31-.06-.39-.08l-.14-.19c-1.42-2-3.37-3.37-5.95-4h0Z"/><path class="t" d="M470.45,259.13c2.64-.34,5.15,1.29,6.66,3.34,.68,.74,1.31,1.76,1.42,2.78,.07,.51,.15,1.06-.05,1.55-.02-.51-.23-.96-.42-1.41-.38-.96-.93-1.58-1.66-2.29-1.6-1.91-3.51-3.32-5.95-3.97h0Z"/><path class="t" d="M487.56,253.92c3.86-.48,7.09,2.93,8.13,6.37-.26-.38-.59-.67-.91-1-.49-.59-1.24-1.43-1.8-1.98-1.43-1.66-3.33-2.72-5.42-3.4h0Z"/><path class="t" d="M493.77,251.26c.96-.25,1.94,.24,2.76,.49,.91,.24,1.86,.8,2.52,1.47,1.43,1.3,2.04,3.11,3.36,4.44-.48-.08-.88-.42-1.24-.73-1.68-1.54-2.8-3.54-4.95-4.47-.87-.43-1.53-1.03-2.46-1.21h0Z"/></g></g></svg>