<?xml version="1.0" encoding="utf-8"?>
<!-- Generator: Adobe Illustrator 26.1.0, SVG Export Plug-In . SVG Version: 6.00 Build 0)  -->
<svg version="1.1" id="Layer_1" xmlns="http://www.w3.org/2000/svg" xmlns:xlink="http://www.w3.org/1999/xlink" x="0px" y="0px"
	 viewBox="0 0 384.5 348.2" style="enable-background:new 0 0 384.5 348.2;" xml:space="preserve">
<style type="text/css">
	.st0{fill:#9A7B47;}
	.st1{fill:#8D7040;}
	.st2{fill:#282725;}
	.st3{fill:#937642;}
	.st4{fill:#F3E6BC;}
	.st5{fill:#772F0A;}
	.st6{fill:#75391F;}
	.st7{fill:#95794B;}
	.st8{fill:#564541;}
	.st9{fill:#B69D70;stroke:#544843;stroke-width:0.9469;stroke-miterlimit:10;}
</style>
<g id="Layer_2_00000039846988346716856960000011958833414000996007_">
	<g id="Layer_1-2">
		<path class="st0" d="M48.7,47.8c0,0,8.5-10.8,17.6-11.7c5.2-0.5,10.4,0.1,15.2,1.9C81.5,38.1,69.8,54.3,48.7,47.8z"/>
		<path class="st1" d="M290.6,225.4c10.4,19.8,14,54-12.4,83.4l0,0c2.8-4.4,5.6-9,8.4-13.7c15.5-26.6,6-39.7,6-39.7
			c2.6-29.7-43.8-55.8-43.8-55.8S280.2,205.6,290.6,225.4z"/>
		<path class="st1" d="M142.4,309.2c3.9-15.6,2.5-22.4,1.6-35.4c0.8,2.6,1.9,4,3.3,3.7c8.3-1.9,14.5-40.9,11.8-46.5
			s5.5-27.3,5.5-27.3s-9.5-6.3-6.8-14.4s11.6,6.3,8.8,0.8c-2.8-5.6-7.7-14.2,16.6-6.8c24.3,7.4,37.4-8.1,54.7,0
			c17.3,8.1,10.8,16.4,10.8,16.4c-10.7,3.5-70.9,0-70.9,0c5.2,0.8,0.4,27.7-9,49.3c-9.4,21.6-10.7,72.8-10.9,78.3s-6,6.2-7.6,6.5
			c-0.3,0.1-0.5,0.3-0.7,0.5c-4.9-2.4-9.7-5-14.6-7.5C137.9,321.1,140.4,315.2,142.4,309.2z"/>
		<path class="st2" d="M135.1,326.8c4.9,2.5,9.7,5,14.6,7.5c-1.9,2-5.7,9.7-5.7,9.7c-8.2,3.4-19.6-2.8-19.6-2.8
			C128.4,338.5,132.1,332.7,135.1,326.8z"/>
		<path class="st2" d="M330.1,340.1c-0.6,1.7-1.3,3.4-2.2,5.1c-3.9,3.3-20-2.7-20-2.7s1.7-4.3,3.7-7.8c1.6-2.8,0.6-5.4,1.1-7.8
			c6.6,2.5,12.4,7.4,17.8,11.5C330.3,339.1,330.2,339.6,330.1,340.1z"/>
		<path class="st1" d="M265.1,328.3L265.1,328.3c0,0,5.4,6.7,11.6,0c6.2-6.7,26.3-58.8,30.4-58.8s7.8-5.1,8.5-7.3
			s-0.5-11.6,2.7-11.8c3.2-0.2,17.2-5.8,18.7,2.1s2.6,24.7,0,25.6c-2.6,0.9,5-1.6,6.2,8.3c1.2,9.8-8.6,28.6-6.3,32.7
			c0.6,1.1,1.4,2,2.5,2.6c-0.7,4.3-1.1,7-1.1,7.3c0,1.6-4.6,1.5-4.6,1.5c-2.2,1.7-2.9,5.3-3.4,7.7c-5.4-4.1-11.2-9-17.8-11.5
			c0.1-0.7,0.3-1.3,0.7-1.9c1.5-2.4,3.3-4.6,5.4-6.6c16.5-35.5,9.1-68.7,7.4-66.5s-26.1,56.4-27.4,55.8s-14.4,28.5-16.1,31
			c-1.8,2.6-3.3,0-5.4,0s-4.2,2.9-4.2,2.9v0.2c-3.5-3.1-7.3-6-11.2-8.8C262.8,331.5,263.9,329.9,265.1,328.3z"/>
		<path class="st3" d="M370.6,133c0,0,9,38.8,13.4,42.8c4.4,3.9-20.3,7.2-26.2-3C352,162.5,370.6,133,370.6,133z"/>
		<path class="st2" d="M261.8,332.9c3.9,2.8,7.7,5.7,11.2,8.8c0,0.8-0.1,4.1,0,6c0.1,2.2-19.8-3.3-19.8-3.3S256.6,340,261.8,332.9z"
			/>
		<path class="st4" d="M76.8,134.3c11.8,6.2,50.5,29.2,56,44.7c2.2,6.5,4,13.1,5.3,19.8c-11.9-6.8-28.5-24.6-28.5-24.6
			c-44.2-29.6-70-73.8-70-73.8c-15.8,8.5-22.7,5-29.5,0.8c0,0,30.7-12.1,36.9-13.9C53.2,85.3,65,128.1,76.8,134.3z"/>
		<path class="st4" d="M320.4,202.8c0-25.2,23.6-74.8,28.9-69.4c4,4,8.3,29.7,11.5,38.1c-3.9-2.5-10.5-8.1-11.8-7.9
			c-1.9,0.2-18.7,23.8-20.3,27.3c-1.6,3.5,10.6,22.2,13.2,28.4c0.8,1.8,2.4,5.2,4.4,9.1C332.1,223.3,320.4,220.7,320.4,202.8z"/>
		<polygon class="st4" points="142,220.4 142,220.4 142,220.4 		"/>
		<path class="st5" d="M363.6,172.4c-0.8,2.7-1.7,1.8-2.8-1C362.5,172.5,363.6,173.1,363.6,172.4z"/>
		<path class="st5" d="M278.2,308.9c-4.6,7.3-9.2,13.9-13.1,19.4L278.2,308.9z"/>
		<path class="st5" d="M142,220.4c0,0-1.4-10.2-3.9-21.7c0.6,0.3,1.2,0.7,1.8,1C140,199.7,141.1,208.4,142,220.4z"/>
		<path class="st5" d="M142,220.4c0.9,10.8,1.7,24.2,1.5,36.6c-0.1,6.9,0.2,12.3,0.5,16.9"/>
		<path class="st6" d="M325,163.7c5.9-4.7,4.5-13.3,10.4-18.6c-5.2,25.3-20,49.9-15.6,76.4c1.8,9.1,7,17.8,7.3,27.1
			c-0.5,0.1-1,0.2-1.5,0.3c-1-13.5-9.9-25.5-14.7-38C304.3,194.9,311.7,176.3,325,163.7z"/>
		<path class="st3" d="M66.4,71.4c8.4-7.2,6.8-19.6,6.2-26.4c2.8,0.6,6.3,3.1,8.7,4.2c12.3,5.5,26.7,51.6,27.8,54.6
			c0.2,0.5,1.2,1,2.8,1.3c-1.3,0.9-1.9,1.9-1.9,2.7c0,11.7,18.2,22,26.6,20.7s23.1-3.1,42.7,9.1s90.7,0,87.2-7.5s9.1-6.3,20-2.2
			s16.5-11,21.4-11s2.5,11,4.5,15c2.1,4,12.6-5.2,26.3,1c7.3,3.4,20.9,2,31.9-0.1c1.4,16.1-6.7,38.1-6.8,39.5
			c0,0-20.7,36.3-21.2,41.5l-16.3,37.8c-3.1,0.6-6.5-1.5-7.7-1.4c-3.2,0.2-2,9.6-2.7,11.8c-0.7,2.2-4.4,7.3-8.5,7.3
			s-24.2,52.1-30.4,58.8c-6.3,6.7-11.6,0-11.6,0l0,0c3.9-5.5,8.5-12.2,13.1-19.4l0,0c26.4-29.5,22.8-63.6,12.4-83.4
			s-41.8-25.7-41.8-25.7s-1.1-5.9-13.1-14c-15.5-10.5-28.1,5-52.3-2.4s-19.3,1.2-16.6,6.8s10.9,18.8,12,27.2
			c0.4,3.3-10.4-13.1-10.4-13.1s-12,21.3-9.2,26.9s-3.5,44.7-11.8,46.5c-1.4,0.3-2.5-1.1-3.3-3.7c-0.3-4.6,0.4-10.1-0.5-16.9
			c-1.5-12.4-0.7-25.8-1.5-36.6l0,0c-1.2-9.5-3.4-19.2-3.4-19.2c-0.6-0.3,0.1-2.1-0.5-2.5c-1.4-6.7-3.1-13.3-5.3-19.8
			c-5.5-15.5-44.3-38.5-56-44.7S53.3,85.3,47,87.1c-3.3,1-13.5,4.9-22.4,8.3l0,0C28.4,93.9,52.7,83.1,66.4,71.4z"/>
		<path class="st7" d="M338.6,133c-13.7-6.3-24.2,3-26.3-1c-2.1-4,0.4-15-4.5-15s-10.5,15.1-21.4,11s-23.5-5.4-20,2.2
			c3.5,7.6-67.6,19.8-87.2,7.5s-34.3-10.4-42.7-9.1s-26.6-9.1-26.6-20.7c0-0.9,0.7-1.8,1.9-2.7c7.2,1.7,26.4,1.2,31.9-3.3
			c6.7-5.5,148.9-3.5,155.6-3.5s48.7,9.5,64.3,20.1c4.4,2.9,6.3,8.3,6.8,14.6C359.5,134.9,345.9,136.3,338.6,133z"/>
		<path class="st3" d="M6.2,84.3C8.3,84,35.7,69,35.7,69s2.8-3.7,3.6-3.8c0.7-0.1,2.3-5,2.3-5s4.9-0.5,6-0.5S47,52.9,46,51.3
			c-0.8-1.2,2-4.1,3.5-5.4c6.1-2.8,14.8-2.7,23.1-0.9c0.7,6.8,3.4,35.2-7.5,38.8c-16.5,5.5-36.7,10.1-40.4,11.6l0,0
			c-7.8,3-14.6,5.7-14.6,5.7c-2.8-1.8-7.9-1.7-9.1-4.8c-2-5.3-0.8-9.5,2.1-11.8C4.2,84.5,5.2,84.5,6.2,84.3z"/>
		<path class="st0" d="M43.5,50.7c1.5-2.1,3.5-3.8,6-4.8C48,47.2,45.2,50,46,51.3c1,1.6,2.8,8.3,1.6,8.3s-6,0.5-6,0.5
			s-1.6,4.9-2.3,5c-0.7,0.1-3.6,3.8-3.6,3.8S8.3,84,6.2,84.3c-1,0.2-2.1,0.2-3.1,0.2c0.7-0.5,1.5-1,2.4-1.3
			C10.2,81.7,37.3,59.7,43.5,50.7z"/>
		<path class="st3" d="M343.5,192.1c1.7,16.4-4.9,20.5,2.9,36.2c4.8,9.4,11.5,21.6,11.5,21.6c-8.6,20.4-15.7,56.3-18.4,71.7
			c-1.1-0.7-1.9-1.6-2.5-2.6c-2.2-4.1,1.2-24.9,0-34.7l0.1-31.8c-0.9-4.4-5.5-4.6-10-4c-0.4-9.3-5.5-17.9-7.3-27.1"/>
		<path class="st4" d="M321.9,240.4c0,0-16.1-17.2-14.2-29.3c2-12.3,44.8-69,44.6-70.9c-0.2-1.9,8,1,8.4,4.8s4.8,31.2,7.5,31.7
			L356.8,163c0,0-21.1,28.3-22.2,29.7c-1.1,1.4-4,7.6-2.3,10.8s19.9,40.1,25.6,46.4c0,0-24.2-32.5-25.7-42.1c0,0-4.9-10.1-2.8-12
			c2.1-1.9,21.9-34.2,23.5-35.4c1.5-1.2-37.1,39.2-37.1,39.2s-6.2,12.3-5.4,17.9C311.2,223.9,321.9,240.4,321.9,240.4z"/>
		<path class="st8" d="M37.5,71.3c1.1-1.4,2.8-3.6,4.2-3.5c1.4,0.1,7.4,2.9,9.7-1.5s3.5-4.3-0.4-5c-3.9-0.6-8.8-1-9.2,1
			c-0.5,1.9-1.4,3.6-2.7,5.1C38.5,67.9,37.5,71.3,37.5,71.3z"/>
		<path class="st9" d="M49.1,64.7c0,0-1.8-1.8-3.6-1s-3.4,1.9-1.6,2.7S49.4,67.1,49.1,64.7z"/>
		<path class="st6" d="M15.1,103.8c0,0,8.8-3.3,10-3.9c1.2-0.6-8.4,4.6-9.5,4.1L15.1,103.8z"/>
		<path class="st3" d="M72.5,49.7c0,0,8.5-10.8,17.6-11.7c5.2-0.6,10.4,0.1,15.2,1.9C105.3,39.9,93.5,56.2,72.5,49.7z"/>
		<path class="st4" d="M80.7,50c0,0,8.8-2.2,8.4-4.2c-0.2-1.2-2.9-2.6-5.5,0C81,48.4,80.7,50,80.7,50z"/>
	</g>
</g>
<path class="st4" d="M161.4,119.4c-5.9-0.8-2.3,8.6,4.5,6.6C172.8,123.9,168.8,120.4,161.4,119.4z"/>
<path class="st4" d="M223.1,100.2c-5.7,1.8,2.5,8.6,7.5,3.9C235.5,99.5,230.1,98,223.1,100.2z"/>
<path class="st4" d="M242.1,120.7c-7.7,2.5,2.9,10.8,9.8,4.7C258.7,119.2,251.6,117.6,242.1,120.7z"/>
<path class="st4" d="M285.4,126.8c-7.7,2.5,2.9,10.8,9.8,4.7C301.9,125.4,294.8,123.7,285.4,126.8z"/>
<path class="st4" d="M326.9,117c-7.7,2.5,2.9,10.8,9.8,4.7C343.5,115.5,336.4,113.9,326.9,117z"/>
<path class="st4" d="M300.5,104.6c-7.7,2.5,2.9,10.8,9.8,4.7C317.1,103.2,310,101.5,300.5,104.6z"/>
<path class="st4" d="M176.9,99.8c-4.4,1,3.1,11.5,11.5,5.6C196.8,99.6,189.7,96.8,176.9,99.8z"/>
<path class="st4" d="M269.8,102.1c-8.6,2-1.3,12.6,7.6,7.4S282.6,99.2,269.8,102.1z"/>
<path class="st4" d="M185.6,123.9c-8.7-1.7-7.5,10.7,3.1,9.7S198.4,126.5,185.6,123.9z"/>
<path class="st4" d="M201.5,112.7c-2,0.8-6.8,4.6-0.7,4.7s10.8-2.5,8.6-4.3C207.4,111.6,205.4,111.2,201.5,112.7z"/>
<path class="st4" d="M156.1,103.3c-2.1-0.4-8.5,0.4-3.6,3.5s10.4,3.4,9.8,0.8C161.6,105.3,160.1,104.1,156.1,103.3z"/>
<path class="st4" d="M223.7,135.1c2-0.7,6.8-4.5,0.8-4.7c-6-0.3-10.8,2.3-8.7,4.1C217.9,136.1,219.9,136.5,223.7,135.1z"/>
<path class="st4" d="M139.2,115.5c1.8-1,5.8-5.5-0.1-4.8c-6,0.7-10.2,4-7.7,5.4C133.7,117.5,135.7,117.5,139.2,115.5z"/>
<path class="st4" d="M251.5,109.5c1.8-1,5.8-5.5-0.1-4.8c-6,0.7-10.2,4-7.7,5.4C245.9,111.4,248,111.5,251.5,109.5z"/>
</svg>
