<svg xmlns="http://www.w3.org/2000/svg" viewBox="0 0 384.55 348.22"><defs><style>.cls-1{fill:#9a7b47;}.cls-2{fill:#8d7040;}.cls-3{fill:#282725;}.cls-4{fill:#937642;}.cls-5{fill:#f3e6bc;}.cls-6{fill:#772f0a;}.cls-7{fill:#75391f;}.cls-8{fill:#95794b;}.cls-9{fill:#564541;}.cls-10{fill:#b69d70;stroke:#544843;stroke-miterlimit:10;}</style></defs><g id="Layer_2" data-name="Layer 2"><g id="Layer_1-2" data-name="Layer 1"><path class="cls-1" d="M48.73,13.13s8.49-12,17.56-13A30.23,30.23,0,0,1,81.5,2.29S69.76,20.42,48.73,13.13Z"/><path class="cls-2" d="M290.57,211.27c10.38,22.14,14,60.18-12.38,93h0c2.79-4.87,5.61-10,8.36-15.26,15.47-29.64,6-44.25,6-44.25,2.58-33.08-43.82-62.25-43.82-62.25S280.19,189.14,290.57,211.27Z"/><path class="cls-2" d="M142.39,304.72c3.87-17.42,2.51-25,1.65-39.48.82,2.9,1.91,4.5,3.31,4.15,8.31-2.08,14.53-45.66,11.77-51.89s5.53-30.44,5.53-30.44S155.12,180,157.89,171s11.6,7.08,8.84.85S159,156,183.29,164.27s37.4-9,54.7,0,10.75,18.29,10.75,18.29c-10.74,3.92-70.89,0-70.89,0,5.16.91.43,30.89-9,54.95s-10.74,81.2-10.91,87.37-6,6.86-7.55,7.2a1.57,1.57,0,0,0-.68.55c-4.93-2.72-9.71-5.59-14.62-8.33A171.67,171.67,0,0,0,142.39,304.72Z"/><path class="cls-3" d="M135.07,324.3c4.91,2.74,9.69,5.61,14.62,8.33C147.75,334.9,144,343.4,144,343.4c-8.23,3.77-19.55-3.09-19.55-3.09C128.35,337.41,132.05,330.94,135.07,324.3Z"/><path class="cls-3" d="M330.08,339.17a37.34,37.34,0,0,1-2.16,5.65c-3.92,3.7-20-3-20-3s1.74-4.79,3.7-8.71c1.56-3.11.64-6,1.07-8.74,6.57,2.76,12.35,8.21,17.77,12.83C330.31,338,330.2,338.66,330.08,339.17Z"/><path class="cls-2" d="M265.09,326v0s5.42,7.49,11.65,0S303,260.4,307.17,260.4s7.79-5.68,8.54-8.17-.5-12.91,2.73-13.16,17.19-6.45,18.74,2.38,2.6,27.52,0,28.56,5-1.73,6.18,9.21-8.59,31.89-6.34,36.48a7.23,7.23,0,0,0,2.5,2.95c-.74,4.78-1.15,7.79-1.15,8.19,0,1.8-4.57,1.7-4.57,1.7-2.22,1.89-2.91,5.88-3.36,8.62-5.42-4.62-11.2-10.07-17.77-12.83a7.26,7.26,0,0,1,.67-2.14,38.4,38.4,0,0,1,5.44-7.39c16.53-39.6,9.14-76.59,7.39-74.2s-26.11,62.88-27.41,62.23-14.36,31.77-16.13,34.62-3.26,0-5.43,0-4.22,3.26-4.22,3.26v.23c-3.54-3.46-7.32-6.68-11.2-9.8C262.82,329.54,263.92,327.83,265.09,326Z"/><path class="cls-4" d="M370.63,108.16s9,43.33,13.4,47.7-20.26,8.06-26.16-3.35S370.63,108.16,370.63,108.16Z"/><path class="cls-3" d="M261.78,331.14c3.88,3.12,7.66,6.34,11.2,9.8,0,.93-.12,4.58,0,6.7.14,2.45-19.84-3.67-19.84-3.67S256.6,339.1,261.78,331.14Z"/><path class="cls-5" d="M76.79,109.57c11.76,6.92,50.5,32.52,56,49.82a199.93,199.93,0,0,1,5.31,22.08C126.25,173.88,109.61,154,109.61,154c-44.22-33-70-82.28-70-82.28-15.83,9.5-22.71,5.56-29.53.86,0,0,30.7-13.46,36.93-15.54S65,102.65,76.79,109.57Z"/><path class="cls-5" d="M320.43,186c0-28.14,23.56-83.41,28.87-77.38,4,4.51,8.34,33.18,11.55,42.45-3.85-2.83-10.46-9-11.76-8.84-1.85.23-18.72,26.57-20.34,30.5s10.63,24.72,13.17,31.66c.75,2,2.43,5.82,4.43,10.16C332.08,208.93,320.43,205.94,320.43,186Z"/><polygon class="cls-5" points="142.03 205.62 142.03 205.62 142.03 205.62 142.03 205.62"/><path class="cls-6" d="M363.64,152.16c-.76,3-1.71,2-2.79-1.09C362.45,152.24,363.58,152.84,363.64,152.16Z"/><path class="cls-6" d="M278.19,304.32c-4.65,8.11-9.19,15.52-13.1,21.67Z"/><path class="cls-6" d="M142,205.62s-1.45-11.4-3.89-24.15c.62.39,1.24.77,1.83,1.09C140,182.56,141.05,192.22,142,205.62Z"/><path class="cls-6" d="M142,205.62c.87,12,1.67,27,1.53,40.77-.08,7.66.17,13.69.48,18.85"/><path class="cls-7" d="M325,142.36c5.93-5.19,4.45-14.83,10.38-20.76-5.19,28.17-20,55.61-15.57,85.26,1.79,10.16,6.95,19.83,7.34,30.18-.51.09-1,.18-1.51.29-1-15.1-9.85-28.39-14.73-42.33C304.26,177.21,311.68,156.45,325,142.36Z"/><path class="cls-4" d="M66.41,39.48c8.45-8,6.81-21.89,6.15-29.45,2.77.71,6.33,3.5,8.7,4.69,12.31,6.15,26.67,57.51,27.79,60.87.2.59,1.21,1.09,2.76,1.49-1.26,1-1.94,2.07-1.94,3,0,13,18.21,24.52,26.62,23.12s23.11-3.5,42.73,10.16,90.71,0,87.21-8.41,9.1-7,20-2.45,16.46-12.26,21.37-12.26,2.45,12.26,4.55,16.71,12.61-5.85,26.27,1.15c7.32,3.76,20.88,2.18,31.89-.09,1.36,18-6.66,42.45-6.83,44.11,0,0-20.66,40.44-21.19,46.33L326.17,240.6c-3.12.66-6.48-1.62-7.73-1.53-3.23.25-2,10.68-2.73,13.16s-4.39,8.17-8.54,8.17S283,318.51,276.73,326s-11.65,0-11.65,0v0c3.91-6.15,8.45-13.56,13.1-21.67h0c26.36-32.87,22.76-70.91,12.38-93s-41.83-28.71-41.83-28.71S247.59,176,235.62,167c-15.54-11.74-28.07,5.55-52.33-2.71s-19.33,1.34-16.56,7.57,10.87,21,12,30.35c.43,3.7-10.36-14.64-10.36-14.64s-12,23.72-9.2,29.95-3.46,49.81-11.77,51.89c-1.4.35-2.49-1.25-3.31-4.15-.31-5.16.36-11.23-.48-18.85-1.53-13.8-.66-28.77-1.53-40.77h0c-1.18-10.64-3.37-21.4-3.37-21.4-.6-.33.1-2.36-.52-2.75a199.93,199.93,0,0,0-5.31-22.08c-5.54-17.3-44.28-42.9-56-49.82S53.26,54.92,47,57c-3.31,1.1-13.53,5.42-22.38,9.22h0C28.39,64.61,52.65,52.5,66.41,39.48Z"/><path class="cls-8" d="M338.58,108.14c-13.66-7-24.17,3.31-26.27-1.15s.35-16.71-4.55-16.71-10.51,16.81-21.37,12.26-23.46-6-20,2.45-67.6,22.07-87.21,8.41-34.33-11.56-42.73-10.16-26.62-10.16-26.62-23.12c0-1,.68-2,1.94-3,7.23,1.85,26.41,1.34,31.94-3.73,6.72-6.16,148.89-3.92,155.6-3.92s48.7,10.63,64.29,22.39c4.36,3.28,6.3,9.26,6.83,16.23C359.46,110.32,345.9,111.9,338.58,108.14Z"/><path class="cls-4" d="M6.24,53.88c2.1-.33,29.46-17.12,29.46-17.12s2.84-4.17,3.56-4.28,2.34-5.6,2.34-5.6,4.89-.61,6-.61S47,18.83,46,17c-.77-1.39,2.05-4.55,3.48-6,6.12-3.08,14.8-3.06,23.1-1,.66,7.56,3.4,39.22-7.51,43.28-16.47,6.14-36.66,11.3-40.39,12.9h0c-7.81,3.36-14.55,6.32-14.55,6.32-2.83-2-7.87-1.86-9.09-5.34C-1,61.28.21,56.54,3.11,54.05A13.3,13.3,0,0,0,6.24,53.88Z"/><path class="cls-1" d="M43.46,16.35a14.44,14.44,0,0,1,6-5.37C48,12.45,45.21,15.61,46,17c1,1.83,2.75,9.27,1.63,9.27s-6,.61-6,.61-1.63,5.5-2.34,5.6-3.56,4.28-3.56,4.28S8.34,53.55,6.24,53.88a13.3,13.3,0,0,1-3.13.17A7.7,7.7,0,0,1,5.5,52.64C10.23,50.9,37.3,26.43,43.46,16.35Z"/><path class="cls-4" d="M343.46,174.12c1.69,18.33-4.92,22.91,2.89,40.43,4.83,10.46,11.52,24.12,11.52,24.12-8.59,22.79-15.68,62.79-18.35,80a7.23,7.23,0,0,1-2.5-2.95c-2.25-4.59,1.24-27.79,0-38.73l.12-35.52c-.85-4.87-5.49-5.16-10-4.41-.39-10.35-5.55-20-7.34-30.18"/><path class="cls-5" d="M321.92,228s-16.14-19.23-14.2-32.69c2-13.7,44.82-77,44.63-79.11s8,1.15,8.43,5.36,4.81,34.78,7.49,35.35l-11.51-15.23s-21.07,31.6-22.22,33.13-4,8.43-2.3,12.07,19.88,44.71,25.63,51.79c0,0-24.16-36.25-25.69-47,0,0-4.92-11.32-2.81-13.43s21.92-38.13,23.45-39.47-37.12,43.77-37.12,43.77-6.22,13.73-5.41,19.95C311.2,209.56,321.92,228,321.92,228Z"/><path class="cls-9" d="M37.46,39.33c1.14-1.53,2.84-4,4.24-3.92s7.38,3.25,9.73-1.71,3.5-4.83-.38-5.53S42.21,27,41.83,29.31A13.49,13.49,0,0,1,39.09,35C38.5,35.58,37.46,39.33,37.46,39.33Z"/><path class="cls-10" d="M49.12,32s-1.78-2-3.56-1.15S42.13,33,44,33.91,49.44,34.61,49.12,32Z"/><path class="cls-7" d="M15.13,75.58s8.81-3.7,10-4.35-8.35,5.17-9.5,4.6Z"/><path class="cls-4" d="M72.49,15.25s8.49-12,17.56-13a30.23,30.23,0,0,1,15.21,2.12S93.52,22.54,72.49,15.25Z"/><path class="cls-5" d="M80.72,15.54s8.84-2.4,8.41-4.64c-.25-1.35-2.92-2.92-5.54,0S80.72,15.54,80.72,15.54Z"/></g></g></svg>