<?xml version="1.0" encoding="UTF-8"?><svg xmlns="http://www.w3.org/2000/svg" xmlns:xlink="http://www.w3.org/1999/xlink" viewBox="0 0 381.73 281.63"><defs><style>.e{fill:url(#d);}</style><linearGradient id="d" x1="0" y1="140.82" x2="381.73" y2="140.82" gradientTransform="matrix(1, 0, 0, 1, 0, 0)" gradientUnits="userSpaceOnUse"><stop offset="0" stop-color="#53808c"/><stop offset="1" stop-color="#648d97"/></linearGradient></defs><g id="a"/><g id="b"><g id="c"><path class="e" d="M380.56,125.3c-3.93-1.4-8.98-2.53-8.98-2.53,0,0,10.66-4.21,5.61-7.3-1.06-.65-3-.91-5.48-1.07-9.3-.61-26.27,.23-33.8-12.39-2.5-4.19-8.53-11.1-16.33-19.2,0-.15,0-.3,0-.45,0-4.6-3.73-8.33-8.33-8.33-.11,0-.22,.01-.33,.02-.94-.93-1.89-1.87-2.85-2.81-21.4-20.97-48.27-44.72-57.37-50.94,0,0-.33-.36-1.02-.95-1.76-1.51-5.96-4.59-13.64-7.5-9.72-3.67-25-7.04-47.96-6.51-48.21,1.11-60.96,13.24-77.03,7.45C96.99,7,29.38-1.87,7.21,.35c-22.17,2.22,12.19,11.84,29.92,9.8,13.61-1.57,41.24,4.27,63.13,7.82,6.64,1.08,12.75,1.95,17.78,2.33,11.83,.91,28.31-2,39.72-.91,9.43,.9,15.38,4.53,12.37,15.32-6.65,23.83-21.61,75.36-19.95,78.69,0,0,2.94,7.82-12.34,4.71-3.84-.78-8.8-2.24-15.27-4.71-32.24-12.26-41.04-12.08-47.23-10.95,0,0,2.95,1.55,7.01,4.58,9.44,7.05,24.95,22.18,23.77,44.93-1.68,32.55-14.87,61.45-14.87,61.45,0,0,.59-.47,1.62-1.3,6.94-5.57,34.46-27.83,46.45-40.23,2.99-3.09,5.02-5.57,5.52-7.02,2.81-8.14,4.21-11.5,6.73-.56,2.53,10.94,32.55,43.21,21.89,68.75-.77,1.84-1.61,3.66-2.5,5.45-11.39,23.02-30.94,41.27-20.79,43.09,4.23,.76,23.02-9.41,45.3-21.96,20.98-11.82,45.06-25.76,63-34.69,12.33-6.14,21.76-9.92,25.27-9.01,0,0-.04,.4-.16,1.09-.64,3.68-3.44,15.82-13.58,23.6-12.07,9.26,22.17-.56,25.81-6.73,2.03-3.44,4.32-9.22,7.22-14.21,2.3-3.97,4.98-7.43,8.22-8.8,7.3-3.09,31.15-25.53,33.11-57.8,0,0-1.03-1.04-.74-2.83,0,0,0-.02,0-.03,.32-1.97,2.21-4.83,8.7-8.26,1.76-.93,3.86-1.9,6.35-2.91,20.2-8.14,25.81-12.35,21.89-13.75Z"/></g></g></svg>