<?xml version="1.0" encoding="UTF-8"?><svg xmlns="http://www.w3.org/2000/svg" xmlns:xlink="http://www.w3.org/1999/xlink" viewBox="0 0 137.86 66.11"><defs><style>.g{fill:url(#e);}.h{fill:url(#d);}.i{fill:url(#f);}</style><linearGradient id="d" x1="30.82" y1="10.27" x2="79.28" y2="10.27" gradientTransform="matrix(1, 0, 0, 1, 0, 0)" gradientUnits="userSpaceOnUse"><stop offset="0" stop-color="#53808c"/><stop offset="1" stop-color="#648d97"/></linearGradient><linearGradient id="e" x1="62.99" y1="33.7" x2="137.86" y2="33.7" xlink:href="#d"/><linearGradient id="f" x1="0" y1="54.91" x2="52.07" y2="54.91" xlink:href="#d"/></defs><g id="a"/><g id="b"><g id="c"><path class="h" d="M79.28,10.58s-3.15-7.79-8.77-9.88c-5.62-2.09-20.28,.54-29.41,7.19,0,0-.1-.02-.28-.05-1.54-.27-9.02-1.57-9.82-1.43-.89,.16,1.76,6.37,1.06,8.06,0,0,7.39-2.25,8.16-2.28l.02,.03c.27,.53,3.8,7.26,9.88,7.78,6.33,.53,11.14-.41,11.14-.41l-1.56,.95s12.57-.28,19.15-8.23l-.6-.66,1.03-1.07Z"/><path class="g" d="M137.86,32.68s-5.55-11.69-14.39-14.4c-8.83-2.71-31.14,2.67-44.58,13.71,0,0-.16-.02-.43-.05,.88,.59,1.86,.92,2.88,1.15,.5,.12,1.01,.21,1.53,.3h0c-.52-.09-1.03-.19-1.53-.3-1.02-.24-2-.56-2.88-1.15-2.4-.28-14.02-1.6-15.23-1.31-1.35,.33,3.29,9.64,2.36,12.29,0,0,11.16-4.14,12.33-4.25l.03,.05c.46,.79,6.49,10.82,15.89,11.06,9.78,.25,17.1-1.63,17.1-1.63l-2.31,1.6s19.3-1.57,28.71-14.38l-.97-.96,1.49-1.74Z"/><path class="i" d="M52.07,54.19s-3.86-8.13-10-10.01-21.65,1.86-31,9.54c0,0-.11-.01-.3-.04,1.07,.72,2.35,.88,3.63,1.11-1.28-.24-2.56-.39-3.63-1.11-1.67-.19-9.75-1.11-10.59-.91-.94,.23,2.29,6.71,1.64,8.55,0,0,7.76-2.88,8.58-2.95l.02,.04c.32,.55,4.52,7.53,11.05,7.69,6.8,.17,11.89-1.13,11.89-1.13l-1.61,1.11s13.42-1.09,19.96-10l-.68-.67,1.04-1.21Z"/></g></g></svg>