<?xml version="1.0" encoding="UTF-8"?><svg xmlns="http://www.w3.org/2000/svg" xmlns:xlink="http://www.w3.org/1999/xlink" viewBox="0 0 197.9 439.53"><defs><style>.e{fill:url(#d);}</style><linearGradient id="d" x1="0" y1="219.76" x2="197.9" y2="219.76" gradientTransform="matrix(1, 0, 0, 1, 0, 0)" gradientUnits="userSpaceOnUse"><stop offset="0" stop-color="#53808c"/><stop offset="1" stop-color="#648d97"/></linearGradient></defs><g id="a"/><g id="b"><g id="c"><path class="e" d="M43.55,72.8s-21.53,17.71-26.32,17.71H0l4.31,10.05s.48,5.26,4.31,5.26,4.79,4.31,4.79,4.31c0,0,13.4-14.36,24.88-14.83s39.72-10.53,44.98-12.44,15.31-3.83,15.79,.96,5.74,7.18,6.22,4.79,3.83-2.87,3.83-1.44,3.83-11.01,13.88-9.57c10.05,1.44,11.96,22.01,3.83,26.32-8.14,4.31-5.26,15.31-8.61,14.83s-16.07,14.78-7.94,14.3c8.14-.48,3.15,6.27-2.11,8.67-5.26,2.39-14.36,15.31-8.61,15.31s2.39,4.79-2.39,9.57-11.48,14.36-6.22,14.36,2.87,.48,1.44,10.05,.96,28.23,6.7,29.19c5.74,.96,15.31,13.88,15.31,17.23s-4.31,18.66-4.31,21.53-4.31,6.7,1.91,6.7,2.39,3.83,1.44,9.57c-.96,5.74-9.09,5.26-.96,5.74,8.14,.48,7.66,4.79,7.66,11.01s-.96,19.62,2.39,19.62,3.88,10.33,5.26,11.96c5.26,6.22,8.96,13.07,5.61,14.98s.33,6.67,.33,6.67c0,0,22.28,54.35-12.23,59.52-34.51,5.16-46.47-31.8-36.14-41.58s15.22,.27,15.22,.27c0,0,1.63-13.86-10.6-14.13-12.23-.27-33.16,11.69-23.92,42.12,9.24,30.44,44.36,55.44,63.81,46.16,24.12-11.5,26.41-11.92,32.93-34.2s17.62-32.88,17.62-32.88l-7.83-1.91s2.85-2.81,3.94-7.7,.41-4.53-4.75-4.8-7.61-3.53-2.17-8.7,2.45-6.25-.82-7.34-9.51-16.58-9.51-19.3,7.9-2.66,7.9-4.29-3.01-.6-6.27-7.93c-3.26-7.34-10.06-13.04-7.34-14.95s2.99-6.79,0-7.61-4.08-15.49-.54-16.03,1.36-8.7-1.63-12.77c-2.99-4.08-4.99-18.69,2.22-17.79s11.35,10.45,11.53,11.89,8.83,1.62,10.81,1.98,2.52-2.88,1.98-3.06,2.7-1.8,5.77-1.44,4.32-3.96,3.24-4.32-3.96-1.62,.36-1.98,7.03-2.88,5.4-3.78-.36-3.06,1.98-4.5,4.5-6.49,2.34-6.49-1.44-3.78-.54-7.39,1.26-5.4-.36-5.4-2.7-1.26-2.7-4.68-.36-7.75-2.7-6.85-14.77,5.4-18.2,.18c-3.42-5.22,2.52-15.67,4.68-17.48s-1.08-12.43,1.44-11.89,5.4,6.31,5.95,4.86-1.26-12.61-1.44-16.39,.9-12.61,5.22-9.37,2.88-3.6,1.08-12.07-1.8-9.91,3.96-8.83c5.77,1.08,1.62-11.17-.72-16.39s-3.24-8.83-3.24-12.43,3.6-5.04,1.8-7.93-5.22-2.52-1.44-9.01,9.91-10.81,3.96-11.89-15.85,1.44-16.21-3.96,.72-7.93,3.06-8.29,3.6-3.96-2.34-4.5-9.37,1.98-9.19-5.22c.18-7.21,3.42-8.47,4.32-9.37s-2.88,2.52-7.75,1.08c-4.86-1.44-11.71-3.6-13.51-10.45s-4.14-6.13-5.04-9.55-1.98,.54-5.4,.9-18.74-9.01-23.42-9.91,2.88-1.44,5.58-5.58c2.7-4.14,6.49-5.95-.9-6.31-7.39-.36-14.12-3.14-15.56-3.5s-.48,2.06-3,6.93-1.8,9.01-8.29,8.83c-6.49-.18-10.81-2.16-12.25-2.16s3.6,11.71,.54,13.69-13.15,19.46-17.84,15.13-5.23,.17-5.77-.91-4.01-3.13-3.83,8.04c.18,11.17-.31,11.07-4.28,10.35s-9.91-.72-8.65,3.06-.51,9.81-.51,9.81Z"/></g></g></svg>