<?xml version="1.0" encoding="UTF-8"?><svg xmlns="http://www.w3.org/2000/svg" xmlns:xlink="http://www.w3.org/1999/xlink" viewBox="0 0 338.77 156.01"><defs><style>.e{fill:url(#d);}</style><linearGradient id="d" x1="0" y1="78" x2="338.77" y2="78" gradientTransform="matrix(1, 0, 0, 1, 0, 0)" gradientUnits="userSpaceOnUse"><stop offset="0" stop-color="#53808c"/><stop offset="1" stop-color="#648d97"/></linearGradient></defs><g id="a"/><g id="b"><g id="c"><path class="e" d="M338.77,82.37s-22.69-50.32-59.05-71.57c-45.22-26.43-142.46-1.37-208.22,42.92,0,0-.7-.15-1.94-.42,3.27,2.68,6.97,4.48,10.87,5.9-3.9-1.42-7.6-3.21-10.87-5.9-10.76-2.3-62.92-13.33-68.53-12.53-6.26,.89,18.78,41.36,2.12,63.08,0,0,55.69-20.21,61.06-20.21,0,0,.04,.09,.11,.24h0c1.74,3.77,24.78,51.92,67.33,57.08,44.29,5.37,78.28,0,78.28,0l-21,15.03s99.16-10.02,147.4-64.1l-9.78-2.54,12.21-7Z"/></g></g></svg>