<?xml version="1.0" encoding="utf-8"?>
<!-- Generator: Adobe Illustrator 26.1.0, SVG Export Plug-In . SVG Version: 6.00 Build 0)  -->
<svg version="1.1" id="Layer_1" xmlns="http://www.w3.org/2000/svg" xmlns:xlink="http://www.w3.org/1999/xlink" x="0px" y="0px"
	 viewBox="0 0 993.6 639.6" style="enable-background:new 0 0 993.6 639.6;" xml:space="preserve">
<style type="text/css">
	.st0{fill:url(#SVGID_1_);}
	.st1{fill:url(#SVGID_00000121962129709210068720000017315143551211121836_);}
	.st2{fill:url(#SVGID_00000054263234404364272410000015820693690351258794_);}
	.st3{fill:url(#SVGID_00000036247268295361730840000001472131393272984711_);}
	.st4{fill:url(#SVGID_00000103223787153319023590000016495740679497143740_);}
	.st5{fill:url(#SVGID_00000091009256244239799650000004233822023084675201_);}
	.st6{fill:url(#SVGID_00000108300628585451747860000013072584787004414107_);}
	.st7{fill:url(#SVGID_00000115472825591835744980000007552420512423236529_);}
	.st8{fill:url(#SVGID_00000182491995856793100740000008083455823864675980_);}
	.st9{fill:url(#SVGID_00000158732970572234770200000010822742380030661802_);}
	.st10{fill:url(#SVGID_00000072993233027800077620000009815045826496951451_);}
	.st11{fill:url(#SVGID_00000056399829180667043480000000572272414344935051_);}
	.st12{fill:url(#SVGID_00000182508944928373587860000009945494253898267558_);}
</style>
<g id="a">
</g>
<g id="b">
	<g id="c">
		<g id="d">
			<g>
				
					<linearGradient id="SVGID_1_" gradientUnits="userSpaceOnUse" x1="85.9339" y1="360.3345" x2="467.6685" y2="360.3345" gradientTransform="matrix(1 0 0 -1 0 642)">
					<stop  offset="0" style="stop-color:#53808C"/>
					<stop  offset="1" style="stop-color:#648D97"/>
				</linearGradient>
				<path class="st0" d="M369.7,356.8c0,0,0,0.4-0.2,1.1c-0.6,3.7-3.4,15.8-13.6,23.6c-12.1,9.3,22.2-0.6,25.8-6.7
					c2-3.4,4.3-9.2,7.2-14.2c2.3-4,5-7.4,8.2-8.8c7.3-3.1,31.1-25.5,33.1-57.8c0,0-1-1-0.7-2.8c0,0,0,0,0,0c0.3-2,2.2-4.8,8.7-8.3
					c1.8-0.9,3.9-1.9,6.4-2.9c20.2-8.1,25.8-12.4,21.9-13.8s-9-2.5-9-2.5s10.7-4.2,5.6-7.3c-1.1-0.6-3-0.9-5.5-1.1
					c-9.3-0.6-26.3,0.2-33.8-12.4c-2.5-4.2-8.5-11.1-16.3-19.2c0-0.1,0-0.3,0-0.4c0-4.6-3.7-8.3-8.3-8.3c-0.1,0-0.2,0-0.3,0
					c-0.9-0.9-1.9-1.9-2.9-2.8c-21.4-21-48.3-44.7-57.4-50.9c0,0-0.3-0.4-1-0.9c-1.8-1.5-6-4.6-13.6-7.5c-9.7-3.7-25-7-48-6.5
					c-48.2,1.1-61,13.2-77,7.4c-16.1-5.8-83.7-14.7-105.8-12.4c-22.2,2.2,12.2,11.8,29.9,9.8c13.6-1.6,41.2,4.3,63.1,7.8
					c6.6,1.1,12.8,1.9,17.8,2.3c11.8,0.9,28.3-2,39.7-0.9c9.4,0.9,15.4,4.5,12.4,15.3c-6.6,23.8-21.6,75.4-19.9,78.7
					c0,0,2.9,7.8-12.3,4.7c-3.8-0.8-8.8-2.2-15.3-4.7c-32.2-12.3-41.1-12.1-47.2-10.9c0,0,2.9,1.6,7,4.6
					c9.4,7.1,24.9,22.2,23.8,44.9c-1.7,32.5-14.9,61.5-14.9,61.5s0.6-0.5,1.6-1.3c6.9-5.6,34.5-27.8,46.4-40.2c3-3.1,5-5.6,5.5-7
					c2.8-8.1,4.2-11.5,6.7-0.6c2.5,10.9,32.5,43.2,21.9,68.8c-0.8,1.8-1.6,3.7-2.5,5.5c-11.4,23-30.9,41.3-20.8,43.1
					c4.2,0.8,23-9.4,45.3-22c21-11.8,45.1-25.8,63-34.7C356.7,359.7,366.2,355.9,369.7,356.8L369.7,356.8z"/>
				
					<linearGradient id="SVGID_00000058552849703677844260000007114895822897256094_" gradientUnits="userSpaceOnUse" x1="380.382" y1="108.7359" x2="668.6329" y2="108.7359" gradientTransform="matrix(1 0 0 -1 0 642)">
					<stop  offset="0" style="stop-color:#53808C"/>
					<stop  offset="1" style="stop-color:#648D97"/>
				</linearGradient>
				<path style="fill:url(#SVGID_00000058552849703677844260000007114895822897256094_);" d="M667.8,521.6c-3-1.1-6.8-1.9-6.8-1.9
					s8-3.2,4.2-5.5c-0.8-0.5-2.3-0.7-4.1-0.8c-7-0.5-19.8,0.2-25.5-9.4c-1.9-3.2-6.6-8.5-12.6-14.8c-0.5-1.2-1.5-2.2-2.8-2.9
					c-1.8-1.8-3.7-3.7-5.6-5.6c-16.2-15.8-36.5-33.8-43.3-38.5c0,0-0.2-0.3-0.8-0.7c-1.3-1.1-4.5-3.5-10.3-5.7
					c-7.3-2.8-18.9-5.3-36.2-4.9c-36.4,0.8-46,10-58.2,5.6c-12.1-4.4-63.2-11.1-79.9-9.4s9.2,8.9,22.6,7.4
					c10.3-1.2,31.1,3.2,47.7,5.9c5,0.8,9.6,1.5,13.4,1.8c8.9,0.7,21.4-1.5,30-0.7c7.1,0.7,11.6,3.4,9.3,11.6
					c-5,18-16.3,56.9-15.1,59.4c0,0,2.2,5.9-9.3,3.5c-2.9-0.6-6.6-1.7-11.5-3.5c-24.3-9.3-31-9.1-35.7-8.3c0,0,2.2,1.2,5.3,3.5
					c7.1,5.3,18.8,16.8,18,33.9c-1.3,24.6-11.2,46.4-11.2,46.4s0.4-0.3,1.2-1c5.2-4.2,26-21,35.1-30.4c2.3-2.3,3.8-4.2,4.2-5.3
					c2.1-6.2,3.2-8.7,5.1-0.4c1.9,8.3,24.6,32.6,16.5,51.9c-0.6,1.4-1.2,2.8-1.9,4.1c-8.6,17.4-23.4,31.2-15.7,32.5
					c3.2,0.6,17.4-7.1,34.2-16.6c15.8-8.9,34-19.5,47.6-26.2c9.3-4.6,16.4-7.5,19.1-6.8c0,0,0,0.3-0.1,0.8
					c-0.5,2.8-2.6,11.9-10.3,17.8c-9.1,7,16.7-0.4,19.5-5.1c1.5-2.6,3.3-7,5.5-10.7c1.7-3,3.8-5.6,6.2-6.6
					c5.5-2.3,23.5-19.3,25-43.7c0,0-0.8-0.8-0.6-2.1v0c0.2-1.5,1.7-3.7,6.6-6.2c1.3-0.7,2.9-1.4,4.8-2.2
					C666.5,525.8,670.7,522.6,667.8,521.6L667.8,521.6z"/>
				
					<linearGradient id="SVGID_00000163756445410219465370000007282074431991298472_" gradientUnits="userSpaceOnUse" x1="705.352" y1="256.7859" x2="993.6067" y2="256.7859" gradientTransform="matrix(1 0 0 -1 0 642)">
					<stop  offset="0" style="stop-color:#53808C"/>
					<stop  offset="1" style="stop-color:#648D97"/>
				</linearGradient>
				<path style="fill:url(#SVGID_00000163756445410219465370000007282074431991298472_);" d="M992.8,373.5c-3-1.1-6.8-1.9-6.8-1.9
					s8-3.2,4.2-5.5c-0.8-0.5-2.3-0.7-4.1-0.8c-7-0.5-19.8,0.2-25.5-9.4c-1.9-3.2-6.4-8.4-12.3-14.5c0-0.1,0-0.2,0-0.3
					c0-3.5-2.8-6.3-6.3-6.3c-0.1,0-0.2,0-0.2,0c-0.7-0.7-1.4-1.4-2.2-2.1c-16.2-15.8-36.5-33.8-43.3-38.5c0,0-0.2-0.3-0.8-0.7
					c-1.3-1.1-4.5-3.5-10.3-5.7c-7.3-2.8-18.9-5.3-36.2-4.9c-36.4,0.8-46,10-58.2,5.6c-12.1-4.4-63.2-11.1-79.9-9.4
					s9.2,8.9,22.6,7.4c10.3-1.2,31.1,3.2,47.7,5.9c5,0.8,9.6,1.5,13.4,1.8c8.9,0.7,21.4-1.5,30-0.7c7.1,0.7,11.6,3.4,9.3,11.6
					c-5,18-16.3,56.9-15.1,59.4c0,0,2.2,5.9-9.3,3.5c-2.9-0.6-6.7-1.7-11.5-3.5c-24.3-9.3-31-9.1-35.7-8.3c0,0,2.2,1.2,5.3,3.5
					c7.1,5.3,18.8,16.8,18,33.9c-1.3,24.6-11.2,46.4-11.2,46.4s0.4-0.4,1.2-1c5.2-4.2,26-21,35.1-30.4c2.3-2.3,3.8-4.2,4.2-5.3
					c2.1-6.1,3.2-8.7,5.1-0.4c1.9,8.3,24.6,32.6,16.5,51.9c-0.6,1.4-1.2,2.8-1.9,4.1c-8.6,17.4-23.4,31.2-15.7,32.5
					c3.2,0.6,17.4-7.1,34.2-16.6c15.8-8.9,34-19.5,47.6-26.2c9.3-4.6,16.4-7.5,19.1-6.8c0,0,0,0.3-0.1,0.8
					c-0.5,2.8-2.6,11.9-10.3,17.8c-9.1,7,16.7-0.4,19.5-5.1c1.5-2.6,3.3-7,5.5-10.7c1.7-3,3.8-5.6,6.2-6.6
					c5.5-2.3,23.5-19.3,25-43.6c0,0-0.8-0.8-0.6-2.1v0c0.2-1.5,1.7-3.6,6.6-6.2c1.3-0.7,2.9-1.4,4.8-2.2
					C991.4,377.7,995.7,374.6,992.8,373.5L992.8,373.5z"/>
				
					<linearGradient id="SVGID_00000075134738536091486330000001144451169439328915_" gradientUnits="userSpaceOnUse" x1="363.5727" y1="564.3596" x2="574.0239" y2="564.3596" gradientTransform="matrix(1 0 0 -1 0 642)">
					<stop  offset="0" style="stop-color:#53808C"/>
					<stop  offset="1" style="stop-color:#648D97"/>
				</linearGradient>
				<path style="fill:url(#SVGID_00000075134738536091486330000001144451169439328915_);" d="M384.1,5.6c7.5-0.9,22.7,2.3,34.8,4.3
					c3.7,0.6,7,1.1,9.8,1.3c6.5,0.5,15.6-1.1,21.9-0.5c5.2,0.5,8.5,2.5,6.8,8.4c-3.7,13.1-11.9,41.5-11,43.4c0,0,1.6,4.3-6.8,2.6
					c-2.1-0.4-4.9-1.2-8.4-2.6c-17.8-6.8-22.6-6.7-26-6c0,0,1.6,0.8,3.9,2.5c5.2,3.9,13.8,12.2,13.1,24.8
					c-0.9,17.9-8.2,33.9-8.2,33.9s0.3-0.3,0.9-0.7c3.8-3.1,19-15.3,25.6-22.2c1.6-1.7,2.8-3.1,3-3.9c1.5-4.5,2.3-6.3,3.7-0.3
					c1.4,6,17.9,23.8,12.1,37.9c-0.4,1-0.9,2-1.4,3c-6.3,12.7-17.1,22.8-11.5,23.8c2.3,0.4,12.7-5.2,25-12.1
					c11.6-6.5,24.8-14.2,34.7-19.1c6.8-3.4,12-5.5,13.9-5c0,0,0,0.2-0.1,0.6c-0.3,2-1.9,8.7-7.5,13c-6.6,5.1,12.2-0.3,14.2-3.7
					c1.1-1.9,2.4-5.1,4-7.8c1.3-2.2,2.8-4.1,4.5-4.8c4-1.7,17.2-14.1,18.2-31.9c0,0-0.6-0.6-0.4-1.6v0c0.2-1.1,1.2-2.7,4.8-4.6
					c1-0.5,2.1-1.1,3.5-1.6c11.1-4.5,14.2-6.8,12.1-7.6c-2.2-0.8-5-1.4-5-1.4s5.9-2.3,3.1-4c-0.6-0.4-1.7-0.5-3-0.6
					c-5.1-0.3-14.5,0.1-18.6-6.8c-1.4-2.3-4.7-6.1-9-10.6c0-0.1,0-0.2,0-0.2c0-2.5-2.1-4.6-4.6-4.6c-0.1,0-0.1,0-0.2,0
					c-0.5-0.5-1-1-1.6-1.6c-11.8-11.6-26.6-24.6-31.6-28.1c0,0-0.2-0.2-0.6-0.5c-1-0.8-3.3-2.5-7.5-4.1c-5.4-2-13.8-3.9-26.4-3.6
					c-26.6,0.6-33.6,7.3-42.5,4.1S379.8-1,367.5,0.2S374.3,6.7,384.1,5.6L384.1,5.6z"/>
				
					<linearGradient id="SVGID_00000041283416100465437100000018063057803257616303_" gradientUnits="userSpaceOnUse" x1="41.2272" y1="87.3961" x2="254.8476" y2="87.3961" gradientTransform="matrix(1 0 0 -1 0 642)">
					<stop  offset="0" style="stop-color:#53808C"/>
					<stop  offset="1" style="stop-color:#648D97"/>
				</linearGradient>
				<path style="fill:url(#SVGID_00000041283416100465437100000018063057803257616303_);" d="M254.2,538.9c-2.2-0.7-5-1.1-5-1.1
					s5.8-2.6,2.9-4.2c-0.6-0.3-1.7-0.4-3.1-0.4c-5.1-0.1-14.5,0.9-19-5.9c-1.5-2.2-5-5.9-9.5-10.1c0-0.1,0-0.2,0-0.2
					c-0.1-2.5-2.3-4.5-4.8-4.3c-0.1,0-0.1,0-0.2,0c-0.6-0.5-1.1-1-1.7-1.5c-12.4-11-27.8-23.3-33-26.5c0,0-0.2-0.2-0.6-0.5
					c-1-0.8-3.4-2.4-7.7-3.8c-5.4-1.8-14-3.2-26.6-2.2c-26.5,2-33.2,9-42.2,6.2s-46.5-5.7-58.6-3.9c-12.1,1.8,7,6.2,16.8,4.6
					c7.5-1.2,22.8,1.2,35,2.5c3.7,0.4,7.1,0.7,9.8,0.8c6.5,0.2,15.5-1.9,21.8-1.6c5.2,0.2,8.6,2.1,7.2,8.1
					c-3,13.3-9.8,42.1-8.8,43.9c0,0,1.8,4.2-6.7,2.9c-2.1-0.3-4.9-1-8.5-2.2c-18.1-5.9-22.9-5.5-26.3-4.7c0,0,1.7,0.8,4,2.3
					c5.4,3.6,14.4,11.5,14.3,24.1c0,18-6.5,34.2-6.5,34.2s0.3-0.3,0.9-0.8c3.7-3.3,18.2-16.3,24.5-23.4c1.6-1.8,2.6-3.2,2.8-4
					c1.3-4.6,2-6.5,3.7-0.5c1.7,6,19.1,22.9,14,37.2c-0.4,1-0.8,2.1-1.2,3.1c-5.6,13-15.9,23.6-10.2,24.3
					c2.4,0.3,12.4-5.8,24.3-13.3c11.2-7.1,24.1-15.4,33.7-20.8c6.6-3.7,11.7-6.1,13.7-5.7c0,0,0,0.2-0.1,0.6
					c-0.2,2-1.5,8.8-6.8,13.4c-6.4,5.4,12.2-0.9,14-4.4c1-2,2.1-5.2,3.6-8c1.2-2.2,2.5-4.2,4.3-5.1c3.9-1.9,16.4-14.9,16.6-32.8
					c0,0-0.6-0.5-0.5-1.5c0,0,0,0,0,0c0.1-1.1,1.1-2.7,4.6-4.8c0.9-0.6,2.1-1.2,3.4-1.8C253.4,542,256.4,539.5,254.2,538.9
					L254.2,538.9z"/>
				
					<linearGradient id="SVGID_00000116921074837625425550000014463275349473429690_" gradientUnits="userSpaceOnUse" x1="448.7969" y1="302.6094" x2="661.5099" y2="302.6094" gradientTransform="matrix(1 0 0 -1 0 642)">
					<stop  offset="0" style="stop-color:#53808C"/>
					<stop  offset="1" style="stop-color:#648D97"/>
				</linearGradient>
				<path style="fill:url(#SVGID_00000116921074837625425550000014463275349473429690_);" d="M624.5,298.6
					c-24.4-10.1-89.3-0.9-130.6,26.9c0,0-0.4-0.1-1.2-0.3c2,1.7,4.4,2.8,6.8,3.7c0.7,0.2,1.4,0.5,2.1,0.7c-0.7-0.2-1.4-0.5-2.1-0.7
					c-2.5-0.9-4.8-2-6.8-3.7c-6.8-1.4-39.5-8.4-43-7.9c-3.9,0.6,6.7,28.3,3.4,35.6c0,0,32.9-8.7,36.3-8.7c0,0,0,0.1,0.1,0.1l0,0
					c1.1,2.4,15.5,32.6,42.2,35.8c27.8,3.4,49.1,0,49.1,0l-7,3.9c0,0,55.4,0.8,85.6-33.1l-2.5-3l4.7-4.6
					C661.5,343.5,648.9,308.7,624.5,298.6L624.5,298.6z"/>
				
					<linearGradient id="SVGID_00000144298643701626667430000003487844008582435731_" gradientUnits="userSpaceOnUse" x1="306.3904" y1="456.7823" x2="390.7316" y2="456.7823">
					<stop  offset="0" style="stop-color:#53808C"/>
					<stop  offset="1" style="stop-color:#648D97"/>
				</linearGradient>
				<path style="fill:url(#SVGID_00000144298643701626667430000003487844008582435731_);" d="M339.3,473c11,1.3,19.5,0,19.5,0
					l-2.8,1.6c0,0,21.4,0.3,33.5-12.6c0.3-0.3,0.3-0.8,0-1.1c-0.3-0.3-0.3-0.9,0.1-1.2l0.9-0.9c0.2-0.2,0.3-0.6,0.2-0.9
					c-1-2.6-6-13.8-14.5-17.3c-9.7-4-35.5-0.3-51.9,10.7c0,0-0.2,0-0.5-0.1c0.1,0.1,0.3,0.2,0.5,0.3c-0.1-0.1-0.2-0.1-0.3-0.2
					c-0.1-0.1-0.2-0.1-0.3-0.1c-3-0.6-15.5-3.3-16.9-3.1c-1.4,0.2,1.8,9,1.6,13c0,0.6,0.5,1,1.1,0.9c3.4-0.9,12-3.1,13.1-3.1l0,0.1
					c0.2-0.1,0.3-0.2,0.5-0.4c-0.3,0.2-0.4,0.7-0.2,1C324.2,462.1,329.8,471.9,339.3,473L339.3,473z M354.2,448.9c0.1,0,0.3,0,0.4,0
					c-0.1,0-0.1,0-0.2,0c-0.2,0-0.3,0-0.5,0.1c0,0,0,0,0,0C354.1,449,354.2,449,354.2,448.9L354.2,448.9z M355,449
					c0.1,0,0.2,0,0.3,0C355.2,449,355.1,449,355,449z M353.1,449.3c0.2,0,0.4-0.1,0.5-0.1C353.4,449.2,353.2,449.2,353.1,449.3z
					 M355.5,449c0.1,0,0.2,0,0.3,0C355.7,449,355.6,449,355.5,449z M356.1,449c0.1,0,0.2,0,0.3,0C356.4,448.9,356.3,449,356.1,449z
					 M356.7,448.9c0.1,0,0.2,0,0.3,0C357,448.9,356.9,448.9,356.7,448.9z M357.4,448.8c0.2,0,0.3,0,0.5-0.1
					C357.7,448.8,357.5,448.8,357.4,448.8z M358.2,448.7c0.1,0,0.2,0,0.3,0C358.4,448.7,358.3,448.7,358.2,448.7z M358.8,448.7
					c0.1,0,0.2,0,0.3,0C359,448.6,358.9,448.7,358.8,448.7z M359.4,448.6c0.1,0,0.2,0,0.3,0C359.6,448.6,359.5,448.6,359.4,448.6z
					 M360,448.6c0.1,0,0.2,0,0.3,0C360.2,448.6,360.1,448.6,360,448.6z M360.6,448.6c0.1,0,0.2,0,0.3,0
					C360.8,448.6,360.7,448.6,360.6,448.6z M361.2,448.6c0.1,0,0.2,0,0.3,0C361.4,448.7,361.3,448.7,361.2,448.6z M361.8,448.8
					c0.1,0,0.2,0,0.2,0.1C361.9,448.8,361.9,448.8,361.8,448.8z M362.3,448.9c0.1,0,0.1,0,0.2,0.1C362.5,449,362.4,449,362.3,448.9z
					 M362.9,449.2c0.1,0,0.1,0.1,0.2,0.1C363,449.2,363,449.2,362.9,449.2z M327.1,456c-0.2,0.1-0.3,0.1-0.5,0.2
					C326.8,456.1,327,456.1,327.1,456L327.1,456z M325.1,452c-0.1-0.1-0.3-0.1-0.4-0.2C324.8,451.8,324.9,451.9,325.1,452z
					 M328.4,453.2c-0.2-0.1-0.4-0.1-0.6-0.2C328,453.1,328.2,453.2,328.4,453.2z M327.5,453c-0.2,0-0.3-0.1-0.5-0.2
					C327.2,452.9,327.3,452.9,327.5,453z M326.7,452.7c-0.2-0.1-0.3-0.1-0.5-0.2C326.3,452.6,326.5,452.6,326.7,452.7z M325.8,452.4
					c-0.1-0.1-0.3-0.1-0.5-0.2C325.5,452.2,325.7,452.3,325.8,452.4z M326,456.5c-0.2,0.1-0.3,0.2-0.5,0.3
					C325.7,456.7,325.8,456.6,326,456.5z M324.9,457.2c-0.2,0.1-0.3,0.2-0.5,0.3C324.6,457.4,324.7,457.3,324.9,457.2z M323.8,457.9
					c-0.2,0.1-0.3,0.2-0.5,0.3C323.5,458.1,323.6,458,323.8,457.9z"/>
				
					<linearGradient id="SVGID_00000033360668910927202920000012189173164629164165_" gradientUnits="userSpaceOnUse" x1="324.6328" y1="88.6106" x2="423.51" y2="88.6106" gradientTransform="matrix(1 0 0 -1 0 642)">
					<stop  offset="0" style="stop-color:#53808C"/>
					<stop  offset="1" style="stop-color:#648D97"/>
				</linearGradient>
				<path style="fill:url(#SVGID_00000033360668910927202920000012189173164629164165_);" d="M404.5,533
					c-11.7-3.6-41.1,3.5-58.9,18.1c0,0-0.2,0-0.6-0.1c0.6,0.4,1.2,0.7,1.8,0.9c0.6,0.2,1.3,0.4,2,0.6c-0.7-0.2-1.3-0.3-2-0.6
					c-0.6-0.2-1.2-0.5-1.8-0.9c-3.2-0.4-18.5-2.1-20.1-1.7c-1.8,0.4,4.3,12.7,3.1,16.2c0,0,14.7-5.5,16.3-5.6l0,0.1
					c0.7-0.7,1.5-1.4,2.3-2c-0.8,0.6-1.6,1.3-2.3,2c0.6,1,8.6,14.3,21,14.6c12.9,0.3,22.6-2.2,22.6-2.2l-3,2.1c0,0,25.5-2.1,37.9-19
					l-1.3-1.3l2-2.3C423.5,552,416.2,536.6,404.5,533L404.5,533z"/>
				
					<linearGradient id="SVGID_00000176027141913245061680000017746743560714483091_" gradientUnits="userSpaceOnUse" x1="73.0168" y1="225.9743" x2="131.28" y2="225.9743" gradientTransform="matrix(1 0 0 -1 0 642)">
					<stop  offset="0" style="stop-color:#53808C"/>
					<stop  offset="1" style="stop-color:#648D97"/>
				</linearGradient>
				<path style="fill:url(#SVGID_00000176027141913245061680000017746743560714483091_);" d="M118,401.6
					c-7.2-0.8-23.7,6.7-32.5,17.2c0,0-0.1,0-0.3,0c0.2,0.1,0.4,0.1,0.6,0.2c-0.2-0.1-0.4-0.1-0.6-0.2c-1.9,0.1-11.1,0.8-12,1.2
					c-1,0.5,4,7,3.6,9.2c0,0,8-4.9,8.9-5.1l0,0c0.5,0.5,6.6,7.4,13.9,6.2c7.6-1.2,13-3.8,13-3.8l-1.6,1.6c0,0,14.7-4.1,20.1-15.4
					l-0.9-0.6l0.9-1.6C131.3,410.6,125.3,402.4,118,401.6L118,401.6z"/>
				
					<linearGradient id="SVGID_00000060746155872882804250000017589842325428508854_" gradientUnits="userSpaceOnUse" x1="2.790250e-03" y1="328.7306" x2="98.88" y2="328.7306" gradientTransform="matrix(1 0 0 -1 0 642)">
					<stop  offset="0" style="stop-color:#53808C"/>
					<stop  offset="1" style="stop-color:#648D97"/>
				</linearGradient>
				<path style="fill:url(#SVGID_00000060746155872882804250000017589842325428508854_);" d="M63.3,332.4l-3,2.1
					c0,0,25.5-2.1,37.9-19l-1.3-1.3l2-2.3c0,0-7.3-15.4-19-19c-11.7-3.6-41.1,3.5-58.9,18.1c0,0-0.2,0-0.6-0.1
					c0.3,0.2,0.6,0.4,0.9,0.5c0.6,0.3,1.2,0.5,1.9,0.7s1.3,0.3,2,0.5c-0.7-0.1-1.4-0.3-2-0.5s-1.3-0.4-1.9-0.7
					c-0.3-0.2-0.6-0.3-0.9-0.5c-3.2-0.4-18.5-2.1-20.1-1.7c-1.8,0.4,4.3,12.7,3.1,16.2c0,0,14.7-5.5,16.3-5.6l0,0.1l0,0
					c0.6,1,8.6,14.3,21,14.6C53.7,334.8,63.3,332.4,63.3,332.4L63.3,332.4z"/>
				
					<linearGradient id="SVGID_00000076592199273290386550000000548551278400565635_" gradientUnits="userSpaceOnUse" x1="612.5482" y1="519.9819" x2="710.26" y2="519.9819" gradientTransform="matrix(1 0 0 -1 0 642)">
					<stop  offset="0" style="stop-color:#53808C"/>
					<stop  offset="1" style="stop-color:#648D97"/>
				</linearGradient>
				<path style="fill:url(#SVGID_00000076592199273290386550000000548551278400565635_);" d="M708,127.4l2.3-2
					c0,0-5.2-16.3-16.2-21.4s-41.2-2.1-60.8,9.9c0,0-0.2-0.1-0.6-0.1c0.3,0.2,0.5,0.4,0.8,0.6c-0.3-0.2-0.5-0.4-0.8-0.6
					c-3.1-0.8-18-4.6-19.7-4.5c-1.8,0.2,2.6,13.2,0.9,16.5c0,0,15.3-3.4,16.9-3.3l0,0.1c0.5,1.1,6.5,15.3,18.8,17.3
					c12.8,2.1,22.7,0.9,22.7,0.9l-3.3,1.7c0,0,25.5,1.4,40.2-13.6L708,127.4L708,127.4z M638.2,116.4L638.2,116.4
					c-1-0.3-2-0.7-2.9-1.1C636.2,115.7,637.2,116.1,638.2,116.4z"/>
				
					<linearGradient id="SVGID_00000131356802975960266070000000562766602314068647_" gradientUnits="userSpaceOnUse" x1="679.4231" y1="459.6196" x2="751.1801" y2="459.6196" gradientTransform="matrix(1 0 0 -1 0 642)">
					<stop  offset="0" style="stop-color:#53808C"/>
					<stop  offset="1" style="stop-color:#648D97"/>
				</linearGradient>
				<path style="fill:url(#SVGID_00000131356802975960266070000000562766602314068647_);" d="M725.4,196.2l-2.2,1.5
					c0,0,18.5-1.5,27.5-13.8l-0.9-0.9l1.4-1.7c0,0-5.3-11.2-13.8-13.8s-29.8,2.6-42.7,13.1c0,0-0.2,0-0.4-0.1
					c0.8,0.6,1.8,0.9,2.8,1.1c-1-0.2-1.9-0.5-2.8-1.1c-2.3-0.3-13.4-1.5-14.6-1.2c-1.3,0.3,3.2,9.2,2.3,11.8c0,0,10.7-4,11.8-4.1
					l0,0.1l0,0c0.4,0.8,6.2,10.4,15.2,10.6C718.4,198,725.4,196.2,725.4,196.2L725.4,196.2z"/>
			</g>
			
				<linearGradient id="SVGID_00000141431146992956121260000015750168077318827962_" gradientUnits="userSpaceOnUse" x1="156.7771" y1="596.4023" x2="208.85" y2="596.4023" gradientTransform="matrix(1 0 0 -1 0 642)">
				<stop  offset="0" style="stop-color:#53808C"/>
				<stop  offset="1" style="stop-color:#648D97"/>
			</linearGradient>
			<path style="fill:url(#SVGID_00000141431146992956121260000015750168077318827962_);" d="M208.9,44.9c0,0-3.9-8.1-10-10
				s-21.6,1.9-31,9.5c0,0-0.1,0-0.3,0c-1.7-0.2-9.8-1.1-10.6-0.9c-0.9,0.2,2.3,6.7,1.6,8.5c0,0,7.8-2.9,8.6-3l0,0
				c0.3,0.5,4.5,7.5,11.1,7.7c6.8,0.2,11.9-1.1,11.9-1.1l-1.6,1.1c0,0,13.4-1.1,20-10l-0.7-0.7L208.9,44.9L208.9,44.9z M171.2,45.5
				c-1.1-0.2-2.2-0.3-3.2-0.8C169,45.1,170.1,45.3,171.2,45.5z"/>
		</g>
	</g>
</g>
</svg>
