<?xml version="1.0" encoding="utf-8"?>
<!-- Generator: Adobe Illustrator 26.1.0, SVG Export Plug-In . SVG Version: 6.00 Build 0)  -->
<svg version="1.1" id="Layer_1" xmlns="http://www.w3.org/2000/svg" xmlns:xlink="http://www.w3.org/1999/xlink" x="0px" y="0px"
	 viewBox="0 0 582 765.6" style="enable-background:new 0 0 582 765.6;" xml:space="preserve">
<style type="text/css">
	.st0{fill:#515151;}
	.st1{fill:#828282;}
	.st2{fill:#816C61;}
	.st3{fill:#777777;}
	.st4{fill:#A5A5A5;}
	.st5{fill:#020101;}
	.st6{fill:#3F3F3F;}
	.st7{fill:#C4A1BE;}
	.st8{fill:#E5DDBA;}
	.st9{fill:#8E8E88;}
	.st10{fill:#FDF0AE;}
	.st11{fill:#BF9C5E;}
	.st12{fill:#1D1B1C;}
</style>
<g id="a">
</g>
<g id="b">
	<g id="c">
		<g>
			<path class="st0" d="M365.8,498.8c0,0,29.1-35.6,29.8-19c0.7,16.6,48.7-8.8,45.4,14.5c-3.3,23.3,0.6,55.4,6,56.1
				c5.3,0.7,12.7,36.3,18.7,54.2c6,18,43.9,93.2,64.6,105.2c20.6,12,16.6,22,16.6,33.3c0,11.3-60.6-4.7-79.2-12
				c-18.6-7.3-9.3-23.3-9.3-28s-8-24.6-12.6-26.6s-16-32-13.3-35.3c2.7-3.3-2.7-30.6-14.6-35.9s-8.6-12.7-4-15.3
				S365.8,498.8,365.8,498.8L365.8,498.8z"/>
			<path class="st1" d="M337.9,517.4c0,0,81.2-23.3,81.9-6.7c0.7,16.6,9.6-21.5,6.2,1.8c-3.3,23.3-10.2,65.4-4.9,66.1
				c5.3,0.7,10.7,26.6,16.6,44.6s43.9,93.2,64.6,105.2c20.6,12,16.6,22,16.6,33.3c0,11.3-60.6-4.7-79.2-12s-9.3-23.3-9.3-28
				s-8-24.6-12.6-26.6s-16-32-13.3-35.3c2.7-3.3-2.7-30.6-14.6-35.9s-8.7-12.7-4-15.3S337.9,517.4,337.9,517.4L337.9,517.4z"/>
			<path class="st2" d="M185.4,672.2C186.7,670.2,186.6,670.8,185.4,672.2L185.4,672.2z"/>
			<path class="st0" d="M232.6,490.4c-17.3,7.3-33.1,58.4-41.5,85.7s7.8,63.5,15.3,64.4c7.5,0.9,1.4,20.3-8.2,52.5
				c-9.6,32.2,53.6,30.6,81.3,35.9s129.9,5.3,139.7,2.1s-3.6-21.9-15.2-35.3s-59.6-17.5-70.8-18.8s-82.1,1.2-51.6-31.6
				c30.5-32.8,93.1-126,48.7-159.9C285.9,451.6,232.6,490.4,232.6,490.4L232.6,490.4z"/>
			<path class="st3" d="M403.4,539.3c-21.4-4.7-45.3-5.5-56.1,14.2c-0.4-1-0.6-1.5-0.6-1.5s-38.7,58.9-48.4,61.3
				c-9.7,2.4-26.6,20.2-20.2,7.3c6.5-12.9-8.1-18.6-12.9-4.8s-30.7,37.1-29.8,24.2c0.8-12.9-8.9,11.3-19.4,14.5
				c-10.5,3.2-45.2,25-39.5,16.1c0.5-0.7,0.8-1.3,1.1-1.7c1.2-1.4,1.3-1.9,0,0c-2,2.3-6.8,6.9-13.2,7.4c-11.3,0.8-70.2,4-70.2,4
				s-62.9,8.9-80.7,2.4c-17.8-6.5-17.8-9.7-2.4-10.5c15.3-0.8,25-9.7,13.7-9.7s-14.5-6.5-2.4-9.7s16.9-8.9,12.9-10.5
				c-4-1.6,0.8-9.7,8.9-9.7s5-14.3,5-14.3c-12.9-22.6-40.2-77.5-12.6-128.8c24.9-46.3,76.6-90.7,105.3-113.1
				c36.8-28.9,94.7-48.7,107.6-54.4c12.9-5.6,85.1-22.5,92.3-29.8c7.3-7.3,54.8-34.7,73.4-27.4c18.5,7.3,52.4,25,64.5,50
				s13.7,58.9,10.5,58.9s-7.3,8.1-3.2,15.3c4,7.2,11.3,18.5,4,17.7c-7.3-0.8-0.8,23.4-0.8,33.9s8.1,10.5,0,10.5
				c-8.1,0-9.7,15.3-9.7,23.4s-0.8,20.2-7.3,20.2c-6.4,0-6.4,6.4-16.1,9.7c-9.7,3.2-22.6,4-18.6,10.5s-10.5,13.7-18.5,14.5
				C415.6,529.8,407.5,531.6,403.4,539.3L403.4,539.3z"/>
			<path class="st4" d="M386.9,265.2c0,0,76,4,87.7,18.3s9,29.4,9,34.6s-3.6,22.4-6.2,20.8s-3.1,3.1-3.1,12.5s-5.2,20.3-9.9,14
				c-4.7-6.2-11.4,3.6-13.5,17.7c-2.1,14-4.2,13.5-5.2,6.8s-15.6-20.3-15.6-5.7c0,14.6-22.4-2.1-29.1-20.8
				c-6.8-18.7-17.7-17.7-18.7-12c-1,5.7-12.5-4.2-13-16.1s-19.3-41.2-25-42.8S380.1,271.5,386.9,265.2L386.9,265.2z"/>
			<path class="st0" d="M88.7,530.4c0,0-1.2,215.1,103.4,86.2c20.1-24.7,32.4-131.2,14-132.7c-18.4-1.5-25.7,5.5-26.2-0.5
				c-1.4-18.4-13-7.5-27-0.2c-14,7.3-22.3,3.8-12-3.5s-33.1,9.6-41.9,14.7S88.7,530.4,88.7,530.4L88.7,530.4z"/>
			<path class="st1" d="M93.7,515.2c-3.2,1.8-6.1,5.3-8.7,9.9c-11,19-17.9,57.6-21.9,80.3c-5,28.2,11.9,59.5,19.4,59.5
				s7.5,22.5,1.9,55.6s56.9,23.8,85.1,25.7s129.6-10.6,139-15s-6.3-21.3-19.4-33.2s-61.3-10-72.6-10s-81.4,11.3-55.1-25
				c26.3-36.3,77-136.5,28.8-164.6C141.9,470.1,93.7,515.2,93.7,515.2L93.7,515.2z"/>
			<g>
				<path class="st5" d="M233.1,721.3L233.1,721.3c4.7-0.6,9.5-1.2,14.1-0.4c3.2-0.1,7,0.5,10.3,0.3c3.5-0.3,7,0.4,10.5,0.5l1.8,0.1
					c1.3,0.1,2.3,0.5,3.5,0.6c2.4,0.2,5,0.4,7.2,1.6c1,0.5,2.1,1.3,3,2c1,0.6,1.9,1.6,2.7,2.4c0.4,0.4,0.8,0.8,1.4,0.9
					c-1.2,0-2.2-1-3.2-1.5c-0.8-0.5-2.2-1.1-3.1-1.5c-2.5-1.3-5.3-1.3-8.1-1.3c-1.2,0-2.4-0.4-3.5-0.4l-1.7,0
					c-2.3,0.1-4.7-0.4-7-0.4c-1.6-0.1-3.6,0-5.2,0c-3.1-0.2-5.1-0.7-8.9-1C242.3,722,237.8,722,233.1,721.3L233.1,721.3z"/>
				<path class="st5" d="M253.8,701.1L253.8,701.1c4.2-0.6,8.4-1.3,12.5-0.3l3,0.6c2.6,0.5,5.2,0.5,7.8,1.5c2.4,0.9,5,1.8,7.2,3.2
					c2.2,1.3,4.4,2.6,6.6,3.9c1.5,0.8,3.1,1.6,3.8,3.4c0.1,0.4,0.4,0.8,0.7,1.3c0.3,0.4,0.2,1.2,0.2,1.7c0.1,0.8,1.3,1.5,1.4,2.6
					c-0.4-1-1.5-1.2-2.2-2.3c-0.3-0.6-0.1-0.9-0.4-1.3c-0.3-0.3-0.7-0.7-1-1.3c-0.9-1.3-3-1.7-4.9-2.7c-1.9-0.9-3.7-1.8-5.6-2.7
					c-2.6-1.4-5.4-2.3-8.2-3.3c-1.9-0.5-4-0.7-6-1.3c-3-0.8-5.7-2-8.8-2.2C257.9,701.6,255.8,701.4,253.8,701.1L253.8,701.1z"/>
				<path class="st5" d="M357.6,714.2L357.6,714.2c4.2-0.6,8.3-1.5,12.7-0.8c5.2,1,10.2,2.5,15.2,4.2c2.9,0.8,6,2.7,8.6,3.8
					c1.8,0.7,3.8,1,5.9,1.4c2,0.4,4.2,1,5.9,2.3c-2-0.7-4-0.8-6.1-0.8c-2.1-0.1-4.2-0.1-6.4-0.7c-3.1-0.9-5.7-2.4-8.8-3.2
					c-4.9-1.6-9.9-3.2-14.8-4.7C366.1,714.7,361.8,714.9,357.6,714.2L357.6,714.2z"/>
				<path class="st5" d="M385.8,698.3L385.8,698.3c2.6-0.6,5.4-1.1,8.1-0.4c1.3,0.3,2.5,0.9,3.7,1.4c1.3,0.5,4.2,1.5,5.5,2.1
					c1.9,0.8,3.6,2.4,4.9,3.8c1.3,1.4,2.9,2.8,3.8,4.7c0.3,0.6,0.6,1.4,0.3,2c-0.1-1-1.1-1.5-1.7-2.2c-0.2-0.2-0.5-0.4-0.7-0.6
					c-2.1-1.3-4.2-3-6.3-4.3c-2.2-1.2-4.6-1.9-6.9-3c-1.1-0.5-2.2-1.3-3.4-1.8C391,699.1,388.4,698.9,385.8,698.3L385.8,698.3z"/>
				<path class="st5" d="M478.4,742L478.4,742c2.4-0.6,4.9-0.9,7.3-1.1c2.7-0.2,5.2,0.7,7.6,1.7c1.9,1.1,3.7,1.6,5.7,2.3
					c2.1,0.9,3.9,2.3,5.3,4c1.4,1.5,3.1,2.9,4.1,4.8c-1.7-1.3-3.6-2.1-5.4-3.3c-2.1-1.6-4.3-2.8-6.9-3.3c-1.4-0.3-2.9-1.1-4.1-1.8
					c-1.7-0.8-3.7-1.7-5.4-2.1C483.9,742.8,481,742.6,478.4,742L478.4,742z"/>
				<path class="st5" d="M494.8,732.6L494.8,732.6c2.1-0.6,4.1-1.1,6.3-1.2c1.5,0,3,0.8,4,1.3c1.5,0.9,3.1,1.4,4.5,2.7l1.2,1.2
					c2.3,2.4,4.9,5.2,5.2,8.7c-2.3-3.1-5.6-5.2-8.3-7.7c-1.1-1-2.8-1.5-4-2.4c-1-0.7-1.8-1.3-2.7-1.5
					C498.9,733.3,496.8,733.2,494.8,732.6L494.8,732.6z"/>
				<path class="st5" d="M525.8,726.9L525.8,726.9c1.8-0.6,3.6-1.1,5.6-1.1c2.7,0.3,4.8,1.3,6.8,2.6c2,1.5,3.6,3.6,4,6
					c0.2,0.8,0.7,1.8,0.5,2.8c-0.5-0.8-1.2-1.3-1.8-2.1c-0.3-0.3-0.6-0.9-0.9-1.2c-1-1.3-2.2-2.2-3.5-3.1c-1.8-1-3.8-2.1-5.5-2.7
					C529.3,727.7,527.5,727.6,525.8,726.9L525.8,726.9z"/>
				<path class="st5" d="M530,716.1L530,716.1c1.2-0.5,2.3-1.1,3.6-0.9c1.3,0.3,2.4,0.9,3.4,1.6c2.3,1.4,4.4,3.7,5.3,6.3
					c0.3,0.8,0.2,1.4,0.5,2.1c0.2,0.3,0.4,0.8,0.4,1.2c-0.3-0.3-0.6-0.4-1-0.6c-0.9-0.5-1.6-1.8-2.3-2.5c-1.3-1.5-3-2.9-4.6-4.2
					l-1.6-1.4C532.8,716.6,531.4,716.7,530,716.1L530,716.1z"/>
			</g>
		</g>
		<g id="d">
			<path class="st6" d="M465.1,125.1c1,26.9-1.9,65.4-9.5,73.9c-3.4,3.8,2.7,11.9,10.5,19.8c-1.4-5.4-4.7-10.9-3.3-15.1
				c1.4-10.1,10.4-17.5,8.1-28.1c0.9,0.1-0.3-2.5,0.6-2.4c3.6-26.5,8-52.9,16.1-78.8c1.6-5.4,13.8-5.6,18.3-11.5
				c3.3-4.2-0.1-13,5.9-16c2.9-0.6,7.7-1.8,7.8-2.7c0.7-19.4,19.4-19.7,31.8-29.2c-4.7,14.2-1.2,29.6-8.7,44.4c-4,8.8-2,22-3.5,33
				c-0.6,4.6-9,4.4-9.7,9.9c0.7,1.9,2.2,4,2,5.8c0.7,1.9-4.1,3.2-3.5,5.1c3,12.5-4,16.2-14.8,20.3c6.2,9.2-6.8,9.3-10.3,14.4
				c-5.8,8.5-7.1,18.6-9.2,26.7c-2.6,13.7-10.6,23-16.8,34c6.5,5.7,11.9,9.8,11.9,9.8s23.7-51.8,25-61.2s59.5-59.2,61.1-108.3
				c1.6-49,12.4-64.4-24.5-59.4C513.5,14.8,464.2,98.3,465.1,125.1L465.1,125.1z"/>
			<path class="st7" d="M461.8,210.1c-1.4,4.7,2.1,10.7,3.7,16.6c3.8,3.8,8,7.7,11.8,11c6.8-12.1,15.5-22.3,18.4-37.3
				c2.2-8.9,3.7-19.9,10-29.2c3.8-5.6,18.1-5.7,11.3-15.8c11.8-4.5,19.5-8.6,16.2-22.3c-0.7-2.1,4.5-3.5,3.8-5.6
				c0.3-2-1.5-4.3-2.2-6.4c0.8-6,9.9-5.8,10.6-10.8c1.6-12-0.5-26.6,3.8-36.2c8.3-16.2,4.4-33,9.6-48.6c-13.6,10.4-34,10.7-34.8,32
				c-0.1,1-5.4,2.3-8.5,2.9c-6.5,3.2-2.7,12.9-6.4,17.5c-4.9,6.5-18.2,6.7-20,12.6c-8.9,28.3-13.8,57.2-17.7,86.2
				c-1-0.1-1.9,1.9-2.9,1.7C471,190,463.3,199.1,461.8,210.1L461.8,210.1z"/>
			<path class="st4" d="M473.3,118c0.9,24.4-1.7,59.5-8.7,67.3c-3.1,3.4,2.4,10.8,9.6,18c-1.3-4.9-4.2-9.9-3-13.8
				c1.2-9.2,9.5-16,7.4-25.6c0.8,0.1-0.3-2.3,0.6-2.2c3.2-24.1,7.3-48.1,14.7-71.7c1.5-4.9,12.5-5.1,16.6-10.5
				c3-3.8-0.1-11.9,5.3-14.5c2.6-0.5,7-1.6,7.1-2.4c0.7-17.7,17.6-18,29-26.6c-4.3,13-1.1,26.9-8,40.4c-3.6,8-1.8,20.1-3.2,30.1
				c-0.6,4.2-8.2,4-8.8,9c0.6,1.8,2,3.7,1.8,5.3c0.6,1.8-3.8,2.9-3.2,4.7c2.7,11.4-3.7,14.8-13.5,18.5c5.7,8.4-6.2,8.5-9.4,13.1
				c-5.3,7.8-6.5,16.9-8.3,24.3c-2.4,12.4-9.6,20.9-15.3,31c5.9,5.1,10.9,8.9,10.9,8.9s21.6-47.1,22.7-55.7s54.1-53.9,55.6-98.5
				c1.5-44.6,11.3-58.6-22.3-54C517.3,17.6,472.4,93.6,473.3,118L473.3,118z"/>
		</g>
		<g id="e">
			<path class="st6" d="M431.8,107.5c0.2,25.6,8.5,61.6,16.2,69.4c3.4,3.4-2.1,11.4-9.2,19.3c1.1-5.2,4-10.5,2.6-14.6
				c-1.7-9.5-11.2-16-9.4-26.1c-0.9,0.2,0.7-2.7-0.1-2.6c-4.5-25.1-11.7-47.2-20.5-71.6c-1.8-5-11.4-7.6-16-13
				c-3.4-3.9-0.4-12.4-6.2-15c-2.8-0.4-7.4-1.4-7.5-2.2c-14.7-25.1-21.2-12.9-33.4-21.5c5.1,13.4,4.2,23.1,12,36.9
				c4.1,8.2,2.8,20.9,4.7,31.3c0.8,4.3,8.7,3.8,9.6,9c-0.6,1.9-2,3.9-1.7,5.7c-0.6,1.9,4.1,2.8,3.5,4.7c-2.3,12,4.5,15.3,14.9,18.8
				c-5.5,9,6.9,8.6,10.4,13.3c5.9,7.9,7.6,17.4,9.8,25.1c3.1,12.9,11,21.5,17.4,31.8c-6,5.6-11,9.8-11,9.8s-24.7-48.4-26.3-57.3
				c-1.6-8.9-59.1-54-62.6-100.7c-3.5-46.7-14.5-60.9,20.9-57.6C385.3,3.7,431.7,81.9,431.8,107.5L431.8,107.5z"/>
			<path class="st7" d="M443.4,184.4c1.5,4.1-1.5,9.6-2.6,14.8c-3.2,3.6-6.8,7.1-10.1,10.2c-6.5-10.5-14.6-19.2-17.7-32.4
				c-2.3-7.8-4-17.5-10-25.5c-3.6-4.8-16.3-4.4-10.6-13.6c-10.6-3.6-17.6-6.9-15.2-19.1c0.6-1.9-4.2-2.9-3.6-4.8
				c-0.3-1.8,1.1-3.8,1.7-5.8c-0.9-5.3-9-4.8-9.8-9.2c-1.9-10.6-0.6-23.6-4.8-31.9c-8-14.1-13-31-18.1-44.7
				c12.5,8.7,38.4,10.1,39.9,29c0.2,0.9,4.9,1.9,7.7,2.3c5.9,2.6,2.9,11.3,6.4,15.3c4.6,5.6,16.4,5.3,18.2,10.4
				c9,24.8,14.4,50.2,19,75.8c0.9-0.2,2.2,6,3.1,5.8C434.9,171.3,441.6,174.6,443.4,184.4L443.4,184.4z"/>
			<path class="st4" d="M431.4,106.6c0.1,24.5,8.2,58.8,15.4,66.2c3.2,3.3-2,10.9-8.8,18.4c1.1-4.9,3.8-10.1,2.4-13.9
				c-1.6-9.1-10.7-15.2-9-24.9c-0.8,0.1,0.7-2.6-0.1-2.4c-4.3-23.9-11.2-45.1-19.6-68.3c-1.7-4.8-10.9-7.2-15.2-12.4
				c-3.2-3.7-0.4-11.9-5.9-14.3c-2.6-0.4-7.1-1.3-7.2-2.1c-14-24-20.2-12.3-31.9-20.5c4.8,12.8,4,22,11.5,35.2
				c3.9,7.8,2.7,20,4.5,29.9c0.7,4.1,8.3,3.6,9.2,8.6c-0.5,1.8-1.9,3.8-1.6,5.4c-0.5,1.8,3.9,2.7,3.4,4.5
				c-2.2,11.5,4.3,14.6,14.3,17.9c-5.3,8.6,6.6,8.2,9.9,12.7c5.6,7.5,7.2,16.6,9.4,23.9c3,12.3,10.5,20.5,16.6,30.3
				c-5.7,5.4-10.5,9.3-10.5,9.3S394.5,164,393,155.5c-1.5-8.5-56.4-51.5-59.8-96s-13.8-58,20-55C387,7.6,431.2,82.2,431.4,106.6
				L431.4,106.6z"/>
		</g>
		<g>
			<path class="st6" d="M505.3,273.6c-0.4-0.3-0.7-0.7-1.1-1C504.5,273,504.9,273.3,505.3,273.6z"/>
			<path class="st6" d="M505.3,292.5c2.8,0.7,5.2,1.9,7.4,3.6c9.7-16.5,6.4-36.8,0.7-53.3c-1-0.4-2-0.9-3-1.4c0,5,1,9,3,13
				c-2-1-5-1-7-2c0,4,5,7,3,11c-1,1-3-1-5-1c3,4,3,9,5,13c-0.8-1.5-2.6-1.3-3.9-2c3.6,3.3,6.6,5.4,2.9,10c0,1,4,1,3,3h-4
				C510.3,288.5,507.3,290.5,505.3,292.5z"/>
			<path class="st3" d="M388.3,295.5c-2.2,1.4-4.3,1.8-6.4,1.5c3.2,19.9,18.4,37.5,74.7,34.4c28.1-1.6,47.9-21.3,56.1-35.3
				c-2.2-1.7-4.5-2.9-7.4-3.6c2-2,5-4,2-6h4c1-2-3-2-3-3c3.6-4.5,0.7-6.6-2.9-10c-0.4-0.2-0.8-0.5-1.1-1c0.4,0.4,0.7,0.7,1.1,1
				c1.3,0.6,3.2,0.5,3.9,2c-2-4-2-9-5-13c2,0,4,2,5,1c2-4-3-7-3-11c2,1,5,1,7,2c-2-4-3-8-3-13c1,0.5,2,1,3,1.4
				c-5.1-14.7-12-26.3-13.6-29.8c0,1-0.1,2.2-0.1,3.4c-0.1,4.2-7.7,6.9-14.8,7.1s-6-10.9-6.4-18.4s8-11.1,12.9-12.1
				c0.8-0.2,1.4-0.2,2,0c-2.5-7.5-5.3-14.7-8.5-20.7c-2.6,10.6-7.4,28.2-11.8,29.4c-6.4,1.7-18,18.9-18,23.9
				c0,4.1,1.3,30.4-3.3,40.8c-0.9,2.1-2.1,3.5-3.5,4.1c-8.7,3.3-25.1,7.6-29.5-1.6s-0.9-42.1-1.6-48.7c-0.7-6.6-3.5-22.9-5.4-23.9
				c-1.9-0.9-6.1-6.6-6.6-8.3c-0.1-0.2,0-1,0.1-2.2c-5.4,14-9.6,29.7-8.8,39.8c0.4,4.7-0.5,8.7-2,12.6c0.2,1.5,1.2,2.4,2.9,3.2
				c-3,3-5,5-2,9h-5c0,3,2,5,3,7c1,4-4,4-6,6c4,5,4,9,0,13s4,7,3,11c-1,1-4,1-5,2C388.3,290.5,389.3,293.5,388.3,295.5L388.3,295.5z
				"/>
			<path class="st6" d="M381.3,275.5c-0.1,4.2-0.9,12.5,0.6,21.5c2.1,0.3,4.2-0.1,6.4-1.5c1-2,0-5-3-6c1-1,4-1,5-2c1-4-7-7-3-11
				s4-8,0-13c2-2,7-2,6-6c-1-2-3-4-3-7h5c-3-4-1-6,2-9c-1.7-0.9-2.7-1.7-2.9-3.2C390.2,248.5,381.7,257.6,381.3,275.5L381.3,275.5z"
				/>
		</g>
		<path class="st8" d="M467.6,204.3l-54.9-13.5c0,0-1.4,25.1-1.4,30.5s-0.5,11.1-2.4,17c-1.9,5.9-11.8,27.9-10.9,37.6
			c1.7,17.2,8.7,19.1,15.1,21.5c6.4,2.4,22-3.7,22-3.7c4.2,8,34.3,11.3,43.7-14.6c5.1-14.1-8.3-39.5-13-48.2
			C461.2,222.1,467.6,204.4,467.6,204.3L467.6,204.3z"/>
		<path class="st6" d="M420.3,223.5c-1,0-1-3-3-3c-0.1,0.1-0.1,0.1-0.2,0.2c0.5,7.6-2.8,39.2,1.6,48.2c4.5,9.2,12.8,16.4,21.5,13.1
			c1.4-0.6,10.6-13.5,11.5-15.5c4.7-10.5,6.3-38.2,6.3-42.3c0-2,1.3-5.6,3.4-9.4c-0.5-0.8-1.2-1.2-2.1-0.2c-2,2-3,7-5,10
			c-1-2,1-5-3-6c0,2-1,3-2,5c1-3-1-5-1-8c-2,1-2,3-3,5c-3-3-8-1-9-6c0,2-1,5-2,5c-2,1-2-2-2-4c-2,2-4,4-4,7c-2-1-3-4-5-4
			C420.3,217.5,422.3,222.5,420.3,223.5L420.3,223.5z"/>
		<path class="st9" d="M405.1,185.9c-0.1,1.2-0.2,2-0.1,2.2c0.5,1.7,2.2,12.5,4.1,13.4c1.9,0.9,7.3,12.1,8,18.7c0,0.2,0,0.3,0,0.5
			c0.1-0.1,0.1-0.1,0.2-0.2c2,0,2,3,3,3c2-1,0-6,3-5c2,0,3,3,5,4c0-3,2-5,4-7c0,2,0,5,2,4c1,0,2-3,2-5c1,5,6,3,9,6c1-2,1-4,3-5
			c0,3,2,5,1,8c1-2,2-3,2-5c4,1,2,4,3,6c2-3,3-8,5-10c0.9-0.9,1.6-0.6,2.1,0.2c3.1-5.8,7.8-12,11.7-13c4.4-1.1,9.3-18.8,11.8-29.4
			c-3.9-7.3-8.5-12.8-14-14.8c-13.9-5.2-28.9-12.9-57.2,3.8C407.8,164.8,408.9,176,405.1,185.9L405.1,185.9z"/>
		<g id="f">
			<path class="st10" d="M484.9,223.6c7.1-0.1,14.6-2.9,14.8-7.1c0-1.2,0.1-2.3,0.1-3.4c-0.2-0.4-0.3-0.8-0.4-1.1
				c-1.9-6.2-3.8-12.7-5.9-19c-0.5-0.2-1.2-0.2-2,0c-4.9,1.1-13.3,4.7-12.9,12.1C478.9,212.6,477.8,223.7,484.9,223.6L484.9,223.6z"
				/>
			<path class="st6" d="M496.7,212.1c0,1.3-0.1,3-0.1,4.7c-0.1,4.2-7,6.2-14.1,6.4s-5-7.2-5.4-14.6s7.6-13.7,12.5-14.8
				c4.5-1,3.6,3.8,6.3,12.8C496.5,208.3,496.8,210.2,496.7,212.1L496.7,212.1z"/>
			<path class="st11" d="M493.9,208.1c0.6,2,0.7,7.3-5.3,9.5s-6.7-5.6-7.1-10.6c-0.4-5,7.5-7.6,7.5-7.6S493.3,206.1,493.9,208.1z"/>
			<path class="st5" d="M488.7,216c-3.7,0.2-3.5-3.4-4.7-6.9c-1.2-3.5,0.4-11.4,5.7-10.5c3.8,0.7,5,8.1,5,8.1
				C495.2,208,494.6,215.8,488.7,216z"/>
		</g>
		<g id="g">
			<path class="st6" d="M397.9,210c0,1,0.3,3.1,0.3,4.4c0.1,3.1,2.1,2.6,4.9,2.7s3.4-4.2,3.5-9.8c0.2-5.6-3.2-9.8-4.9-11.1
				c-0.4-0.4-1.9,2.4-3,9.1C398.6,206.6,397.9,208.6,397.9,210L397.9,210z"/>
			<path class="st11" d="M400.1,207c-0.2,1.5-0.3,5.5,2.1,7.1s2.6-4.2,2.8-7.9s-2.9-5.7-2.9-5.7S400.3,205.5,400.1,207z"/>
			<path class="st5" d="M399.6,206.5c-0.2,1,0,6.8,2.3,7c1.4,0.1,1.4-2.5,1.8-5.2s-0.2-8.5-2.2-7.9
				C400.1,201,399.6,206.6,399.6,206.5L399.6,206.5z"/>
		</g>
		<g id="h">
			<path class="st12" d="M471,262.3L471,262.3c7.2-0.3,13.4-4.2,20.2-6.3c2.3-0.7,4.7-1.2,7.1-1.4c4.7-0.5,9.4-1.2,14.1-1.8
				c9.4-1.2,19-0.8,28.4-0.8c9.5,0,19.1,1.1,28.2,4c4.5,1.4,9.1,3,13,5.6l0.1,0.1l-0.1,0l-0.6-0.1l0.6,0l0,0
				c-4.2-2.2-8.7-3.6-13.3-4.7c-9.1-2.4-18.5-3.2-27.9-3c-8.3,0-20.1-0.3-28.2,0.7c-4.7,0.4-9.4,1.1-14.1,1.4
				C489,256.4,480.5,262.7,471,262.3L471,262.3z"/>
			<path class="st12" d="M575.4,277.2L575.4,277.2c0-0.6-0.3-1.1-0.7-1.5c-1.1-1.3-2.6-2.2-4-3.1c-1.9-1.2-3.8-2.5-5.8-3.5
				c-4.1-1.9-8.8-1.3-13.2-0.5c-4.5,0.8-9,1.4-13.5,2c-4.5,0.8-9.2,0.8-13.7,0.7c-4-0.1-9.7-0.1-13.6-0.2c-4.6-0.2-9.1-0.5-13.6-0.9
				c-4.6-0.5-9-1.5-13.4-1.5c-4.5-0.1-8.8,1.9-13.5,1.8v-1.9c7.6,0.1,14.1,4.4,21.2,6.1c1.7,0.5,3.5,0.7,5.3,0.7
				c1.9,0.2,3.8,0.6,5.5,1.1c5.2,1.8,10.6,2.5,16.1,3.2c4.5,0.8,9,1.9,13.4,3.3c1.8,0.5,3.6,0.7,5.4,1.5c2.5,1.2,4.3,3.5,6.7,4.9
				c3,2,5.6,5.2,8.7,6.8l-0.6-0.1l0.6,0c-1.6-0.7-3.2-1.8-4.6-3c-2-2-4.4-3.3-6.7-4.8c-1.5-1-2.8-2.4-4.4-3s-3.5-0.8-5.3-1.3
				c-2.7-0.8-5.2-1.5-8-2c-5.4-1.3-10.9-1.4-16.3-2.5c-3.6-0.8-7-2.1-10.6-2.4c-1.9-0.1-3.8-0.3-5.6-0.7c-7.1-1.7-13.5-5.9-20.8-5.9
				v-1.9c4.5,0,8.8-2,13.4-1.9c4.7,0,9.2,1,13.6,1.6c4.4,0.5,9,0.8,13.5,1c9,0,18.1,1.1,27.1,0c4.5-0.6,9-1.1,13.5-1.8
				c4.5-0.6,9.4-1,13.6,1.1c2,1.1,3.9,2.4,5.7,3.7c1.4,1,2.8,2,3.9,3.3C575.1,276.1,575.4,276.6,575.4,277.2L575.4,277.2z"/>
			<path class="st12" d="M409.6,257.8L409.6,257.8c-6.1-0.3-10.9-5.3-16.8-5.2c-6-0.4-11.6-3.2-17.3-4.7c-5.6-1.5-11.6-1.7-17.5-1.8
				c-3-0.1-6,0-9-0.3c-1.5-0.1-3-0.3-4.4-0.1c-1.4,0.2-2.7,1.3-4.2,1.4c1.5-0.3,2.5-1.5,4.1-1.9c3-0.7,6-0.2,9-0.5
				c7.5-0.3,15.2-0.8,22.5,1.2c5.8,1.5,11,4.4,17,5.3c0.7,0.1,1.6,0.2,2.3,0.4C400.4,252.8,404.3,257,409.6,257.8L409.6,257.8z"/>
			<path class="st12" d="M407.4,267.4L407.4,267.4c-13.7,0.7-27.3-3.1-40.8-4.3c-2.9-0.3-7.2-0.4-10.2-0.5
				c-8.5-0.3-17.1-1.1-25.6-0.2c-1.7,0.2-3.4,0.4-5,1c1.5-0.8,3.2-1.2,4.9-1.5c8.4-1.8,17.1-1.3,25.7-1.2c3,0,7.4,0,10.3,0.4
				C380.5,262.4,393.7,266.5,407.4,267.4L407.4,267.4z"/>
			<path class="st12" d="M409.4,273L409.4,273c-5,0.4-9.3,2.8-14.3,3.8c-2.4,0.5-5,0.4-7.4,0.6c-4.7,0.3-9.6,1-13.8,3.2
				c-3.1,1.7-6,4.3-9.2,6l-1.6,0.9c-1.6,1-3.4,1.5-5.1,2.2c-1,0.5-2.3,1-2.8,2.1c0.3-1.2,1.6-1.9,2.6-2.6c1.3-0.8,2.8-1.4,4-2.2
				c1.7-1.2,3.6-2.4,5.3-3.6c1.9-1.5,3.8-3.1,6-4.4c4.5-2.6,9.6-3.3,14.6-3.5c2.4-0.1,4.8,0.1,7.3-0.3
				C399.7,274.5,404.5,272.5,409.4,273L409.4,273z"/>
		</g>
		<path class="st5" d="M445.7,276.6c-4.5,4.1-7.9,10.3-10.7,10.5c-4.3,0.4-7.1-7.2-11.2-9.5c-6.5-3.6-1.2-12.3,12-12.3
			S452.7,270.2,445.7,276.6L445.7,276.6z"/>
	</g>
</g>
</svg>
