<svg xmlns="http://www.w3.org/2000/svg" xmlns:xlink="http://www.w3.org/1999/xlink" viewBox="0 0 143.27 117.25"><defs><style>.cls-1{fill:#717f4a;}.cls-2{fill:url(#linear-gradient);}.cls-3{fill:url(#radial-gradient);}</style><linearGradient id="linear-gradient" x1="0.11" y1="58.72" x2="113.89" y2="58.72" gradientUnits="userSpaceOnUse"><stop offset="0.34" stop-color="#7a8850"/><stop offset="0.97" stop-color="#89a44a"/></linearGradient><radialGradient id="radial-gradient" cx="56.97" cy="58.62" r="58.02" gradientUnits="userSpaceOnUse"><stop offset="0.38" stop-color="#8fa460"/><stop offset="1" stop-color="#7a8850"/></radialGradient></defs><g id="Layer_2" data-name="Layer 2"><g id="Layer_1-2" data-name="Layer 1"><path class="cls-1" d="M64.42,69.11S43.07,43.25,67.79,35.94s51.12,5.62,55.62-2.81,28.09-23.59,16.85-5.05-33.14,25.14-47.75,23.8-5.06,26.23,12.92,17.23,50,6.72,21.91,6.16S86.89,73.58,88,90.44H72.85Z"/><path class="cls-2" d="M65.4,114s1.73-19.86-4.31-16-25,22.88-26.77,12.52,26.77-18.13,19.86-22-22.45,12.52-29.36,8.2-.43-14.67,7.77-15.54S55,74.41,36.91,73.05-3.67,52.7.65,36.3,13.17,16.87,13.17,25.07,27.1,59,32.87,55.83s11.5-8.31,0-17.81S5.83,14.28,20.08,18.6,51.16,57,49,63.93s15.54-12.52,9.5-19S27.85,5.21,37.34,1.33s13.39,3,13.39,10.36,2.15,23.74,9.49,18.13S70.58-10.33,73.61,8.24,64.54,33.27,68,44.5s10.8,21.15,17.7,3,5.18-33.67,11.23-19,4.75,28.49-2.59,34.1-28.49,19-16.84,17.27,19-9.07,28.06-10.36,13.82,19-2.16,19.42S76.2,79,76.63,95s1.27,22.23,1.27,22.23H65.28Z"/><path class="cls-3" d="M65.4,114c.17-2.18.25-4.37.22-6.55a32.38,32.38,0,0,0-.62-6.52A5.88,5.88,0,0,0,63.64,98a1.66,1.66,0,0,0-1.5-.42,4.6,4.6,0,0,0-1.45.73c-1.8,1.26-3.47,2.67-5.17,4-3.39,2.76-6.77,5.55-10.42,8a24.69,24.69,0,0,1-5.82,3,4.61,4.61,0,0,1-3.23,0,3.38,3.38,0,0,1-1.73-2.65,5.79,5.79,0,0,1,.32-3.24,9.94,9.94,0,0,1,1.71-2.8,26.69,26.69,0,0,1,4.9-4.35c3.55-2.56,7.43-4.61,11-7.08a12.28,12.28,0,0,0,2.45-2.15,1.68,1.68,0,0,0,.42-1.47A2.13,2.13,0,0,0,54,88.52,5.53,5.53,0,0,0,50.87,88a13.29,13.29,0,0,0-3.16.78c-4.1,1.54-7.8,3.93-11.7,5.91a29.11,29.11,0,0,1-6.07,2.48,8.64,8.64,0,0,1-3.28.24A5.51,5.51,0,0,1,23.74,96,5.73,5.73,0,0,1,22,93.21a6.62,6.62,0,0,1,.05-3.28,11.43,11.43,0,0,1,3.47-5.51,12.65,12.65,0,0,1,5.75-3.08c1.08-.25,2.18-.3,3.25-.51s2.13-.43,3.19-.72a25.74,25.74,0,0,0,6.07-2.36,6.23,6.23,0,0,0,1.29-1,1.25,1.25,0,0,0,.43-1.37,2.42,2.42,0,0,0-1.23-.93,5.4,5.4,0,0,0-.76-.29,7.59,7.59,0,0,0-.78-.22,42.79,42.79,0,0,0-6.48-.89,34.56,34.56,0,0,1-6.45-1.27,47.77,47.77,0,0,1-11.9-5.48A49.51,49.51,0,0,1,7.86,57.91,32.4,32.4,0,0,1,1.05,46.75a19.88,19.88,0,0,1-1-6.49,22.13,22.13,0,0,1,1.23-6.45,41.15,41.15,0,0,1,2.41-6.12,20.06,20.06,0,0,1,3.71-5.43,5.79,5.79,0,0,1,2.85-1.68,2.25,2.25,0,0,1,1.67.34,3,3,0,0,1,1,1.38,9.68,9.68,0,0,1,.48,3.27,17.59,17.59,0,0,0,.56,3.2,61.63,61.63,0,0,0,5,12.07A61.8,61.8,0,0,0,26,51.79c1.42,1.6,3,3.3,5,4a3.9,3.9,0,0,0,.76.13,1.86,1.86,0,0,0,.74-.13,3.07,3.07,0,0,0,.71-.34l.71-.4a19.16,19.16,0,0,0,2.64-1.89A8.94,8.94,0,0,0,38.6,50.7a7,7,0,0,0,.59-1.48,6.44,6.44,0,0,0,.12-1.58,9.93,9.93,0,0,0-2.7-5.72,36.56,36.56,0,0,0-4.73-4.49c-1.69-1.4-3.35-2.81-5-4.25a116.34,116.34,0,0,1-9.49-9.09,30.24,30.24,0,0,1-2.06-2.58,9.08,9.08,0,0,1-.85-1.44,2.15,2.15,0,0,1-.17-1.75,1.28,1.28,0,0,1,.74-.58,2.91,2.91,0,0,1,.87-.13,8.44,8.44,0,0,1,1.67.16,19.54,19.54,0,0,1,3.19.87A20.29,20.29,0,0,1,26.45,22a41.86,41.86,0,0,1,4.76,4.56A76.88,76.88,0,0,1,39,37.12a99.78,99.78,0,0,1,6.22,11.57c.91,2,1.75,4,2.47,6.1a32.64,32.64,0,0,1,1.62,6.4,10.41,10.41,0,0,1,0,1.68,7.48,7.48,0,0,1-.3,1.63,1,1,0,0,0,0,.62c0,.06.25,0,.47-.08a5.77,5.77,0,0,0,1.28-.91,29.29,29.29,0,0,0,4.23-4.92,31.26,31.26,0,0,0,3.21-5.65,11.51,11.51,0,0,0,1.12-6.23,4.74,4.74,0,0,0-.53-1.46,7,7,0,0,0-1-1.24c-.73-.81-1.43-1.66-2.13-2.51q-2.07-2.55-4-5.19-3.91-5.28-7.48-10.8A106.39,106.39,0,0,1,37.8,14.68a38.11,38.11,0,0,1-2.34-6.16A13.5,13.5,0,0,1,35,5.23,4.64,4.64,0,0,1,36,2a3.52,3.52,0,0,1,1.44-.95L39,.52,40.6.14C41.16.09,41.71,0,42.27,0a8.51,8.51,0,0,1,1.67.16c.28.06.55.11.82.18l.79.31a7.09,7.09,0,0,1,2.66,2,9.41,9.41,0,0,1,1,1.37,13.78,13.78,0,0,1,.7,1.51,15,15,0,0,1,.84,3.21c.08.55.13,1.1.18,1.65s0,1.11,0,1.65c0,1.09.06,2.18.14,3.27a54,54,0,0,0,.86,6.47,23.51,23.51,0,0,0,2,6.16,5.92,5.92,0,0,0,2,2.38,3,3,0,0,0,3,0c2-.9,3.14-2.87,4.11-4.78a79.06,79.06,0,0,0,4.34-12.33c.61-2.1,1.2-4.2,1.87-6.29A23.65,23.65,0,0,1,70.43,3.9a6.15,6.15,0,0,1,.44-.73,1.15,1.15,0,0,1,.78-.54.94.94,0,0,1,.78.55A4.17,4.17,0,0,1,72.8,4,29.94,29.94,0,0,1,74,10.42a27.8,27.8,0,0,1,.2,3.29A32.78,32.78,0,0,1,74.12,17,41.46,41.46,0,0,1,70.6,29.64a59.4,59.4,0,0,0-2.32,6.11,15.16,15.16,0,0,0-.63,6.41,29.42,29.42,0,0,0,1.89,6.23,27,27,0,0,0,3.09,5.72,10.72,10.72,0,0,0,2.25,2.31,4.28,4.28,0,0,0,3,.93,4.9,4.9,0,0,0,2.8-1.4,12.12,12.12,0,0,0,2-2.51,32.34,32.34,0,0,0,2.84-5.86q1.17-3.06,2.11-6.2c1.26-4.19,2.21-8.46,3.16-12.73.24-1.06.49-2.13.79-3.19a12.46,12.46,0,0,1,.53-1.56,3.83,3.83,0,0,1,.39-.75,1.26,1.26,0,0,1,.28-.33l.18-.15.24-.07a.81.81,0,0,1,.46.06,1.6,1.6,0,0,1,.37.25,3.38,3.38,0,0,1,.56.64A11.27,11.27,0,0,1,95.43,25c.5,1,1,2,1.38,3a51.65,51.65,0,0,1,3.59,12.61A33.26,33.26,0,0,1,100,53.64a18.53,18.53,0,0,1-2.68,6A18,18,0,0,1,92.5,64.1c-3.55,2.57-7.15,5-10.65,7.66-1.75,1.31-3.49,2.64-5.11,4.1a14.19,14.19,0,0,0-2.21,2.38c-.28.42-.59,1-.22,1.4a2.5,2.5,0,0,0,1.52.33,37.7,37.7,0,0,0,12.53-3.51c4-1.78,7.78-4,11.89-5.56a28.43,28.43,0,0,1,3.13-1c.53-.15,1.07-.22,1.61-.33a6.46,6.46,0,0,1,1.64-.14,7,7,0,0,1,5.38,3.4,11.88,11.88,0,0,1,1.92,6.22,9.62,9.62,0,0,1-1.88,6.18,9.45,9.45,0,0,1-5.51,3.37,22.76,22.76,0,0,1-6.54.33,85.83,85.83,0,0,1-12.93-2.2,17.13,17.13,0,0,0-6.48-.49A4.18,4.18,0,0,0,77.93,88a7.88,7.88,0,0,0-1.07,3.06,36.61,36.61,0,0,0-.13,6.54l.25,6.56c.21,4.37.44,8.74.93,13.08v0H65.28Zm0,0-.12,3.24H77.89c-.49-4.35-.73-8.72-1-13.09l-.26-6.55A36.84,36.84,0,0,1,76.81,91,7.83,7.83,0,0,1,77.89,88a4.24,4.24,0,0,1,2.68-1.77c2.18-.43,4.38.08,6.52.48A84.51,84.51,0,0,0,100,88.86a23,23,0,0,0,6.52-.34A9.34,9.34,0,0,0,112,85.19a9.47,9.47,0,0,0,1.85-6.13,11.7,11.7,0,0,0-1.91-6.15A6.21,6.21,0,0,0,105,69.7c-.53.11-1.08.17-1.6.33a28.21,28.21,0,0,0-3.12,1c-4.09,1.55-7.87,3.8-11.87,5.57a37.66,37.66,0,0,1-12.59,3.55,2.54,2.54,0,0,1-1.62-.38.82.82,0,0,1-.19-.84,2.76,2.76,0,0,1,.37-.75,14.3,14.3,0,0,1,2.24-2.42c1.63-1.47,3.36-2.8,5.11-4.12C85.25,69,88.85,66.52,92.39,64a17.69,17.69,0,0,0,4.72-4.44,18.11,18.11,0,0,0,2.65-5.93,32.78,32.78,0,0,0,.42-13,51.32,51.32,0,0,0-3.59-12.55c-.42-1-.87-2-1.37-3a10.21,10.21,0,0,0-.83-1.39,3,3,0,0,0-.52-.6,1.48,1.48,0,0,0-.3-.21c-.11,0-.23-.08-.33,0-.44.12-.7.68-.91,1.15a15.47,15.47,0,0,0-.52,1.54c-.29,1-.54,2.11-.78,3.18-.94,4.27-1.88,8.55-3.15,12.74-.63,2.1-1.32,4.18-2.1,6.22a31.71,31.71,0,0,1-2.87,5.92,12,12,0,0,1-2.08,2.57,5.24,5.24,0,0,1-3,1.48,4.61,4.61,0,0,1-3.16-1,10.82,10.82,0,0,1-2.31-2.37,27.27,27.27,0,0,1-3.14-5.79,29,29,0,0,1-1.91-6.3A15.41,15.41,0,0,1,68,35.66a60.72,60.72,0,0,1,2.33-6.15A40.82,40.82,0,0,0,73.78,17a29.51,29.51,0,0,0,.11-3.26,25.32,25.32,0,0,0-.2-3.25,29.74,29.74,0,0,0-1.22-6.38,3.88,3.88,0,0,0-.34-.71C72,3.15,71.82,3,71.66,3s-.36.19-.5.4a5,5,0,0,0-.41.67,23.17,23.17,0,0,0-1.15,3c-.67,2.08-1.25,4.19-1.86,6.29a80.62,80.62,0,0,1-4.36,12.39,17.84,17.84,0,0,1-1.71,2.84,7.12,7.12,0,0,1-2.58,2.13,3.41,3.41,0,0,1-3.32-.05,6.22,6.22,0,0,1-2.18-2.54,23.64,23.64,0,0,1-2.05-6.27,52.92,52.92,0,0,1-.88-6.52c-.08-1.1-.13-2.19-.14-3.29,0-.55,0-1.09-.05-1.63s-.09-1.08-.17-1.61a15.09,15.09,0,0,0-.82-3.12,11.37,11.37,0,0,0-.68-1.46A9.84,9.84,0,0,0,47.88,3,7,7,0,0,0,42.27.44c-.53,0-1.06.09-1.6.14L39.1.94c-1,.4-2.13.59-2.79,1.38a4.14,4.14,0,0,0-.89,2.9A13.23,13.23,0,0,0,35.9,8.4a37.3,37.3,0,0,0,2.32,6.08,104.74,104.74,0,0,0,6.45,11.39c2.36,3.67,4.86,7.26,7.46,10.77,1.31,1.75,2.64,3.48,4,5.17.69.85,1.38,1.69,2.11,2.5a7.34,7.34,0,0,1,1.05,1.32,5.18,5.18,0,0,1,.58,1.61,11.94,11.94,0,0,1-1.16,6.51,32.08,32.08,0,0,1-3.26,5.73,29.78,29.78,0,0,1-4.32,5,6.64,6.64,0,0,1-1.38,1,2.06,2.06,0,0,1-.46.14.61.61,0,0,1-.58-.22,1.34,1.34,0,0,1-.1-1,6.57,6.57,0,0,0,.3-1.57,9.51,9.51,0,0,0,0-1.6,31.62,31.62,0,0,0-1.59-6.3c-.71-2.06-1.54-4.08-2.44-6.07a100.36,100.36,0,0,0-6.18-11.52A77,77,0,0,0,30.9,26.83a41.71,41.71,0,0,0-4.7-4.51A19.85,19.85,0,0,0,20.64,19a18.72,18.72,0,0,0-3.12-.86A7.87,7.87,0,0,0,15.93,18c-.51,0-1.08.12-1.28.5a1.81,1.81,0,0,0,.19,1.41,8.68,8.68,0,0,0,.8,1.38,27.65,27.65,0,0,0,2,2.54,115.53,115.53,0,0,0,9.44,9.07c1.64,1.44,3.31,2.86,5,4.26a36.45,36.45,0,0,1,4.77,4.53,10.34,10.34,0,0,1,2.77,5.93,5.93,5.93,0,0,1-.13,1.68,6.62,6.62,0,0,1-.63,1.56,9,9,0,0,1-2.12,2.55,18.79,18.79,0,0,1-2.69,1.92l-.72.41a3.35,3.35,0,0,1-.76.37,2.5,2.5,0,0,1-.86.14,4.86,4.86,0,0,1-.85-.14c-2.16-.76-3.68-2.49-5.13-4.11a63.12,63.12,0,0,1-7.15-11,62.11,62.11,0,0,1-5-12.15,17.84,17.84,0,0,1-.57-3.25,9.41,9.41,0,0,0-.45-3.19,2.69,2.69,0,0,0-.89-1.25,2,2,0,0,0-1.46-.29,5.44,5.44,0,0,0-2.71,1.6,19.93,19.93,0,0,0-3.66,5.35,41.3,41.3,0,0,0-2.4,6.08A21.86,21.86,0,0,0,.25,40.27a19.38,19.38,0,0,0,1,6.4A32.05,32.05,0,0,0,8,57.76a49.34,49.34,0,0,0,10,8.39,47.93,47.93,0,0,0,11.85,5.47,35,35,0,0,0,6.41,1.27,44.57,44.57,0,0,1,6.5.9,7.15,7.15,0,0,1,.79.23,5.2,5.2,0,0,1,.78.29,2.6,2.6,0,0,1,1.32,1,1.42,1.42,0,0,1-.46,1.57,6.44,6.44,0,0,1-1.33,1,26.34,26.34,0,0,1-6.12,2.38c-1.06.28-2.13.52-3.21.71s-2.18.26-3.23.5a12.62,12.62,0,0,0-5.69,3A11.41,11.41,0,0,0,22.21,90a6.58,6.58,0,0,0-.05,3.21,5.56,5.56,0,0,0,1.67,2.72,5.31,5.31,0,0,0,2.85,1.43,8.35,8.35,0,0,0,3.22-.24A28.35,28.35,0,0,0,36,94.62c3.9-2,7.6-4.36,11.72-5.9a13.92,13.92,0,0,1,3.19-.79,5.77,5.77,0,0,1,3.22.5,2.18,2.18,0,0,1,1.17,1.14,1.73,1.73,0,0,1-.44,1.56,11.83,11.83,0,0,1-2.47,2.16c-3.61,2.47-7.5,4.52-11.05,7.08a26.17,26.17,0,0,0-4.89,4.33,10,10,0,0,0-1.7,2.77,5.75,5.75,0,0,0-.32,3.2,3.35,3.35,0,0,0,1.7,2.62,4.52,4.52,0,0,0,3.18,0,24.59,24.59,0,0,0,5.81-3c3.65-2.41,7-5.19,10.43-8,1.7-1.38,3.38-2.78,5.17-4a4.58,4.58,0,0,1,1.46-.74,1.66,1.66,0,0,1,1.52.43A6,6,0,0,1,65,100.93a33.11,33.11,0,0,1,.61,6.52C65.65,109.63,65.57,111.82,65.4,114Z"/></g></g></svg>