<svg xmlns="http://www.w3.org/2000/svg" xmlns:xlink="http://www.w3.org/1999/xlink" viewBox="0 0 851.16 689.46"><defs><style>.cls-1{fill:#ceb47b;}.cls-2{fill:#404040;}.cls-3{fill:#35273a;}.cls-4{fill:url(#radial-gradient);}.cls-5{fill:#3b2f41;}.cls-6{fill:#403445;}.cls-7{fill:#2e2033;}.cls-8{fill:#e4dfeb;}.cls-9{fill:url(#radial-gradient-2);}.cls-10{fill:#bbbad3;}.cls-11{fill:#392c3e;}.cls-12{fill:#f8f8f8;}.cls-13{fill:#9f9ec1;}.cls-14{fill:#c1c0d7;}.cls-15{fill:url(#radial-gradient-3);}.cls-16{fill:url(#radial-gradient-4);}.cls-17{fill:url(#radial-gradient-5);}.cls-18{fill:url(#radial-gradient-6);}.cls-19{fill:url(#radial-gradient-7);}.cls-20{fill:url(#radial-gradient-8);}.cls-21{fill:url(#radial-gradient-9);}.cls-22{fill:url(#radial-gradient-10);}.cls-23{fill:url(#linear-gradient);}.cls-24{fill:url(#linear-gradient-2);}.cls-25{fill:url(#linear-gradient-3);}.cls-26{fill:url(#linear-gradient-4);}.cls-27{fill:url(#linear-gradient-5);}.cls-28{fill:#322538;}.cls-29{fill:#302235;}.cls-30{fill:#c5c2c7;}.cls-31{fill:url(#linear-gradient-6);}.cls-32{fill:url(#linear-gradient-7);}.cls-33{fill:url(#linear-gradient-8);}.cls-34{fill:url(#linear-gradient-9);}.cls-35{fill:url(#linear-gradient-10);}.cls-36{fill:#caad70;}.cls-37{fill:url(#linear-gradient-11);}.cls-38{fill:url(#linear-gradient-12);}.cls-39{fill:url(#linear-gradient-13);}.cls-40{fill:#d5be8c;}.cls-41{fill:#eee4d0;}.cls-42{fill:#574c5b;}.cls-43{fill:url(#linear-gradient-14);}.cls-44{fill:url(#linear-gradient-15);}.cls-45{fill:url(#linear-gradient-16);}.cls-46{fill:url(#linear-gradient-17);}.cls-47{fill:url(#linear-gradient-18);}.cls-48{fill:url(#linear-gradient-19);}.cls-49{fill:url(#linear-gradient-20);}.cls-50{fill:url(#linear-gradient-21);}.cls-51{fill:url(#linear-gradient-22);}.cls-52{fill:url(#linear-gradient-23);}.cls-53{fill:url(#linear-gradient-24);}.cls-54{fill:url(#linear-gradient-25);}.cls-55{fill:url(#linear-gradient-26);}.cls-56{fill:url(#linear-gradient-27);}.cls-57{fill:url(#linear-gradient-28);}.cls-58{fill:url(#linear-gradient-29);}.cls-59{fill:url(#linear-gradient-30);}.cls-60{fill:url(#linear-gradient-31);}.cls-61{fill:url(#linear-gradient-32);}.cls-62{fill:url(#linear-gradient-33);}.cls-63{fill:url(#linear-gradient-34);}</style><radialGradient id="radial-gradient" cx="325.89" cy="290.52" r="134.82" gradientUnits="userSpaceOnUse"><stop offset="0" stop-color="#bd994c"/><stop offset="1" stop-color="#e5d6b7"/></radialGradient><radialGradient id="radial-gradient-2" cx="514.11" cy="227.88" r="43.32" gradientUnits="userSpaceOnUse"><stop offset="0" stop-color="#97919a"/><stop offset="1" stop-color="#190a1f"/></radialGradient><radialGradient id="radial-gradient-3" cx="569.62" cy="524.97" r="101.81" xlink:href="#radial-gradient"/><radialGradient id="radial-gradient-4" cx="711.76" cy="477.67" r="32.72" xlink:href="#radial-gradient-2"/><radialGradient id="radial-gradient-5" cx="668.34" cy="291.97" r="101.81" xlink:href="#radial-gradient"/><radialGradient id="radial-gradient-6" cx="810.48" cy="244.66" r="32.72" xlink:href="#radial-gradient-2"/><radialGradient id="radial-gradient-7" cx="524.35" cy="71.57" r="74.32" xlink:href="#radial-gradient"/><radialGradient id="radial-gradient-8" cx="628.12" cy="37.04" r="23.88" xlink:href="#radial-gradient-2"/><radialGradient id="radial-gradient-9" cx="205.69" cy="545.26" r="74.32" gradientTransform="translate(-27.52 13.9) rotate(-2.89)" xlink:href="#radial-gradient"/><radialGradient id="radial-gradient-10" cx="309.46" cy="510.73" r="23.88" gradientTransform="translate(-27.52 13.9) rotate(-2.89)" xlink:href="#radial-gradient-2"/><linearGradient id="linear-gradient" x1="-876.95" y1="632.01" x2="-824.31" y2="632.01" gradientTransform="matrix(-1, 0, 0, 1, -394.86, 0)" gradientUnits="userSpaceOnUse"><stop offset="0" stop-color="#9ccbef"/><stop offset="1" stop-color="#1383d9"/></linearGradient><linearGradient id="linear-gradient-2" x1="-944.61" y1="644.68" x2="-772.48" y2="644.68" xlink:href="#linear-gradient"/><linearGradient id="linear-gradient-3" x1="-924.07" y1="631.62" x2="-782.96" y2="631.62" gradientTransform="matrix(-1, 0, 0, 1, -394.86, 0)" gradientUnits="userSpaceOnUse"><stop offset="0" stop-color="#91badd"/><stop offset="1" stop-color="#190a1f"/></linearGradient><linearGradient id="linear-gradient-4" x1="-796.35" y1="640.48" x2="-731.91" y2="640.48" gradientTransform="matrix(-1, 0, 0, 1, -394.86, 0)" gradientUnits="userSpaceOnUse"><stop offset="0" stop-color="#9ccbef"/><stop offset="1" stop-color="#f2ecdd"/></linearGradient><linearGradient id="linear-gradient-5" x1="-907.53" y1="654.14" x2="-880.29" y2="654.14" gradientTransform="matrix(-1, 0, 0, 1, -394.86, 0)" gradientUnits="userSpaceOnUse"><stop offset="0.46" stop-color="#91badd"/><stop offset="1" stop-color="#bd994c"/><stop offset="1" stop-color="#d4bd8b"/></linearGradient><linearGradient id="linear-gradient-6" x1="-792.89" y1="512.31" x2="-771.97" y2="512.31" xlink:href="#linear-gradient"/><linearGradient id="linear-gradient-7" x1="-819.76" y1="517.34" x2="-751.39" y2="517.34" xlink:href="#linear-gradient"/><linearGradient id="linear-gradient-8" x1="-811.6" y1="512.15" x2="-755.55" y2="512.15" xlink:href="#linear-gradient-3"/><linearGradient id="linear-gradient-9" x1="-760.87" y1="515.67" x2="-735.27" y2="515.67" xlink:href="#linear-gradient-4"/><linearGradient id="linear-gradient-10" x1="-805.03" y1="521.1" x2="-794.21" y2="521.1" xlink:href="#linear-gradient-5"/><linearGradient id="linear-gradient-11" x1="-900.07" y1="555.37" x2="-820.56" y2="555.37" gradientTransform="matrix(-1, 0.1, 0.1, 1, -441.67, 82.83)" gradientUnits="userSpaceOnUse"><stop offset="0" stop-color="#e0b291"/><stop offset="1" stop-color="#cc7e48"/></linearGradient><linearGradient id="linear-gradient-12" x1="-831.58" y1="553.43" x2="-801.82" y2="553.43" xlink:href="#linear-gradient-11"/><linearGradient id="linear-gradient-13" x1="-882.94" y1="559.74" x2="-870.36" y2="559.74" gradientTransform="matrix(-1, 0.1, 0.1, 1, -441.67, 82.83)" gradientUnits="userSpaceOnUse"><stop offset="0" stop-color="#e0b291"/><stop offset="1" stop-color="#f7eae2"/></linearGradient><linearGradient id="linear-gradient-14" x1="-469.33" y1="394.62" x2="-454.8" y2="394.62" gradientTransform="matrix(-0.96, 0.28, 0.28, 0.96, -495.77, 172.72)" xlink:href="#linear-gradient"/><linearGradient id="linear-gradient-15" x1="-487.99" y1="398.12" x2="-440.51" y2="398.12" gradientTransform="matrix(-0.96, 0.28, 0.28, 0.96, -495.77, 172.72)" xlink:href="#linear-gradient"/><linearGradient id="linear-gradient-16" x1="-482.33" y1="394.51" x2="-443.4" y2="394.51" gradientTransform="matrix(-0.96, 0.28, 0.28, 0.96, -495.77, 172.72)" xlink:href="#linear-gradient-3"/><linearGradient id="linear-gradient-17" x1="-447.09" y1="396.96" x2="-429.31" y2="396.96" gradientTransform="matrix(-0.96, 0.28, 0.28, 0.96, -495.77, 172.72)" xlink:href="#linear-gradient-4"/><linearGradient id="linear-gradient-18" x1="-477.76" y1="400.73" x2="-470.25" y2="400.73" gradientTransform="matrix(-0.96, 0.28, 0.28, 0.96, -495.77, 172.72)" xlink:href="#linear-gradient-5"/><linearGradient id="linear-gradient-19" x1="-563.05" y1="336.5" x2="-538.73" y2="336.5" gradientTransform="matrix(-1, 0.1, 0.1, 1, -441.67, 82.83)" xlink:href="#linear-gradient"/><linearGradient id="linear-gradient-20" x1="-594.3" y1="342.35" x2="-514.79" y2="342.35" gradientTransform="matrix(-1, 0.1, 0.1, 1, -441.67, 82.83)" xlink:href="#linear-gradient"/><linearGradient id="linear-gradient-21" x1="-584.81" y1="336.32" x2="-519.63" y2="336.32" gradientTransform="matrix(-1, 0.1, 0.1, 1, -441.67, 82.83)" xlink:href="#linear-gradient-3"/><linearGradient id="linear-gradient-22" x1="-525.81" y1="340.41" x2="-496.05" y2="340.41" gradientTransform="matrix(-1, 0.1, 0.1, 1, -441.67, 82.83)" xlink:href="#linear-gradient-4"/><linearGradient id="linear-gradient-23" x1="-577.17" y1="346.72" x2="-564.59" y2="346.72" gradientTransform="matrix(-1, 0.1, 0.1, 1, -441.67, 82.83)" xlink:href="#linear-gradient-5"/><linearGradient id="linear-gradient-24" x1="-1182.49" y1="133.1" x2="-1158.17" y2="133.1" gradientTransform="matrix(-1, -0.04, -0.04, 1, -412.74, -66.2)" xlink:href="#linear-gradient"/><linearGradient id="linear-gradient-25" x1="-1213.75" y1="138.96" x2="-1134.23" y2="138.96" gradientTransform="matrix(-1, -0.04, -0.04, 1, -412.74, -66.2)" xlink:href="#linear-gradient"/><linearGradient id="linear-gradient-26" x1="-1204.26" y1="132.92" x2="-1139.08" y2="132.92" gradientTransform="matrix(-1, -0.04, -0.04, 1, -412.74, -66.2)" xlink:href="#linear-gradient-3"/><linearGradient id="linear-gradient-27" x1="-1145.26" y1="137.02" x2="-1115.49" y2="137.02" gradientTransform="matrix(-1, -0.04, -0.04, 1, -412.74, -66.2)" xlink:href="#linear-gradient-4"/><linearGradient id="linear-gradient-28" x1="-1196.62" y1="143.33" x2="-1184.04" y2="143.33" gradientTransform="matrix(-1, -0.04, -0.04, 1, -412.74, -66.2)" xlink:href="#linear-gradient-5"/><linearGradient id="linear-gradient-29" x1="-1261.48" y1="218.07" x2="-1203.78" y2="218.07" xlink:href="#linear-gradient-11"/><linearGradient id="linear-gradient-30" x1="-1211.78" y1="216.67" x2="-1190.18" y2="216.67" xlink:href="#linear-gradient-11"/><linearGradient id="linear-gradient-31" x1="-1249.05" y1="221.24" x2="-1239.92" y2="221.24" xlink:href="#linear-gradient-13"/><linearGradient id="linear-gradient-32" x1="-451.11" y1="469.05" x2="-409.24" y2="469.05" xlink:href="#linear-gradient-11"/><linearGradient id="linear-gradient-33" x1="-415.05" y1="468.03" x2="-399.37" y2="468.03" xlink:href="#linear-gradient-11"/><linearGradient id="linear-gradient-34" x1="-442.09" y1="471.35" x2="-435.46" y2="471.35" xlink:href="#linear-gradient-13"/></defs><g id="Layer_2" data-name="Layer 2"><g id="Layer_1-2" data-name="Layer 1"><g id="SchoolofFish"><g id="Fish"><path class="cls-1" d="M356.38,195.41c-6.65,23.83-21.61,75.36-19.95,78.69,0,0,2.94,7.82-12.33,4.7.38,18.16,2.8,35.77,1.49,53.79,3-3.09,5-5.57,5.52-7,2.8-8.14,4.21-11.5,6.73-.56s32.55,43.21,21.89,68.74c-.77,1.85-1.61,3.66-2.5,5.46,9.81-11.57,13.88-27,7.06-42.25-22.84-51.11-2.18-101.13,13-149,2.17-8.7-1.09-19.58-7.62-21.75a125.27,125.27,0,0,0-24.61-6.46l-1.1.32C353.44,181,359.39,184.63,356.38,195.41Z"/><path class="cls-2" d="M286.52,178.67c6.63,1.08,12.75,2,17.77,2.33,11.84.91,28.32-2,39.72-.91l1.1-.32C326,176.69,306.31,177.42,286.52,178.67Z"/><path class="cls-3" d="M382.77,178.62c-11.5-9.74-24.45-2.91-37.66,1.15a125.27,125.27,0,0,1,24.61,6.46c6.53,2.17,9.79,13.05,7.62,21.75-15.23,47.85-35.89,97.87-13,149,6.82,15.21,2.75,30.68-7.06,42.25-11.39,23-30.94,41.27-20.79,43.09,4.23.76,23-9.41,45.3-22,16.16-33.87,15-75,5.38-113.4-5.43-23.93,4.35-47.85,14.14-69.6S400.17,192.75,382.77,178.62Z"/><path class="cls-4" d="M424.29,172.55c-9.72-3.67-25-7-48-6.51-48.21,1.11-60.95,13.24-77,7.45s-83.68-14.65-105.85-12.44,12.2,11.85,29.93,9.8c13.61-1.56,41.24,4.27,63.13,7.82,19.79-1.25,39.47-2,58.59,1.1,13.21-4.06,26.16-10.89,37.66-1.15,17.4,14.13,28.28,37,18.49,58.72s-19.57,45.67-14.14,69.6c9.6,38.37,10.78,79.53-5.38,113.4,21-11.82,45.06-25.76,63-34.7,16.26-28.57,21.61-61.79,20.68-95C463.62,250,456.55,197.32,424.29,172.55Z"/><path class="cls-5" d="M566.81,286a88.46,88.46,0,0,0-9-2.53s10.66-4.21,5.61-7.29c-1.06-.65-3-.92-5.48-1.08a4.56,4.56,0,0,1-1.19,2.47c-6.7,8.61-18.45,13-18.2,25.08a66.31,66.31,0,0,1,6.35-2.9C565.12,291.62,570.74,287.41,566.81,286Z"/><path class="cls-6" d="M469.84,377.73c-.64,3.68-3.44,15.82-13.59,23.6-12.06,9.26,22.17-.56,25.82-6.73,2-3.44,4.32-9.23,7.22-14.21A31.23,31.23,0,0,0,469.84,377.73Z"/><path class="cls-2" d="M529.87,310.92c-.53-1.63-1.11-3.26-1.79-4.84.55,1.66,1.14,3.29,1.79,4.87Z"/><path class="cls-7" d="M528.08,306.08a30,30,0,0,0-1.76-3.49c-13.05-16.31-28.27-23.93-47.85-27.19-3.26-33.71-14.13-63.07-38.06-90.26-.85-1.7-1.69-3.39-2.48-5.09-1.76-1.51-6-4.6-13.64-7.5,32.26,24.77,39.33,77.43,41.13,118.08.93,33.22-4.42,66.44-20.68,95,12.33-6.14,21.75-9.91,25.26-9,0,0,0,.39-.16,1.09a31.23,31.23,0,0,1,19.45,2.66c2.3-4,5-7.43,8.21-8.8,7.3-3.09,31.15-25.54,33.11-57.8a3.43,3.43,0,0,1-.74-2.84C529.22,309.37,528.63,307.74,528.08,306.08Z"/><path class="cls-8" d="M524.16,262.72c-3.63-6.09-14.7-17.91-27.83-30.78,8.82,13,18.72,25.18,23.47,40.2,2.65,10.07,4.53,22.73,8.28,33.94.68,1.58,1.26,3.21,1.79,4.84.32-2,2.21-4.83,8.7-8.26-.25-12.06,11.5-16.47,18.2-25.08a4.56,4.56,0,0,0,1.19-2.47C548.67,274.51,531.69,275.35,524.16,262.72Z"/><path class="cls-9" d="M496.33,231.94C474.93,211,448.05,187.22,439,181a12.82,12.82,0,0,0-1-.95c.79,1.7,1.63,3.39,2.48,5.09,23.93,27.19,34.8,56.55,38.06,90.26,19.58,3.26,34.8,10.88,47.85,27.19a30,30,0,0,1,1.76,3.49c-3.75-11.21-5.63-23.87-8.28-33.94C515.05,257.12,505.15,245,496.33,231.94Z"/><path class="cls-10" d="M268.61,267.73c9.45,7,24.95,22.18,23.78,44.93-1.69,32.55-14.88,61.45-14.88,61.45l1.63-1.29c7.59-17.91,20.73-32.63,26.42-50.66C311.85,297,289.92,279.27,268.61,267.73Z"/><path class="cls-11" d="M279.14,372.82c6.94-5.57,34.45-27.83,46.45-40.23,1.31-18-1.11-35.63-1.49-53.79a100.39,100.39,0,0,1-15.27-4.7c-32.24-12.26-41.05-12.08-47.23-11a58.9,58.9,0,0,1,7,4.58c21.31,11.54,43.24,29.27,36.95,54.43C299.87,340.19,286.73,354.91,279.14,372.82Z"/><path class="cls-12" d="M507.83,243.06c0,4.6-.85,10-5.45,10s-11.21-5.41-11.21-10a8.33,8.33,0,1,1,16.66,0Z"/><path class="cls-13" d="M507.33,242c0,3.17-1,5.21-4.12,5.21s-4.91-1.45-4.91-4.63.3-6.34,3.4-6.34A5.7,5.7,0,0,1,507.33,242Z"/><path class="cls-14" d="M505.55,239.37c0,1.44-.41,2.36-1.59,2.34s-1.85-.69-1.83-2.12.16-2.87,1.33-2.85A2.38,2.38,0,0,1,505.55,239.37Z"/></g><g id="Fish-2" data-name="Fish"><path class="cls-1" d="M592.65,453.15c-5,18-16.32,56.91-15.07,59.42,0,0,2.22,5.91-9.31,3.55.28,13.72,2.11,27,1.12,40.62,2.26-2.33,3.79-4.2,4.17-5.3,2.12-6.14,3.18-8.69,5.09-.42s24.58,32.63,16.53,51.91q-.88,2.1-1.89,4.12c7.41-8.74,10.48-20.41,5.33-31.9-17.25-38.6-1.64-76.38,9.85-112.51,1.65-6.57-.82-14.78-5.75-16.43a94.37,94.37,0,0,0-18.59-4.88l-.83.25C590.42,442.26,594.92,445,592.65,453.15Z"/><path class="cls-2" d="M539.89,440.5c5,.82,9.63,1.47,13.42,1.77,8.94.68,21.38-1.51,30-.69l.83-.25C569.7,439,554.84,439.56,539.89,440.5Z"/><path class="cls-3" d="M612.58,440.46c-8.69-7.35-18.47-2.19-28.45.87a94.37,94.37,0,0,1,18.59,4.88c4.93,1.65,7.4,9.86,5.75,16.43-11.49,36.13-27.1,73.91-9.85,112.51,5.15,11.49,2.08,23.16-5.33,31.9-8.61,17.38-23.37,31.17-15.7,32.54,3.19.57,17.38-7.1,34.21-16.58,12.2-25.58,11.31-56.66,4.06-85.64-4.1-18.07,3.29-36.13,10.68-52.56S625.72,451.14,612.58,440.46Z"/><path class="cls-15" d="M643.93,435.89c-7.34-2.78-18.88-5.32-36.21-4.92-36.41.83-46,10-58.17,5.62s-63.2-11.06-79.94-9.39,9.21,8.94,22.6,7.4c10.28-1.18,31.15,3.22,47.68,5.9,15-.94,29.81-1.49,44.24.83,10-3.06,19.76-8.22,28.45-.87,13.14,10.68,21.35,27.93,14,44.35s-14.78,34.49-10.68,52.56c7.25,29,8.14,60.06-4.06,85.64,15.84-8.93,34-19.46,47.57-26.2,12.28-21.58,16.32-46.67,15.62-71.76C673.63,494.35,668.3,454.59,643.93,435.89Z"/><path class="cls-5" d="M751.56,521.56a67,67,0,0,0-6.78-1.9s8.05-3.18,4.24-5.51a10.27,10.27,0,0,0-4.14-.81,3.54,3.54,0,0,1-.9,1.86c-5.06,6.5-13.94,9.83-13.75,18.94A51.9,51.9,0,0,1,735,532C750.29,525.8,754.52,522.62,751.56,521.56Z"/><path class="cls-6" d="M678.33,590.83c-.48,2.78-2.6,11.95-10.26,17.82-9.11,7,16.74-.42,19.49-5.08,1.54-2.6,3.27-7,5.45-10.73A23.58,23.58,0,0,0,678.33,590.83Z"/><path class="cls-2" d="M723.66,540.38c-.39-1.23-.84-2.46-1.35-3.66.42,1.25.86,2.49,1.35,3.68Z"/><path class="cls-7" d="M722.31,536.72a21.61,21.61,0,0,0-1.33-2.63c-9.85-12.32-21.35-18.07-36.13-20.54-2.47-25.45-10.68-47.63-28.75-68.16-.64-1.28-1.28-2.56-1.87-3.84a34.42,34.42,0,0,0-10.3-5.66c24.37,18.7,29.7,58.46,31.06,89.16.7,25.09-3.34,50.18-15.62,71.76,9.31-4.64,16.43-7.49,19.08-6.8,0,0,0,.3-.12.82a23.58,23.58,0,0,1,14.68,2c1.74-3,3.77-5.61,6.21-6.65,5.51-2.33,23.52-19.28,25-43.65a2.58,2.58,0,0,1-.56-2.14C723.17,539.21,722.73,538,722.31,536.72Z"/><path class="cls-8" d="M719.35,504c-2.74-4.6-11.1-13.53-21-23.25,6.66,9.84,14.14,19,17.73,30.36,2,7.61,3.42,17.16,6.25,25.63.51,1.2,1,2.43,1.35,3.66.25-1.48,1.67-3.65,6.57-6.24C730,525,738.92,521.7,744,515.2a3.54,3.54,0,0,0,.9-1.86C737.86,512.88,725,513.51,719.35,504Z"/><path class="cls-16" d="M698.33,480.73C682.17,464.9,661.88,447,655,442.27a7,7,0,0,0-.77-.72c.59,1.28,1.23,2.56,1.87,3.84,18.07,20.53,26.28,42.71,28.75,68.16,14.78,2.47,26.28,8.22,36.13,20.54a21.61,21.61,0,0,1,1.33,2.63c-2.83-8.47-4.25-18-6.25-25.63C712.47,499.75,705,490.57,698.33,480.73Z"/><path class="cls-10" d="M526.36,507.76c7.14,5.33,18.85,16.75,18,33.93-1.27,24.58-11.23,46.41-11.23,46.41l1.22-1c5.74-13.52,15.66-24.64,20-38.25C559,529.86,542.46,516.47,526.36,507.76Z"/><path class="cls-11" d="M534.31,587.12c5.24-4.21,26-21,35.08-30.38,1-13.6-.84-26.9-1.12-40.62a75.47,75.47,0,0,1-11.53-3.55c-24.35-9.26-31-9.12-35.67-8.27a44.89,44.89,0,0,1,5.29,3.46c16.1,8.71,32.66,22.1,27.91,41.11C550,562.48,540.05,573.6,534.31,587.12Z"/><path class="cls-12" d="M707,490.65c0,2.78-.64,6-4.12,6s-8.46-3.26-8.46-6,2.82-5,6.29-5S707,487.88,707,490.65Z"/><path class="cls-13" d="M706.64,491.32c0,1.92-.76,3.15-3.11,3.15s-3.71-.88-3.71-2.8.23-3.82,2.57-3.82S706.64,489.41,706.64,491.32Z"/><path class="cls-14" d="M705.81,491.25c0,.87-.31,1.42-1.2,1.41s-1.39-.41-1.38-1.28.12-1.73,1-1.72A1.57,1.57,0,0,1,705.81,491.25Z"/></g><g id="Fish-3" data-name="Fish"><path class="cls-1" d="M691.37,220.14c-5,18-16.32,56.91-15.07,59.43,0,0,2.22,5.9-9.31,3.55.28,13.71,2.11,27,1.12,40.62,2.26-2.34,3.79-4.21,4.17-5.3,2.12-6.15,3.18-8.69,5.08-.43s24.58,32.63,16.53,51.92c-.58,1.39-1.22,2.76-1.88,4.11,7.41-8.73,10.47-20.41,5.32-31.9-17.24-38.6-1.64-76.37,9.86-112.51,1.64-6.57-.82-14.78-5.75-16.42a93.86,93.86,0,0,0-18.59-4.88l-.83.24C689.14,209.25,693.64,212,691.37,220.14Z"/><path class="cls-2" d="M638.6,207.5c5,.81,9.63,1.47,13.43,1.76,8.93.69,21.38-1.51,30-.69l.83-.24C668.41,206,653.55,206.56,638.6,207.5Z"/><path class="cls-3" d="M711.3,207.46c-8.69-7.35-18.47-2.19-28.45.87a93.86,93.86,0,0,1,18.59,4.88c4.93,1.64,7.39,9.85,5.75,16.42-11.5,36.14-27.1,73.91-9.86,112.51,5.15,11.49,2.09,23.17-5.32,31.9-8.61,17.39-23.37,31.17-15.71,32.55,3.2.57,17.39-7.11,34.21-16.59,12.21-25.58,11.32-56.66,4.07-85.63-4.11-18.07,3.29-36.14,10.68-52.56S724.44,218.13,711.3,207.46Z"/><path class="cls-17" d="M742.65,202.88c-7.34-2.77-18.88-5.32-36.22-4.92-36.41.84-46,10-58.17,5.63s-63.19-11.07-79.93-9.4,9.21,8.95,22.6,7.41c10.28-1.19,31.14,3.22,47.67,5.9,14.95-.94,29.81-1.5,44.25.83,10-3.06,19.76-8.22,28.45-.87,13.14,10.67,21.35,27.92,14,44.35s-14.79,34.49-10.68,52.56c7.25,29,8.14,60.05-4.07,85.63,15.85-8.92,34-19.45,47.58-26.2,12.28-21.57,16.32-46.66,15.62-71.75C772.35,261.35,767,221.59,742.65,202.88Z"/><path class="cls-5" d="M850.28,288.56a68.19,68.19,0,0,0-6.79-1.91s8.06-3.18,4.24-5.51a10.17,10.17,0,0,0-4.13-.81,3.5,3.5,0,0,1-.9,1.86c-5.07,6.51-13.94,9.84-13.75,18.95a49.22,49.22,0,0,1,4.8-2.2C849,292.8,853.24,289.62,850.28,288.56Z"/><path class="cls-6" d="M777.05,357.83c-.49,2.77-2.6,11.94-10.26,17.82-9.11,7,16.74-.42,19.49-5.09,1.54-2.59,3.27-7,5.45-10.73A23.51,23.51,0,0,0,777.05,357.83Z"/><path class="cls-2" d="M822.38,307.37c-.4-1.23-.84-2.46-1.35-3.65.41,1.25.86,2.48,1.35,3.68Z"/><path class="cls-7" d="M821,303.72a21.74,21.74,0,0,0-1.33-2.64c-9.85-12.32-21.35-18.07-36.13-20.53-2.47-25.46-10.68-47.63-28.75-68.16-.64-1.29-1.28-2.57-1.87-3.85a34.65,34.65,0,0,0-10.3-5.66c24.36,18.71,29.7,58.47,31.06,89.17.7,25.09-3.34,50.18-15.62,71.75,9.31-4.64,16.43-7.49,19.08-6.8,0,0,0,.3-.12.83a23.51,23.51,0,0,1,14.68,2c1.74-3,3.76-5.61,6.21-6.64,5.51-2.33,23.52-19.29,25-43.65a2.6,2.6,0,0,1-.56-2.14C821.89,306.2,821.44,305,821,303.72Z"/><path class="cls-8" d="M818.07,271c-2.74-4.59-11.1-13.52-21-23.24,6.66,9.84,14.14,19,17.72,30.36,2,7.6,3.43,17.16,6.26,25.63.51,1.19,1,2.42,1.35,3.65.24-1.48,1.67-3.64,6.57-6.23-.19-9.11,8.68-12.44,13.75-18.95a3.5,3.5,0,0,0,.9-1.86C836.57,279.87,823.76,280.51,818.07,271Z"/><path class="cls-18" d="M797.05,247.73c-16.16-15.84-36.46-33.77-43.33-38.47,0,0-.25-.27-.77-.72.59,1.28,1.23,2.56,1.87,3.85,18.07,20.53,26.28,42.7,28.75,68.16,14.78,2.46,26.28,8.21,36.13,20.53a21.74,21.74,0,0,1,1.33,2.64c-2.83-8.47-4.25-18-6.26-25.63C811.19,266.74,803.71,257.57,797.05,247.73Z"/><path class="cls-10" d="M625.08,274.76c7.13,5.32,18.85,16.74,18,33.93-1.27,24.58-11.23,46.4-11.23,46.4l1.22-1c5.73-13.52,15.66-24.63,20-38.25C657.74,296.86,641.17,283.47,625.08,274.76Z"/><path class="cls-11" d="M633,354.11c5.24-4.2,26-21,35.08-30.37,1-13.61-.84-26.91-1.12-40.62a77,77,0,0,1-11.54-3.55c-24.34-9.27-31-9.12-35.66-8.27a43.32,43.32,0,0,1,5.29,3.46c16.09,8.71,32.66,22.1,27.91,41.1C648.69,329.48,638.76,340.59,633,354.11Z"/><path class="cls-12" d="M805.74,256.13c0,3.47-.65,7.56-4.12,7.56s-8.46-4.09-8.46-7.56a6.29,6.29,0,1,1,12.58,0Z"/><path class="cls-13" d="M805.13,257.48c0,2.4-.76,3.93-3.11,3.93s-3.71-1.09-3.71-3.49.22-4.79,2.57-4.79A4.3,4.3,0,0,1,805.13,257.48Z"/><path class="cls-14" d="M805.43,256.88c0,1.08-.31,1.77-1.2,1.76s-1.4-.52-1.38-1.6.12-2.17,1-2.15A1.81,1.81,0,0,1,805.43,256.88Z"/></g><g id="Fish-4" data-name="Fish"><path class="cls-1" d="M541.16,19.13c-3.66,13.14-11.91,41.55-11,43.39,0,0,1.62,4.31-6.8,2.59.21,10,1.55,19.72.82,29.65a14.83,14.83,0,0,0,3.05-3.87c1.54-4.48,2.32-6.34,3.71-.31s17.95,23.82,12.07,37.9c-.43,1-.89,2-1.38,3,5.41-6.38,7.65-14.91,3.89-23.29-12.59-28.18-1.2-55.76,7.19-82.14,1.2-4.79-.6-10.79-4.19-12A69.1,69.1,0,0,0,535,10.51l-.61.18C539.54,11.19,542.82,13.19,541.16,19.13Z"/><path class="cls-2" d="M502.65,9.9c3.65.6,7,1.08,9.8,1.29,6.52.5,15.6-1.1,21.89-.5l.61-.18C524.41,8.81,513.56,9.22,502.65,9.9Z"/><path class="cls-3" d="M555.71,9.88c-6.34-5.37-13.48-1.61-20.76.63a69.1,69.1,0,0,1,13.57,3.56c3.59,1.2,5.39,7.2,4.19,12-8.39,26.38-19.78,54-7.19,82.14,3.76,8.38,1.52,16.91-3.89,23.29-6.28,12.69-17.06,22.75-11.46,23.75,2.33.42,12.69-5.18,25-12.1,8.91-18.68,8.26-41.37,3-62.52-3-13.19,2.4-26.38,7.79-38.37S565.3,17.67,555.71,9.88Z"/><path class="cls-19" d="M578.6,6.53c-5.36-2-13.78-3.88-26.44-3.59-26.58.61-33.6,7.3-42.46,4.11S463.56-1,451.34.19s6.73,6.53,16.5,5.41c7.5-.87,22.74,2.35,34.81,4.3,10.91-.68,21.76-1.09,32.3.61,7.28-2.24,14.42-6,20.76-.63,9.59,7.79,15.59,20.38,10.19,32.37s-10.79,25.18-7.79,38.37c5.29,21.15,5.94,43.84-3,62.52,11.57-6.52,24.84-14.2,34.73-19.13,9-15.75,11.92-34.07,11.41-52.38C600.28,49.22,596.39,20.19,578.6,6.53Z"/><path class="cls-5" d="M657.17,69.08a50.61,50.61,0,0,0-4.95-1.39s5.88-2.32,3.09-4a7.4,7.4,0,0,0-3-.6,2.52,2.52,0,0,1-.65,1.36c-3.7,4.75-10.18,7.18-10,13.83a37.81,37.81,0,0,1,3.5-1.6C656.24,72.17,659.34,69.85,657.17,69.08Z"/><path class="cls-6" d="M603.71,119.65c-.35,2-1.9,8.72-7.49,13-6.65,5.1,12.22-.31,14.23-3.71,1.12-1.9,2.39-5.09,4-7.84A17.17,17.17,0,0,0,603.71,119.65Z"/><path class="cls-2" d="M636.81,82.82q-.43-1.36-1-2.67c.3.91.63,1.81,1,2.68Z"/><path class="cls-7" d="M635.82,80.15a17.41,17.41,0,0,0-1-1.93c-7.19-9-15.59-13.19-26.38-15-1.8-18.58-7.79-34.77-21-49.76-.47-.93-.94-1.87-1.37-2.81a25.3,25.3,0,0,0-7.52-4.13c17.79,13.66,21.68,42.69,22.68,65.1.51,18.31-2.44,36.63-11.41,52.38,6.8-3.39,12-5.47,13.93-5,0,0,0,.21-.09.6a17.17,17.17,0,0,1,10.72,1.46c1.27-2.19,2.75-4.09,4.53-4.85,4-1.7,17.17-14.08,18.25-31.87a1.89,1.89,0,0,1-.41-1.56C636.45,82,636.12,81.06,635.82,80.15Z"/><path class="cls-8" d="M633.66,56.24c-2-3.35-8.11-9.87-15.35-17,4.87,7.19,10.33,13.89,12.94,22.16,1.46,5.56,2.5,12.53,4.57,18.72q.55,1.3,1,2.67c.17-1.09,1.22-2.67,4.79-4.56-.14-6.65,6.34-9.08,10-13.83a2.52,2.52,0,0,0,.65-1.36C647.17,62.74,637.81,63.2,633.66,56.24Z"/><path class="cls-20" d="M618.31,39.27c-11.79-11.56-26.61-24.65-31.63-28.08a7,7,0,0,0-.56-.53c.43.94.9,1.88,1.37,2.81,13.19,15,19.18,31.18,21,49.76,10.79,1.8,19.19,6,26.38,15a17.41,17.41,0,0,1,1,1.93C633.75,74,632.71,67,631.25,61.43,628.64,53.16,623.18,46.46,618.31,39.27Z"/><path class="cls-10" d="M492.77,59c5.21,3.89,13.76,12.23,13.11,24.78-.93,17.94-8.2,33.87-8.2,33.87s.33-.25.9-.71C502.76,107.07,510,99,513.14,89,516.61,75.14,504.52,65.36,492.77,59Z"/><path class="cls-11" d="M498.58,116.94c3.82-3.07,19-15.35,25.6-22.18.73-9.93-.61-19.64-.82-29.65a56.4,56.4,0,0,1-8.42-2.59c-17.77-6.77-22.62-6.66-26-6A32.41,32.41,0,0,1,492.77,59c11.75,6.36,23.84,16.14,20.37,30C510,99,502.76,107.07,498.58,116.94Z"/><path class="cls-12" d="M624.66,45.41c0,2.53-.47,5.51-3,5.51s-6.18-3-6.18-5.51a4.6,4.6,0,1,1,9.19,0Z"/><path class="cls-13" d="M624.38,44.81c0,1.75-.56,2.88-2.27,2.88s-2.71-.81-2.71-2.56.16-3.49,1.88-3.49A3.14,3.14,0,0,1,624.38,44.81Z"/><path class="cls-14" d="M623.4,43.37c0,.79-.23,1.3-.88,1.29s-1-.38-1-1.17.08-1.58.73-1.57A1.32,1.32,0,0,1,623.4,43.37Z"/></g><g id="Fish-5" data-name="Fish"><path class="cls-1" d="M219.56,494.87c-3,13.3-9.8,42.1-8.79,43.88,0,0,1.83,4.23-6.66,2.94.71,10,2.53,19.61,2.31,29.57a15.08,15.08,0,0,0,2.85-4c1.32-4.56,2-6.45,3.69-.5s19.12,22.89,14,37.25c-.37,1-.78,2.06-1.22,3.07,5.08-6.65,6.89-15.27,2.71-23.46-14-27.51-4-55.62,3-82.39,1-4.85-1.14-10.75-4.8-11.77a69.33,69.33,0,0,0-13.73-2.87l-.6.21C217.54,487,220.92,488.85,219.56,494.87Z"/><path class="cls-2" d="M180.63,487.6c3.68.4,7.07.71,9.85.79,6.54.17,15.54-1.89,21.84-1.61l.6-.21C202.31,485.41,191.49,486.36,180.63,487.6Z"/><path class="cls-3" d="M233.63,484.89c-6.61-5-13.55-.92-20.71,1.68a69.33,69.33,0,0,1,13.73,2.87c3.66,1,5.76,6.92,4.8,11.77-7,26.77-17,54.88-3,82.39,4.18,8.19,2.37,16.81-2.71,23.46-5.64,13-15.89,23.58-10.25,24.3,2.35.3,12.41-5.82,24.33-13.35,8-19.1,6.16-41.73-.19-62.59-3.66-13,1.07-26.46,5.85-38.71S243.6,492.19,233.63,484.89Z"/><path class="cls-21" d="M256.32,480.4c-5.46-1.76-14-3.19-26.59-2.26-26.51,1.95-33.19,9-42.2,6.25s-46.48-5.74-58.63-3.91,7,6.19,16.75,4.57c7.45-1.24,22.83,1.2,35,2.55,10.86-1.24,21.68-2.19,32.29-1,7.16-2.6,14.1-6.72,20.71-1.68,10,7.3,16.59,19.57,11.81,31.82s-9.51,25.69-5.85,38.71c6.35,20.86,8.15,43.49.19,62.59,11.22-7.09,24.1-15.44,33.72-20.85,8.16-16.19,10.18-34.63,8.75-52.9C280.12,521.93,274.77,493.14,256.32,480.4Z"/><path class="cls-5" d="M337.94,538.9a50.32,50.32,0,0,0-5-1.14s5.75-2.61,2.89-4.17a7.48,7.48,0,0,0-3.05-.44,2.53,2.53,0,0,1-.59,1.39c-3.45,4.93-9.8,7.68-9.32,14.32a37.21,37.21,0,0,1,3.41-1.78C337.17,542,340.15,539.56,337.94,538.9Z"/><path class="cls-6" d="M287.1,592.1c-.25,2-1.45,8.81-6.82,13.37-6.39,5.44,12.19-.92,14-4.42,1-1.95,2.12-5.2,3.57-8A17.22,17.22,0,0,0,287.1,592.1Z"/><path class="cls-2" d="M318.3,553.65a27.57,27.57,0,0,0-1.13-2.62c.36.9.73,1.78,1.13,2.63Z"/><path class="cls-7" d="M317.17,551a15.73,15.73,0,0,0-1.06-1.87c-7.64-8.62-16.23-12.39-27.1-13.64-2.73-18.47-9.54-34.34-23.47-48.64-.51-.91-1-1.82-1.5-2.74a25.44,25.44,0,0,0-7.72-3.74c18.45,12.74,23.8,41.53,25.93,63.86,1.43,18.27-.59,36.71-8.75,52.9,6.62-3.73,11.71-6.07,13.66-5.67,0,0,0,.22-.06.61a17.22,17.22,0,0,1,10.78.92c1.16-2.25,2.54-4.23,4.28-5.07,3.93-1.9,16.44-14.93,16.63-32.75a1.85,1.85,0,0,1-.49-1.54C317.9,552.81,317.53,551.93,317.17,551Z"/><path class="cls-8" d="M313.81,527.26c-2.16-3.25-8.59-9.45-16.18-16.17,5.22,6.93,11,13.35,14,21.48,1.74,5.48,3.13,12.39,5.5,18.46a27.57,27.57,0,0,1,1.13,2.62c.12-1.09,1.08-2.73,4.56-4.79-.48-6.64,5.87-9.39,9.32-14.32a2.53,2.53,0,0,0,.59-1.39C327.63,533.07,318.31,534,313.81,527.26Z"/><path class="cls-22" d="M297.63,511.09c-12.36-10.95-27.82-23.28-33-26.45,0,0-.2-.19-.59-.5.48.92,1,1.83,1.5,2.74,13.93,14.3,20.74,30.17,23.47,48.64,10.87,1.25,19.46,5,27.1,13.64a15.73,15.73,0,0,1,1.06,1.87c-2.37-6.07-3.76-13-5.5-18.46C308.64,524.44,302.85,518,297.63,511.09Z"/><path class="cls-10" d="M173.25,537.13c5.39,3.62,14.35,11.52,14.34,24.08,0,18-6.48,34.25-6.48,34.25l.85-.76c3.69-10.07,10.51-18.54,13.15-28.63C197.87,552,185.3,542.89,173.25,537.13Z"/><path class="cls-11" d="M182,594.7c3.67-3.26,18.2-16.28,24.46-23.44.22-10-1.6-19.59-2.31-29.57a56.82,56.82,0,0,1-8.54-2.17c-18.09-5.86-22.94-5.51-26.31-4.72a32.85,32.85,0,0,1,4,2.33c12.05,5.76,24.62,14.91,21.86,28.94C192.47,576.16,185.65,584.63,182,594.7Z"/><path class="cls-12" d="M304.28,516.9c.13,2.53-.19,5.53-2.73,5.66s-6.32-2.67-6.45-5.2a4.6,4.6,0,0,1,9.18-.46Z"/><path class="cls-13" d="M304,516.32c.09,1.75-.41,2.9-2.12,3s-2.75-.66-2.84-2.41,0-3.5,1.7-3.59A3.15,3.15,0,0,1,304,516.32Z"/><path class="cls-14" d="M302.92,514.93c0,.79-.16,1.3-.81,1.33s-1-.33-1.07-1.12,0-1.58.66-1.61A1.33,1.33,0,0,1,302.92,514.93Z"/></g><g id="Fish2"><path class="cls-23" d="M435,629.75c6.09-3.35,12.79-2.13,19.5-4a8.82,8.82,0,0,0,2.95-.88c7.87,1.1,16.61-3.64,23.55,1.8,3.36,2.74-2.13,6.09-5.18,7.31-14.62,5.18-31.68,9.44-45.39,1.83C427.12,634,432.91,631,435,629.75Z"/><path class="cls-24" d="M377.62,649.73c1.1,2.36,15.55,32.56,42.23,35.8a197,197,0,0,0,49.1,0l-7,3.92s55.35.79,85.61-33.13l-2.52-3,4.72-4.56s-12.62-34.79-37-44.89S423.37,603,382.13,630.8l-1.22-.26c4.69,3.85,10.77,4.78,16.62,6.64,1.22.3,3.35.3,4,2.13A47,47,0,0,0,377.62,649.73Zm57.42-20c6.09-3.35,12.79-2.13,19.5-4a8.82,8.82,0,0,0,2.95-.88l-.21,0,.21,0a3.14,3.14,0,0,0,.4-.34,3.14,3.14,0,0,1-.4.34c7.87,1.1,16.61-3.64,23.55,1.8,3.36,2.74-2.13,6.09-5.18,7.31-14.62,5.18-31.68,9.44-45.39,1.83C427.12,634,432.91,631,435,629.75Z"/><path class="cls-25" d="M393.65,655.05c2.59.84,83-.56,87.77-8.72s11-14.33,12.37-20,35.42,3.94,35.42,3.94a33.29,33.29,0,0,0-13.49-18.55c-11-7.31-95.59-5.07-115.83,16S391.06,654.21,393.65,655.05ZM435,629.75c6.09-3.35,12.79-2.13,19.5-4a8.82,8.82,0,0,0,2.95-.88l-.21,0,.21,0a3.14,3.14,0,0,0,.4-.34,3.14,3.14,0,0,1-.4.34c7.87,1.1,16.61-3.64,23.55,1.8,3.36,2.74-2.13,6.09-5.18,7.31-14.62,5.18-31.68,9.44-45.39,1.83C427.12,634,432.91,631,435,629.75Z"/><path class="cls-26" d="M341.3,658.31c3.36-7.29-7.3-35.07-3.37-35.63,3.52-.5,36.23,6.42,43,7.86,4.69,3.85,10.77,4.78,16.62,6.64,1.22.3,3.35.3,4,2.13a47,47,0,0,0-23.87,10.42l-.07-.16C374.19,649.57,341.3,658.31,341.3,658.31Z"/><path class="cls-27" d="M512.26,663.21c-6-6.74-18.71-21.2-18.71-21.2s-13.72,17-5.49,21.2S515.75,667.15,512.26,663.21Z"/><path class="cls-28" d="M529.21,663.28c-5.25-3.93-18.1-11.9-21.51-22.09s-2.1,9.19,0,11S529.21,663.28,529.21,663.28Z"/><circle class="cls-29" cx="524.12" cy="629.13" r="5.09"/><ellipse class="cls-30" cx="527.24" cy="628.53" rx="1.51" ry="1.27"/></g><g id="Fish2-2" data-name="Fish2"><path class="cls-31" d="M379.34,511.41c2.42-1.33,5.08-.85,7.74-1.57a3.63,3.63,0,0,0,1.17-.35c3.13.43,6.6-1.45,9.36.71,1.33,1.09-.85,2.42-2.06,2.9-5.81,2.06-12.58,3.76-18,.73C376.19,513.1,378.49,511.89,379.34,511.41Z"/><path class="cls-32" d="M356.53,519.34c.43.94,6.17,12.94,16.77,14.22a78,78,0,0,0,19.51,0L390,535.12s22,.31,34-13.16l-1-1.18L424.9,519s-5-13.82-14.71-17.83-35.49-.35-51.87,10.69l-.48-.11c1.86,1.53,4.27,1.9,6.6,2.64.48.12,1.33.12,1.57.85A18.63,18.63,0,0,0,356.53,519.34Zm22.81-7.93c2.42-1.33,5.08-.85,7.74-1.57a3.63,3.63,0,0,0,1.17-.35l-.08,0,.08,0a1.07,1.07,0,0,0,.16-.14,1.07,1.07,0,0,1-.16.14c3.13.43,6.6-1.45,9.36.71,1.33,1.09-.85,2.42-2.06,2.9-5.81,2.06-12.58,3.76-18,.73C376.19,513.1,378.49,511.89,379.34,511.41Z"/><path class="cls-33" d="M362.9,521.46c1,.33,33-.23,34.86-3.46s4.35-5.7,4.91-7.93,14.07,1.56,14.07,1.56a13.19,13.19,0,0,0-5.36-7.37c-4.35-2.9-38-2-46,6.37S361.87,521.12,362.9,521.46Zm16.44-10.05c2.42-1.33,5.08-.85,7.74-1.57a3.63,3.63,0,0,0,1.17-.35l-.08,0,.08,0a1.07,1.07,0,0,0,.16-.14,1.07,1.07,0,0,1-.16.14c3.13.43,6.6-1.45,9.36.71,1.33,1.09-.85,2.42-2.06,2.9-5.81,2.06-12.58,3.76-18,.73C376.19,513.1,378.49,511.89,379.34,511.41Z"/><path class="cls-34" d="M342.1,522.75c1.34-2.89-2.9-13.93-1.34-14.15,1.4-.2,14.4,2.55,17.08,3.12,1.86,1.53,4.27,1.9,6.6,2.64.48.12,1.33.12,1.57.85a18.63,18.63,0,0,0-9.48,4.13l0-.06C355.17,519.28,342.1,522.75,342.1,522.75Z"/><path class="cls-35" d="M410,524.7c-2.38-2.68-7.43-8.42-7.43-8.42s-5.45,6.74-2.18,8.42S411.39,526.26,410,524.7Z"/><path class="cls-28" d="M416.74,524.73c-2.08-1.57-7.19-4.73-8.54-8.78s-.84,3.65,0,4.39S416.74,524.73,416.74,524.73Z"/><circle class="cls-29" cx="414.72" cy="511.16" r="2.02"/><ellipse class="cls-30" cx="415.96" cy="510.93" rx="0.6" ry="0.51"/></g><g id="Fish3"><path class="cls-36" d="M453.7,548.32c2.66-1.8,5.79-1.54,8.79-2.67a4.08,4.08,0,0,0,1.32-.54c3.67.16,7.48-2.4,10.91-.21,1.66,1.12-.71,2.9-2.06,3.59-6.5,3-14.15,5.74-20.79,2.84C450.25,550.63,452.77,549,453.7,548.32Z"/><path class="cls-37" d="M428.18,560c.6,1,8.57,14.29,21,14.61a90.52,90.52,0,0,0,22.57-2.16l-3.05,2.12s25.49-2.07,37.91-19l-1.28-1.26,2-2.3s-7.34-15.45-19-19-41.13,3.53-58.87,18.11l-.58-.07c2.33,1.56,5.17,1.73,7.94,2.33.57.08,1.55,0,1.91.8A21.77,21.77,0,0,0,428.18,560Zm25.52-11.71c2.66-1.8,5.79-1.54,8.79-2.67a4.08,4.08,0,0,0,1.32-.54h0l.17-.17-.17.17c3.67.16,7.48-2.4,10.91-.21,1.66,1.12-.71,2.9-2.06,3.59-6.5,3-14.15,5.74-20.79,2.84C450.25,550.63,452.77,549,453.7,548.32Z"/><path class="cls-38" d="M411.85,565.57c1.23-3.5-4.9-15.8-3.12-16.23,1.6-.39,16.95,1.36,20.11,1.72,2.33,1.56,5.17,1.73,7.94,2.33.57.08,1.55,0,1.91.8A21.77,21.77,0,0,0,428.18,560l0-.07C426.59,560.11,411.85,565.57,411.85,565.57Z"/><path class="cls-39" d="M490.68,560.32c-3.05-2.84-9.53-8.93-9.53-8.93s-5.57,8.4-1.6,10S492.45,562,490.68,560.32Z"/><path class="cls-40" d="M498.48,559.61c-2.59-1.58-8.85-4.68-10.86-9.21s-.57,4.31.48,5.07S498.48,559.61,498.48,559.61Z"/><circle class="cls-41" cx="494.64" cy="544.13" r="2.35"/><ellipse class="cls-42" cx="496.04" cy="543.72" rx="0.7" ry="0.59" transform="translate(-49.42 49.6) rotate(-5.45)"/></g><g id="Fish2-3" data-name="Fish2"><path class="cls-43" d="M52.44,423.63c1.35-1.36,3.22-1.56,4.86-2.56a2.48,2.48,0,0,0,.71-.46c2.17-.31,4.12-2.24,6.38-1.34,1.1.47-.1,1.78-.81,2.34-3.47,2.5-7.67,4.94-11.88,4C50.67,425.37,52,424.11,52.44,423.63Z"/><path class="cls-44" d="M38.76,433.34c.48.54,6.63,7.43,14,6.23a54.44,54.44,0,0,0,13-3.78l-1.56,1.58S78.89,433.31,84.29,422l-.9-.6.9-1.57s-6-8.25-13.27-9S47.29,417.44,38.5,428l-.34,0c1.54.66,3.22.44,4.91.48.35,0,.91-.18,1.22.26A13,13,0,0,0,38.76,433.34Zm13.68-9.71c1.35-1.36,3.22-1.56,4.86-2.56a2.48,2.48,0,0,0,.71-.46h0a.36.36,0,0,0,.08-.12.36.36,0,0,1-.08.12c2.17-.31,4.12-2.24,6.38-1.34,1.1.47-.1,1.78-.81,2.34-3.47,2.5-7.67,4.94-11.88,4C50.67,425.37,52,424.11,52.44,423.63Z"/><path class="cls-45" d="M43.42,433.52c.75,0,21.94-6.55,22.58-9.08s1.8-4.64,1.74-6.24,9.69-1.68,9.69-1.68a9.2,9.2,0,0,0-5-3.88c-3.46-1.09-25.71,6-29.45,13.17S42.67,433.49,43.42,433.52Zm9-9.89c1.35-1.36,3.22-1.56,4.86-2.56a2.48,2.48,0,0,0,.71-.46h0a.36.36,0,0,0,.08-.12.36.36,0,0,1-.08.12c2.17-.31,4.12-2.24,6.38-1.34,1.1.47-.1,1.78-.81,2.34-3.47,2.5-7.67,4.94-11.88,4C50.67,425.37,52,424.11,52.44,423.63Z"/><path class="cls-46" d="M29.8,438.41c.33-2.19-4.63-8.73-3.63-9.18s10.09-1.09,12-1.23c1.54.66,3.22.44,4.91.48.35,0,.91-.18,1.22.26a13,13,0,0,0-5.53,4.6l0,0C37.84,433.56,29.8,438.41,29.8,438.41Z"/><path class="cls-47" d="M75.47,426.54l-6.59-4.17s-2.33,5.54.18,6S76.7,427.31,75.47,426.54Z"/><path class="cls-28" d="M80,425.25c-1.7-.64-5.72-1.76-7.4-4.19s.15,2.59.85,2.92S80,425.25,80,425.25Z"/><circle class="cls-29" cx="75.99" cy="416.6" r="1.4"/><ellipse class="cls-30" cx="76.77" cy="416.2" rx="0.42" ry="0.35" transform="translate(-113.16 37.99) rotate(-16.21)"/></g><g id="Fish2-4" data-name="Fish2"><path class="cls-48" d="M129.07,365.33c2.66-1.81,5.79-1.55,8.79-2.68a4,4,0,0,0,1.32-.54c3.67.16,7.48-2.4,10.91-.2,1.67,1.11-.71,2.89-2.06,3.59-6.49,3-14.15,5.73-20.79,2.83C125.62,367.64,128.14,366,129.07,365.33Z"/><path class="cls-49" d="M103.55,377c.6,1,8.57,14.29,21,14.61a90.52,90.52,0,0,0,22.57-2.16l-3.05,2.12s25.49-2.07,37.92-19l-1.29-1.26,2-2.3s-7.34-15.45-19-19-41.13,3.53-58.87,18.11l-.57-.07c2.32,1.57,5.16,1.73,7.93,2.33.57.08,1.55,0,1.91.8A21.77,21.77,0,0,0,103.55,377Zm25.52-11.7c2.66-1.81,5.79-1.55,8.79-2.68a4,4,0,0,0,1.32-.54h0a.91.91,0,0,0,.17-.17.91.91,0,0,1-.17.17c3.67.16,7.48-2.4,10.91-.2,1.67,1.11-.71,2.89-2.06,3.59-6.49,3-14.15,5.73-20.79,2.83C125.62,367.64,128.14,366,129.07,365.33Z"/><path class="cls-50" d="M111.15,378.78c1.23.27,38.14-3.91,40-7.87s4.41-7.07,4.81-9.72,16.46.26,16.46.26a15.41,15.41,0,0,0-7-7.94c-5.36-2.88-44.17,1.87-52.56,12.45S109.92,378.5,111.15,378.78Zm17.92-13.45c2.66-1.81,5.79-1.55,8.79-2.68a4,4,0,0,0,1.32-.54h0a.91.91,0,0,0,.17-.17.91.91,0,0,1-.17.17c3.67.16,7.48-2.4,10.91-.2,1.67,1.11-.71,2.89-2.06,3.59-6.49,3-14.15,5.73-20.79,2.83C125.62,367.64,128.14,366,129.07,365.33Z"/><path class="cls-51" d="M87.22,382.57c1.23-3.5-4.9-15.8-3.11-16.23,1.59-.39,16.94,1.36,20.11,1.72,2.32,1.57,5.16,1.73,7.93,2.33.57.08,1.55,0,1.91.8A21.77,21.77,0,0,0,103.55,377l0-.07C102,377.11,87.22,382.57,87.22,382.57Z"/><path class="cls-52" d="M166.05,377.32l-9.53-8.93s-5.57,8.41-1.6,10S167.83,379,166.05,377.32Z"/><path class="cls-28" d="M173.85,376.61C171.26,375,165,371.93,163,367.4s-.57,4.31.48,5.08S173.85,376.61,173.85,376.61Z"/><circle class="cls-29" cx="170.01" cy="361.13" r="2.35"/><ellipse class="cls-30" cx="171.42" cy="360.72" rx="0.7" ry="0.59" transform="translate(-33.5 17.92) rotate(-5.45)"/></g><g id="Fish2-5" data-name="Fish2"><path class="cls-53" d="M741.46,114.37c2.88-1.43,5.95-.74,9.08-1.45a4.12,4.12,0,0,0,1.38-.35c3.61.66,7.73-1.36,10.84,1.28,1.49,1.33-1.11,2.77-2.54,3.28-6.85,2.11-14.8,3.74-21,0C737.72,116.18,740.46,114.89,741.46,114.37Z"/><path class="cls-54" d="M714.58,122.48c.46,1.11,6.54,15.33,18.8,17.34a90.9,90.9,0,0,0,22.66,1l-3.32,1.67s25.54,1.44,40.16-13.63l-1.11-1.43,2.27-2s-5.16-16.3-16.23-21.44-41.21-2.12-60.79,9.9l-.55-.15c2.09,1.87,4.88,2.42,7.54,3.39.55.17,1.54.21,1.78,1.06A21.77,21.77,0,0,0,714.58,122.48Zm26.88-8.11c2.88-1.43,5.95-.74,9.08-1.45a4.12,4.12,0,0,0,1.38-.35l-.1,0,.1,0a1.25,1.25,0,0,0,.19-.15,1.25,1.25,0,0,1-.19.15c3.61.66,7.73-1.36,10.84,1.28,1.49,1.33-1.11,2.77-2.54,3.28-6.85,2.11-14.8,3.74-21,0C737.72,116.18,740.46,114.89,741.46,114.37Z"/><path class="cls-55" d="M721.87,125.24c1.18.44,38.32,1.35,40.68-2.32s5.34-6.41,6.09-9,16.28,2.5,16.28,2.5a15.41,15.41,0,0,0-5.87-8.83c-4.92-3.58-44-4.18-53.77,5.16S720.69,124.8,721.87,125.24Zm19.59-10.87c2.88-1.43,5.95-.74,9.08-1.45a4.12,4.12,0,0,0,1.38-.35l-.1,0,.1,0a1.25,1.25,0,0,0,.19-.15,1.25,1.25,0,0,1-.19.15c3.61.66,7.73-1.36,10.84,1.28,1.49,1.33-1.11,2.77-2.54,3.28-6.85,2.11-14.8,3.74-21,0C737.72,116.18,740.46,114.89,741.46,114.37Z"/><path class="cls-56" d="M697.65,125.74c1.69-3.31-2.69-16.33-.87-16.51,1.64-.17,16.6,3.66,19.69,4.45,2.09,1.87,4.88,2.42,7.54,3.39.55.17,1.54.21,1.78,1.06a21.77,21.77,0,0,0-11.21,4.35l0-.07C713,122.34,697.65,125.74,697.65,125.74Z"/><path class="cls-57" d="M776.45,131.31l-8.22-10.15s-6.66,7.56-2.94,9.68S778,133.19,776.45,131.31Z"/><path class="cls-28" d="M784.28,131.67c-2.35-1.92-8.13-5.85-9.5-10.61s-1.15,4.19-.22,5.09S784.28,131.67,784.28,131.67Z"/><circle class="cls-29" cx="782.59" cy="115.81" r="2.35"/><ellipse class="cls-30" cx="784.04" cy="115.59" rx="0.59" ry="0.7" transform="translate(635.71 894.1) rotate(-87.6)"/></g><g id="Fish3-2" data-name="Fish3"><path class="cls-36" d="M796.07,178.71c1.93-1.31,4.2-1.12,6.38-1.94a3,3,0,0,0,1-.39c2.66.12,5.42-1.74,7.92-.15,1.2.81-.52,2.1-1.5,2.6-4.71,2.2-10.27,4.17-15.09,2.06C793.56,180.39,795.4,179.19,796.07,178.71Z"/><path class="cls-58" d="M777.55,187.21c.44.75,6.22,10.37,15.23,10.6a66.13,66.13,0,0,0,16.38-1.57L807,197.78s18.5-1.51,27.51-13.79l-.93-.91L835,181.4s-5.33-11.2-13.79-13.8-29.84,2.56-42.72,13.15l-.42-.05c1.69,1.13,3.75,1.25,5.76,1.68.42.07,1.13,0,1.39.59A15.76,15.76,0,0,0,777.55,187.21Zm18.52-8.5c1.93-1.31,4.2-1.12,6.38-1.94a3,3,0,0,0,1-.39h0l.12-.12-.12.12c2.66.12,5.42-1.74,7.92-.15,1.2.81-.52,2.1-1.5,2.6-4.71,2.2-10.27,4.17-15.09,2.06C793.56,180.39,795.4,179.19,796.07,178.71Z"/><path class="cls-59" d="M765.7,191.23c.89-2.54-3.55-11.47-2.26-11.79s12.3,1,14.59,1.26c1.69,1.13,3.75,1.25,5.76,1.68.42.07,1.13,0,1.39.59a15.76,15.76,0,0,0-7.63,4.24l0-.05C776.4,187.26,765.7,191.23,765.7,191.23Z"/><path class="cls-60" d="M822.9,187.42,816,180.94s-4,6.09-1.16,7.25S824.19,188.62,822.9,187.42Z"/><path class="cls-40" d="M828.56,186.9c-1.87-1.15-6.42-3.4-7.88-6.69s-.41,3.14.35,3.69S828.56,186.9,828.56,186.9Z"/><circle class="cls-41" cx="825.78" cy="175.67" r="1.71"/><ellipse class="cls-42" cx="826.8" cy="175.37" rx="0.51" ry="0.43" transform="matrix(1, -0.1, 0.1, 1, -12.92, 79.36)"/></g><g id="Fish3-3" data-name="Fish3"><path class="cls-36" d="M23.85,505.93c1.4-1,3-.82,4.63-1.41a2.14,2.14,0,0,0,.69-.29c1.93.09,3.94-1.26,5.75-.11.87.59-.38,1.53-1.09,1.89-3.42,1.6-7.45,3-10.95,1.5C22,507.14,23.36,506.27,23.85,505.93Z"/><path class="cls-61" d="M10.41,512.09c.32.55,4.52,7.52,11.05,7.69a48.12,48.12,0,0,0,11.89-1.13l-1.61,1.11s13.43-1.09,20-10l-.68-.67,1-1.21s-3.86-8.13-10-10-21.65,1.85-31,9.53l-.3,0a11.51,11.51,0,0,0,4.18,1.22c.3.05.82,0,1,.43A11.36,11.36,0,0,0,10.41,512.09Zm13.44-6.16c1.4-1,3-.82,4.63-1.41a2.14,2.14,0,0,0,.69-.29h0a.2.2,0,0,0,.09-.09.2.2,0,0,1-.09.09c1.93.09,3.94-1.26,5.75-.11.87.59-.38,1.53-1.09,1.89-3.42,1.6-7.45,3-10.95,1.5C22,507.14,23.36,506.27,23.85,505.93Z"/><path class="cls-62" d="M1.81,515c.65-1.85-2.58-8.33-1.64-8.55s8.92.71,10.59.91a11.51,11.51,0,0,0,4.18,1.22c.3.05.82,0,1,.43a11.36,11.36,0,0,0-5.54,3.07l0,0C9.57,512.13,1.81,515,1.81,515Z"/><path class="cls-63" d="M43.32,512.24l-5-4.7s-2.93,4.42-.84,5.26S44.26,513.11,43.32,512.24Z"/><path class="cls-40" d="M47.43,511.87c-1.36-.83-4.66-2.47-5.72-4.85s-.3,2.27.25,2.67S47.43,511.87,47.43,511.87Z"/><circle class="cls-41" cx="45.41" cy="503.72" r="1.24"/><ellipse class="cls-42" cx="46.15" cy="503.5" rx="0.37" ry="0.31" transform="translate(-47.64 6.66) rotate(-5.45)"/></g></g></g></g></svg>