<svg xmlns="http://www.w3.org/2000/svg" viewBox="0 0 376.61 158.88"><defs><style>.cls-1{fill:#809555;}.cls-2{fill:#8fa460;}</style></defs><g id="Layer_2" data-name="Layer 2"><g id="Layer_1-2" data-name="Layer 1"><g id="seaweed3"><path class="cls-1" d="M0,158.88s59.09-11.19,57.44-24S75,112.68,74.72,104.08s1.91-31.32,19.54-27.19,25.61,2.83,37.49-6.37,21.4-26.21,43.46-4.83,44.34,18.84,57.59,11.87,5.78-4.85,29.51,3,36.61-30.4,70.61-13.68c78.94,38.8,33.61-4.53-1.62-22.85s-55.38,5.49-67.87-4.34c-21.38-16.82-97-14.34-106.86-30.37-6-9.68-19.1,1.39-17.33-5C143.35-10.61,104,16.81,96.61,30.78,86.83,49.41,85.76,47,59.94,58S51.44,101,36.12,116.74,0,158.88,0,158.88Z"/><path class="cls-2" d="M349.62,65.62S332.48,53.44,321.81,53c-11.4-.5-30.53,11-35.62,9.42-4.87-1.47-40.4,1.54-45.75.45-5.59-1.15-12.79,11-20.63,12.79S206.15,75.2,205,73.27s22.23-4.32,20.76-11-10.89-7.62-19.51-5-11.68-5-28.23-10.77S146.05,46,141.22,49s-16.39,8.84-21,13-16.65,4.82-6.48-2.53,20.42-18.17,13.94-16.38-28.36,17.6-33.52,20.8-11.52,8-13.32,5.14S66.49,84.65,66.28,87.9,50.1,115.79,50.62,119.5s-22,22.12-22,22.12,13.77-18.81,16-22.43S62,89.66,61.22,84.79,75.38,70.2,76.76,66.67s8.76-13.92,15.1-21,15.76-12,11.28-7S93.73,53,93.73,53s13.44-5.66,17.81-13.73,11.4-24.84,16.61-28.07,1.6,15-1.91,19.39S141.47,35,152.8,36s27.55-2.36,34.16,4.7,28.68,8.09,31.79,3,15.69-8.78,10.47-4.71-3.88,10.59-3.88,10.59,13.87,9.1,22.08,5.79,40,1.71,46.39-.21C300,53.33,318.4,48.46,323.74,48,326.55,47.79,348.72,56.13,349.62,65.62Z"/></g></g></g></svg>