<svg xmlns="http://www.w3.org/2000/svg" viewBox="0 0 629.13 157.03"><defs><style>.cls-1{fill:#809555;}.cls-2{fill:#8fa460;}</style></defs><g id="Layer_2" data-name="Layer 2"><g id="Layer_1-2" data-name="Layer 1"><g id="seaweed2"><path class="cls-1" d="M216.46,71C204.09,61.9,195.9,56,198,45.71s-2.79-14.22-4.51-18.41,15.73,10,20.13,17.65,17.71,11.23,15.61,20.76S216.46,71,216.46,71Z"/><path class="cls-1" d="M629.13,137.26S491.73,169.65,494,151.5s-54-14.81-53.61-27S425.67,103,400.66,109s-36.33,4.1-53.22-8.9S317,62.94,285.76,93.35s-62.86,26.9-81.69,17.06-25.74-12-59.38-.7-34.56-37.89-82.75-14C-49.93,151,14.24,89.35,64.16,63.23s93.48,9.3,111.17-4.69C178.08,56.37,210.61,46,210.61,46s93.06-19,101.39-32.62c8.44-13.75,27.1,1.91,24.58-7.18-5.9-21.19,50.11,17.58,60.58,37.39,13.95,26.4,15.46,23,52.14,38.5S494,98.89,515.76,121.23,629.13,137.26,629.13,137.26Z"/><path class="cls-2" d="M38.25,93.9S62.52,76.54,77.67,75.85c16.17-.74,43.35,15.43,50.58,13.24,6.9-2.09,57.34,2,64.92.47,7.92-1.64,18.19,15.63,29.32,18.09s19.39-.68,21.09-3.43-31.57-6-29.51-15.53,15.43-10.86,27.67-7.11,16.56-7.1,40-15.39,45.29-.9,52.17,3.34S357.22,82,363.7,87.9s23.64,6.78,9.19-3.61-29-25.72-19.84-23.2S393.36,86,400.69,90.48s16.38,11.38,18.92,7.26,38.26,14.12,38.57,18.74,39.89,14.34,39.18,19.59,58.76,8.31,58.76,8.31-45.5-8.53-48.67-13.65-42.06-15-41-22-39.05-9.37-41-14.38S413,74.67,404,64.68s-22.4-17-16-9.9,13.41,20.3,13.41,20.3-19.1-8-25.33-19.43-16.27-35.21-23.68-39.77-2.22,21.26,2.78,27.51-21.58,6.29-37.67,7.75-39.1-3.26-48.45,6.78-40.67,11.59-45.11,4.42S201.58,49.93,209,55.7s5.54,15,5.54,15-19.64,13-31.31,8.3-56.75,2.56-65.84-.13c-8.77-2.61-34.91-9.45-42.49-10C70.92,68.51,39.49,80.42,38.25,93.9Z"/></g></g></g></svg>