<svg xmlns="http://www.w3.org/2000/svg" viewBox="0 0 461.58 138.42"><defs><style>.cls-1{fill:#78834e;}.cls-2{fill:#859559;}</style></defs><g id="Layer_2" data-name="Layer 2"><g id="Layer_1-2" data-name="Layer 1"><g id="seaweed1"><path class="cls-1" d="M0,138.42S28.34,85.08,55.9,94.6s68.44,4.58,74.56-6.47,32.11-2.91,43.67,2,20.74-10,29.78-14.35,29.35-6.56,41.3-14.42S240.4,32,249.51,30.86,277,43.94,284.19,40.53s17.15-10,24.24,3.8,19.78,17.72,33.24,19.83,55.62,8.07,68.86,1.89c30.81-14.38,51.05-22.18,51.05-22.18a256.31,256.31,0,0,0-44.38-3.72c-23.1.27-59.26,9.36-60.69.86s-3.27-14.31-14.72-12.7-25-10.58-32-14.28-19-19.55-30.09-12-23.35.87-36,2S222.46,20.12,206.4,19.06s-26.32-4-35,9.6-23.93,29.36-37,28.11S105.3,50.9,88.94,64.08,44.53,74,29.91,86.46,0,138.42,0,138.42Z"/><path class="cls-2" d="M44.62,87.82S95.73,84,103.38,74.29s4.06-8.64,13.76-5.12,31.57-4.5,37.59-9,11.52-17.27,19.46-17.65,11.67-8,12.66-11.06.9,18.53-6.17,19.57,6.08,13.54,12.28,2.32.58-17.47,7.54-20.28,19.54,2.64,24.64-3.27,7.41-7.71,12.94-10.4,26.13-5.62,29-3.54,21,4.89,22.88,1.92S305.2,22.52,305,25.62s20.15,17.76,24.25,14.89,23.56,9.56,33,11.51,36-1.65,36-1.65-8.18,8.87-14.53,6.17-24.06,5.18-36.27-2.87-29.26-9.27-33.35-12.24S302.3,27.77,294.26,29.29s-30.7-.27-38.07-4.21-17.39-1.62-24,6.26S213,42.88,207.36,41.72s-10.59,6.26,1,7.9,18.67,6.27,18.67,6.27-17,4.3-22.91,1.79-7.91,9-14.62,7.37-6.67,3.09-5.83,9.86,1.81,12.38-4.1,4.83c-5-6.35-5.48-15.56-4.9-19.84s-14,8.15-21.52,9.47-25.83,12.48-31.36,11-20.28,9.08-34.63,10S44.62,87.82,44.62,87.82Z"/></g></g></g></svg>