<svg xmlns="http://www.w3.org/2000/svg" xmlns:xlink="http://www.w3.org/1999/xlink" viewBox="0 0 388.62 202.83"><defs><style>.cls-1{fill:#93b155;}.cls-2{fill:#8cae50;}.cls-3{fill:#d2b592;}.cls-4{fill:#98b857;}.cls-5{fill:url(#linear-gradient);}.cls-6{fill:url(#linear-gradient-2);}.cls-7{fill:#e6e6e6;}.cls-8{fill:#1e1e1e;}.cls-9{fill:#849c44;}.cls-10{fill:#8da951;}.cls-11{fill:#806a3c;}.cls-12{fill:#91a955;}</style><linearGradient id="linear-gradient" x1="164.25" y1="122.65" x2="164.25" y2="0.9" gradientUnits="userSpaceOnUse"><stop offset="0" stop-color="#8a733d"/><stop offset="1" stop-color="#8a733d"/></linearGradient><linearGradient id="linear-gradient-2" x1="164.62" y1="123.65" x2="164.62" y2="-0.1" gradientUnits="userSpaceOnUse"><stop offset="0" stop-color="#bb9752"/><stop offset="0.37" stop-color="#8a733d"/></linearGradient></defs><g id="Layer_2" data-name="Layer 2"><g id="Layer_1-2" data-name="Layer 1"><g id="Turtle"><path class="cls-1" d="M293,90.82s19.6-20.63,36.14-21.65,47.17-13.27,52.27-21.44-10.49-4-10.49-4,14.78-2.1,16.82-7.21.21-6.12-3.27-9-6.73-8.78-11.63-9-13.69-8.17-20.22-5.93-20.42,9.6-30.63,14.5S277.1,37.53,277.1,37.53Z"/><path class="cls-2" d="M67.94,102.87s-58.42,25.67-57.13,29.2-7.07,5.19-5.46,8.21-7.06,8.48-3.53,10.09-6.1,12.2.64,12.52,29.21,1.28,50.39-11.56,40.76-40.76,45.9-41.08S67.94,102.87,67.94,102.87Z"/><path class="cls-2" d="M108.54,118.36S78.36,138,79.74,142.17s-6.09,6.92-4.15,8.85-3.14,10-.32,10.53,0,13.28,3.92,13,48.45-22.7,57-42.08S108.54,118.36,108.54,118.36Z"/><path class="cls-2" d="M214.23,119.52s-4.41,10-2.06,12.64-4.7,5.29-3.82,8.52-.45,8.52-.08,8.52-6.68,2.35-6.68,8.23-6.76,5.08-6.76,8.56-3.52,11.12-7.34,13.18c0,0,13.51,3.53,33.2-10.87s48.21-65.94,46-70.72S214.23,119.52,214.23,119.52Z"/><path class="cls-3" d="M53.35,86.29s44.22,49.94,89.18,48.94,108.43-14,117.67-27.1L268.48,70Z"/><path class="cls-2" d="M264.15,50.29s-13.85,92.21-12.57,94.78,2.92,9.76-.08,11.55,3.77,10.54,0,10.54-4,8.73-6.34,10.27-8,7.7-8,10.79-5.91,3.08-5.91,8.22-6.68,5.35-3.08,6.12,40.58-7.15,57-33.09,18-80.14,8.47-110.7-12.07-25.69-12.07-25.69Z"/><path class="cls-4" d="M264.15,50.29c-4.25,30.45-9.5,62.57-12.47,93.21a4.79,4.79,0,0,0,.58,2.77,20.11,20.11,0,0,1,.77,2.86c.4,2.5.91,6-1.5,7.68-1,.72-.63,2.14-.38,3.23.46,2.15,1.87,4.18,1.64,6.44-.2,1-1.27.78-2,1-2.57,1.33-2.84,5-3.92,7.46a5.9,5.9,0,0,1-1.53,2.59,19,19,0,0,0-2.21,1.89c-2.3,2.41-4.79,5-5.69,8.29l-.08.71c-.07,1.36-1.39,2.22-2.35,2.87-1.6,1-3.2,2.31-3.46,4.3a8.67,8.67,0,0,1-.47,2.93c-.65,1.71-2.39,2.64-3.73,3.61,0,0,0-.07,0-.05a5.36,5.36,0,0,0,3.06.22,59.89,59.89,0,0,0,8.58-1.86c18.49-5.46,36.91-15.74,47-32.7a86.14,86.14,0,0,0,8.49-21.79c7-29.43,7-64-2.73-92.78-2.26-6.4-4.19-13.16-7.92-18.9l-.45-.57-.53-.5c-.33-.28-.92-.5-1.2-.06L264.15,50.29Zm0,0L281.59,33h0a.65.65,0,0,1,.7-.29c.71.13,1.25.88,1.68,1.41,3.78,5.73,5.75,12.5,8,18.91,9.84,28.79,9.87,63.47,2.9,93a86.68,86.68,0,0,1-8.5,21.91c-10.13,17.11-28.63,27.48-47.27,32.92a60.53,60.53,0,0,1-8.65,1.86,6.61,6.61,0,0,1-3-.12c-1-.38-.38-.95.25-1.3,1.63-.92,3.18-2.35,3.32-4.32a5.85,5.85,0,0,1,1.41-4.2c1.23-1.48,3.46-2.09,4.36-3.77l.11-.31,0-.33a9.83,9.83,0,0,1,2.06-4.76,29,29,0,0,1,6.1-6.4c2-2.13,2-5.43,3.47-8a4.17,4.17,0,0,1,2.09-2.15c.44-.19,1-.06,1.41-.27s.42-.67.38-1.12c-.32-2.36-1.7-4.62-1.93-7.07a2.19,2.19,0,0,1,.79-2.12l.55-.44c1.58-1.88,1.18-4.61.81-6.9a19.39,19.39,0,0,0-.75-2.81,5.12,5.12,0,0,1-.59-2.89c.4-6.84,1.83-16.5,2.67-23.38,3.11-23.31,6.61-46.57,10.12-69.82Z"/><path class="cls-5" d="M57.67,116.31s-9.43,5.17-12.48,0S40.33,106.58,34.55,106s-7.91-4-2.43-9.13S66.18,67.64,68,59.73s41-40.23,54.72-50S188.45.42,191.5,1.34s92.76,30.41,100.06,30.72,10,4.56,6.39,8.21S257.8,93.5,233.17,102s-72.7,18.86-103.72,20.08S60.1,123,57.67,116.31Z"/><path class="cls-6" d="M57.67,116.31a22.64,22.64,0,0,1-4.55,1.82,10.54,10.54,0,0,1-4.86.38,4.76,4.76,0,0,1-1.17-.4,5.85,5.85,0,0,1-.56-.28l-.48-.39a7.68,7.68,0,0,1-1.46-2c-.82-1.41-1.61-2.84-2.51-4.2a13.16,13.16,0,0,0-3.25-3.56,9.22,9.22,0,0,0-4.5-1.57,8.15,8.15,0,0,1-4.63-1.75,3.07,3.07,0,0,1-1-2.35,5.21,5.21,0,0,1,.78-2.42,16.49,16.49,0,0,1,3.26-3.74l3.64-3.29L43.67,86c4.81-4.42,9.58-8.89,14.1-13.59,2.25-2.35,4.47-4.74,6.47-7.29a25.49,25.49,0,0,0,2.65-4,10.37,10.37,0,0,0,.44-1.06l.17-.55.22-.65c.16-.42.38-.78.57-1.17L69,56.63a63.57,63.57,0,0,1,6.43-7.52c2.28-2.35,4.64-4.63,7-6.87C92,33.31,102,24.88,112.28,16.72c2.56-2,5.15-4,7.78-6l2-1.46c.32-.24.71-.46,1.06-.7a10.28,10.28,0,0,1,1.11-.64l1.12-.59,1.16-.5c.76-.35,1.55-.61,2.33-.9a98.71,98.71,0,0,1,19.34-4c6.52-.81,13.06-1.29,19.61-1.59S180.88-.1,187.46.1c.82,0,1.64.06,2.48.13.42,0,.84.07,1.29.12a9.5,9.5,0,0,1,1.31.36l4.68,1.5,9.33,3,18.67,6c12.45,4,24.91,7.93,37.4,11.76,6.24,1.92,12.49,3.82,18.76,5.61,1.57.43,3.14.89,4.71,1.29l2.36.59c.39.09.79.21,1.17.28l1.12.19c.39,0,.71.15,1.16.17s.85.06,1.28.12a14.61,14.61,0,0,1,2.57.57A9.36,9.36,0,0,1,298.2,33a5.76,5.76,0,0,1,1.92,2.21,4.24,4.24,0,0,1,.19,3.05,6,6,0,0,1-1.47,2.45c-1.08,1.16-2.08,2.44-3.12,3.7L289.53,52c-4.15,5.06-8.39,10.06-12.75,15s-8.84,9.68-13.54,14.27a157.84,157.84,0,0,1-14.81,13,78.81,78.81,0,0,1-8.26,5.48c-.73.39-1.45.82-2.2,1.18s-1.5.72-2.26,1.06l-2.35.91-2.34.76c-6.24,2-12.54,3.82-18.89,5.45q-19,4.85-38.38,8.26a364,364,0,0,1-38.95,5c-6.54.38-13.07.49-19.62.6s-13.08.1-19.62,0-13.07-.42-19.59-1a93.75,93.75,0,0,1-9.71-1.38,32.1,32.1,0,0,1-4.73-1.29,13.24,13.24,0,0,1-2.22-1.05A4.1,4.1,0,0,1,57.67,116.31Zm0,0a4.09,4.09,0,0,0,1.66,1.74,13.88,13.88,0,0,0,2.22,1,31.14,31.14,0,0,0,4.74,1.23A92.72,92.72,0,0,0,76,121.55c6.51.54,13,.73,19.57.79s13.07,0,19.6-.19,13.07-.39,19.57-.85a365,365,0,0,0,38.79-5.23q19.26-3.52,38.21-8.51c6.31-1.67,12.58-3.49,18.76-5.55,6.23-1.78,11.69-5.31,16.88-9.18A155.15,155.15,0,0,0,262,80c4.65-4.56,9.08-9.34,13.42-14.21s8.54-9.87,12.67-14.92l6.16-7.62c1-1.26,2.05-2.56,3.2-3.79a3.13,3.13,0,0,0,.93-3.43,3.77,3.77,0,0,0-1.28-1.43,7.64,7.64,0,0,0-2-.93,13.14,13.14,0,0,0-2.21-.48c-.38,0-.77-.06-1.15-.1s-.85-.12-1.27-.18l-1.3-.22c-.42-.08-.81-.19-1.21-.28l-2.41-.59c-1.59-.41-3.16-.87-4.74-1.3-6.31-1.78-12.57-3.66-18.83-5.58Q243.3,19.09,224.63,13L206,7l-9.33-3L192,2.46a6.82,6.82,0,0,0-1.05-.3c-.36-.05-.75-.09-1.15-.12-.79-.06-1.6-.1-2.41-.13-6.49-.21-13-.1-19.53.17s-13,.74-19.48,1.53a98.56,98.56,0,0,0-19,3.89c-.75.28-1.52.52-2.24.85l-1.1.47L125,9.36a7.16,7.16,0,0,0-1,.58c-.33.22-.66.39-1,.64L121,12c-2.62,1.92-5.22,3.91-7.79,5.91C103,26,92.9,34.34,83.29,43.16c-2.4,2.21-4.76,4.46-7,6.78a63.65,63.65,0,0,0-6.36,7.32l-.64,1c-.16.34-.38.68-.5,1l-.18.51-.2.62a9.2,9.2,0,0,1-.51,1.2,26.17,26.17,0,0,1-2.79,4.15,95.8,95.8,0,0,1-6.6,7.32C53.86,77.74,49,82.16,44.16,86.53L36.81,93l-3.67,3.25a15.94,15.94,0,0,0-3.21,3.57,4.81,4.81,0,0,0-.74,2.19,2.63,2.63,0,0,0,.81,2,7.83,7.83,0,0,0,4.38,1.69A9.5,9.5,0,0,1,39,107.44a13.51,13.51,0,0,1,3.27,3.68c.89,1.38,1.67,2.82,2.47,4.24a7.28,7.28,0,0,0,1.4,2l.46.39c.17.1.36.18.54.28a4.9,4.9,0,0,0,1.13.4,10.56,10.56,0,0,0,4.83-.32A23,23,0,0,0,57.67,116.31Z"/><g id="turtle_eye"><path class="cls-7" d="M365.79,25c.1,1.95-.88,3.6-2.55,3.81s-3-.53-3.31-2.67c-.27-1.82,1.24-2.62,2.86-3.08S365.68,22.81,365.79,25Z"/><path class="cls-8" d="M365.15,26.28c-.14,1.12-.16,1.82-.9,1.91s-1-.36-1.14-1.54.35-1.74,1.09-1.69S365.3,25.09,365.15,26.28Z"/><path class="cls-7" d="M365.16,26c-.06.39,0,.55-.31.55s-.37-.15-.33-.54,0-.49.32-.51S365.23,25.64,365.16,26Z"/></g><path class="cls-9" d="M299.54,100.55s-18.67-5.64-17.26,3.69,17.05,9.08,17.05,9.08Z"/><path class="cls-9" d="M298.19,127s-21-9.63-22.41-4.3,20.15,18.07,20.25,17.57S298.19,127,298.19,127Z"/><path class="cls-9" d="M290.76,158.37s-17.24-18-20.35-12.31,11.79,27.69,11.79,27.69Z"/><path class="cls-9" d="M21.27,124.9s-1.72,14.53,3.32,13.38,7.27-18.74,7.27-18.74Z"/><circle class="cls-9" cx="261.34" cy="124.66" r="2.01"/><circle class="cls-9" cx="260.39" cy="135" r="3.28"/><circle class="cls-9" cx="268.04" cy="129.41" r="1.23"/><circle class="cls-9" cx="265.24" cy="119.27" r="1.57"/><circle class="cls-9" cx="260.83" cy="147.4" r="1.5"/><circle class="cls-9" cx="45.75" cy="136.83" r="3.87"/><circle class="cls-9" cx="41.15" cy="127.19" r="2.54"/><circle class="cls-9" cx="33.46" cy="141.84" r="1.6"/><circle class="cls-9" cx="22.4" cy="144.85" r="1.41"/><circle class="cls-10" cx="57.5" cy="127.55" r="0.35"/><path class="cls-11" d="M53.35,89.94s-11.61,5.16-9.66,7.74S45.8,109.6,51.77,108s11.92-2.21,12.4.18,8.78,3.14,10.23,2.49,4.1-14.43,0-16.21S55.67,88.83,53.35,89.94Z"/><path class="cls-11" d="M79.48,110.66s24.31,2.76,30.27.4,5.71-7.66,5.18-10.86c-.78-4.64-4-6.87-14.67-6.23s-16.64.1-19.7,3.81S77.27,110.43,79.48,110.66Z"/><path class="cls-11" d="M118.65,107.63s3.8-5.24,1.36-7.32-.85-6.85,1.23-6.82,32.93-6.22,34.81-2.3,11.23,14,6.72,15.84-42.77,5.4-45.57,4.68S118.65,107.63,118.65,107.63Z"/><path class="cls-11" d="M160.92,90.82s2.41,12.28,8,13.77,24-.34,25.57-3.35c1.93-3.57,6-3.52,6.39-4.24,3.45-5.61-1.48-13.27-8.14-13.55S159.94,86,160.92,90.82Z"/><path class="cls-11" d="M205.28,90.82s-10-9.66,3.05-13,27.32-11,28.43-6,7.12,13.8,0,15.88c-6.67,1.94-22.21,11.69-27.21,8.18S205.28,90.82,205.28,90.82Z"/><path class="cls-11" d="M239.67,65.74S262,50.39,265,48.39c3.49-2.36,23.11-10,24.62-9.46C292.46,40,274,55.64,272.14,57.07S248.6,86.42,244.71,80.52C240.68,74.41,237.26,67.56,239.67,65.74Z"/><path class="cls-11" d="M93.33,44.76s41.11-.37,59-5.86,58-6.95,64.59-10.1,18.35-2.26,15.57-11.33c-.67-2.17-39.83-13.23-45-13.23s-45.1,1.49-55.38,5.06C123.24,12.38,89.88,37.73,93.33,44.76Z"/><path class="cls-11" d="M57.85,84.18s26-34.2,32.09-34.7S121.2,47.39,125,47c4.34-.49,16.36-2.47,15.94,5.67s5.36,30.8-.86,33.7c-6,2.81-22.33,6.15-24.94,3.41s-21.18-.6-27.85,0S58.83,87.82,57.85,84.18Z"/><path class="cls-11" d="M144.14,47.36S145.82,64.67,146,68c.21,3.68-2.26,15,1.6,16.92s14.38-2.53,19.31-3.53,21.68-2.84,24.36-2.88,26.86-5.38,28.39-8.51-7.46-34.37-14.92-34.23-31,2.79-35.7,4.39S144.68,43.55,144.14,47.36Z"/><path class="cls-11" d="M213,36.72a2.68,2.68,0,0,1,1.4-3.25c5.3-2.52,19.69-7.93,21.95-10.22,3.8-3.85,23.13,3,31.11,5.61s14.84,4.14,15.06,5.82C283,37.75,256.36,48,252.3,51.52s-22.62,17.92-25.47,15C224.21,63.8,215.67,44.82,213,36.72Z"/><path class="cls-12" d="M359.43,24.68a16.33,16.33,0,0,1,3.76-1.35,10.47,10.47,0,0,0,2.42-.6s-3.49-1.77-5-.63A6.11,6.11,0,0,0,359.43,24.68Z"/><path class="cls-12" d="M360.1,28.51c.09-.33,5.45-.54,5.81-.81s1.18.27.82.51-3.79,1.82-4.65,1.57S360.05,28.71,360.1,28.51Z"/><circle class="cls-9" cx="301.34" cy="74.17" r="0.31"/><circle class="cls-9" cx="301.7" cy="71.34" r="0.68"/><circle class="cls-9" cx="302.18" cy="78.4" r="1.16"/><circle class="cls-9" cx="303.45" cy="75.45" r="0.58"/></g></g></g></svg>